<svg width="468" height="80" viewBox="0 0 468 80" fill="none" xmlns="http://www.w3.org/2000/svg">
<path fill-rule="evenodd" clip-rule="evenodd" d="M23.1825 51.8182V76.2804C23.1825 78.3265 21.5144 80.0001 19.475 80.0001H3.70752C1.66812 80.0001 0 78.3265 0 76.2804V51.8182H23.1825Z" fill="#FF9293"/>
<path fill-rule="evenodd" clip-rule="evenodd" d="M0 23.1818L0.0130142 3.41356C0.170333 1.53931 1.74046 0.0298227 3.64934 0H23.1825V23.1818H0Z" fill="#FF5C4B"/>
<path fill-rule="evenodd" clip-rule="evenodd" d="M0 23.1818H23.1825V28.6363H0V23.1818Z" fill="#FF9293"/>
<path fill-rule="evenodd" clip-rule="evenodd" d="M0 28.6364H23.1825V51.8182H0V28.6364Z" fill="#FF5C4B"/>
<path fill-rule="evenodd" clip-rule="evenodd" d="M42.9445 51.8182L23.1826 51.7971V28.6364H42.743C44.2427 28.6364 45.456 27.4053 45.456 25.9091C45.456 24.4129 44.2427 23.1976 42.743 23.1976H23.1826V0.0103347L42.9445 0C48.2418 0 53.1723 1.5858 57.2795 4.30268L57.2745 47.5415C53.1673 50.2584 48.2418 51.8182 42.9445 51.8182Z" fill="#FFA082"/>
<path fill-rule="evenodd" clip-rule="evenodd" d="M57.2795 4.30273C63.499 8.41281 67.8233 15.4076 68.6385 23.1819H57.2745L57.2795 4.30273Z" fill="#FF6014"/>
<path fill-rule="evenodd" clip-rule="evenodd" d="M68.5007 28.6363H57.2745V23.1818L68.5003 23.1821C68.5913 24.0787 68.6385 24.9919 68.6385 25.9131C68.6385 26.8327 68.5913 27.7409 68.5007 28.6363Z" fill="#FF7941"/>
<path fill-rule="evenodd" clip-rule="evenodd" d="M68.5007 28.6364C68.1132 32.4235 67.0544 35.9675 65.2246 39.0909L57.2745 28.6364H68.5007Z" fill="#FF5204"/>
<path fill-rule="evenodd" clip-rule="evenodd" d="M65.2246 39.0909C63.1834 42.5112 60.617 45.3452 57.2795 47.5353V28.6364L65.2246 39.0909Z" fill="#FF6014"/>
<path fill-rule="evenodd" clip-rule="evenodd" d="M80.4239 59.5744V76.2875C80.4239 78.3297 78.7606 80.0001 76.7271 80.0001H60.9385C58.9053 80.0001 57.239 78.3297 57.2415 76.2875L57.2745 51.8182H74.6782L80.4239 59.5744Z" fill="#FFC180"/>
<path fill-rule="evenodd" clip-rule="evenodd" d="M105.003 51.2931L86.0906 28.6644L99.5927 28.6648C101.08 28.6648 102.286 27.4502 102.286 25.9515C102.286 24.4529 101.08 23.2383 99.5927 23.2383L80.462 23.1818V0H99.5927C108.757 0 117.172 4.81848 121.737 12.0823C114.761 19.2931 110.091 29.1506 110.091 40.0163C110.091 43.1613 110.686 46.2005 111.367 49.1365C109.376 50.1437 107.248 50.8327 105.003 51.2931Z" fill="#FFCB4D"/>
<path fill-rule="evenodd" clip-rule="evenodd" d="M123.632 74.1018C125.66 76.5574 124.078 79.9999 121.305 79.9999H99.6944C96.4551 79.9999 94.6704 78.0956 93.5323 76.6113L80.4239 59.5743L80.457 51.8181H99.6681C101.444 51.8181 103.328 51.635 105.003 51.2931L123.632 74.1018Z" fill="#FFD92E"/>
<path fill-rule="evenodd" clip-rule="evenodd" d="M80.462 51.8182L80.4239 59.5744L74.6782 51.8182H80.462Z" fill="#FF9A27"/>
<path fill-rule="evenodd" clip-rule="evenodd" d="M99.7878 51.8147H80.4621L80.4571 28.6364L86.0906 28.6644L105.003 51.2931C103.318 51.6349 101.574 51.8147 99.7878 51.8147Z" fill="#FFAD0E"/>
<path fill-rule="evenodd" clip-rule="evenodd" d="M75.0024 51.8182H57.2745V47.5451C60.5327 45.377 63.1243 42.5258 65.2246 39.0909L75.0024 51.8182Z" fill="#FF9A27"/>
<path fill-rule="evenodd" clip-rule="evenodd" d="M74.6782 51.8182L65.2246 39.0909C67.0557 35.9705 68.1077 32.4199 68.5007 28.6364H80.4571V51.8182H74.6782Z" fill="#FF8307"/>
<path fill-rule="evenodd" clip-rule="evenodd" d="M80.462 0V23.1818H68.5027C67.7025 15.5121 63.4972 8.41531 57.2795 4.30268V3.70915C57.2967 1.67095 58.9453 0 60.9881 0H80.462Z" fill="#FF9A27"/>
<path fill-rule="evenodd" clip-rule="evenodd" d="M179.097 11.8059V68.1941C171.807 75.4851 161.711 80 150.553 80C131.491 80 115.525 66.8251 111.367 49.1365C119.909 44.8738 125.771 36.0885 125.771 25.9408C125.771 20.8442 124.292 16.0917 121.737 12.0823C129.047 4.62987 139.255 0 150.553 0C161.711 0 171.807 4.5149 179.097 11.8059ZM150.459 23.1818C159.748 23.1818 167.278 30.7112 167.278 40C167.278 49.2885 159.748 56.8182 150.459 56.8182C141.17 56.8182 133.641 49.2885 133.641 40C133.641 30.7112 141.17 23.1818 150.459 23.1818Z" fill="#E6EC26"/>
<path fill-rule="evenodd" clip-rule="evenodd" d="M179.097 11.8182C182.273 15.0912 184.905 18.944 186.824 23.1819H179.097V11.8182Z" fill="#1BAB10"/>
<path fill-rule="evenodd" clip-rule="evenodd" d="M111.367 49.1365C107.474 35.5165 112.692 21.163 121.737 12.0823C124.291 16.0661 125.771 20.8767 125.771 25.9408C125.771 36.0239 119.906 44.901 111.367 49.1365Z" fill="#E6BC0B"/>
<path fill-rule="evenodd" clip-rule="evenodd" d="M179.097 56.8181V23.1818H186.86C189.174 28.3002 190.461 34.0059 190.461 40.0165C190.461 46.027 189.178 51.7027 186.868 56.8181H179.097Z" fill="#77D118"/>
<path fill-rule="evenodd" clip-rule="evenodd" d="M186.824 56.8182C184.906 61.0624 182.29 64.9926 179.097 68.1819V56.8182H186.824Z" fill="#1BAB10"/>
<path fill-rule="evenodd" clip-rule="evenodd" d="M399.558 0H419.51C421.035 0 422.151 0.874043 422.772 1.98772C412.659 5.59128 405.938 13.0818 405.094 23.1818H399.558V0Z" fill="#DB83CF"/>
<path fill-rule="evenodd" clip-rule="evenodd" d="M202.284 23.1818H186.826C184.855 18.9324 182.495 15.4281 179.102 11.8182V3.4915C179.214 1.5514 180.836 0 182.804 0L202.284 0.00535624V23.1818Z" fill="#1EB96F"/>
<path fill-rule="evenodd" clip-rule="evenodd" d="M182.708 80.0001C180.783 79.9499 179.212 78.4089 179.102 76.5013L179.097 68.1949C182.363 64.9104 184.852 61.0718 186.824 56.8182H202.279V80.0001C199.688 80.0001 184.765 80.0001 182.708 80.0001Z" fill="#1EB96F"/>
<path fill-rule="evenodd" clip-rule="evenodd" d="M202.279 56.8181H186.831C189.154 51.7027 190.451 46.0251 190.451 40.0149C190.451 34.0047 189.15 28.3002 186.824 23.1818H202.279V56.8181Z" fill="#84E2A0"/>
<path fill-rule="evenodd" clip-rule="evenodd" d="M238.645 11.8175V44.9982C238.663 51.2699 240.457 57.6607 243.369 62.7273C236.283 73.0221 223.973 80 210.458 80L202.279 79.9985V56.8182H210.458C219.606 56.8182 227.021 48.9969 227.021 39.779C227.021 30.5611 219.606 23.0886 210.458 23.0886L202.279 23.0848V0H210.458V0.012192C221.379 0.012573 231.5 4.59414 238.645 11.8175Z" fill="#3AD1B1"/>
<path fill-rule="evenodd" clip-rule="evenodd" d="M273.19 80C260.409 80 249.344 73.086 243.369 62.7273C247.754 56.3163 250.462 48.3459 250.462 40C250.462 28.7496 244.914 18.133 238.644 11.8175V3.69952C238.644 1.66452 240.302 0 242.329 0H258.142C260.169 0 261.827 1.66452 261.827 3.69952V45.4122C261.879 51.7479 266.868 56.8675 273.19 56.8675C279.513 56.8675 284.511 51.7479 284.561 45.4122L284.563 3.69952C284.563 1.66452 286.221 0 288.248 0H304.052C306.079 0 307.737 1.66452 307.737 3.69952V11.9117C300.531 19.1286 296.072 29.1088 296.072 40.1348C296.072 48.5269 298.657 56.3121 303.069 62.7353C297.085 73.0593 285.946 80 273.19 80Z" fill="#3CD3E6"/>
<path fill-rule="evenodd" clip-rule="evenodd" d="M238.645 11.8175C245.948 18.9963 250.462 29.3534 250.462 40.2895C250.462 48.6175 247.842 56.3447 243.369 62.7273C240.38 57.6706 238.662 51.8033 238.645 45.5439V11.8175Z" fill="#0EADA0"/>
<path fill-rule="evenodd" clip-rule="evenodd" d="M303.069 62.7353C298.599 56.3013 296.057 48.495 296.057 40.0888C296.058 29.0442 300.435 19.1407 307.736 11.9117L307.737 45.375C307.718 51.6992 306.059 57.6335 303.069 62.7353Z" fill="#16A5DF"/>
<path fill-rule="evenodd" clip-rule="evenodd" d="M336.006 56.9204C342.151 56.9204 347.52 53.6101 350.425 48.6784C351.378 47.0673 353.256 45.8635 354.988 45.8635H358.448H370.744C373.46 45.8635 375.101 48.0817 374.392 50.7933L374.184 51.5909C369.287 68.0191 353.963 80 335.919 80C322.305 80 310.253 73.1394 303.068 62.7353C305.976 57.6285 307.72 51.7687 307.737 45.4698V11.9117C314.943 4.73447 324.937 0 335.919 0C342.188 0 348.372 1.46483 353.647 4.04117V19.396C353.647 21.4263 355.301 23.1818 357.334 23.1818H372.284C372.814 24.3247 373.447 26.2187 374.184 28.8637L374.392 29.6612C375.101 32.3729 373.46 34.591 370.744 34.591H358.448H354.988C353.256 34.591 351.378 33.3873 350.426 31.7761C347.52 26.8445 342.151 23.5342 336.006 23.5342C326.772 23.5342 319.288 31.0079 319.288 40.2273C319.288 49.4466 326.772 56.9204 336.006 56.9204Z" fill="#5EC8F7"/>
<path fill-rule="evenodd" clip-rule="evenodd" d="M353.647 4.04114C361.838 8.15488 368.447 14.6717 372.284 23.1818H357.334C355.307 23.1818 353.647 21.4784 353.647 19.396V4.04114Z" fill="#5167C9"/>
<path fill-rule="evenodd" clip-rule="evenodd" d="M400.013 0V23.1818H388.421H376.83V0C384.557 0 392.285 0 400.013 0Z" fill="#DB43A6"/>
<path fill-rule="evenodd" clip-rule="evenodd" d="M376.83 23.1818H372.284C368.415 14.866 362.202 8.48581 353.647 4.04117C353.647 2.00183 355.32 0 357.365 0H376.83V23.1818Z" fill="#DB83CF"/>
<path fill-rule="evenodd" clip-rule="evenodd" d="M400.013 76.3157C400.013 78.3415 398.344 79.9999 396.305 79.9999H380.537C378.498 79.9999 376.83 78.3423 376.83 76.3157V23.1818H400.013V76.3157Z" fill="#FF82CC"/>
<path fill-rule="evenodd" clip-rule="evenodd" d="M80.462 28.6363H68.5007C68.5933 27.74 68.6369 26.8311 68.6369 25.9102C68.6369 24.9885 68.5934 24.0788 68.5003 23.1818H80.462V28.6363Z" fill="#FFC180"/>
<path fill-rule="evenodd" clip-rule="evenodd" d="M422.772 1.98767C413.131 5.42026 406.022 12.5847 405.094 23.1818H419.534C421.582 23.1818 423.195 21.5043 423.195 19.4535V3.75678C423.195 3.11321 423.062 2.51769 422.772 1.98767Z" fill="#DB4D80"/>
<path fill-rule="evenodd" clip-rule="evenodd" d="M436.788 80C454.034 80 467.675 70.9795 467.675 54.6388C467.675 42.2129 460.777 34.8928 447.92 31.6589L433.966 28.0852C430.674 27.4042 429.105 26.2122 429.105 23.8293C429.105 20.4255 432.084 18.7236 435.69 18.7236C440.346 18.7236 443.055 20.4255 443.762 25.4697L443.764 25.477C444.165 26.4461 445.078 27.1241 446.14 27.1241H463.875C465.307 27.1241 466.467 25.896 466.467 24.3798C466.467 24.1193 466.467 0 435.064 0C430.626 0 426.535 0.680223 422.741 1.98772C423.031 2.51602 423.195 3.12028 423.195 3.76175V19.4657C423.195 21.5098 421.523 23.1818 419.48 23.1818H405.094C405.017 24.0255 404.959 24.9883 404.959 25.8722C404.959 39.319 412.642 45.4468 424.401 48.1696L438.199 51.2335C441.648 52.0844 443.687 53.1068 443.687 56.0008C443.687 59.5745 440.551 61.2764 436.475 61.2764C432.676 61.2764 428.715 59.6882 427.651 53.9801C427.244 53.0283 426.339 52.3661 425.286 52.3661H406.696C405.264 52.3661 404.103 53.5941 404.103 55.1088C404.103 55.3808 404.103 55.605 404.103 55.8892C403.997 70.3806 420.087 80 436.788 80Z" fill="#FF969E"/>
</svg>
