<svg width="16" height="16" viewBox="0 0 16 16" fill="none" xmlns="http://www.w3.org/2000/svg">
<path fill-rule="evenodd" clip-rule="evenodd" d="M8 0C6.41775 0 4.87104 0.469185 3.55545 1.34824C2.23986 2.22729 1.21448 3.47673 0.608979 4.93854C0.00347757 6.40035 -0.154964 8.00888 0.153717 9.56073C0.462399 11.1126 1.22432 12.538 2.34314 13.6569C3.46196 14.7757 4.88742 15.5376 6.43927 15.8463C7.99112 16.155 9.59965 15.9965 11.0615 15.391C12.5233 14.7855 13.7727 13.7602 14.6518 12.4446C15.5308 11.129 16 9.58225 16 8C16 5.87827 15.1572 3.84343 13.6569 2.34314C12.1566 0.842849 10.1217 0 8 0ZM11 9H9V11C9 12.023 8.572 12 8 12C7.428 12 7 12 7 11V9H5C3.965 9 4 8.573 4 8C4 7.427 3.968 7 5 7H7V5C7 4.028 7.428 4 8 4C8.13853 3.96209 8.28463 3.9615 8.42346 3.99831C8.56229 4.03511 8.68891 4.10799 8.79047 4.20955C8.89202 4.31111 8.96491 4.43773 9.00171 4.57655C9.03851 4.71538 9.03791 4.86147 9 5V7H11C11.2652 7 11.5196 7.10536 11.7071 7.29289C11.8946 7.48043 12 7.73478 12 8C12 8.26522 11.8946 8.51957 11.7071 8.70711C11.5196 8.89464 11.2652 9 11 9Z" fill="#888888"/>
</svg>
