<svg width="23" height="23" viewBox="0 0 23 23" fill="none" xmlns="http://www.w3.org/2000/svg">
<path fill-rule="evenodd" clip-rule="evenodd" d="M18 0H21C21.5304 0 22.0391 0.210712 22.4142 0.585785C22.7893 0.960858 23 1.46957 23 2V5C23 5.53043 22.7893 6.03914 22.4142 6.41422C22.0391 6.78929 21.5304 7 21 7H18C17.4696 7 16.9609 6.78929 16.5858 6.41422C16.2107 6.03914 16 5.53043 16 5V2C16 1.46957 16.2107 0.960858 16.5858 0.585785C16.9609 0.210712 17.4696 0 18 0ZM18 8H21C21.5304 8 22.0391 8.21071 22.4142 8.58578C22.7893 8.96086 23 9.46957 23 10V13C23 13.5304 22.7893 14.0391 22.4142 14.4142C22.0391 14.7893 21.5304 15 21 15H18C17.4696 15 16.9609 14.7893 16.5858 14.4142C16.2107 14.0391 16 13.5304 16 13V10C16 9.46957 16.2107 8.96086 16.5858 8.58578C16.9609 8.21071 17.4696 8 18 8ZM18 16H21C21.5304 16 22.0391 16.2107 22.4142 16.5858C22.7893 16.9609 23 17.4696 23 18V21C23 21.5304 22.7893 22.0391 22.4142 22.4142C22.0391 22.7893 21.5304 23 21 23H18C17.4696 23 16.9609 22.7893 16.5858 22.4142C16.2107 22.0391 16 21.5304 16 21V18C16 17.4696 16.2107 16.9609 16.5858 16.5858C16.9609 16.2107 17.4696 16 18 16ZM10 0H13C13.5304 0 14.0391 0.210712 14.4142 0.585785C14.7893 0.960858 15 1.46957 15 2V5C15 5.53043 14.7893 6.03914 14.4142 6.41422C14.0391 6.78929 13.5304 7 13 7H10C9.46957 7 8.96086 6.78929 8.58578 6.41422C8.21071 6.03914 8 5.53043 8 5V2C8 1.46957 8.21071 0.960858 8.58578 0.585785C8.96086 0.210712 9.46957 0 10 0ZM10 8H13C13.5304 8 14.0391 8.21071 14.4142 8.58578C14.7893 8.96086 15 9.46957 15 10V13C15 13.5304 14.7893 14.0391 14.4142 14.4142C14.0391 14.7893 13.5304 15 13 15H10C9.46957 15 8.96086 14.7893 8.58578 14.4142C8.21071 14.0391 8 13.5304 8 13V10C8 9.46957 8.21071 8.96086 8.58578 8.58578C8.96086 8.21071 9.46957 8 10 8ZM10 16H13C13.5304 16 14.0391 16.2107 14.4142 16.5858C14.7893 16.9609 15 17.4696 15 18V21C15 21.5304 14.7893 22.0391 14.4142 22.4142C14.0391 22.7893 13.5304 23 13 23H10C9.46957 23 8.96086 22.7893 8.58578 22.4142C8.21071 22.0391 8 21.5304 8 21V18C8 17.4696 8.21071 16.9609 8.58578 16.5858C8.96086 16.2107 9.46957 16 10 16ZM2 0H5C5.53043 0 6.03914 0.210712 6.41422 0.585785C6.78929 0.960858 7 1.46957 7 2V5C7 5.53043 6.78929 6.03914 6.41422 6.41422C6.03914 6.78929 5.53043 7 5 7H2C1.46957 7 0.960858 6.78929 0.585785 6.41422C0.210712 6.03914 0 5.53043 0 5V2C0 1.46957 0.210712 0.960858 0.585785 0.585785C0.960858 0.210712 1.46957 0 2 0ZM2 8H5C5.53043 8 6.03914 8.21071 6.41422 8.58578C6.78929 8.96086 7 9.46957 7 10V13C7 13.5304 6.78929 14.0391 6.41422 14.4142C6.03914 14.7893 5.53043 15 5 15H2C1.46957 15 0.960858 14.7893 0.585785 14.4142C0.210712 14.0391 0 13.5304 0 13V10C0 9.46957 0.210712 8.96086 0.585785 8.58578C0.960858 8.21071 1.46957 8 2 8ZM2 16H5C5.53043 16 6.03914 16.2107 6.41422 16.5858C6.78929 16.9609 7 17.4696 7 18V21C7 21.5304 6.78929 22.0391 6.41422 22.4142C6.03914 22.7893 5.53043 23 5 23H2C1.46957 23 0.960858 22.7893 0.585785 22.4142C0.210712 22.0391 0 21.5304 0 21V18C0 17.4696 0.210712 16.9609 0.585785 16.5858C0.960858 16.2107 1.46957 16 2 16Z" fill="#888888"/>
</svg>
