<svg width="16" height="16" viewBox="0 0 16 16" fill="none" xmlns="http://www.w3.org/2000/svg">
<path fill-rule="evenodd" clip-rule="evenodd" d="M1.28351 0C0.943366 0 0.617091 0.134994 0.376164 0.375409C0.256947 0.494167 0.162342 0.635343 0.0977876 0.790825C0.0332331 0.946306 0 1.11303 0 1.28141C0 1.44979 0.0332331 1.61651 0.0977876 1.77199C0.162342 1.92748 0.256947 2.06865 0.376164 2.18741L6.18617 7.99787L0.376225 13.8074C0.144986 14.0501 0.0178588 14.3738 0.0220742 14.7092C0.0262896 15.0446 0.161512 15.365 0.398778 15.6018C0.636043 15.8385 0.956482 15.9729 1.29146 15.976C1.62643 15.9791 1.94931 15.8507 2.19092 15.6184L7.99916 9.81101L13.8061 15.6184C14.046 15.8598 14.3717 15.9958 14.7118 15.9967C15.0518 15.9975 15.3783 15.8631 15.6193 15.6229C15.8603 15.3828 15.9962 15.0566 15.9971 14.7161C15.9979 14.3756 15.8636 14.0488 15.6238 13.8074L9.8132 7.99722L15.6239 2.18741C15.7431 2.06865 15.8377 1.92748 15.9022 1.77199C15.9668 1.61651 16 1.44979 16 1.28141C16 1.11303 15.9668 0.946306 15.9022 0.790825C15.8377 0.635343 15.7431 0.494167 15.6239 0.375409C15.3829 0.134994 15.0567 0 14.7165 0C14.3764 0 14.0501 0.134994 13.8092 0.375409L8.00001 6.18416L2.19086 0.375409C1.94993 0.134994 1.62365 0 1.28351 0Z" fill="#888888"/>
</svg>
