<svg width="14" height="16" viewBox="0 0 14 16" fill="none" xmlns="http://www.w3.org/2000/svg">
<path d="M10 0H4V1H10V0Z" fill="#888888"/>
<path fill-rule="evenodd" clip-rule="evenodd" d="M3.66196 4H13.009V13.333C13.0087 13.6835 12.9394 14.0305 12.8051 14.3542C12.6707 14.678 12.4739 14.972 12.2258 15.2197C11.9778 15.4673 11.6834 15.6637 11.3595 15.7976C11.0356 15.9315 10.6885 16.0003 10.338 16H3.66196C3.31146 16.0003 2.96436 15.9315 2.64044 15.7976C2.31652 15.6637 2.02213 15.4673 1.77411 15.2197C1.52608 14.972 1.32927 14.678 1.1949 14.3542C1.06053 14.0305 0.991229 13.6835 0.990967 13.333V4H3.66196Z" fill="#888888"/>
<path fill-rule="evenodd" clip-rule="evenodd" d="M12.2 1H1.8C0.511003 1 0 1.6 0 3H14C14 1.666 13.417 1 12.2 1Z" fill="#888888"/>
</svg>
