<svg width="16" height="12" viewBox="0 0 16 12" fill="none" xmlns="http://www.w3.org/2000/svg">
<path fill-rule="evenodd" clip-rule="evenodd" d="M13.9814 0.0212947H1.99734C0.478362 0.0212947 0 0.673136 0 2.01775L7.98935 6.96695L15.9787 2.01775C16.0216 1.7458 15.9995 1.46757 15.9143 1.20577C15.8291 0.943976 15.6832 0.706029 15.4884 0.51136C15.2937 0.316691 15.0556 0.170818 14.7937 0.0856486C14.5318 0.000478856 14.2534 -0.0215721 13.9814 0.0212947ZM8.1841 8.96539C8.12249 8.99148 8.05626 9.00492 7.98935 9.00492C7.92244 9.00492 7.85621 8.99148 7.7946 8.96539L0 4.0142V9.00532C0 11.4011 0.5253 12 2.99601 12H12.9827C15.4314 12 15.9787 11.448 15.9787 9.00532V4.0142L8.1841 8.96539Z" fill="#888888"/>
</svg>
