<svg width="16" height="10" viewBox="0 0 16 10" fill="none" xmlns="http://www.w3.org/2000/svg">
<path fill-rule="evenodd" clip-rule="evenodd" d="M3.14971 1.37561C4.57717 0.483467 6.26773 0.00400204 8 0C9.73227 0.00400204 11.4228 0.483467 12.8503 1.37561C14.2778 2.26775 15.3756 3.53097 16 4.99985C15.3794 6.4711 14.2825 7.73664 12.8542 8.62936C11.4259 9.52209 9.73333 10 8 10C6.26667 10 4.5741 9.52209 3.14579 8.62936C1.71747 7.73664 0.6206 6.4711 0 4.99985C0.624418 3.53097 1.72224 2.26775 3.14971 1.37561ZM8.00005 8.18182C9.81934 8.18182 11.2942 6.75727 11.2942 5C11.2942 3.24273 9.81934 1.81818 8.00005 1.81818C6.18076 1.81818 4.70593 3.24273 4.70593 5C4.70593 6.75727 6.18076 8.18182 8.00005 8.18182Z" fill="#878787"/>
<path d="M9.41191 5.00036C9.41191 5.75347 8.77984 6.36399 8.00014 6.36399C7.22045 6.36399 6.58838 5.75347 6.58838 5.00036C6.58838 4.24724 7.22045 3.63672 8.00014 3.63672C8.77984 3.63672 9.41191 4.24724 9.41191 5.00036Z" fill="#878787"/>
</svg>
