<svg width="16" height="16" viewBox="0 0 16 16" fill="none" xmlns="http://www.w3.org/2000/svg">
<path fill-rule="evenodd" clip-rule="evenodd" d="M6.39892 12.6007L6.39959 12.6001C6.6538 11.6138 7.12938 10.7821 7.73953 10.2292C6.91694 10.2696 5.99242 10.0176 5.1152 9.49994C4.65824 9.7696 4.21405 10.1113 3.80393 10.5214C3.22379 11.1015 2.78058 11.7497 2.48462 12.406C3.15792 12.6608 3.92965 12.8054 4.74993 12.8054C5.32984 12.8054 5.88528 12.7331 6.39892 12.6007Z" fill="#E52141"/>
<path fill-rule="evenodd" clip-rule="evenodd" d="M3.15148 15.8479L6.39963 12.6001C5.88595 12.7324 5.3305 12.8048 4.75063 12.8048C3.93031 12.8048 3.15863 12.6601 2.48528 12.4054C1.93364 13.6287 1.89393 14.8804 2.43589 15.7736C2.57098 16.0437 2.95823 16.0767 3.15148 15.8479Z" fill="#E93F8F"/>
<path fill-rule="evenodd" clip-rule="evenodd" d="M7.7395 10.2292C8.24921 9.76723 8.85293 9.49994 9.50006 9.49994C9.04247 9.95757 8.42651 10.1953 7.7395 10.2292Z" fill="#B52728"/>
<path fill-rule="evenodd" clip-rule="evenodd" d="M12.6008 6.39912L12.6001 6.39974C11.6139 6.65395 10.7822 7.12954 10.2292 7.73973C10.2697 6.91713 10.0177 5.99257 9.5 5.1154C9.7697 4.65839 10.1114 4.21424 10.5215 3.80413C11.1016 3.22399 11.7498 2.78078 12.4061 2.48477C12.6608 3.15812 12.8055 3.9298 12.8055 4.75012C12.8055 5.32999 12.7331 5.88543 12.6008 6.39912Z" fill="#04A34D"/>
<path fill-rule="evenodd" clip-rule="evenodd" d="M15.8486 3.15097L12.6008 6.39911C12.7332 5.88543 12.8056 5.32999 12.8056 4.75012C12.8056 3.9298 12.6609 3.15811 12.4061 2.48477C13.6294 1.93312 14.8812 1.89342 15.7744 2.43533C16.0444 2.57047 16.0775 2.95772 15.8486 3.15097Z" fill="#48BED8"/>
<path fill-rule="evenodd" clip-rule="evenodd" d="M6.39941 12.6006C6.65362 11.6141 7.1293 10.782 7.73963 10.229C8.42659 10.1951 9.0425 9.95748 9.50005 9.49994L6.39941 12.6006Z" fill="#D52427"/>
<path fill-rule="evenodd" clip-rule="evenodd" d="M12.6008 6.39932C11.6143 6.65348 10.7822 7.12921 10.2292 7.73954C10.1953 8.4265 9.95767 9.04237 9.50012 9.49996L12.6008 6.39932Z" fill="#038A41"/>
<path fill-rule="evenodd" clip-rule="evenodd" d="M10.2293 7.73935C9.76742 8.24906 9.50012 8.85278 9.50012 9.49991C9.95776 9.04227 10.1955 8.42636 10.2293 7.73935Z" fill="#20743B"/>
<path fill-rule="evenodd" clip-rule="evenodd" d="M0 9.50008C0 8.24543 1.00459 7.15398 2.48459 6.59412C2.78055 7.25036 3.22399 7.89847 3.80408 8.47856C4.21424 8.88872 4.65839 9.23037 5.1154 9.50008C4.65843 9.76974 4.21424 10.1115 3.80413 10.5216C3.22399 11.1017 2.78078 11.7499 2.48481 12.4062C1.00468 11.8464 0 10.7549 0 9.50008Z" fill="#ED7872"/>
<path fill-rule="evenodd" clip-rule="evenodd" d="M9.50014 9.49995C8.85315 9.49995 8.24965 9.23257 7.73999 8.77087C8.42687 8.80482 9.04264 9.04241 9.50014 9.49995Z" fill="#A62927"/>
<path fill-rule="evenodd" clip-rule="evenodd" d="M6.59394 2.48395L6.59528 2.48453L6.59573 2.48475C6.6278 2.49927 6.65991 2.51409 6.69193 2.52928L6.69608 2.53124C6.72618 2.54558 6.75633 2.56023 6.78643 2.57514L6.79777 2.58086C6.82747 2.59564 6.85713 2.61074 6.88674 2.62615L6.89205 2.62892C6.92318 2.64517 6.95431 2.66174 6.9853 2.67867L6.9887 2.6805C7.02041 2.69783 7.05212 2.71547 7.08369 2.73342L7.08467 2.734L7.08548 2.7344C7.11763 2.75271 7.1497 2.77138 7.18167 2.79041C7.21276 2.8089 7.2438 2.82765 7.27479 2.84681L7.28194 2.85128C7.3119 2.86981 7.34178 2.88875 7.37162 2.90791L7.37697 2.9113C7.40676 2.93051 7.43651 2.95011 7.46616 2.96994L7.47022 2.97262L7.47545 2.97615C7.50488 2.99593 7.53431 3.01594 7.56357 3.03635L7.56477 3.0372L7.5654 3.0376L7.56767 3.03921C7.59773 3.0602 7.62774 3.08146 7.65767 3.10307L7.66343 3.10727C7.69295 3.12862 7.72229 3.15024 7.75154 3.17221L7.75694 3.17627C7.81719 3.22156 7.87704 3.26814 7.93639 3.31602L7.93996 3.31887L7.94537 3.32329C7.97417 3.34665 8.00294 3.37023 8.03156 3.39422L8.03187 3.39444C8.06037 3.41833 8.08873 3.44254 8.11704 3.46701L8.12294 3.4721L8.12696 3.47568C8.15532 3.50037 8.18363 3.52534 8.21177 3.55062L8.21471 3.55325C8.24374 3.57942 8.27268 3.60586 8.30144 3.63266L8.30363 3.63471C8.33213 3.66129 8.36058 3.68821 8.38876 3.71541L8.39255 3.71912C8.42136 3.7469 8.44998 3.77503 8.47843 3.80348C8.88855 4.2136 9.23024 4.65779 9.49995 5.11475C8.98211 5.99211 8.73032 6.91671 8.77087 7.73936C8.21788 7.12898 7.38586 6.65335 6.39936 6.3991C6.26694 5.88524 6.19446 5.32953 6.19446 4.74948C6.19446 3.92916 6.33925 3.15729 6.59394 2.48395Z" fill="#B6BA24"/>
<path fill-rule="evenodd" clip-rule="evenodd" d="M2.78197 2.78217C3.66915 1.89499 5.15125 1.83353 6.59369 2.48415C6.3389 3.15754 6.1942 3.92936 6.1942 4.74972C6.1942 5.32977 6.26668 5.88543 6.3991 6.3993C5.88533 6.26683 5.32957 6.1944 4.74957 6.1944C3.92916 6.1944 3.15743 6.33932 2.48404 6.59411C1.83329 5.15162 1.89466 3.66943 2.78197 2.78217Z" fill="#FDD347"/>
<path fill-rule="evenodd" clip-rule="evenodd" d="M9.50013 0C10.7548 0 11.8462 1.00455 12.4061 2.48455C11.7499 2.78055 11.1017 3.22399 10.5217 3.80408C10.1115 4.21424 9.76984 4.65839 9.50013 5.1154C9.23048 4.65843 8.88873 4.21424 8.47862 3.80413C7.89848 3.22399 7.25032 2.78078 6.59399 2.48477C7.15386 1.00464 8.24531 0 9.50013 0Z" fill="#B4CF55"/>
<path fill-rule="evenodd" clip-rule="evenodd" d="M6.39954 6.39938C7.38604 6.65359 8.21806 7.12922 8.77104 7.73964C8.80494 8.42656 9.04262 9.04238 9.50013 9.49993C9.04258 9.04234 8.42671 8.80475 7.73975 8.77085C7.12942 8.21782 6.65379 7.38584 6.39954 6.39938Z" fill="#BB5829"/>
<path fill-rule="evenodd" clip-rule="evenodd" d="M9.50003 5.11505C10.0178 5.99236 10.2698 6.91705 10.2292 7.7397C9.76746 8.24936 9.50008 8.8529 9.50008 9.49989C9.50008 8.85281 9.23261 8.24932 8.77082 7.73961C8.73031 6.91696 8.98224 5.99236 9.50003 5.11505Z" fill="#009843"/>
<path fill-rule="evenodd" clip-rule="evenodd" d="M6.39917 6.39926L6.39983 6.39988C6.654 7.38612 7.12963 8.21787 7.73978 8.77081C6.91718 8.73035 5.99262 8.98232 5.11545 9.50003C4.65844 9.23037 4.21429 8.88867 3.80417 8.47855C3.22404 7.89842 2.78083 7.25026 2.48486 6.59393C3.15816 6.33919 3.92989 6.19449 4.75017 6.19449C5.33004 6.19449 5.88553 6.26688 6.39917 6.39926Z" fill="#EB5F25"/>
<path fill-rule="evenodd" clip-rule="evenodd" d="M5.11523 9.49996C5.99254 8.98221 6.91724 8.73015 7.73988 8.77074C8.24954 9.23253 8.85308 9.49996 9.50008 9.49996C8.85299 9.49996 8.24954 9.76738 7.73979 10.2292C6.91719 10.2697 5.99254 10.0177 5.11523 9.49996Z" fill="#DF2125"/>
<path fill-rule="evenodd" clip-rule="evenodd" d="M8.77075 7.73935C9.23267 8.24906 9.50001 8.85278 9.50001 9.49991C9.04238 9.04227 8.80456 8.42636 8.77075 7.73935Z" fill="#52562C"/>
</svg>
