<svg width="24" height="23" viewBox="0 0 24 23" fill="none" xmlns="http://www.w3.org/2000/svg">
<path fill-rule="evenodd" clip-rule="evenodd" d="M10.6632 2H22.5C23.3284 2 24 2.67157 24 3.5C24 4.32843 23.3284 5 22.5 5H10.6632C10.1015 6.18247 8.8962 7 7.5 7C6.1038 7 4.89855 6.18247 4.33682 5H1.5C0.671573 5 0 4.32843 0 3.5C0 2.67157 0.671573 2 1.5 2H4.33682C4.89855 0.817526 6.1038 0 7.5 0C8.8962 0 10.1015 0.817526 10.6632 2ZM1.5 10C0.671573 10 0 10.6716 0 11.5C0 12.3284 0.671573 13 1.5 13H13.3368C13.8985 14.1825 15.1038 15 16.5 15C17.8962 15 19.1015 14.1825 19.6632 13H22.5C23.3284 13 24 12.3284 24 11.5C24 10.6716 23.3284 10 22.5 10H19.6632C19.1015 8.81753 17.8962 8 16.5 8C15.1038 8 13.8985 8.81753 13.3368 10H1.5ZM0 19.5C0 18.6716 0.671573 18 1.5 18H4.33682C4.89855 16.8175 6.1038 16 7.5 16C8.8962 16 10.1015 16.8175 10.6632 18H22.5C23.3284 18 24 18.6716 24 19.5C24 20.3284 23.3284 21 22.5 21H10.6632C10.1015 22.1825 8.8962 23 7.5 23C6.1038 23 4.89855 22.1825 4.33682 21H1.5C0.671573 21 0 20.3284 0 19.5Z" fill="#888888"/>
</svg>
