<svg width="16" height="16" viewBox="0 0 16 16" fill="none" xmlns="http://www.w3.org/2000/svg">
<path fill-rule="evenodd" clip-rule="evenodd" d="M7.00072 2.00733H13.9889C14.2593 1.9726 14.5341 2.00036 14.7922 2.08845C15.0502 2.17654 15.2847 2.3226 15.4775 2.51546C15.6703 2.70831 15.8163 2.94281 15.9044 3.20094C15.9925 3.45907 16.0202 3.73396 15.9855 4.00449V13.9903C16.0126 14.2592 15.9796 14.5309 15.8888 14.7855C15.7981 15.0402 15.6519 15.2714 15.4608 15.4626C15.2697 15.6537 15.0385 15.8 14.7839 15.8908C14.5293 15.9815 14.2578 16.0146 13.9889 15.9874H2.00919C1.73926 16.0196 1.46556 15.99 1.2087 15.901C0.951844 15.8119 0.718525 15.6658 0.526309 15.4736C0.334094 15.2813 0.187997 15.0479 0.0990101 14.791C0.0100233 14.534 -0.0195281 14.2603 0.0125784 13.9903V2.00733C-0.0160415 1.73804 0.0159347 1.46575 0.106154 1.21043C0.196374 0.955102 0.342551 0.723193 0.533987 0.531706C0.725422 0.340218 0.957267 0.194031 1.21252 0.103787C1.46778 0.0135423 1.73998 -0.0184579 2.00919 0.0101698H4.0058C4.39486 0.00064066 4.78032 0.0866972 5.12841 0.26079C5.4765 0.434882 5.7766 0.691699 6.00241 1.00875L7.00072 2.00733ZM9.59021 5.28844C9.98073 4.89792 10.6139 4.89792 11.0044 5.28844L11.7242 6.00823C12.1147 6.39875 12.1147 7.03191 11.7242 7.42244L11.3643 7.78233L9.23031 5.64833L9.59021 5.28844ZM8.87467 6.00393L11.0087 8.13792L7.09634 12.0502L4.96234 9.91625L8.87467 6.00393ZM6.74062 12.406L4.60662 10.272L4.05435 11.9288C3.95687 12.2212 4.03298 12.5437 4.25096 12.7616C4.46893 12.9796 4.79135 13.0557 5.0838 12.9582L6.74062 12.406Z" fill="#888888"/>
</svg>
