<svg width="16" height="15" viewBox="0 0 16 15" fill="none" xmlns="http://www.w3.org/2000/svg">
<path fill-rule="evenodd" clip-rule="evenodd" d="M13.9889 2.00703H7.99903L7.00072 1.00854C6.77503 0.69139 6.47496 0.434493 6.12684 0.260402C5.77872 0.0863099 5.3932 0.000344814 5.00411 0.0100474H2.00919C1.74002 -0.0183883 1.46789 0.0137183 1.21272 0.104022C0.957552 0.194325 0.725791 0.340535 0.534398 0.531964C0.343005 0.723393 0.196822 0.955227 0.106535 1.21044C0.0162486 1.46566 -0.0158521 1.73781 0.0125784 2.00703V12.9904C-0.0195281 13.2604 0.0100233 13.5341 0.0990101 13.791C0.187997 14.048 0.334094 14.2814 0.526309 14.4736C0.718525 14.6659 0.951844 14.8119 1.2087 14.9009C1.46556 14.9899 1.73926 15.0195 2.00919 14.9874H13.9889C14.2578 15.0145 14.5293 14.9815 14.7839 14.8908C15.0385 14.8 15.2697 14.6537 15.4608 14.4626C15.6519 14.2714 15.7981 14.0402 15.8888 13.7856C15.9796 13.531 16.0126 13.2594 15.9855 12.9904V4.00401C16.0202 3.73351 15.9925 3.45865 15.9044 3.20054C15.8163 2.94243 15.6703 2.70796 15.4775 2.51511C15.2847 2.32227 15.0502 2.17622 14.7922 2.08815C14.5341 2.00007 14.2593 1.9723 13.9889 2.00703Z" fill="#888888"/>
</svg>
