<svg width="16" height="16" viewBox="0 0 16 16" fill="none" xmlns="http://www.w3.org/2000/svg">
<path fill-rule="evenodd" clip-rule="evenodd" d="M16 8C16 12.4183 12.4183 16 8 16C3.58172 16 0 12.4183 0 8C0 3.58172 3.58172 0 8 0C12.4183 0 16 3.58172 16 8ZM10.016 5.2771L7.24542 8.50806L5.952 7.34399C5.72714 7.14868 5.4393 7.04114 5.14148 7.04114C4.84366 7.04114 4.55585 7.14868 4.33099 7.34399C4.22571 7.43445 4.14124 7.54663 4.08331 7.67285C4.02539 7.79895 3.99542 7.93616 3.99542 8.07495C3.99542 8.21375 4.02539 8.35095 4.08331 8.47717C4.14124 8.60327 4.22571 8.71545 4.33099 8.80603L6.43097 10.6959C6.65594 10.8911 6.94373 10.9985 7.24149 10.9985C7.27417 10.9985 7.3067 10.9972 7.33905 10.9946C7.37039 10.9971 7.40189 10.9983 7.4335 10.9983C7.7312 10.9983 8.01895 10.891 8.24399 10.696L11.636 6.73804C11.7412 6.64771 11.8257 6.53552 11.8836 6.40955C11.9415 6.28345 11.9715 6.14636 11.9715 6.00757C11.9715 5.86877 11.9415 5.73169 11.8836 5.60559C11.8257 5.47949 11.7412 5.36743 11.636 5.2771C11.4111 5.08228 11.1235 4.97498 10.826 4.97498C10.5284 4.97498 10.2409 5.08228 10.016 5.2771Z" fill="#0FAB60"/>
</svg>
