<svg width="24" height="24" viewBox="0 0 24 24" fill="none" xmlns="http://www.w3.org/2000/svg">
<path opacity="0.4" fill-rule="evenodd" clip-rule="evenodd" d="M23 12C23 18.0751 18.0751 23 12 23C11.7953 23 11.5919 22.9944 11.39 22.9834L8.86862 18.781C8.66562 18.4427 8.1691 18.4618 7.99266 18.8147L7.2 20.4C6.15517 20.4 2.63304 17.5251 2.41099 12.5C2.3988 12.2241 2.17614 12 1.89999 12H1C1 5.92487 5.92487 1 12 1C12.1349 1 12.2692 1.00243 12.4029 1.00724L13.9865 4.96622C14.1467 5.36678 14.705 5.39001 14.8979 5.00413L15.6 3.60001C16.6448 3.60001 21.2922 6.47581 21.5855 11.5001C21.6016 11.7758 21.8239 12 22.1 12H23ZM12 24C18.6274 24 24 18.6274 24 12C24 5.32755 20.0251 2.13671 16.3398 0.808783C14.9939 0.286496 13.5304 0 12 0C5.37258 0 0 5.37258 0 12C0 18.6774 3.97991 21.8678 7.6672 23.1939C9.01116 23.7145 10.4722 24 12 24ZM9.05009 10.8251C8.87915 10.9145 8.66353 10.9592 8.40323 10.9592H7.48248V11.4196V11.9324V12.3753H8.40323C8.6713 12.3753 8.90246 12.4161 9.09672 12.4977C9.29097 12.5754 9.4386 12.7036 9.53961 12.8823C9.64451 13.061 9.69696 13.2941 9.69696 13.5816C9.69696 13.8885 9.59012 14.1449 9.37644 14.3508C9.16665 14.5528 8.87333 14.6539 8.49648 14.6539C8.27891 14.6539 8.08272 14.6092 7.90789 14.5198C7.73695 14.4305 7.59903 14.312 7.49413 14.1643C7.39312 14.0128 7.34262 13.8438 7.34262 13.6573H5.51276C5.51276 14.0847 5.59628 14.4538 5.76334 14.7646C5.93428 15.0715 6.15962 15.326 6.43934 15.528C6.71906 15.7261 7.03375 15.8738 7.38341 15.9709C7.73306 16.068 8.0866 16.1166 8.44403 16.1166C9.02678 16.1166 9.54932 16.0195 10.0116 15.8252C10.474 15.6271 10.8411 15.3415 11.1131 14.9685C11.385 14.5956 11.521 14.143 11.521 13.6107C11.521 13.2766 11.4588 12.9736 11.3345 12.7016C11.2102 12.4297 11.0276 12.1985 10.7867 12.0081C10.5963 11.8576 10.3718 11.7351 10.1134 11.6404C10.3153 11.5455 10.4951 11.4311 10.6527 11.2972C10.8897 11.099 11.0723 10.8737 11.2005 10.6212C11.3287 10.3648 11.3928 10.0967 11.3928 9.81697C11.3928 9.2886 11.2685 8.84571 11.0198 8.48828C10.7712 8.12698 10.4254 7.85502 9.98251 7.67242C9.53961 7.48594 9.02678 7.3927 8.44403 7.3927C7.9312 7.3927 7.46111 7.48788 7.03375 7.67825C6.6064 7.86473 6.26451 8.13086 6.0081 8.47663C5.75557 8.8224 5.62931 9.23227 5.62931 9.70625H7.44751C7.44751 9.53142 7.49607 9.38185 7.5932 9.25752C7.69421 9.12932 7.82436 9.03219 7.98365 8.96615C8.14294 8.89621 8.31388 8.86125 8.49648 8.86125C8.74123 8.86125 8.94131 8.90593 9.09672 8.99528C9.256 9.08075 9.3745 9.19925 9.4522 9.35077C9.5299 9.4984 9.56875 9.66545 9.56875 9.85194C9.56875 10.0773 9.52601 10.2735 9.44054 10.4405C9.35507 10.6037 9.22492 10.7319 9.05009 10.8251ZM15.4313 14.4732H14.6737V9.04773H15.4371C15.8684 9.04773 16.2316 9.14292 16.5269 9.33328C16.8221 9.52365 17.0455 9.80532 17.197 10.1783C17.3486 10.5512 17.4243 11.0155 17.4243 11.5711V11.9324C17.4243 12.4841 17.3486 12.9483 17.197 13.3252C17.0455 13.702 16.8221 13.9876 16.5269 14.1818C16.2316 14.3761 15.8664 14.4732 15.4313 14.4732ZM14.6737 7.51508H15.4371C16.2064 7.51508 16.8843 7.68602 17.4709 8.02791C18.0576 8.36979 18.516 8.84765 18.8462 9.46149C19.1765 10.0714 19.3416 10.7785 19.3416 11.5827V11.9324C19.3416 12.7405 19.1765 13.4495 18.8462 14.0594C18.516 14.6694 18.0576 15.1453 17.4709 15.4872C16.8843 15.8291 16.2044 16 15.4313 16H14.6737H13.5898H12.7739V7.51508H13.5548H14.6737Z" fill="#888888"/>
</svg>
