<svg width="24" height="24" viewBox="0 0 24 24" fill="none" xmlns="http://www.w3.org/2000/svg">
<path fill-rule="evenodd" clip-rule="evenodd" d="M6 1H18C18.5523 1 19 1.44772 19 2V7C19 7.55228 18.5523 8 18 8H6C5.44772 8 5 7.55228 5 7V2C5 1.44772 5.44772 1 6 1ZM18 0H6C4.89543 0 4 0.89543 4 2V7C4 8.10457 4.89543 9 6 9H18C19.1046 9 20 8.10457 20 7V2C20 0.89543 19.1046 0 18 0ZM14 7L12 4.00936C11 2.65062 9.968 2.67654 9 4.00936L7 7H14ZM21 14C21 12.8954 20.1046 12 19 12H5C3.89543 12 3 12.8954 3 14V19H10H14H21V14ZM1.5 17H0.5C0.223858 17 0 17.2239 0 17.5V22.5C0 22.7761 0.223858 23 0.5 23H1.5C1.77614 23 2 22.7761 2 22.5V24H5V23H19V24H22V22.5C22 22.7761 22.2239 23 22.5 23H23.5C23.7761 23 24 22.7761 24 22.5V17.5C24 17.2239 23.7761 17 23.5 17H22.5C22.2239 17 22 17.2239 22 17.5V20H2V17.5C2 17.2239 1.77614 17 1.5 17ZM14 4.93515C14 4.93515 15.023 2.83106 16 4.93515L17 7H15C14.9013 6.78729 14.7687 6.53507 14.6304 6.27204C14.386 5.80736 14.1239 5.30895 14 4.93515Z" fill="#888888"/>
</svg>
