<svg width="16" height="14" viewBox="0 0 16 14" fill="none" xmlns="http://www.w3.org/2000/svg">
<path d="M0 2C0 0.895431 0.895431 0 2 0H14C15.1046 0 16 0.895431 16 2C16 3.10457 15.1046 4 14 4H2C0.895431 4 0 3.10457 0 2Z" fill="#888888"/>
<path d="M0 7C0 5.89543 0.895431 5 2 5H14C15.1046 5 16 5.89543 16 7C16 8.10457 15.1046 9 14 9H2C0.895431 9 0 8.10457 0 7Z" fill="#888888"/>
<path d="M0 12C0 10.8954 0.895431 10 2 10H14C15.1046 10 16 10.8954 16 12C16 13.1046 15.1046 14 14 14H2C0.895431 14 0 13.1046 0 12Z" fill="#888888"/>
</svg>
