<svg width="16" height="16" viewBox="0 0 16 16" fill="none" xmlns="http://www.w3.org/2000/svg">
<path fill-rule="evenodd" clip-rule="evenodd" d="M13.0628 6.85542e-07H2.93217C2.1551 0.000794588 1.41005 0.310196 0.860394 0.860373C0.310735 1.41055 0.00132249 2.1566 0 2.93494V13.0681C0.00158778 13.846 0.311179 14.5916 0.860866 15.1413C1.41055 15.6909 2.15546 15.9997 2.93217 16H13.0628C13.4479 16.0007 13.8293 15.9253 14.1853 15.7784C14.5413 15.6314 14.8649 15.4156 15.1377 15.1433C15.4104 14.8711 15.6269 14.5477 15.7749 14.1916C15.9229 13.8355 15.9993 13.4538 16 13.0681V2.93494C15.9987 2.15574 15.6886 1.40893 15.1378 0.858609C14.5871 0.308288 13.8408 -0.000531054 13.0628 6.85542e-07ZM7.998 13.2693C6.95807 13.2681 5.94183 12.9581 5.0777 12.3786C4.21358 11.7991 3.54037 10.976 3.14313 10.0134C2.7459 9.05074 2.64248 7.99177 2.84594 6.97027C3.0494 5.94878 3.55061 5.01062 4.28623 4.27436C5.02185 3.5381 5.95887 3.03678 6.97886 2.83377C7.99885 2.63075 9.05603 2.73515 10.0168 3.13376C10.9776 3.53237 11.7988 4.2073 12.3767 5.07327C12.9547 5.93924 13.2633 6.95737 13.2637 7.999C13.2616 9.3968 12.706 10.7367 11.7188 11.7247C10.7317 12.7127 9.39353 13.2682 7.998 13.2693ZM13.4326 3.82382C13.1863 3.82363 12.9456 3.75026 12.7409 3.613C12.5362 3.47574 12.3767 3.28076 12.2827 3.05272C12.1887 2.82468 12.1643 2.57383 12.2126 2.3319C12.2609 2.08997 12.3798 1.86782 12.5542 1.69357C12.7285 1.51932 12.9506 1.4008 13.1923 1.35298C13.4339 1.30516 13.6843 1.3302 13.9118 1.42494C14.1392 1.51968 14.3335 1.67985 14.47 1.8852C14.6066 2.09055 14.6792 2.33185 14.6788 2.57858C14.678 2.90911 14.5464 3.22584 14.3128 3.45928C14.0791 3.69272 13.7626 3.82383 13.4326 3.82382ZM7.998 4.95996C7.3976 4.96075 6.81092 5.13983 6.31212 5.47455C5.81332 5.80928 5.4248 6.28461 5.19567 6.84048C4.96655 7.39634 4.90711 8.00777 5.02487 8.59747C5.14264 9.18716 5.4323 9.72864 5.85727 10.1535C6.28224 10.5783 6.82341 10.8673 7.41238 10.9841C8.00135 11.1009 8.61166 11.0402 9.16617 10.8096C9.72068 10.579 10.1945 10.1889 10.5277 9.68864C10.8609 9.18836 11.0385 8.60037 11.0381 7.999C11.036 7.19261 10.7148 6.41993 10.145 5.85029C9.57513 5.28064 8.80308 4.96048 7.998 4.95996Z" fill="#888888"/>
</svg>
