<svg width="16" height="16" viewBox="0 0 16 16" fill="none" xmlns="http://www.w3.org/2000/svg">
<path fill-rule="evenodd" clip-rule="evenodd" d="M9.75374 6.24958C9.56341 6.05999 9.35259 5.8921 9.12515 5.74897C8.40714 5.28829 7.55292 5.08675 6.70437 5.17781C5.85583 5.26887 5.064 5.64706 4.46039 6.24958L1.05981 9.65367C0.374249 10.3578 -0.0064034 11.3031 8.15198e-05 12.2852C0.00656644 13.2673 0.399658 14.2074 1.09446 14.9025C1.78925 15.5975 2.72997 15.9917 3.71337 15.9999C4.69677 16.008 5.6439 15.6295 6.35015 14.946L9.15723 12.1427C9.2078 12.0918 9.23625 12.0231 9.23643 11.9514C9.2363 11.9164 9.22924 11.8817 9.21565 11.8494C9.20207 11.817 9.18223 11.7877 9.15726 11.7631C9.1323 11.7384 9.10271 11.7189 9.07019 11.7057C9.03767 11.6925 9.00286 11.6858 8.96776 11.6861H8.86048C8.27376 11.6872 7.69246 11.5739 7.14916 11.3527C7.10036 11.3327 7.04674 11.3275 6.99501 11.3379C6.94328 11.3482 6.89577 11.3736 6.85843 11.4108L4.84034 13.4322C4.53909 13.7328 4.13062 13.9016 3.70477 13.9014C3.27893 13.9012 2.8706 13.7321 2.56961 13.4312C2.26863 13.1304 2.09964 12.7224 2.09983 12.2971C2.10002 11.8719 2.26937 11.4641 2.57062 11.1635L5.97922 7.75939C6.27996 7.45951 6.68758 7.29107 7.11257 7.29107C7.53756 7.29107 7.94519 7.45951 8.24594 7.75939C8.44941 7.95074 8.71835 8.0573 8.99783 8.0573C9.27732 8.0573 9.54626 7.95074 9.74973 7.75939C9.85014 7.66102 9.92998 7.5437 9.98461 7.41425C10.0392 7.2848 10.0675 7.1458 10.0679 7.00532C10.0683 6.86485 10.0407 6.7257 9.98678 6.59596C9.93285 6.46622 9.85363 6.34848 9.75374 6.24958ZM14.9098 1.09539C14.5624 0.748129 14.1499 0.472651 13.6958 0.284697C13.2418 0.0967438 12.7551 0 12.2636 0C11.7721 0 11.2854 0.0967438 10.8313 0.284697C10.3773 0.472651 9.96477 0.748129 9.61739 1.09539L6.81031 3.89875C6.77258 3.93617 6.74698 3.98405 6.73679 4.03617C6.7266 4.08829 6.73231 4.14226 6.75317 4.1911C6.77395 4.2404 6.80901 4.28238 6.85385 4.31164C6.89868 4.3409 6.95125 4.3561 7.0048 4.3553H7.10506C7.68929 4.35544 8.268 4.46831 8.80936 4.6877C8.85806 4.70783 8.91163 4.71316 8.96335 4.70301C9.01507 4.69286 9.06263 4.66768 9.10008 4.63063L11.1132 2.62021C11.4144 2.31963 11.8229 2.15087 12.2487 2.15106C12.6746 2.15125 13.0829 2.32037 13.3839 2.62122C13.6849 2.92207 13.8539 3.33001 13.8537 3.75529C13.8535 4.18057 13.6841 4.58836 13.3829 4.88895L10.8766 7.39195L10.8545 7.41398L9.9783 8.28603C9.67756 8.58591 9.26994 8.75435 8.84495 8.75435C8.41996 8.75435 8.01233 8.58591 7.71159 8.28603C7.50834 8.09423 7.23932 7.98737 6.95969 7.98737C6.68006 7.98737 6.41103 8.09423 6.20779 8.28603C6.00919 8.48561 5.89773 8.75556 5.89773 9.03693C5.89773 9.3183 6.00919 9.58825 6.20779 9.78783C6.51765 10.0979 6.87974 10.3511 7.27749 10.5357C7.33363 10.5628 7.38977 10.5848 7.44592 10.6088C7.50206 10.6328 7.5612 10.6499 7.61634 10.6729C7.67148 10.6959 7.73164 10.7119 7.78778 10.73L7.94518 10.772C8.05245 10.799 8.15971 10.8201 8.26899 10.8371C8.40132 10.8571 8.53367 10.8691 8.67001 10.8761H8.87051L9.03092 10.8571C9.08907 10.8571 9.15122 10.8391 9.2204 10.8391H9.31163L9.49609 10.8151L9.58131 10.799L9.7367 10.768H9.76576C10.4228 10.6018 11.0224 10.261 11.5011 9.78183L14.9037 6.37774C15.6046 5.67736 15.9989 4.728 16 3.7378C16.0011 2.7476 15.6091 1.79735 14.9098 1.09539Z" fill="#888888"/>
</svg>
