<svg width="16" height="16" viewBox="0 0 16 16" fill="none" xmlns="http://www.w3.org/2000/svg">
<path fill-rule="evenodd" clip-rule="evenodd" d="M3.73075 5.141H0.518965C0.485002 5.141 0.451376 5.14771 0.42001 5.16074C0.388645 5.17377 0.360161 5.19286 0.336191 5.21692C0.312222 5.24098 0.293239 5.26955 0.280333 5.30097C0.267427 5.33238 0.260847 5.36604 0.260978 5.4V15.742C0.261242 15.8103 0.288508 15.8758 0.336832 15.9241C0.385157 15.9725 0.450624 15.9997 0.518965 16H3.73075C3.79909 15.9997 3.86456 15.9725 3.91289 15.9241C3.96121 15.8758 3.98848 15.8103 3.98874 15.742V5.4C3.98887 5.36604 3.98229 5.33238 3.96939 5.30097C3.95648 5.26955 3.9375 5.24098 3.91354 5.21692C3.88957 5.19286 3.86108 5.17377 3.82972 5.16074C3.79835 5.14771 3.76472 5.141 3.73075 5.141ZM2.12586 3.77135e-06C1.70599 -0.000787708 1.29531 0.123016 0.945825 0.355747C0.596339 0.588478 0.323756 0.919674 0.162573 1.30741C0.00139011 1.69514 -0.0411433 2.12197 0.040358 2.53389C0.121859 2.94581 0.323726 3.32429 0.620414 3.62142C0.917102 3.91854 1.29527 4.12096 1.70704 4.20305C2.11882 4.28514 2.54569 4.24321 2.93363 4.08257C3.32156 3.92192 3.65312 3.64979 3.88633 3.30061C4.11954 2.95143 4.24392 2.54091 4.24372 2.12101C4.24346 1.55908 4.02034 1.02021 3.62331 0.622585C3.22628 0.224964 2.68775 0.00106294 2.12586 3.77135e-06ZM11.9002 4.88401C11.3731 4.87359 10.8496 4.97364 10.3634 5.17773C9.87725 5.38182 9.43918 5.68542 9.07741 6.069V5.4C9.07754 5.36604 9.07097 5.33238 9.05806 5.30097C9.04515 5.26955 9.02617 5.24098 9.0022 5.21692C8.97823 5.19286 8.94975 5.17377 8.91838 5.16074C8.88702 5.14771 8.85339 5.141 8.81943 5.141H5.74362C5.70966 5.141 5.67603 5.14771 5.64467 5.16074C5.6133 5.17377 5.58482 5.19286 5.56085 5.21692C5.53688 5.24098 5.5179 5.26955 5.50499 5.30097C5.49209 5.33238 5.48551 5.36604 5.48565 5.4V15.742C5.48591 15.8103 5.51317 15.8758 5.56149 15.9241C5.60982 15.9725 5.67528 15.9997 5.74362 16H8.94342C9.01176 15.9997 9.07722 15.9725 9.12555 15.9241C9.17387 15.8758 9.20114 15.8103 9.2014 15.742V10.625C9.2014 8.902 9.66937 8.23001 10.8683 8.23001C12.1742 8.23001 12.2772 9.307 12.2772 10.712V15.742C12.2775 15.8105 12.3049 15.8761 12.3534 15.9245C12.4019 15.9728 12.4677 16 12.5362 16H15.742C15.8103 15.9997 15.8758 15.9725 15.9241 15.9241C15.9724 15.8758 15.9997 15.8103 16 15.742V10.069C16.005 7.505 15.517 4.885 11.9052 4.885L11.9002 4.88401Z" fill="#888888"/>
</svg>
