<svg width="740" height="129" viewBox="0 0 740 129" fill="none" xmlns="http://www.w3.org/2000/svg">
<path fill-rule="evenodd" clip-rule="evenodd" d="M148.434 39.1031C171.314 39.1031 189.862 57.6513 189.862 80.5314C189.862 103.412 171.314 121.96 148.434 121.96C125.554 121.96 107.005 103.412 107.005 80.5314C107.005 57.6513 125.554 39.1031 148.434 39.1031ZM149.873 59.8373C160.661 59.8373 169.406 69.1023 169.406 80.5314C169.406 91.9609 160.661 101.226 149.873 101.226C139.085 101.226 130.34 91.9609 130.34 80.5314C130.34 69.1023 139.085 59.8373 149.873 59.8373Z" fill="#43403E"/>
<path d="M189.967 40.2367H172.895C171.167 40.2367 169.766 41.6373 169.766 43.365V117.698C169.766 119.425 171.167 120.826 172.895 120.826H189.967C191.695 120.826 193.096 119.425 193.096 117.698V43.365C193.096 41.6373 191.695 40.2367 189.967 40.2367Z" fill="#43403E"/>
<path fill-rule="evenodd" clip-rule="evenodd" d="M220 40.2367H202.926C201.206 40.2367 199.799 41.6439 199.799 43.3647V117.698C199.799 119.419 201.206 120.826 202.926 120.826H220C221.721 120.826 223.128 119.419 223.128 117.698V76.4198C224.469 67.023 232.125 59.8201 241.368 59.8201C242.769 59.8201 244.133 59.9857 245.443 60.2989C247.008 60.5564 248.376 58.9836 248.376 57.3636V43.2214C248.376 41.8743 247.366 40.5075 246.231 40.3933C245.077 40.2903 243.909 40.2367 242.728 40.2367C235.586 40.2367 228.891 42.1519 223.128 45.4941V43.3647C223.128 41.6439 221.721 40.2367 220 40.2367Z" fill="#43403E"/>
<path fill-rule="evenodd" clip-rule="evenodd" d="M291.499 118.199V103.853C291.499 102.408 290.092 101.226 288.371 101.226H286.425C282.892 101.226 280.029 98.3627 280.029 94.8296V77.8932V59.8372H288.861C290.306 59.8372 291.488 58.6551 291.488 57.2094V42.8652C291.488 41.4191 290.306 40.237 288.861 40.237H280.029V22.8926C280.029 21.1721 278.622 19.765 276.901 19.765H259.827C258.107 19.765 256.7 21.1721 256.7 22.8926V40.237H253.523C252.078 40.237 250.896 41.4191 250.896 42.8652V57.2094C250.896 58.6551 252.078 59.8372 253.523 59.8372H256.7V99.3208C256.7 111.198 266.328 120.826 278.205 120.826H286.425H288.371C290.092 120.826 291.499 119.644 291.499 118.199Z" fill="#43403E"/>
<path fill-rule="evenodd" clip-rule="evenodd" d="M373.068 72.4442V117.699C373.068 119.418 371.66 120.826 369.94 120.826H352.867C351.146 120.826 349.739 119.419 349.739 117.699V72.4442H349.698C349.122 65.3554 343.168 59.8373 336.017 59.8373C328.814 59.8373 322.863 65.3871 322.295 72.4442V117.699C322.295 119.419 320.888 120.826 319.168 120.826H302.094C300.373 120.826 298.966 119.419 298.966 117.699V43.3646C298.966 41.6441 300.373 40.237 302.094 40.237H319.168C320.888 40.237 322.295 41.6441 322.295 43.3646V44.5888C327.463 41.122 333.651 39.1031 340.304 39.1031C340.771 39.1031 342.653 39.1031 343.375 39.1031C359.774 39.1913 373.068 52.3967 373.068 68.7959V72.4442Z" fill="#43403E"/>
<path fill-rule="evenodd" clip-rule="evenodd" d="M486.577 118.199V103.853C486.577 102.408 485.17 101.226 483.45 101.226H481.504C477.971 101.226 475.107 98.3627 475.107 94.8296V77.8932V59.8372H483.939C485.385 59.8372 486.567 58.6551 486.567 57.2094V42.8652C486.567 41.4191 485.385 40.237 483.939 40.237H475.107V22.8926C475.107 21.1721 473.7 19.765 471.979 19.765H454.906C453.185 19.765 451.778 21.1721 451.778 22.8926V40.237H448.602C447.156 40.237 445.974 41.4191 445.974 42.8652V57.2094C445.974 58.6551 447.156 59.8372 448.602 59.8372H451.778V99.3208C451.778 111.198 461.406 120.826 473.284 120.826H481.504H483.45C485.17 120.826 486.577 119.644 486.577 118.199Z" fill="#43403E"/>
<path fill-rule="evenodd" clip-rule="evenodd" d="M527.888 39.1031C550.768 39.1031 569.316 57.6513 569.316 80.5322C569.316 103.412 550.768 121.96 527.888 121.96C505.007 121.96 486.459 103.412 486.459 80.5322C486.459 57.6513 505.007 39.1031 527.888 39.1031ZM527.885 59.8373C537.88 59.8373 545.982 69.1023 545.982 80.5314C545.982 91.9609 537.88 101.226 527.885 101.226C517.89 101.226 509.788 91.9609 509.788 80.5314C509.788 69.1023 517.89 59.8373 527.885 59.8373Z" fill="#43403E"/>
<path fill-rule="evenodd" clip-rule="evenodd" d="M658.879 9.90558H675.952C677.673 9.90558 679.08 11.3135 679.08 13.0335V66.5849L699.713 42.3058C700.81 41.0387 702.431 40.2368 704.239 40.2368H721.671C723.514 40.2368 725.006 41.7296 725.006 43.5714C725.006 44.4201 724.689 45.1946 724.167 45.7837L694.637 80.5316L724.167 115.279C724.689 115.868 725.006 116.643 725.006 117.491C725.006 119.333 723.514 120.826 721.671 120.826H704.239C702.431 120.826 700.81 120.024 699.713 118.757L679.08 94.4784V117.698C679.08 119.418 677.673 120.826 675.952 120.826H658.879C657.158 120.826 655.751 119.418 655.751 117.698V13.0335C655.751 11.3135 657.158 9.90558 658.879 9.90558Z" fill="#43403E"/>
<path d="M376.702 99.4268C380.519 114.179 394.111 122.047 412.424 122.047C431.335 122.047 446.292 112.702 446.292 95.7756C446.292 82.9048 438.728 75.3234 424.63 71.9736L409.33 68.2706C405.719 67.5656 404 66.3316 404 63.863C404 60.3368 407.267 58.5735 411.22 58.5735C416.326 58.5735 418.857 60.613 420.07 63.2084L420.074 63.2156C420.513 64.2191 421.513 64.9209 422.679 64.9209H442.126C443.696 64.9209 444.968 63.6487 444.968 62.0788C444.968 61.8095 444.931 61.5477 444.86 61.3003C441.312 47.7003 430.004 39.1792 410.533 39.1792C392.309 39.1792 377.524 49.0524 377.524 65.9788C377.524 79.9075 385.948 86.2549 398.842 89.0757L413.971 92.2494C417.754 93.1309 419.988 94.1891 419.988 97.1864C419.988 100.889 416.55 102.652 412.08 102.652C407.914 102.652 404.521 100.803 402.903 97.4482C402.457 96.4619 401.464 95.7756 400.312 95.7756H379.427C377.857 95.7756 376.585 97.0478 376.585 98.6177C376.585 98.8989 376.625 99.1701 376.702 99.4268Z" fill="#43403E"/>
<path fill-rule="evenodd" clip-rule="evenodd" d="M612.654 121.96C631.332 121.96 647.12 109.598 652.289 92.6098L652.289 92.6083C652.41 92.2857 652.477 91.9368 652.477 91.572C652.477 89.9409 651.155 88.6187 649.523 88.6187L649.498 88.6191H631.201L631.177 88.6187C630.032 88.6187 629.048 89.3057 628.614 90.2898C625.564 96.7989 619.561 101.226 612.652 101.226C602.657 101.226 594.555 91.9609 594.555 80.5318C594.555 69.1023 602.657 59.8373 612.652 59.8373C619.561 59.8373 625.564 64.2644 628.614 70.7734C629.048 71.7575 630.032 72.4445 631.177 72.4445L631.201 72.4442H649.498L649.523 72.4445C651.155 72.4445 652.477 71.1224 652.477 69.4912C652.477 69.1265 652.41 68.7775 652.289 68.4549L652.289 68.4535C647.12 51.4655 631.332 39.1031 612.654 39.1031C589.774 39.1031 571.226 57.6512 571.225 80.5318C571.226 103.412 589.774 121.96 612.654 121.96Z" fill="#43403E"/>
<path fill-rule="evenodd" clip-rule="evenodd" d="M51.5915 101.593L51.5969 101.588C53.6465 93.6365 57.4809 86.9305 62.4002 82.4724C55.768 82.7987 48.3141 80.7671 41.2416 76.5931C37.5573 78.7673 33.976 81.5222 30.6694 84.8288C25.992 89.5061 22.4187 94.7319 20.0325 100.024C25.4609 102.077 31.683 103.244 38.2965 103.244C42.9721 103.244 47.4503 102.66 51.5915 101.593Z" fill="#E52141"/>
<path fill-rule="evenodd" clip-rule="evenodd" d="M25.4086 127.773L51.5968 101.588C47.4553 102.655 42.977 103.239 38.3018 103.239C31.688 103.239 25.4662 102.072 20.0374 100.019C15.5898 109.881 15.2697 119.973 19.6392 127.175C20.7284 129.352 23.8506 129.619 25.4086 127.773Z" fill="#E93F8F"/>
<path fill-rule="evenodd" clip-rule="evenodd" d="M62.4 82.4724C66.5096 78.7482 71.377 76.5931 76.5945 76.5931C72.9052 80.2828 67.939 82.1999 62.4 82.4724Z" fill="#B52728"/>
<path fill-rule="evenodd" clip-rule="evenodd" d="M101.594 51.5929L101.589 51.598C93.6376 53.6475 86.9316 57.4819 82.4735 62.4016C82.7997 55.7694 80.7682 48.3152 76.5942 41.2429C78.7687 37.5583 81.5233 33.9774 84.8298 30.6708C89.5072 25.9935 94.7333 22.4201 100.025 20.0335C102.078 25.4623 103.245 31.6841 103.245 38.2979C103.245 42.9731 102.661 47.4513 101.594 51.5929Z" fill="#04A34D"/>
<path fill-rule="evenodd" clip-rule="evenodd" d="M127.779 25.4048L101.594 51.593C102.661 47.4514 103.245 42.9731 103.245 38.2979C103.245 31.6841 102.078 25.4624 100.025 20.0335C109.887 15.5859 119.979 15.2658 127.181 19.6349C129.358 20.7245 129.625 23.8467 127.779 25.4048Z" fill="#48BED8"/>
<path fill-rule="evenodd" clip-rule="evenodd" d="M51.5958 101.592C53.6454 93.6387 57.4805 86.9302 62.4013 82.4714C67.94 82.1981 72.9057 80.2821 76.5947 76.5931L51.5958 101.592Z" fill="#D52427"/>
<path fill-rule="evenodd" clip-rule="evenodd" d="M101.594 51.5945C93.6403 53.6437 86.9317 57.4792 82.4729 62.4C82.1996 67.9387 80.2837 72.9041 76.5947 76.5934L101.594 51.5945Z" fill="#038A41"/>
<path fill-rule="evenodd" clip-rule="evenodd" d="M82.474 62.3985C78.7498 66.508 76.5947 71.3755 76.5947 76.593C80.2844 72.9033 82.2015 67.9375 82.474 62.3985Z" fill="#20743B"/>
<path fill-rule="evenodd" clip-rule="evenodd" d="M0 76.5943C0 66.4788 8.09951 57.6789 20.032 53.165C22.4182 58.4559 25.9934 63.6813 30.6704 68.3583C33.9773 71.6653 37.5583 74.4198 41.2429 76.5943C37.5586 78.7684 33.9773 81.5237 30.6708 84.8303C25.9934 89.5077 22.42 94.7334 20.0338 100.025C8.10024 95.5112 0 86.7113 0 76.5943Z" fill="#ED7872"/>
<path fill-rule="evenodd" clip-rule="evenodd" d="M76.5945 76.5933C71.3782 76.5933 66.5125 74.4375 62.4033 70.7151C67.9413 70.9887 72.9059 72.9043 76.5945 76.5933Z" fill="#A62927"/>
<path fill-rule="evenodd" clip-rule="evenodd" d="M53.1636 20.0269L53.1744 20.0316L53.178 20.0334C53.4366 20.1504 53.6954 20.27 53.9536 20.3924L53.9871 20.4082C54.2298 20.5238 54.4728 20.6419 54.7155 20.7622L54.807 20.8083C55.0464 20.9275 55.2855 21.0492 55.5243 21.1734L55.5671 21.1957C55.8181 21.3268 56.0691 21.4604 56.3189 21.5968L56.3463 21.6116C56.602 21.7513 56.8576 21.8935 57.1122 22.0383L57.1201 22.043L57.1266 22.0462C57.3858 22.1938 57.6444 22.3444 57.9022 22.4977C58.1528 22.6468 58.403 22.798 58.6529 22.9525L58.7106 22.9885C58.9522 23.138 59.1931 23.2906 59.4336 23.4451L59.4768 23.4725C59.717 23.6273 59.9568 23.7854 60.1959 23.9452L60.2286 23.9669L60.2708 23.9953C60.508 24.1548 60.7453 24.3161 60.9812 24.4807L60.9909 24.4875L60.9959 24.4908L61.0143 24.5037C61.2566 24.673 61.4986 24.8444 61.7399 25.0186L61.7863 25.0525C62.0243 25.2246 62.2609 25.3989 62.4967 25.576L62.5403 25.6088C63.026 25.9739 63.5085 26.3495 63.9871 26.7355L64.0159 26.7585L64.0594 26.7941C64.2917 26.9825 64.5236 27.1726 64.7544 27.366L64.7569 27.3678C64.9866 27.5604 65.2153 27.7556 65.4436 27.9529L65.4911 27.9939L65.5235 28.0227C65.7522 28.2218 65.9804 28.4231 66.2073 28.6269L66.2311 28.6482C66.4651 28.8592 66.6984 29.0723 66.9303 29.2884L66.948 29.305C67.1777 29.5192 67.4071 29.7363 67.6343 29.9556L67.6649 29.9855C67.8971 30.2095 68.1279 30.4363 68.3573 30.6657C71.6639 33.9722 74.4188 37.5535 76.5933 41.2378C72.4182 48.3115 70.3881 55.7661 70.7151 62.3986C66.2566 57.4775 59.5484 53.6427 51.5948 51.5928C50.5271 47.4498 49.9427 42.9694 49.9427 38.2928C49.9427 31.6789 51.1101 25.4558 53.1636 20.0269Z" fill="#B6BA24"/>
<path fill-rule="evenodd" clip-rule="evenodd" d="M22.4299 22.4312C29.5828 15.2783 41.5322 14.7829 53.1619 20.0284C51.1076 25.4576 49.941 31.6804 49.941 38.2946C49.941 42.9713 50.5254 47.4513 51.593 51.5943C47.4507 50.5264 42.97 49.9423 38.2937 49.9423C31.6791 49.9423 25.457 51.1108 20.0278 53.165C14.7812 41.535 15.2759 29.5848 22.4299 22.4312Z" fill="#FDD347"/>
<path fill-rule="evenodd" clip-rule="evenodd" d="M76.5942 0C86.7098 0 95.5096 8.09915 100.024 20.0317C94.7326 22.4182 89.5072 25.9934 84.8302 30.6704C81.5233 33.9773 78.7687 37.5583 76.5942 41.2429C74.4201 37.5586 71.6648 33.9773 68.3582 30.6708C63.6809 25.9934 58.4551 22.42 53.1635 20.0335C57.6773 8.09987 66.4772 0 76.5942 0Z" fill="#B4CF55"/>
<path fill-rule="evenodd" clip-rule="evenodd" d="M51.5961 51.595C59.5497 53.6445 66.2579 57.4793 70.7164 62.4008C70.9897 67.9391 72.906 72.9042 76.5946 76.5931C72.9056 72.9038 67.9402 70.9882 62.4015 70.7149C57.4808 66.2561 53.646 59.5483 51.5961 51.595Z" fill="#BB5829"/>
<path fill-rule="evenodd" clip-rule="evenodd" d="M76.5943 41.2402C80.769 48.3135 82.8009 55.7688 82.4736 62.4014C78.7504 66.5105 76.5947 71.3766 76.5947 76.593C76.5947 71.3759 74.4382 66.5102 70.715 62.4007C70.3884 55.7681 72.4196 48.3135 76.5943 41.2402Z" fill="#009843"/>
<path fill-rule="evenodd" clip-rule="evenodd" d="M51.5928 51.5941L51.5982 51.5991C53.6473 59.5507 57.4821 66.2567 62.4014 70.7147C55.7692 70.3885 48.315 72.4201 41.2428 76.594C37.5581 74.4199 33.9772 71.665 30.6706 68.3584C25.9933 63.6811 22.4199 58.4553 20.0337 53.1637C25.4622 51.1098 31.6843 49.9431 38.2977 49.9431C42.9729 49.9431 47.4515 50.5268 51.5928 51.5941Z" fill="#EB5F25"/>
<path fill-rule="evenodd" clip-rule="evenodd" d="M41.2417 76.5933C48.315 72.419 55.7703 70.3867 62.4029 70.7141C66.5121 74.4372 71.3781 76.5933 76.5945 76.5933C71.3774 76.5933 66.5121 78.7495 62.4022 82.4726C55.77 82.7996 48.315 80.768 41.2417 76.5933Z" fill="#DF2125"/>
<path fill-rule="evenodd" clip-rule="evenodd" d="M70.7148 62.3985C74.4391 66.508 76.5945 71.3755 76.5945 76.593C72.9048 72.9033 70.9874 67.9375 70.7148 62.3985Z" fill="#52562C"/>
<path fill-rule="evenodd" clip-rule="evenodd" d="M732.402 9.90555C736.487 9.90555 739.798 13.3327 739.798 17.56C739.798 21.7873 736.487 25.2145 732.402 25.2145C728.318 25.2145 725.006 21.7873 725.006 17.56C725.006 13.3327 728.318 9.90555 732.402 9.90555ZM736.856 12.8942C735.717 11.7153 734.142 10.9858 732.402 10.9858C730.663 10.9858 729.088 11.7153 727.949 12.8942C726.799 14.0846 726.087 15.7344 726.087 17.56C726.087 19.3856 726.799 21.0354 727.949 22.2258C729.088 23.4047 730.663 24.1342 732.402 24.1342C734.142 24.1342 735.717 23.4047 736.856 22.2258C738.006 21.0354 738.718 19.3856 738.718 17.56C738.718 15.7344 738.006 14.0846 736.856 12.8942Z" fill="#43403E"/>
<path d="M732.579 13.7072C733.17 13.7072 733.672 13.7958 734.087 13.973C734.505 14.1479 734.822 14.4101 735.043 14.755C735.263 15.1018 735.373 15.5281 735.373 16.0319C735.373 16.4204 735.303 16.7599 735.162 17.0527C735.021 17.345 734.821 17.5906 734.563 17.7912C734.302 17.9899 733.995 18.1433 733.643 18.2535L733.231 18.4649H730.791L730.78 17.3702H732.59C732.904 17.3702 733.166 17.3162 733.376 17.2061C733.587 17.0959 733.744 16.9461 733.847 16.7563C733.95 16.5666 734.003 16.3498 734.003 16.106C734.003 15.7103 733.889 15.3945 733.663 15.1612C733.435 14.9264 733.074 14.809 732.579 14.809H731.21V21.4128H729.844V13.7072H732.579ZM732.42 17.9575L733.854 17.9521L735.681 21.344V21.4128H734.221L732.42 17.9575Z" fill="#43403E"/>
</svg>
