<svg width="146" height="26" viewBox="0 0 146 26" fill="none" xmlns="http://www.w3.org/2000/svg">
<path fill-rule="evenodd" clip-rule="evenodd" d="M29.2936 7.88123C33.8091 7.88123 37.4696 11.6196 37.4696 16.2311C37.4696 20.8427 33.8091 24.5811 29.2936 24.5811C24.7782 24.5811 21.1177 20.8427 21.1177 16.2311C21.1177 11.6196 24.7782 7.88123 29.2936 7.88123ZM29.5777 12.0602C31.7067 12.0602 33.4326 13.9276 33.4326 16.2311C33.4326 18.5347 31.7067 20.4021 29.5777 20.4021C27.4487 20.4021 25.7229 18.5347 25.7229 16.2311C25.7229 13.9276 27.4487 12.0602 29.5777 12.0602Z" fill="#43403E"/>
<path d="M37.4902 8.10974H34.1209C33.7799 8.10974 33.5035 8.39203 33.5035 8.74025V23.722C33.5035 24.0702 33.7799 24.3525 34.1209 24.3525H37.4902C37.8312 24.3525 38.1076 24.0702 38.1076 23.722V8.74025C38.1076 8.39203 37.8312 8.10974 37.4902 8.10974Z" fill="#43403E"/>
<path fill-rule="evenodd" clip-rule="evenodd" d="M43.4173 8.10974H40.0478C39.7083 8.10974 39.4305 8.39336 39.4305 8.74018V23.7221C39.4305 24.0689 39.7083 24.3525 40.0478 24.3525H43.4173C43.7569 24.3525 44.0345 24.0689 44.0345 23.7221V15.4025C44.2992 13.5085 45.8101 12.0568 47.6343 12.0568C47.9107 12.0568 48.1799 12.0902 48.4385 12.1533C48.7473 12.2052 49.0173 11.8882 49.0173 11.5617V8.7113C49.0173 8.4398 48.8179 8.16432 48.594 8.14131C48.3663 8.12056 48.1357 8.10974 47.9026 8.10974C46.4931 8.10974 45.172 8.49576 44.0345 9.16938V8.74018C44.0345 8.39336 43.7569 8.10974 43.4173 8.10974V8.10974Z" fill="#43403E"/>
<path fill-rule="evenodd" clip-rule="evenodd" d="M57.5276 23.823V20.9317C57.5276 20.6404 57.25 20.4021 56.9104 20.4021H56.5264C55.8292 20.4021 55.2641 19.825 55.2641 19.1129V15.6994V12.0602H57.007C57.2923 12.0602 57.5256 11.822 57.5256 11.5306V8.6395C57.5256 8.34804 57.2923 8.10978 57.007 8.10978H55.2641V4.61401C55.2641 4.26726 54.9864 3.98364 54.6468 3.98364H51.2773C50.9377 3.98364 50.66 4.26726 50.66 4.61401V8.10978H50.0331C49.7478 8.10978 49.5145 8.34804 49.5145 8.6395V11.5306C49.5145 11.822 49.7478 12.0602 50.0331 12.0602H50.66V20.0181C50.66 22.412 52.5601 24.3526 54.9042 24.3526H56.5264H56.9104C57.25 24.3526 57.5276 24.1143 57.5276 23.823Z" fill="#43403E"/>
<path fill-rule="evenodd" clip-rule="evenodd" d="M73.6254 14.6011V23.7222C73.6254 24.0688 73.3476 24.3525 73.0081 24.3525H69.6387C69.2992 24.3525 69.0214 24.0689 69.0214 23.7222V14.6011H69.0134C68.8997 13.1724 67.7247 12.0602 66.3134 12.0602C64.8919 12.0602 63.7175 13.1788 63.6054 14.6011V23.7222C63.6054 24.0689 63.3278 24.3525 62.9882 24.3525H59.6187C59.2791 24.3525 59.0013 24.0689 59.0013 23.7222V8.74012C59.0013 8.39337 59.2791 8.10976 59.6187 8.10976H62.9882C63.3278 8.10976 63.6054 8.39337 63.6054 8.74012V8.98687C64.6253 8.28814 65.8464 7.88123 67.1594 7.88123C67.2515 7.88123 67.623 7.88123 67.7655 7.88123C71.0018 7.89901 73.6254 10.5605 73.6254 13.8658V14.6011V14.6011Z" fill="#43403E"/>
<path fill-rule="evenodd" clip-rule="evenodd" d="M96.0266 23.823V20.9317C96.0266 20.6404 95.7489 20.4021 95.4093 20.4021H95.0253C94.3281 20.4021 93.763 19.825 93.763 19.1129V15.6994V12.0602H95.5059C95.7912 12.0602 96.0246 11.822 96.0246 11.5306V8.6395C96.0246 8.34804 95.7912 8.10978 95.5059 8.10978H93.763V4.61401C93.763 4.26726 93.4853 3.98364 93.1457 3.98364H89.7762C89.4366 3.98364 89.1589 4.26726 89.1589 4.61401V8.10978H88.532C88.2467 8.10978 88.0134 8.34804 88.0134 8.6395V11.5306C88.0134 11.822 88.2467 12.0602 88.532 12.0602H89.1589V20.0181C89.1589 22.412 91.059 24.3526 93.403 24.3526H95.0253H95.4093C95.7489 24.3526 96.0266 24.1143 96.0266 23.823V23.823Z" fill="#43403E"/>
<path fill-rule="evenodd" clip-rule="evenodd" d="M104.179 7.88123C108.695 7.88123 112.355 11.6196 112.355 16.2313C112.355 20.8427 108.695 24.5811 104.179 24.5811C99.6637 24.5811 96.0032 20.8427 96.0032 16.2313C96.0032 11.6196 99.6637 7.88123 104.179 7.88123ZM104.179 12.0602C106.151 12.0602 107.75 13.9276 107.75 16.2311C107.75 18.5347 106.151 20.4021 104.179 20.4021C102.206 20.4021 100.607 18.5347 100.607 16.2311C100.607 13.9276 102.206 12.0602 104.179 12.0602Z" fill="#43403E"/>
<path fill-rule="evenodd" clip-rule="evenodd" d="M130.03 1.99646H133.4C133.739 1.99646 134.017 2.28022 134.017 2.6269V13.4202L138.089 8.52673C138.306 8.27134 138.625 8.10972 138.982 8.10972H142.423C142.786 8.10972 143.081 8.41061 143.081 8.78182C143.081 8.95288 143.018 9.10898 142.915 9.22771L137.087 16.2312L142.915 23.2345C143.018 23.3533 143.081 23.5094 143.081 23.6804C143.081 24.0516 142.786 24.3525 142.423 24.3525H138.982C138.625 24.3525 138.306 24.1908 138.089 23.9355L134.017 19.0421V23.7221C134.017 24.0688 133.739 24.3525 133.4 24.3525H130.03C129.691 24.3525 129.413 24.0688 129.413 23.7221V2.6269C129.413 2.28022 129.691 1.99646 130.03 1.99646V1.99646Z" fill="#43403E"/>
<path d="M74.3425 20.0395C75.0959 23.0129 77.7782 24.5986 81.3924 24.5986C85.1245 24.5986 88.0762 22.7152 88.0762 19.3036C88.0762 16.7095 86.5834 15.1815 83.8013 14.5063L80.7817 13.76C80.0691 13.6179 79.7299 13.3692 79.7299 12.8716C79.7299 12.1609 80.3745 11.8055 81.1547 11.8055C82.1623 11.8055 82.662 12.2166 82.9013 12.7397L82.902 12.7411C82.9886 12.9434 83.1861 13.0849 83.4162 13.0849H87.2541C87.5639 13.0849 87.8149 12.8285 87.8149 12.512C87.8149 12.4578 87.8077 12.405 87.7937 12.3551C87.0934 9.61405 84.8618 7.89661 81.0191 7.89661C77.4227 7.89661 74.5048 9.88656 74.5048 13.2981C74.5048 16.1054 76.1673 17.3847 78.712 17.9533L81.6977 18.5929C82.4441 18.7706 82.8852 18.9839 82.8852 19.588C82.8852 20.3342 82.2066 20.6896 81.3245 20.6896C80.5023 20.6896 79.8327 20.3169 79.5133 19.6407C79.4253 19.442 79.2294 19.3036 79.0019 19.3036H74.8803C74.5705 19.3036 74.3195 19.56 74.3195 19.8765C74.3195 19.9331 74.3273 19.9878 74.3425 20.0395V20.0395ZM79.5219 19.6611C79.526 19.6714 79.5298 19.6819 79.5333 19.6925C79.5298 19.682 79.526 19.6714 79.5219 19.6611ZM87.7354 12.2177C87.7442 12.2326 87.7522 12.2479 87.7596 12.2637C87.7522 12.248 87.7442 12.2326 87.7354 12.2177Z" fill="#43403E"/>
<path fill-rule="evenodd" clip-rule="evenodd" d="M120.908 24.5811C124.594 24.5811 127.71 22.0894 128.73 18.6655L128.73 18.6652C128.754 18.6002 128.767 18.5299 128.767 18.4564C128.767 18.1276 128.506 17.8611 128.184 17.8611L128.179 17.8612H124.568L124.563 17.8611C124.337 17.8611 124.143 17.9996 124.058 18.1979C123.456 19.5098 122.271 20.4021 120.908 20.4021C118.935 20.4021 117.336 18.5347 117.336 16.2312C117.336 13.9276 118.935 12.0602 120.908 12.0602C122.271 12.0602 123.456 12.9525 124.058 14.2644C124.143 14.4627 124.337 14.6012 124.563 14.6012L124.568 14.6011H128.179L128.184 14.6012C128.506 14.6012 128.767 14.3347 128.767 14.006C128.767 13.9324 128.754 13.8621 128.73 13.7971L128.73 13.7968C127.71 10.3729 124.594 7.88123 120.908 7.88123C116.392 7.88123 112.732 11.6196 112.732 16.2312C112.732 20.8428 116.392 24.5811 120.908 24.5811V24.5811Z" fill="#43403E"/>
<path fill-rule="evenodd" clip-rule="evenodd" d="M10.1817 20.4761L10.1828 20.4751C10.5873 18.8725 11.344 17.5209 12.3148 16.6224C11.0059 16.6881 9.53491 16.2786 8.13913 15.4374C7.41203 15.8756 6.70526 16.4308 6.0527 17.0973C5.12962 18.04 4.42441 19.0932 3.95349 20.1598C5.02481 20.5737 6.25274 20.8088 7.55792 20.8088C8.48065 20.8088 9.36443 20.6912 10.1817 20.4761Z" fill="#E52141"/>
<path fill-rule="evenodd" clip-rule="evenodd" d="M5.0144 25.7528L10.1827 20.4751C9.36532 20.6901 8.48154 20.8078 7.55888 20.8078C6.25363 20.8078 5.02577 20.5726 3.95438 20.1588C3.07663 22.1466 3.01346 24.1806 3.87579 25.6321C4.09075 26.0709 4.70692 26.1247 5.0144 25.7528V25.7528Z" fill="#E93F8F"/>
<path fill-rule="evenodd" clip-rule="evenodd" d="M12.3147 16.6224C13.1257 15.8717 14.0863 15.4374 15.116 15.4374C14.3879 16.181 13.4078 16.5674 12.3147 16.6224Z" fill="#B52728"/>
<path fill-rule="evenodd" clip-rule="evenodd" d="M20.0497 10.3986L20.0487 10.3996C18.4795 10.8127 17.1561 11.5855 16.2762 12.5771C16.3406 11.2404 15.9397 9.73796 15.116 8.31255C15.5451 7.56991 16.0887 6.84817 16.7413 6.18173C17.6644 5.23901 18.6957 4.51879 19.74 4.03778C20.1453 5.13196 20.3755 6.38595 20.3755 7.71897C20.3755 8.66126 20.2604 9.56385 20.0497 10.3986V10.3986Z" fill="#04A34D"/>
<path fill-rule="evenodd" clip-rule="evenodd" d="M25.2173 5.12031L20.0496 10.3985C20.2602 9.56381 20.3754 8.66122 20.3754 7.71893C20.3754 6.38591 20.1452 5.13192 19.7399 4.03774C21.6863 3.14132 23.678 3.0768 25.0993 3.9574C25.5289 4.177 25.5815 4.80629 25.2173 5.12031V5.12031Z" fill="#48BED8"/>
<path fill-rule="evenodd" clip-rule="evenodd" d="M10.1825 20.4759C10.587 18.8729 11.3438 17.5208 12.315 16.6221C13.408 16.567 14.388 16.1809 15.116 15.4374L10.1825 20.4759V20.4759Z" fill="#D52427"/>
<path fill-rule="evenodd" clip-rule="evenodd" d="M20.0496 10.3989C18.48 10.8119 17.1561 11.5849 16.2762 12.5767C16.2222 13.693 15.8441 14.6938 15.1161 15.4374L20.0496 10.3989V10.3989Z" fill="#038A41"/>
<path fill-rule="evenodd" clip-rule="evenodd" d="M16.2764 12.5764C15.5414 13.4047 15.1161 14.3857 15.1161 15.4373C15.8443 14.6937 16.2226 13.6928 16.2764 12.5764Z" fill="#20743B"/>
<path fill-rule="evenodd" clip-rule="evenodd" d="M0 15.4376C0 13.3988 1.59845 11.6252 3.95334 10.7155C4.42426 11.7818 5.12983 12.835 6.05284 13.7777C6.70546 14.4442 7.41216 14.9994 8.13933 15.4376C7.41223 15.8758 6.70546 16.4312 6.05291 17.0976C5.12983 18.0403 4.42462 19.0936 3.9537 20.1601C1.59859 19.2503 0 17.4767 0 15.4376V15.4376Z" fill="#ED7872"/>
<path fill-rule="evenodd" clip-rule="evenodd" d="M15.116 15.4374C14.0865 15.4374 13.1263 15.0029 12.3153 14.2526C13.4082 14.3078 14.388 14.6939 15.116 15.4374Z" fill="#A62927"/>
<path fill-rule="evenodd" clip-rule="evenodd" d="M10.4918 4.03644L10.494 4.03738L10.4947 4.03775C10.5457 4.06133 10.5968 4.08543 10.6477 4.1101L10.6544 4.11329C10.7023 4.13659 10.7502 4.16039 10.7981 4.18463L10.8162 4.19392C10.8634 4.21794 10.9106 4.24247 10.9577 4.26751L10.9662 4.27201C11.0157 4.29843 11.0652 4.32535 11.1146 4.35286L11.1199 4.35583C11.1704 4.38399 11.2209 4.41266 11.2711 4.44183L11.2727 4.44277L11.2739 4.44343C11.3251 4.47318 11.3761 4.50352 11.427 4.53444C11.4765 4.56448 11.5259 4.59496 11.5752 4.62609L11.5865 4.63335C11.6342 4.66347 11.6818 4.69424 11.7292 4.72538L11.7378 4.73089C11.7852 4.7621 11.8325 4.79396 11.8797 4.82618L11.8861 4.83053L11.8944 4.83627C11.9413 4.86842 11.9881 4.90093 12.0346 4.93409L12.0366 4.93547L12.0376 4.93613L12.0412 4.93874C12.089 4.97285 12.1368 5.00739 12.1844 5.04252L12.1935 5.04934C12.2405 5.08403 12.2872 5.11916 12.3337 5.15486L12.3423 5.16147C12.4382 5.23505 12.5334 5.31075 12.6279 5.38855L12.6335 5.39319L12.6421 5.40038C12.688 5.43833 12.7337 5.47665 12.7793 5.51562L12.7798 5.51599C12.8251 5.55481 12.8703 5.59415 12.9153 5.63392L12.9247 5.64219L12.9311 5.648C12.9762 5.68813 13.0213 5.7287 13.066 5.76977L13.0707 5.77406C13.1169 5.81658 13.163 5.85955 13.2087 5.90309L13.2122 5.90643C13.2575 5.94961 13.3028 5.99337 13.3476 6.03757L13.3537 6.04359C13.3995 6.08873 13.4451 6.13445 13.4903 6.18068C14.1429 6.84712 14.6866 7.56893 15.1157 8.3115C14.2918 9.73719 13.8911 11.2397 13.9556 12.5765C13.0758 11.5846 11.7519 10.8117 10.1822 10.3986C9.97153 9.56353 9.8562 8.6605 9.8562 7.71793C9.8562 6.3849 10.0866 5.13062 10.4918 4.03644V4.03644Z" fill="#B6BA24"/>
<path fill-rule="evenodd" clip-rule="evenodd" d="M4.42658 4.52105C5.83821 3.07938 8.19644 2.97952 10.4916 4.03677C10.0862 5.13102 9.85593 6.38523 9.85593 7.71833C9.85593 8.66091 9.97127 9.56386 10.182 10.3989C9.36448 10.1836 8.48019 10.0659 7.55732 10.0659C6.25193 10.0659 5.02399 10.3014 3.95254 10.7154C2.91711 8.37141 3.01474 5.96286 4.42658 4.52105Z" fill="#FDD347"/>
<path fill-rule="evenodd" clip-rule="evenodd" d="M15.1159 0C17.1122 0 18.8489 1.63239 19.7397 4.03738C18.6955 4.5184 17.6643 5.23898 16.7413 6.18163C16.0887 6.84814 15.545 7.56988 15.1159 8.31252C14.6868 7.56995 14.1431 6.84814 13.4905 6.1817C12.5674 5.23898 11.5361 4.51876 10.4918 4.03775C11.3826 1.63253 13.1193 0 15.1159 0V0Z" fill="#B4CF55"/>
<path fill-rule="evenodd" clip-rule="evenodd" d="M10.1825 10.399C11.7522 10.8121 13.076 11.585 13.9559 12.5769C14.0098 13.6932 14.388 14.6939 15.116 15.4374C14.388 14.6938 13.408 14.3077 12.315 14.2526C11.3438 13.3539 10.587 12.002 10.1825 10.399Z" fill="#BB5829"/>
<path fill-rule="evenodd" clip-rule="evenodd" d="M15.116 8.31195C15.9399 9.73758 16.3408 11.2402 16.2763 12.577C15.5415 13.4052 15.116 14.386 15.116 15.4373C15.116 14.3858 14.6905 13.4051 13.9557 12.5769C13.8912 11.2401 14.2921 9.73758 15.116 8.31195V8.31195Z" fill="#009843"/>
<path fill-rule="evenodd" clip-rule="evenodd" d="M10.182 10.3988L10.183 10.3998C10.5874 12.0024 11.3442 13.354 12.3151 14.2526C11.0062 14.1868 9.53508 14.5963 8.13937 15.4375C7.4122 14.9993 6.7055 14.4441 6.05295 13.7776C5.12986 12.8349 4.42466 11.7817 3.95374 10.7151C5.02505 10.3012 6.25299 10.066 7.55816 10.066C8.48082 10.066 9.36468 10.1837 10.182 10.3988V10.3988Z" fill="#EB5F25"/>
<path fill-rule="evenodd" clip-rule="evenodd" d="M8.13904 15.4374C9.53496 14.5961 11.0063 14.1865 12.3152 14.2524C13.1262 15.0028 14.0865 15.4374 15.116 15.4374C14.0863 15.4374 13.1262 15.872 12.3151 16.6224C11.0062 16.6883 9.53496 16.2788 8.13904 15.4374V15.4374Z" fill="#DF2125"/>
<path fill-rule="evenodd" clip-rule="evenodd" d="M13.9556 12.5764C14.6906 13.4047 15.1159 14.3857 15.1159 15.4373C14.3878 14.6937 14.0094 13.6928 13.9556 12.5764Z" fill="#52562C"/>
<path fill-rule="evenodd" clip-rule="evenodd" d="M144.54 1.99646C145.347 1.99646 146 2.68721 146 3.53922C146 4.39122 145.347 5.08197 144.54 5.08197C143.734 5.08197 143.081 4.39122 143.081 3.53922C143.081 2.68721 143.734 1.99646 144.54 1.99646ZM145.419 2.59882C145.195 2.36121 144.884 2.21418 144.54 2.21418C144.197 2.21418 143.886 2.36121 143.662 2.59882C143.435 2.83874 143.294 3.17127 143.294 3.53922C143.294 3.90716 143.435 4.23969 143.662 4.47962C143.886 4.71722 144.197 4.86426 144.54 4.86426C144.884 4.86426 145.195 4.71722 145.419 4.47962C145.646 4.23969 145.787 3.90716 145.787 3.53922C145.787 3.17127 145.646 2.83874 145.419 2.59882Z" fill="#43403E"/>
<path d="M144.575 2.7627C144.692 2.7627 144.791 2.78055 144.873 2.81626C144.955 2.85153 145.018 2.90436 145.062 2.97388C145.105 3.04377 145.127 3.1297 145.127 3.23123C145.127 3.30953 145.113 3.37797 145.085 3.43697C145.057 3.4959 145.018 3.5454 144.967 3.58582C144.915 3.62588 144.855 3.6568 144.785 3.679L144.704 3.7216H144.222L144.22 3.50098H144.577C144.64 3.50098 144.691 3.4901 144.733 3.46789C144.774 3.44568 144.805 3.41549 144.826 3.37725C144.846 3.339 144.856 3.29531 144.856 3.24618C144.856 3.16642 144.834 3.10277 144.789 3.05575C144.744 3.00843 144.673 2.98477 144.575 2.98477H144.305V4.31576H144.036V2.7627H144.575V2.7627ZM144.544 3.61935L144.827 3.61826L145.187 4.3019V4.31576H144.899L144.544 3.61935V3.61935Z" fill="#43403E"/>
</svg>
