<svg width="16" height="16" viewBox="0 0 16 16" fill="none" xmlns="http://www.w3.org/2000/svg">
<path fill-rule="evenodd" clip-rule="evenodd" d="M8.49291 0C9.31339 0 9.97984 0.660179 9.99113 1.47886L9.99128 1C11.0056 2.2863 12.0946 3.51175 13.2527 4.67C17.8087 8.919 12.0151 11.97 12.0151 11.97C11.7492 12.0397 11.4662 11.9706 11.2622 11.7862C11.0583 11.6017 10.9609 11.3269 11.0032 11.055C14.305 8.16981 11.4245 6.29441 10.3532 5.74157L10.2316 5.6805C10.1759 5.6533 10.1281 5.6311 10.0902 5.61397L10.0281 5.58652C10.0042 5.5762 9.99128 5.571 9.99128 5.571V12.5C9.99128 12.5757 9.98568 12.6501 9.97487 12.7227C9.98555 12.8135 9.99128 12.9062 9.99128 13C9.99128 14.6569 8.20237 16 5.99564 16C3.78891 16 2 14.6569 2 13C2 11.3431 3.78891 10 5.99564 10C6.34082 10 6.67578 10.0329 6.99527 10.0947L6.99455 1.5C6.99455 0.671573 7.66539 0 8.49291 0Z" fill="#888888"/>
</svg>
