<svg width="13" height="16" viewBox="0 0 13 16" fill="none" xmlns="http://www.w3.org/2000/svg">
<path fill-rule="evenodd" clip-rule="evenodd" d="M6.49291 0C7.31339 0 7.97984 0.660179 7.99113 1.47886L7.99128 1C9.00559 2.2863 10.0946 3.51175 11.2527 4.67C15.8087 8.919 10.0151 11.97 10.0151 11.97C9.7492 12.0397 9.46615 11.9706 9.2622 11.7862C9.05825 11.6017 8.96087 11.3269 9.00317 11.055C12.305 8.16981 9.42449 6.29441 8.35319 5.74157L8.2316 5.6805C8.17587 5.6533 8.12814 5.6311 8.09025 5.61397L8.02813 5.58652C8.00418 5.5762 7.99128 5.571 7.99128 5.571V5.57V12.5C7.99128 12.5757 7.98568 12.6501 7.97487 12.7227C7.98555 12.8135 7.99128 12.9062 7.99128 13C7.99128 14.6569 6.20237 16 3.99564 16C1.78891 16 0 14.6569 0 13C0 11.3431 1.78891 10 3.99564 10C4.34082 10 4.67578 10.0329 4.99527 10.0947L4.99455 1.5C4.99455 0.671573 5.66539 0 6.49291 0Z" fill="#888888"/>
</svg>
