<svg width="16" height="16" viewBox="0 0 16 16" fill="none" xmlns="http://www.w3.org/2000/svg">
<path fill-rule="evenodd" clip-rule="evenodd" d="M8.00011 1C11.3136 1 13.9998 3.68629 13.9998 7L13.9996 11.1152C14.0133 11.3441 14.1101 11.5616 14.2741 11.7256C14.4654 11.917 14.7297 12.0169 14.9997 12C15.2671 11.9928 15.5256 12.0958 15.7147 12.2849C15.9039 12.474 16.0069 12.7326 15.9996 13C15.9996 13.5128 15.6136 13.9355 15.1163 13.9933L14.9997 14H10.9999L10.9996 14.0188C10.9926 14.222 10.8502 16 8.00011 16C8.00011 16 5.00029 16.015 5.00029 14H1.00053C0.732578 14.0093 0.472793 13.9069 0.283212 13.7174C0.0936304 13.5278 -0.00872718 13.268 0.000584083 13C0.000584083 12.4477 0.448273 12 1.00053 12C1.26856 12.0096 1.52852 11.9073 1.71817 11.7177C1.88073 11.5551 1.97908 11.3409 1.99781 11.1142L2.00047 11V7C2.00047 3.68629 4.6866 1 8.00011 1ZM9.00005 0V1H7.00017V0H9.00005Z" />
</svg>
