<svg width="24" height="24" viewBox="0 0 24 24" fill="none" xmlns="http://www.w3.org/2000/svg">
<path fill-rule="evenodd" clip-rule="evenodd" d="M15 0.732856L24 4.99995L15 9.26704C15 9.26704 12.6429 10.916 9 9.26704L0 4.99995L9 0.732856C12.6429 -0.91607 15 0.732856 15 0.732856Z" fill="url(#paint0_linear_43_25)"/>
<path fill-rule="evenodd" clip-rule="evenodd" d="M13 11.8606L24 6.80249V16.9186C23.949 20.608 21 20.9651 21 20.9651L13 23.9999V11.8606Z" fill="url(#paint1_linear_43_25)"/>
<path fill-rule="evenodd" clip-rule="evenodd" d="M11 11.8606L0 6.80249V16.9186C0.051 20.608 3 20.9651 3 20.9651L11 23.9999V11.8606Z" fill="url(#paint2_linear_43_25)"/>
<defs>
<linearGradient id="paint0_linear_43_25" x1="24" y1="5" x2="1.65301e-07" y2="5" gradientUnits="userSpaceOnUse">
<stop stop-color="#02FB29"/>
<stop offset="0.711187" stop-color="#FFDD00"/>
</linearGradient>
<linearGradient id="paint1_linear_43_25" x1="24" y1="7" x2="13" y2="24" gradientUnits="userSpaceOnUse">
<stop stop-color="#02FB29"/>
<stop offset="0.768482" stop-color="#1DEAE6"/>
</linearGradient>
<linearGradient id="paint2_linear_43_25" x1="-1.22242e-07" y1="7" x2="11" y2="24" gradientUnits="userSpaceOnUse">
<stop offset="0.231992" stop-color="#FFDD00"/>
<stop offset="0.81536" stop-color="#1DEAE6"/>
</linearGradient>
</defs>
</svg>
