<svg width="74" height="116" viewBox="0 0 74 116" fill="none" xmlns="http://www.w3.org/2000/svg">
<path d="M3.30469 35.5133C3.30469 33.568 3.72656 31.7985 4.57031 30.2047C5.4375 28.611 6.69141 27.3336 8.33203 26.3727C9.99609 25.4117 12.0469 24.9313 14.4844 24.9313C16.9688 24.9313 19.043 25.4117 20.707 26.3727C22.3711 27.3336 23.6133 28.611 24.4336 30.2047C25.2773 31.7985 25.6992 33.568 25.6992 35.5133V38.2203C25.6992 40.1188 25.2773 41.8649 24.4336 43.4586C23.6133 45.0524 22.3711 46.3297 20.707 47.2906C19.0664 48.2516 17.0156 48.7321 14.5547 48.7321C12.0938 48.7321 10.0312 48.2516 8.36719 47.2906C6.70312 46.3297 5.4375 45.0524 4.57031 43.4586C3.72656 41.8649 3.30469 40.1188 3.30469 38.2203V35.5133ZM10.3008 38.2203C10.3008 38.9938 10.4531 39.7203 10.7578 40.4C11.0859 41.0563 11.5664 41.5953 12.1992 42.0172C12.832 42.4391 13.6172 42.65 14.5547 42.65C15.4922 42.65 16.2656 42.4391 16.875 42.0172C17.4844 41.5953 17.9297 41.0563 18.2109 40.4C18.5156 39.7203 18.668 38.9938 18.668 38.2203V35.5133C18.668 34.7164 18.5156 33.9781 18.2109 33.2985C17.9062 32.6188 17.4375 32.068 16.8047 31.6461C16.1953 31.2242 15.4219 31.0133 14.4844 31.0133C13.5703 31.0133 12.7969 31.2242 12.1641 31.6461C11.5547 32.068 11.0859 32.6188 10.7578 33.2985C10.4531 33.9781 10.3008 34.7164 10.3008 35.5133V38.2203ZM27.7031 64.3063C27.7031 62.3844 28.125 60.6266 28.9688 59.0328C29.8359 57.4391 31.1016 56.1617 32.7656 55.2008C34.4297 54.2399 36.4805 53.7594 38.918 53.7594C41.4023 53.7594 43.4648 54.2399 45.1055 55.2008C46.7695 56.1617 48.0234 57.4391 48.8672 59.0328C49.7109 60.6266 50.1328 62.3844 50.1328 64.3063V67.0133C50.1328 68.9352 49.7109 70.693 48.8672 72.2867C48.0469 73.8805 46.8047 75.1578 45.1406 76.1188C43.5 77.0797 41.4492 77.5602 38.9883 77.5602C36.5273 77.5602 34.4531 77.0797 32.7656 76.1188C31.1016 75.1578 29.8359 73.8805 28.9688 72.2867C28.125 70.693 27.7031 68.9352 27.7031 67.0133V64.3063ZM34.7344 67.0133C34.7344 67.8102 34.9102 68.5485 35.2617 69.2281C35.6133 69.8844 36.1055 70.4235 36.7383 70.8453C37.3945 71.2672 38.1445 71.4781 38.9883 71.4781C40.0898 71.4781 40.9336 71.2672 41.5195 70.8453C42.1289 70.4235 42.5391 69.8844 42.75 69.2281C42.9844 68.5485 43.1016 67.8102 43.1016 67.0133V64.3063C43.1016 63.1344 42.75 62.1031 42.0469 61.2125C41.3672 60.2985 40.3242 59.8414 38.918 59.8414C37.5117 59.8414 36.457 60.2985 35.7539 61.2125C35.0742 62.1031 34.7344 63.1344 34.7344 64.3063V67.0133ZM16.5938 73.0602L11.4961 70.318L36.4922 30.3102L41.5898 33.0524L16.5938 73.0602ZM60.4828 32.6492L53.7961 30.7719L55.1039 26.8063L61.6852 29.5063L61.2211 22.1446H65.5664L65.1023 29.6539L71.5148 27.0172L72.8227 31.0461L66.0305 32.9024L70.5023 38.4711L66.9797 40.9602L63.1617 34.8008L59.3648 40.7492L55.8422 38.3446L60.4828 32.6492Z" fill="#333333"/>
<path d="M19.252 94.3004C19.252 96.3421 18.8874 98.0966 18.1582 99.5641C17.4382 101.032 16.431 102.162 15.1367 102.955C13.8516 103.739 12.3704 104.13 10.6934 104.13C9.01628 104.13 7.52604 103.739 6.22266 102.955C4.92839 102.162 3.91211 101.032 3.17383 99.5641C2.44466 98.0966 2.08008 96.3421 2.08008 94.3004V93.5211C2.08008 91.4795 2.44466 89.7249 3.17383 88.2574C3.90299 86.79 4.91471 85.6598 6.20898 84.8668C7.50326 84.0739 8.98893 83.6774 10.666 83.6774C12.3431 83.6774 13.8288 84.0739 15.123 84.8668C16.4173 85.6598 17.429 86.79 18.1582 88.2574C18.8874 89.7249 19.252 91.4795 19.252 93.5211V94.3004ZM14.7539 93.4938C14.7539 92.1448 14.5944 91.0146 14.2754 90.1031C13.9564 89.1917 13.4915 88.5035 12.8809 88.0387C12.2702 87.5647 11.5319 87.3278 10.666 87.3278C9.7819 87.3278 9.03906 87.5647 8.4375 88.0387C7.83594 88.5035 7.37565 89.1917 7.05664 90.1031C6.74674 91.0146 6.5918 92.1448 6.5918 93.4938V94.3004C6.5918 95.6311 6.7513 96.7568 7.07031 97.6774C7.38932 98.5979 7.84961 99.2998 8.45117 99.7828C9.06185 100.257 9.80924 100.494 10.6934 100.494C11.5592 100.494 12.293 100.257 12.8945 99.7828C13.5052 99.2998 13.9655 98.5979 14.2754 97.6774C14.5944 96.7568 14.7539 95.6311 14.7539 94.3004V93.4938ZM25.9107 103.857H21.4537V83.9508H25.9107V103.857ZM33.6627 95.8727H24.7076V92.2906H33.6627V95.8727ZM34.565 87.5465H24.7076V83.9508H34.565V87.5465ZM40.6632 103.857H36.2062V83.9508H40.6632V103.857ZM48.4152 95.8727H39.4601V92.2906H48.4152V95.8727ZM49.3175 87.5465H39.4601V83.9508H49.3175V87.5465Z" fill="#333333"/>
</svg>
