<svg width="16" height="14" viewBox="0 0 16 14" fill="none" xmlns="http://www.w3.org/2000/svg">
<path fill-rule="evenodd" clip-rule="evenodd" d="M9.83636 0C10.2786 0.262155 10.6711 0.600412 10.9957 0.999179L11.9943 2.99754H13.9914C14.5376 2.93601 15.0821 3.12669 15.4708 3.5156C15.8594 3.90451 16.05 4.44934 15.9885 4.9959V11.9902C16.0504 12.5368 15.86 13.0819 15.4712 13.4709C15.0824 13.8599 14.5377 14.0504 13.9914 13.9885H2.00861C1.4623 14.0504 0.917571 13.8599 0.528803 13.4709C0.140035 13.0819 -0.0503958 12.5368 0.0114835 11.9902V4.9959C-0.0500016 4.44934 0.140557 3.90451 0.52923 3.5156C0.917902 3.12669 1.4624 2.93601 2.00861 2.99754H4.00574L5.00431 0.999179C5.27458 0.608892 5.61282 0.270442 6.00287 0H9.83636ZM8 4.9959C6.34552 4.9959 5.00431 6.33794 5.00431 7.99343C5.00431 9.64893 6.34552 10.991 8 10.991C9.65448 10.991 10.9957 9.64893 10.9957 7.99343C10.9957 6.33794 9.65448 4.9959 8 4.9959Z" fill="#888888"/>
</svg>
