<svg width="16" height="16" viewBox="0 0 16 16" fill="none" xmlns="http://www.w3.org/2000/svg">
<path fill-rule="evenodd" clip-rule="evenodd" d="M8 16C12.4183 16 16 12.4183 16 8C16 3.58172 12.4183 0 8 0C3.58172 0 0 3.58172 0 8C0 12.4183 3.58172 16 8 16ZM7.99949 6.51252L5.79299 4.30602C5.59792 4.11122 5.33346 4.00189 5.05778 4.00208C4.7821 4.00226 4.51779 4.11196 4.32299 4.30702C4.12819 4.50209 4.01886 4.76655 4.01904 5.04223C4.01923 5.31791 4.12892 5.58222 4.32399 5.77702L6.52949 7.98252L4.30599 10.206C4.20417 10.3013 4.12255 10.416 4.06597 10.5435C4.0094 10.6709 3.97902 10.8084 3.97665 10.9478C3.97428 11.0872 3.99997 11.2257 4.05219 11.355C4.10441 11.4843 4.18209 11.6017 4.28061 11.7004C4.37913 11.799 4.49649 11.8769 4.6257 11.9293C4.75491 11.9817 4.89334 12.0075 5.03275 12.0054C5.17216 12.0032 5.30971 11.973 5.43722 11.9166C5.56473 11.8602 5.6796 11.7787 5.77499 11.677L7.99949 9.45252L10.224 11.677C10.3194 11.7787 10.4343 11.8602 10.5618 11.9166C10.6893 11.973 10.8268 12.0032 10.9662 12.0054C11.1056 12.0075 11.2441 11.9817 11.3733 11.9293C11.5025 11.8769 11.6198 11.799 11.7184 11.7004C11.8169 11.6017 11.8946 11.4843 11.9468 11.355C11.999 11.2257 12.0247 11.0872 12.0223 10.9478C12.02 10.8084 11.9896 10.6709 11.933 10.5435C11.8764 10.416 11.7948 10.3013 11.693 10.206L9.46949 7.98252L11.675 5.77702C11.8701 5.58222 11.9797 5.31791 11.9799 5.04223C11.9801 4.76655 11.8708 4.50209 11.676 4.30702C11.4812 4.11196 11.2169 4.00226 10.9412 4.00208C10.6655 4.00189 10.4011 4.11122 10.206 4.30602L7.99949 6.51252Z" fill="#FF369F"/>
</svg>
