<svg width="16" height="16" viewBox="0 0 16 16" fill="none" xmlns="http://www.w3.org/2000/svg">
<path fill-rule="evenodd" clip-rule="evenodd" d="M10 0H12C13.1038 0.768842 14 1.35789 15 2L14 5H12V16H8V9C8 8.44771 7.55228 8 7 8H3V5H1L0 2C0.368804 1.75533 0.694996 1.54147 1.00233 1.33998C1.67553 0.898612 2.25822 0.516589 3 0H5C5 0 5.02833 2.10526 7.5 2.10526C9.90542 2.10526 10 0 10 0Z" fill="#888888"/>
<path d="M14 6.2C14 6.08954 14.0895 6 14.2 6H14.8C14.9105 6 15 6.08954 15 6.2V8H14V6.2Z" fill="#888888"/>
<path d="M15.3571 8H13.6429C13.2878 8 13 8.28277 13 8.63158V15.3684C13 15.7172 13.2878 16 13.6429 16H15.3571C15.7122 16 16 15.7172 16 15.3684V8.63158C16 8.28277 15.7122 8 15.3571 8Z" fill="#888888"/>
<path d="M2 9.3C2 9.13431 2.13431 9 2.3 9H6.7C6.86568 9 7 9.13431 7 9.3V15C7 15.5523 6.55228 16 6 16H3C2.44772 16 2 15.5523 2 15V9.3Z" fill="#888888"/>
<path fill-rule="evenodd" clip-rule="evenodd" d="M1.7 10C0.761116 10 0 10.7611 0 11.7V13.3C0 14.2389 0.761116 15 1.7 15H2V14H1.8C1.35817 14 1 13.6418 1 13.2V11.8C1 11.3582 1.35817 11 1.8 11H2V10H1.7Z" fill="#888888"/>
</svg>
