<svg width="16" height="16" viewBox="0 0 16 16" fill="none" xmlns="http://www.w3.org/2000/svg">
<path fill-rule="evenodd" clip-rule="evenodd" d="M16 8C16 12.4183 12.4183 16 8 16C3.58173 16 0 12.4183 0 8C0 3.58173 3.58173 0 8 0C12.4183 0 16 3.58173 16 8ZM7.27548 9.19727C7.21625 9.47662 7.18451 9.80884 7.18027 10.194H8.74832C8.75681 9.8681 8.80124 9.58667 8.88165 9.34967C8.96631 9.1084 9.12714 8.88196 9.36414 8.67035C9.64346 8.41217 9.89954 8.15826 10.1323 7.90857C10.3693 7.6546 10.5598 7.38373 10.7036 7.09595C10.8518 6.80817 10.9258 6.47803 10.9258 6.10559C10.9258 5.30994 10.6804 4.69836 10.1894 4.27087C9.69849 3.84344 9.01498 3.6297 8.13889 3.6297C7.60983 3.6297 7.12949 3.72278 6.69778 3.909C6.27032 4.091 5.92963 4.37036 5.67569 4.74701C5.42599 5.11945 5.29691 5.59344 5.28842 6.16907H7.04059C7.04483 5.77972 7.15912 5.49823 7.38342 5.32471C7.60773 5.15118 7.85956 5.06445 8.13889 5.06445C8.47748 5.06445 8.73563 5.15967 8.91339 5.3501C9.09116 5.54059 9.18002 5.81781 9.18002 6.18176C9.18002 6.39758 9.13559 6.59229 9.04672 6.76581C8.95782 6.93933 8.83722 7.10651 8.68484 7.26733C8.53671 7.42816 8.36533 7.59534 8.17062 7.76886C7.92514 7.99316 7.73047 8.21753 7.58658 8.44183C7.44266 8.66614 7.33899 8.91797 7.27548 9.19727ZM7.28183 11.4891C7.10831 11.6668 7.02155 11.8869 7.02155 12.1493C7.02155 12.4117 7.10831 12.6318 7.28183 12.8096C7.45959 12.9873 7.69873 13.0762 7.99921 13.0762C8.30396 13.0762 8.54306 12.9873 8.71658 12.8096C8.89435 12.6318 8.98322 12.4117 8.98322 12.1493C8.98322 11.8869 8.89435 11.6668 8.71658 11.4891C8.54306 11.3071 8.30396 11.2161 7.99921 11.2161C7.69873 11.2161 7.45959 11.3071 7.28183 11.4891Z" fill="#BBBBBB"/>
</svg>
