<svg width="16" height="16" viewBox="0 0 16 16" fill="none" xmlns="http://www.w3.org/2000/svg">
<path fill-rule="evenodd" clip-rule="evenodd" d="M7.5 0C11.6421 0 15 3.35786 15 7.5C15 8.92551 14.6023 10.2581 13.9118 11.393L15.3996 12.8822C15.8955 13.3218 16.1068 14.0002 15.9481 14.6436C15.7894 15.287 15.2869 15.7894 14.6433 15.9481C13.9998 16.1067 13.3213 15.8956 12.8816 15.3997L11.393 13.9118C10.2581 14.6023 8.92551 15 7.5 15C3.35786 15 0 11.6421 0 7.5C0 3.35786 3.35786 0 7.5 0ZM7.5 3.52941C5.3071 3.52941 3.52941 5.3071 3.52941 7.5C3.52941 9.6929 5.3071 11.4706 7.5 11.4706C9.6929 11.4706 11.4706 9.6929 11.4706 7.5C11.4706 5.3071 9.6929 3.52941 7.5 3.52941Z" fill="#888888"/>
</svg>
