<svg width="15" height="16" viewBox="0 0 15 16" fill="none" xmlns="http://www.w3.org/2000/svg">
<path fill-rule="evenodd" clip-rule="evenodd" d="M15 3C15 4.65686 13.6569 6 12 6C11.0891 6 10.273 5.59406 9.72283 4.95319L5.93329 7.36792C5.97699 7.57172 6 7.78314 6 8C6 8.21808 5.97674 8.43066 5.93256 8.6355L9.72068 11.0493C10.2709 10.407 11.0879 10 12 10C13.6569 10 15 11.3431 15 13C15 14.6569 13.6569 16 12 16C10.3431 16 9 14.6569 9 13C9 12.9865 9.00009 12.973 9.00027 12.9596L4.88245 10.336C4.36771 10.7513 3.71289 11 3 11C1.34315 11 0 9.65686 0 8C0 6.34314 1.34315 5 3 5C3.71349 5 4.3688 5.24908 4.88374 5.66504L9.00029 3.04224L9 3C9 1.34314 10.3431 0 12 0C13.6569 0 15 1.34314 15 3Z" fill="#888888"/>
</svg>
