<svg width="16" height="16" viewBox="0 0 16 16" fill="none" xmlns="http://www.w3.org/2000/svg">
<path fill-rule="evenodd" clip-rule="evenodd" d="M7.21053 2H8.78947C9.86581 2 10.3431 2.34942 10.5754 2.61433C10.8561 2.93428 11 3.39089 11 3.81818V4H9.84211H6.68421H5V3.81818C5 3.39089 5.14392 2.93428 5.42457 2.61433C5.65695 2.34942 6.13419 2 7.21053 2ZM3 4V3.81818C3 2.18182 4.05263 0 7.21053 0H8.78947C11.9474 0 13 2.18182 13 3.81818V4H15C15.5523 4 16 4.44772 16 5V13C16 14.6569 14.6569 16 13 16H3C1.34315 16 0 14.6569 0 13V5C0 4.44771 0.447715 4 1 4H3Z" fill="#888888"/>
</svg>
