<svg width="195" height="42" viewBox="0 0 195 42" fill="none" xmlns="http://www.w3.org/2000/svg">
<path d="M0 29.2318C1.428 37.0858 7.91891 41.6943 17.4605 41.6943C26.1584 41.6943 33.0387 37.0209 33.0387 28.8423C33.0387 22.676 29.274 18.9762 22.4585 17.3534L14.6695 15.536C12.5924 15.0816 11.3591 14.108 11.3591 12.3554C11.3591 10.1485 13.3713 8.85035 16.3571 8.85035C19.7973 8.85035 21.6147 10.538 22.4585 12.7449H32.6493C31.5458 5.86453 26.0285 0.541992 16.2922 0.541992C7.46455 0.541992 0.973636 5.66981 0.973636 13.4589C0.973636 20.2094 5.38745 23.2602 11.2293 24.5583L18.8885 26.1811C21.42 26.7653 22.6533 27.6091 22.6533 29.4914C22.6533 31.958 20.4464 33.3211 17.2658 33.3211C14.0204 33.3211 11.6836 31.958 10.8398 29.2318H0Z" fill="#333333"/>
<path d="M43.1302 0.95459H33.5847V41.0455H43.1302V0.95459Z" fill="#333333"/>
<path fill-rule="evenodd" clip-rule="evenodd" d="M85.1301 41.0455V0.95459H94.6044H96.1007L109.065 24.1183V0.95459H118.539V41.0455H109.065H107.569L94.6044 17.8818V41.0455H85.1301Z" fill="#333333"/>
<path fill-rule="evenodd" clip-rule="evenodd" d="M85.1301 21C85.1301 32.598 75.7281 42 64.1301 42C52.5321 42 43.1301 32.598 43.1301 21C43.1301 9.40199 52.5321 0 64.1301 0C73.3921 0 81.2536 5.99607 84.0448 14.3182H73.4349C71.3556 11.4277 67.9627 9.54545 64.1301 9.54545C57.804 9.54545 52.6756 14.6738 52.6756 21C52.6756 27.3262 57.804 32.4545 64.1301 32.4545C68.3699 32.4545 72.0718 30.151 74.0522 26.7273H63.1756V17.1818H71.7665H74.9329H85.1301V20.0455H85.1088C85.123 20.3619 85.1301 20.6801 85.1301 21Z" fill="#333333"/>
<path fill-rule="evenodd" clip-rule="evenodd" d="M128.085 0.95459H137.63V24.8182H137.645C137.892 28.5497 140.996 31.5 144.789 31.5C148.583 31.5 151.687 28.5497 151.933 24.8182H151.948V0.95459H161.494V24.8182H161.487C161.234 33.823 153.856 41.0455 144.789 41.0455C135.723 41.0455 128.344 33.823 128.091 24.8182H128.085V0.95459Z" fill="#333333"/>
<path fill-rule="evenodd" clip-rule="evenodd" d="M173.903 0.95459H163.403V41.0455H173.903V27.6819H181.539C188.92 27.6819 194.903 21.6987 194.903 14.3182C194.903 6.93778 188.92 0.95459 181.539 0.95459H173.903ZM173.903 10.5V18.1364H181.539C183.648 18.1364 185.357 16.4268 185.357 14.3182C185.357 12.2096 183.648 10.5 181.539 10.5H173.903Z" fill="#333333"/>
</svg>
