<svg width="8" height="8" viewBox="0 0 8 8" fill="none" xmlns="http://www.w3.org/2000/svg">
<path fill-rule="evenodd" clip-rule="evenodd" d="M-2.8052e-08 7.35824C-2.06179e-08 7.52832 0.0674972 7.69145 0.187705 7.81192C0.247083 7.87153 0.317672 7.91883 0.395412 7.95111C0.473153 7.98338 0.556514 8 0.640705 8C0.724895 8 0.808257 7.98338 0.885997 7.95111C0.963738 7.91883 1.03433 7.87153 1.0937 7.81192L3.99894 4.90692L6.90371 7.81189C7.02505 7.92751 7.1869 7.99107 7.3546 7.98896C7.52229 7.98685 7.68249 7.91924 7.80088 7.80061C7.91927 7.68198 7.98644 7.52176 7.988 7.35427C7.98955 7.18678 7.92537 7.02535 7.8092 6.90454L4.9055 4.00042L7.8092 1.09695C7.92988 0.977024 7.99791 0.814134 7.99833 0.644114C7.99875 0.474094 7.93153 0.310869 7.81145 0.190349C7.69138 0.0698282 7.52828 0.00188509 7.35805 0.00146357C7.18781 0.00104205 7.02438 0.0681783 6.9037 0.188103L3.99861 3.0934L1.0937 0.188073C1.03433 0.128464 0.963738 0.0811605 0.885997 0.0488834C0.808256 0.0166058 0.724895 -8.61476e-06 0.640704 -8.61107e-06C0.556513 -8.60739e-06 0.473153 0.0166058 0.395412 0.0488834C0.317671 0.0811605 0.247083 0.128464 0.187704 0.188073C0.0674969 0.308536 -3.29074e-07 0.471674 -3.21639e-07 0.641747C-3.14205e-07 0.811819 0.0674969 0.974956 0.187704 1.09542L3.09208 4L0.187705 6.90457C0.0674972 7.02503 -3.54861e-08 7.18817 -2.8052e-08 7.35824Z" fill="#888888"/>
</svg>
