<svg width="8" height="8" viewBox="0 0 8 8" fill="none" xmlns="http://www.w3.org/2000/svg">
<path fill-rule="evenodd" clip-rule="evenodd" d="M2.52245 4.00099L0.306013 1.78455C-0.102004 1.37654 -0.102004 0.715008 0.306013 0.30699C0.714031 -0.101028 1.37556 -0.101028 1.78358 0.30699L4.00001 2.52342L6.21629 0.307147C6.62431 -0.100871 7.28583 -0.100871 7.69385 0.307147C8.10187 0.715165 8.10187 1.37669 7.69385 1.78471L5.47757 4.00099L7.69383 6.21724C8.10185 6.62526 8.10185 7.28679 7.69383 7.69481C7.28581 8.10282 6.62428 8.10282 6.21627 7.69481L4.00001 5.47855L1.7836 7.69496C1.37558 8.10298 0.714054 8.10298 0.306036 7.69496C-0.101981 7.28694 -0.101981 6.62542 0.306036 6.2174L2.52245 4.00099Z" fill="#888888"/>
</svg>
