<svg width="16" height="16" viewBox="0 0 16 16" fill="none" xmlns="http://www.w3.org/2000/svg">
<path d="M16 14C16 15.1046 15.1046 16 14 16H2C0.89543 16 0 15.1046 0 14V4H16V14ZM7 10H4V12C4 12.5523 4.44772 13 5 13H7V10ZM12 10H8V13H11C11.5523 13 12 12.5523 12 12V10ZM11 6H5C4.44772 6 4 6.44772 4 7V9H12V7C12 6.44772 11.5523 6 11 6ZM1.5 1C1.22386 1 1 1.22386 1 1.5C1 1.77614 1.22386 2 1.5 2C1.77614 2 2 1.77614 2 1.5C2 1.22386 1.77614 1 1.5 1ZM3.5 1C3.22386 1 3 1.22386 3 1.5C3 1.77614 3.22386 2 3.5 2C3.77614 2 4 1.77614 4 1.5C4 1.22386 3.77614 1 3.5 1ZM5.5 1C5.22386 1 5 1.22386 5 1.5C5 1.77614 5.22386 2 5.5 2C5.77614 2 6 1.77614 6 1.5C6 1.22386 5.77614 1 5.5 1ZM0 2C0 0.89543 0.89543 0 2 0H14C15.1046 0 16 0.89543 16 2V3H0V2Z" fill="#888888"/>
</svg>
