<svg width="16" height="13" viewBox="0 0 16 13" fill="none" xmlns="http://www.w3.org/2000/svg">
<path fill-rule="evenodd" clip-rule="evenodd" d="M14.3711 3.69761C14.3711 3.55483 14.3711 3.41605 14.3611 3.27527C15.0042 2.82251 15.5596 2.25685 16 1.60589C15.3996 1.86316 14.7638 2.02844 14.1139 2.09612C14.7994 1.69795 15.3138 1.06168 15.5588 0.308925C14.9133 0.681468 14.2082 0.939873 13.4746 1.07273C13.1691 0.741199 12.7992 0.475166 12.3874 0.290818C11.9756 0.10647 11.5305 0.00765836 11.0792 0.000403106C10.6491 -0.00638508 10.2219 0.0726213 9.82275 0.232789C9.4236 0.392956 9.06053 0.631063 8.75484 0.933129C8.44915 1.23519 8.20699 1.59514 8.04257 1.99185C7.87816 2.38856 7.7948 2.81403 7.79739 3.24332C7.79662 3.4957 7.82516 3.74732 7.88243 3.99314C6.56834 3.91053 5.28647 3.55233 4.12049 2.94193C2.95451 2.33154 1.93061 1.48266 1.11563 0.450701C0.823159 0.956743 0.669901 1.53092 0.671375 2.11509C0.670996 2.66201 0.803638 3.20085 1.05791 3.68535C1.31218 4.16985 1.68048 4.58554 2.1312 4.89672C1.60806 4.87342 1.09816 4.72516 0.64436 4.4644V4.50833C0.64136 5.27231 0.901252 6.01417 1.38059 6.60989C1.85993 7.20561 2.52967 7.61908 3.27785 7.7812C2.99594 7.85662 2.70522 7.89423 2.41336 7.89303C2.2062 7.89196 1.99969 7.86988 1.79701 7.82713C2.0014 8.48455 2.407 9.06157 2.95685 9.4772C3.5067 9.89283 4.17319 10.1262 4.86274 10.1445C3.70279 11.0603 2.26557 11.556 0.786446 11.5503C0.523605 11.55 0.261006 11.5343 0 11.5034C1.40583 12.4138 3.03198 12.9285 4.70669 12.9931C6.3814 13.0576 8.04249 12.6696 9.51452 11.8701C10.9865 11.0706 12.2148 9.88916 13.0697 8.45067C13.9245 7.01217 14.3741 5.37 14.3711 3.69761Z" fill="#888888"/>
</svg>
