<svg width="16" height="16" viewBox="0 0 16 16" fill="none" xmlns="http://www.w3.org/2000/svg">
<path fill-rule="evenodd" clip-rule="evenodd" d="M8 0C10.2091 0 12 1.79086 12 4C12 6.20914 10.2091 8 8 8C5.79086 8 4 6.20914 4 4C4 1.79086 5.79086 0 8 0Z" fill="#333333"/>
<path fill-rule="evenodd" clip-rule="evenodd" d="M1.06796 15.9989H14.9334C15.5157 15.9739 15.9812 15.4647 16 14.8322C16 11.0546 13.298 9 10.3116 9H5.68978C2.71671 9 0.00138953 11.0379 0.00138953 14.8322C-0.0136288 15.1449 0.0936389 15.4499 0.296757 15.672C0.499875 15.8942 0.779952 16.0129 1.06796 15.9989Z" fill="#333333"/>
</svg>
