<svg width="16" height="12" viewBox="0 0 16 12" fill="none" xmlns="http://www.w3.org/2000/svg">
<path fill-rule="evenodd" clip-rule="evenodd" d="M16 10V6C16 6 14.776 4.257 14 3H0V10H2C2.03132 9.4798 2.25209 8.98911 2.62059 8.62061C2.98909 8.2521 3.4798 8.03132 4 8H5C5.51909 8.03448 6.00802 8.25625 6.37589 8.62411C6.74375 8.99198 6.96552 9.48091 7 10H10C10.0243 9.47741 10.2429 8.98272 10.6128 8.61279C10.9827 8.24287 11.4774 8.02435 12 8H13C13.5214 8.02788 14.0141 8.24753 14.3833 8.61673C14.7525 8.98593 14.9721 9.47861 15 10H16ZM2 0H10C10.966 0 12 2.133 12 3H0V2C0.0629527 1.49148 0.293907 1.01854 0.656227 0.656219C1.01855 0.293899 1.49148 0.0629527 2 0ZM4.5 9C4.79667 9 5.08669 9.08799 5.33336 9.25281C5.58003 9.41763 5.77229 9.65188 5.88582 9.92596C5.99935 10.2001 6.02905 10.5017 5.97118 10.7926C5.9133 11.0836 5.77043 11.3509 5.56065 11.5607C5.35087 11.7704 5.0836 11.9133 4.79263 11.9712C4.50166 12.0291 4.20006 11.9994 3.92597 11.8858C3.65188 11.7723 3.41761 11.58 3.25279 11.3333C3.08797 11.0867 3 10.7967 3 10.5C3 10.1022 3.15803 9.72064 3.43934 9.43933C3.72064 9.15803 4.10218 9 4.5 9ZM12.5 9C12.7967 9 13.0867 9.08799 13.3334 9.25281C13.58 9.41763 13.7723 9.65188 13.8858 9.92596C13.9993 10.2001 14.0291 10.5017 13.9712 10.7926C13.9133 11.0836 13.7704 11.3509 13.5607 11.5607C13.3509 11.7704 13.0836 11.9133 12.7926 11.9712C12.5017 12.0291 12.2001 11.9994 11.926 11.8858C11.6519 11.7723 11.4176 11.58 11.2528 11.3333C11.088 11.0867 11 10.7967 11 10.5C11 10.1022 11.158 9.72064 11.4393 9.43933C11.7207 9.15803 12.1022 9 12.5 9Z" fill="#888888"/>
</svg>
