<svg width="16" height="16" viewBox="0 0 16 16" fill="none" xmlns="http://www.w3.org/2000/svg">
<path d="M0 2C0 0.895431 0.895431 0 2 0H14C15.1046 0 16 0.895431 16 2V14C16 15.1046 15.1046 16 14 16H2C0.895431 16 0 15.1046 0 14V2Z" />
<path d="M6.83328 1.39267H5.8333C5.55716 1.39267 5.3333 1.61653 5.3333 1.89267V2.98377C5.3333 3.25991 5.55716 3.48377 5.8333 3.48377H6.83328C7.10943 3.48377 7.33328 3.25991 7.33328 2.98377V1.89267C7.33328 1.61653 7.10943 1.39267 6.83328 1.39267Z" fill="white"/>
<path d="M2.5 14.6059H3.49998C3.77612 14.6059 3.99998 14.3821 3.99998 14.1059V13.0148C3.99998 12.7387 3.77612 12.5148 3.49998 12.5148H2.5C2.22386 12.5148 2 12.7387 2 13.0148V14.1059C2 14.3821 2.22386 14.6059 2.5 14.6059Z" fill="white"/>
<path d="M2.5 3.48377H3.49998C3.77612 3.48377 3.99998 3.25991 3.99998 2.98377V1.89267C3.99998 1.61653 3.77612 1.39267 3.49998 1.39267H2.5C2.22386 1.39267 2 1.61653 2 1.89267V2.98377C2 3.25991 2.22386 3.48377 2.5 3.48377Z" fill="white"/>
<path d="M5.8333 14.6059H6.83328C7.10943 14.6059 7.33328 14.3821 7.33328 14.1059V13.0148C7.33328 12.7387 7.10943 12.5148 6.83328 12.5148H5.8333C5.55716 12.5148 5.3333 12.7387 5.3333 13.0148V14.1059C5.3333 14.3821 5.55716 14.6059 5.8333 14.6059Z" fill="white"/>
<path d="M9.1666 14.6059H10.1666C10.4427 14.6059 10.6666 14.3821 10.6666 14.1059V13.0148C10.6666 12.7387 10.4427 12.5148 10.1666 12.5148H9.1666C8.89046 12.5148 8.6666 12.7387 8.6666 13.0148V14.1059C8.6666 14.3821 8.89046 14.6059 9.1666 14.6059Z" fill="white"/>
<path d="M9.1666 3.48377H10.1666C10.4427 3.48377 10.6666 3.25991 10.6666 2.98377V1.89267C10.6666 1.61653 10.4427 1.39267 10.1666 1.39267H9.1666C8.89046 1.39267 8.6666 1.61653 8.6666 1.89267V2.98377C8.6666 3.25991 8.89046 3.48377 9.1666 3.48377Z" fill="white"/>
<path d="M12.4999 14.6059H13.4999C13.776 14.6059 13.9999 14.3821 13.9999 14.1059V13.0148C13.9999 12.7387 13.776 12.5148 13.4999 12.5148H12.4999C12.2238 12.5148 11.9999 12.7387 11.9999 13.0148V14.1059C11.9999 14.3821 12.2238 14.6059 12.4999 14.6059Z" fill="white"/>
<path d="M12.4999 3.48377H13.4999C13.776 3.48377 13.9999 3.25991 13.9999 2.98377V1.89267C13.9999 1.61653 13.776 1.39267 13.4999 1.39267H12.4999C12.2238 1.39267 11.9999 1.61653 11.9999 1.89267V2.98377C11.9999 3.25991 12.2238 3.48377 12.4999 3.48377Z" fill="white"/>
<path d="M5.76001 5.43872V10.512C5.76001 10.9656 6.12773 11.3333 6.58134 11.3333C6.92061 11.3333 7.25156 11.2283 7.52872 11.0326L10.3391 9.04856C10.6783 8.80907 10.88 8.41972 10.88 8.00448C10.88 7.58425 10.6734 7.19088 10.3275 6.95232L7.40865 4.93959C7.15089 4.76184 6.84518 4.66666 6.53207 4.66666C6.10568 4.66666 5.76001 5.01232 5.76001 5.43872Z" fill="white"/>
</svg>
