<svg width="16" height="16" viewBox="0 0 16 16" fill="none" xmlns="http://www.w3.org/2000/svg">
<path fill-rule="evenodd" clip-rule="evenodd" d="M3 3H4.5C5.32843 3 6 2.32843 6 1.5C6 0.67157 5.32843 0 4.5 0H1.5C0.67157 0 0 0.67157 0 1.5V4.5C0 5.32843 0.67157 6 1.5 6C2.32843 6 3 5.32843 3 4.5V3ZM16 1.5C16 0.67157 15.3284 0 14.5 0H11.5C10.6716 0 10 0.67157 10 1.5C10 2.32843 10.6716 3 11.5 3H13V4.5C13 5.32843 13.6716 6 14.5 6C15.3284 6 16 5.32843 16 4.5V1.5ZM3 11.5C3 10.6716 2.32843 10 1.5 10C0.67157 10 0 10.6716 0 11.5V14.5C0 15.3284 0.67157 16 1.5 16H4.5C5.32843 16 6 15.3284 6 14.5C6 13.6716 5.32843 13 4.5 13H3V11.5ZM16 11.5C16 10.6716 15.3284 10 14.5 10C13.6716 10 13 10.6716 13 11.5V13H11.5C10.6716 13 10 13.6716 10 14.5C10 15.3284 10.6716 16 11.5 16H14.5C15.3284 16 16 15.3284 16 14.5V11.5Z" fill="#888888"/>
</svg>
