<svg width="428" height="46" viewBox="0 0 428 46" fill="none" xmlns="http://www.w3.org/2000/svg">
<path fill-rule="evenodd" clip-rule="evenodd" d="M44.518 11.728C51.3803 11.728 56.9432 17.291 56.9432 24.1532C56.9432 31.0155 51.3803 36.5784 44.518 36.5784C37.6558 36.5784 32.0928 31.0155 32.0928 24.1532C32.0928 17.291 37.6558 11.728 44.518 11.728ZM44.9498 17.9467C48.1852 17.9467 50.8081 20.7254 50.8081 24.1532C50.8081 27.5811 48.1852 30.3599 44.9498 30.3599C41.7143 30.3599 39.0915 27.5811 39.0915 24.1532C39.0915 20.7254 41.7143 17.9467 44.9498 17.9467Z" fill="#43403E"/>
<path d="M56.9745 12.0679H51.8541C51.336 12.0679 50.9159 12.488 50.9159 13.0061V35.2999C50.9159 35.818 51.336 36.2381 51.8541 36.2381H56.9745C57.4927 36.2381 57.9128 35.818 57.9128 35.2999V13.0061C57.9128 12.488 57.4927 12.0679 56.9745 12.0679Z" fill="#43403E"/>
<path fill-rule="evenodd" clip-rule="evenodd" d="M65.9821 12.0679H60.8614C60.3454 12.0679 59.9234 12.4899 59.9234 13.006V35.3C59.9234 35.8161 60.3454 36.2381 60.8614 36.2381H65.9821C66.4982 36.2381 66.9201 35.8161 66.9201 35.3V22.9199C67.3223 20.1016 69.6185 17.9413 72.3908 17.9413C72.8108 17.9413 73.2199 17.991 73.613 18.0849C74.0822 18.1622 74.4926 17.6905 74.4926 17.2046V12.963C74.4926 12.559 74.1896 12.1491 73.8493 12.1149C73.5031 12.084 73.1529 12.0679 72.7986 12.0679C70.6565 12.0679 68.6488 12.6423 66.9201 13.6447V13.006C66.9201 12.4899 66.4982 12.0679 65.9821 12.0679Z" fill="#43403E"/>
<path fill-rule="evenodd" clip-rule="evenodd" d="M87.4259 35.4494V31.1469C87.4259 30.7135 87.004 30.3589 86.4879 30.3589H85.9044C84.8447 30.3589 83.9859 29.5002 83.9859 28.4405V23.361V17.9457H86.6347C87.0683 17.9457 87.4229 17.5911 87.4229 17.1575V12.8554C87.4229 12.4217 87.0683 12.0672 86.6347 12.0672H83.9859V6.86526C83.9859 6.34927 83.5639 5.92725 83.0478 5.92725H77.9271C77.4111 5.92725 76.9891 6.34927 76.9891 6.86526V12.0672H76.0363C75.6028 12.0672 75.2483 12.4217 75.2483 12.8554V17.1575C75.2483 17.5911 75.6028 17.9457 76.0363 17.9457H76.9891V29.7875C76.9891 33.3497 79.8767 36.2374 83.439 36.2374H85.9044H86.4879C87.004 36.2374 87.4259 35.8828 87.4259 35.4494Z" fill="#43403E"/>
<path fill-rule="evenodd" clip-rule="evenodd" d="M111.89 21.7276V35.3003C111.89 35.8161 111.468 36.2383 110.951 36.2383H105.831C105.315 36.2383 104.893 35.8163 104.893 35.3003V21.7276H104.881C104.708 19.6017 102.922 17.9467 100.778 17.9467C98.6173 17.9467 96.8325 19.6111 96.6623 21.7276V35.3003C96.6623 35.8163 96.2403 36.2383 95.7242 36.2383H90.6035C90.0875 36.2383 89.6654 35.8163 89.6654 35.3003V13.0062C89.6654 12.4902 90.0875 12.0681 90.6035 12.0681H95.7242C96.2403 12.0681 96.6623 12.4902 96.6623 13.0062V13.3734C98.2121 12.3336 100.068 11.728 102.063 11.728C102.203 11.728 102.768 11.728 102.984 11.728C107.903 11.7545 111.89 15.7151 111.89 20.6335V21.7276Z" fill="#43403E"/>
<path fill-rule="evenodd" clip-rule="evenodd" d="M145.934 35.4494V31.1469C145.934 30.7135 145.511 30.3589 144.995 30.3589H144.412C143.352 30.3589 142.494 29.5002 142.494 28.4405V23.361V17.9457H145.143C145.575 17.9457 145.931 17.5911 145.931 17.1575V12.8554C145.931 12.4217 145.575 12.0672 145.143 12.0672H142.494V6.86526C142.494 6.34927 142.071 5.92725 141.556 5.92725H136.435C135.918 5.92725 135.497 6.34927 135.497 6.86526V12.0672H134.544C134.11 12.0672 133.756 12.4217 133.756 12.8554V17.1575C133.756 17.5911 134.11 17.9457 134.544 17.9457H135.497V29.7875C135.497 33.3497 138.384 36.2374 141.947 36.2374H144.412H144.995C145.511 36.2374 145.934 35.8828 145.934 35.4494Z" fill="#43403E"/>
<path fill-rule="evenodd" clip-rule="evenodd" d="M158.324 11.728C165.186 11.728 170.748 17.291 170.748 24.1534C170.748 31.0155 165.186 36.5784 158.324 36.5784C151.461 36.5784 145.898 31.0155 145.898 24.1534C145.898 17.291 151.461 11.728 158.324 11.728ZM158.323 17.9467C161.32 17.9467 163.75 20.7254 163.75 24.1532C163.75 27.5811 161.32 30.3599 158.323 30.3599C155.325 30.3599 152.895 27.5811 152.895 24.1532C152.895 20.7254 155.325 17.9467 158.323 17.9467Z" fill="#43403E"/>
<path fill-rule="evenodd" clip-rule="evenodd" d="M197.61 2.9707H202.73C203.246 2.9707 203.669 3.39293 203.669 3.90882V19.9699L209.857 12.6881C210.186 12.3081 210.672 12.0676 211.214 12.0676H216.442C216.995 12.0676 217.443 12.5153 217.443 13.0677C217.443 13.3222 217.348 13.5546 217.191 13.7312L208.335 24.1527L217.191 34.5742C217.348 34.7508 217.443 34.9832 217.443 35.2377C217.443 35.79 216.995 36.2378 216.442 36.2378H211.214C210.672 36.2378 210.186 35.9972 209.857 35.6173L203.669 28.3357V35.2997C203.669 35.8156 203.246 36.2378 202.73 36.2378H197.61C197.094 36.2378 196.672 35.8156 196.672 35.2997V3.90882C196.672 3.39293 197.094 2.9707 197.61 2.9707Z" fill="#43403E"/>
<path d="M112.98 29.8199C114.125 34.2445 118.202 36.604 123.693 36.604C129.366 36.604 133.851 33.8014 133.851 28.7248C133.851 24.8646 131.583 22.5909 127.355 21.5862L122.766 20.4756C121.683 20.2641 121.167 19.894 121.167 19.1536C121.167 18.0961 122.147 17.5673 123.333 17.5673C124.863 17.5673 125.623 18.1789 125.986 18.9573L125.988 18.9595C126.12 19.2604 126.42 19.4709 126.769 19.4709H132.602C133.073 19.4709 133.454 19.0894 133.454 18.6185C133.454 18.5377 133.443 18.4593 133.422 18.385C132.358 14.3061 128.966 11.7505 123.126 11.7505C117.661 11.7505 113.227 14.7117 113.227 19.7882C113.227 23.9657 115.753 25.8694 119.62 26.7154L124.158 27.6673C125.292 27.9317 125.962 28.249 125.962 29.1479C125.962 30.2584 124.932 30.7872 123.591 30.7872C122.341 30.7872 121.323 30.2327 120.838 29.2264C120.704 28.9307 120.407 28.7248 120.061 28.7248H113.797C113.327 28.7248 112.945 29.1064 112.945 29.5772C112.945 29.6616 112.957 29.7428 112.98 29.8199ZM120.851 29.2568C120.857 29.2722 120.863 29.2877 120.868 29.3034C120.863 29.2878 120.857 29.2722 120.851 29.2568ZM133.333 18.1805C133.346 18.2028 133.359 18.2256 133.37 18.249C133.359 18.2257 133.346 18.2027 133.333 18.1805Z" fill="#43403E"/>
<path fill-rule="evenodd" clip-rule="evenodd" d="M183.747 36.5784C189.349 36.5784 194.083 32.8707 195.634 27.7757V27.7753C195.67 27.6785 195.69 27.5738 195.69 27.4645C195.69 26.9753 195.294 26.5787 194.804 26.5787L194.797 26.5788H189.309L189.302 26.5787C188.959 26.5787 188.663 26.7848 188.533 27.0799C187.619 29.0321 185.818 30.3599 183.746 30.3599C180.748 30.3599 178.318 27.5811 178.318 24.1533C178.318 20.7254 180.748 17.9467 183.746 17.9467C185.818 17.9467 187.619 19.2744 188.533 21.2266C188.663 21.5218 188.959 21.7277 189.302 21.7277L189.309 21.7276H194.797L194.804 21.7277C195.294 21.7277 195.69 21.3313 195.69 20.8421C195.69 20.7326 195.67 20.6279 195.634 20.5312V20.5308C194.083 15.4358 189.349 11.728 183.747 11.728C176.884 11.728 171.321 17.291 171.321 24.1533C171.321 31.0156 176.884 36.5784 183.747 36.5784Z" fill="#43403E"/>
<path fill-rule="evenodd" clip-rule="evenodd" d="M15.4732 30.4696L15.4749 30.4681C16.0895 28.0833 17.2395 26.072 18.7149 24.735C16.7258 24.8328 14.4902 24.2235 12.369 22.9717C11.264 23.6237 10.19 24.45 9.19827 25.4417C7.79544 26.8445 6.72373 28.4118 6.00806 29.9989C7.63616 30.6149 9.50228 30.9646 11.4858 30.9646C12.8881 30.9646 14.2312 30.7897 15.4732 30.4696Z" fill="#E52141"/>
<path fill-rule="evenodd" clip-rule="evenodd" d="M7.62055 38.3217L15.475 30.4682C14.2328 30.7882 12.8897 30.9634 11.4875 30.9634C9.50385 30.9634 7.63783 30.6134 6.00962 29.9976C4.6757 32.9556 4.57969 35.9823 5.89019 38.1423C6.21687 38.7951 7.15327 38.8752 7.62055 38.3217Z" fill="#E93F8F"/>
<path fill-rule="evenodd" clip-rule="evenodd" d="M18.7148 24.735C19.9474 23.618 21.4072 22.9717 22.9721 22.9717C21.8656 24.0783 20.3762 24.6532 18.7148 24.735Z" fill="#B52728"/>
<path fill-rule="evenodd" clip-rule="evenodd" d="M30.47 15.473L30.4684 15.4745C28.0836 16.0893 26.0724 17.2393 24.7353 18.7148C24.8331 16.7256 24.2239 14.49 22.972 12.3689C23.6242 11.2638 24.4503 10.1899 25.4421 9.19807C26.8449 7.79527 28.4123 6.72357 29.9992 6.00781C30.6152 7.63603 30.9651 9.50199 30.9651 11.4857C30.9651 12.8878 30.7901 14.2309 30.47 15.473Z" fill="#04A34D"/>
<path fill-rule="evenodd" clip-rule="evenodd" d="M38.3235 7.61955L30.47 15.4738C30.7901 14.2317 30.9652 12.8887 30.9652 11.4865C30.9652 9.50283 30.6152 7.63687 29.9993 6.00865C32.9573 4.67468 35.9841 4.57867 38.1441 5.88902C38.797 6.21584 38.877 7.15222 38.3235 7.61955Z" fill="#48BED8"/>
<path fill-rule="evenodd" clip-rule="evenodd" d="M15.4747 30.4693C16.0894 28.084 17.2397 26.0719 18.7155 24.7347C20.3766 24.6527 21.8659 24.0781 22.9724 22.9717L15.4747 30.4693Z" fill="#D52427"/>
<path fill-rule="evenodd" clip-rule="evenodd" d="M30.4697 15.4741C28.0844 16.0888 26.0725 17.2391 24.7351 18.7149C24.6532 20.3761 24.0785 21.8653 22.9721 22.9717L30.4697 15.4741Z" fill="#038A41"/>
<path fill-rule="evenodd" clip-rule="evenodd" d="M24.7354 18.7148C23.6185 19.9474 22.9721 21.4072 22.9721 22.9721C24.0787 21.8655 24.6537 20.3762 24.7354 18.7148Z" fill="#20743B"/>
<path fill-rule="evenodd" clip-rule="evenodd" d="M0 22.9718C0 19.9379 2.42919 17.2987 6.00797 15.9448C6.72364 17.5317 7.79591 19.0989 9.19863 20.5016C10.1904 21.4934 11.2645 22.3196 12.3695 22.9718C11.2646 23.6238 10.1904 24.4502 9.19873 25.4419C7.7959 26.8447 6.72419 28.412 6.00851 29.9991C2.42942 28.6453 0 26.006 0 22.9718Z" fill="#ED7872"/>
<path fill-rule="evenodd" clip-rule="evenodd" d="M22.9721 22.9714C21.4077 22.9714 19.9483 22.3249 18.7159 21.2085C20.3769 21.2906 21.8658 21.8651 22.9721 22.9714Z" fill="#A62927"/>
<path fill-rule="evenodd" clip-rule="evenodd" d="M15.9448 6.00684L15.948 6.00826L15.9491 6.00877C16.0266 6.0439 16.1042 6.07974 16.1817 6.11649L16.1917 6.12117C16.2645 6.15589 16.3374 6.19132 16.4102 6.22737L16.4377 6.24121C16.5094 6.27695 16.5811 6.3134 16.6528 6.35066L16.6656 6.35738C16.7409 6.39668 16.8161 6.4368 16.8911 6.47773L16.8993 6.48211C16.976 6.52405 17.0526 6.56671 17.129 6.61009L17.1314 6.61151L17.1334 6.61243C17.211 6.65672 17.2886 6.70192 17.3659 6.74784C17.4411 6.79264 17.5162 6.83795 17.5911 6.88427L17.6084 6.89507C17.6808 6.93986 17.7531 6.98568 17.8252 7.03201L17.8382 7.04025C17.9102 7.08668 17.9822 7.13402 18.0539 7.18198L18.0636 7.1885L18.0763 7.19705C18.1474 7.2449 18.2186 7.29326 18.2894 7.34264L18.2923 7.34468L18.2938 7.34559L18.2993 7.34957C18.372 7.40027 18.4445 7.45169 18.5169 7.50392L18.5309 7.5141C18.6022 7.56572 18.6732 7.61795 18.744 7.6711L18.757 7.68097C18.9027 7.79042 19.0474 7.90313 19.1909 8.01889L19.1996 8.02572L19.2126 8.03641C19.2823 8.09291 19.3518 8.14993 19.421 8.20796L19.4218 8.20847C19.4907 8.2663 19.5593 8.32485 19.6277 8.384L19.642 8.39632L19.6517 8.40497C19.7203 8.46464 19.7888 8.52501 19.8568 8.5861L19.8639 8.59252C19.9341 8.65585 20.0041 8.71968 20.0737 8.78454L20.079 8.78953C20.1479 8.85377 20.2166 8.91883 20.2847 8.98461L20.294 8.99356C20.3636 9.06076 20.4329 9.12877 20.5016 9.1976C21.4934 10.1893 22.3196 11.2634 22.9717 12.3684C21.7196 14.4899 21.1107 16.7257 21.2088 18.7149C19.8716 17.239 17.8597 16.0888 15.4742 15.4741C15.154 14.2315 14.9788 12.8878 14.9788 11.4851C14.9788 9.50152 15.3289 7.63505 15.9448 6.00684Z" fill="#B6BA24"/>
<path fill-rule="evenodd" clip-rule="evenodd" d="M6.7271 6.72799C8.87239 4.58266 12.4563 4.43411 15.9442 6.00735C15.3281 7.63567 14.9782 9.50203 14.9782 11.4857C14.9782 12.8883 15.1534 14.2319 15.4737 15.4746C14.2313 15.1543 12.8875 14.979 11.485 14.979C9.50112 14.979 7.635 15.3295 6.00668 15.9456C4.43312 12.4575 4.5815 8.87343 6.7271 6.72799Z" fill="#FDD347"/>
<path fill-rule="evenodd" clip-rule="evenodd" d="M22.972 0C26.0059 0 28.6451 2.42909 29.999 6.00787C28.4121 6.72363 26.8449 7.79594 25.4422 9.19864C24.4504 10.1904 23.6242 11.2645 22.972 12.3695C22.32 11.2646 21.4936 10.1904 20.5019 9.19874C19.0991 7.79594 17.5318 6.72414 15.9447 6.00838C17.2985 2.42929 19.9378 0 22.972 0Z" fill="#B4CF55"/>
<path fill-rule="evenodd" clip-rule="evenodd" d="M15.4747 15.4741C17.8601 16.0889 19.872 17.239 21.2092 18.7151C21.2912 20.3761 21.8659 21.8652 22.9721 22.9715C21.8658 21.8651 20.3766 21.2906 18.7155 21.2086C17.2396 19.8713 16.0895 17.8595 15.4747 15.4741Z" fill="#BB5829"/>
<path fill-rule="evenodd" clip-rule="evenodd" d="M22.972 12.3687C24.2241 14.4901 24.8335 16.7261 24.7354 18.7154C23.6188 19.9477 22.9721 21.4071 22.9721 22.9716C22.9721 21.4069 22.3254 19.9476 21.2088 18.7152C21.1109 16.7259 21.72 14.4901 22.972 12.3687Z" fill="#009843"/>
<path fill-rule="evenodd" clip-rule="evenodd" d="M15.4735 15.4741L15.4752 15.4757C16.0898 17.8605 17.2399 19.8717 18.7153 21.2088C16.7262 21.111 14.4905 21.7202 12.3694 22.9722C11.2643 22.32 10.1904 21.4938 9.19864 20.5021C7.79581 19.0992 6.72409 17.532 6.00842 15.9449C7.63652 15.3289 9.50264 14.979 11.4862 14.979C12.8884 14.979 14.2315 15.1541 15.4735 15.4741Z" fill="#EB5F25"/>
<path fill-rule="evenodd" clip-rule="evenodd" d="M12.3691 22.9717C14.4905 21.7198 16.7265 21.1102 18.7157 21.2085C19.9482 22.3251 21.4076 22.9717 22.9721 22.9717C21.4074 22.9717 19.9482 23.6184 18.7155 24.735C16.7264 24.8331 14.4905 24.2238 12.3691 22.9717Z" fill="#DF2125"/>
<path fill-rule="evenodd" clip-rule="evenodd" d="M21.2087 18.7148C22.3257 19.9474 22.9721 21.4072 22.9721 22.9721C21.8656 21.8655 21.2904 20.3762 21.2087 18.7148Z" fill="#52562C"/>
<path fill-rule="evenodd" clip-rule="evenodd" d="M219.661 2.9707C220.887 2.9707 221.879 3.99852 221.879 5.26642C221.879 6.53421 220.887 7.56213 219.661 7.56213C218.436 7.56213 217.443 6.53421 217.443 5.26642C217.443 3.99852 218.436 2.9707 219.661 2.9707ZM220.997 3.86698C220.655 3.51348 220.183 3.29468 219.661 3.29468C219.139 3.29468 218.667 3.51348 218.325 3.86698C217.981 4.22404 217.767 4.71886 217.767 5.26642C217.767 5.81387 217.981 6.30869 218.325 6.66576C218.667 7.01936 219.139 7.23816 219.661 7.23816C220.183 7.23816 220.655 7.01936 220.997 6.66576C221.342 6.30869 221.556 5.81387 221.556 5.26642C221.556 4.71886 221.342 4.22404 220.997 3.86698Z" fill="#43403E"/>
<path d="M219.714 4.11084C219.891 4.11084 220.041 4.13741 220.167 4.19056C220.292 4.243 220.387 4.3216 220.453 4.42514C220.519 4.52909 220.552 4.65697 220.552 4.80807C220.552 4.92454 220.531 5.02636 220.488 5.11422C220.447 5.20188 220.387 5.2755 220.309 5.33567C220.231 5.39533 220.139 5.44135 220.033 5.47434L219.909 5.53777H219.178L219.174 5.20942H219.718C219.811 5.20942 219.89 5.19323 219.953 5.16024C220.016 5.12715 220.064 5.08225 220.094 5.02534C220.125 4.96842 220.141 4.90336 220.141 4.83026C220.141 4.71165 220.107 4.61686 220.039 4.54691C219.97 4.47646 219.862 4.44133 219.714 4.44133H219.303V6.42193H218.894V4.11084H219.714ZM219.666 5.38556L220.096 5.38393L220.644 6.40126V6.42193H220.206L219.666 5.38556Z" fill="#43403E"/>
<path d="M223.733 36.2462H222.503V12.0404H223.733V17.2305V36.2462ZM222.928 20.7876C223.137 19.1918 223.644 17.7004 224.449 16.3134C225.27 14.9114 226.344 13.7779 227.671 12.9129C228.998 12.033 230.542 11.5929 232.302 11.5929C234.748 11.5929 236.65 12.2567 238.007 13.584C239.378 14.8965 240.064 17.0814 240.064 20.1388V36.2462H238.857V20.1388C238.857 18.2 238.573 16.7011 238.007 15.6422C237.44 14.5832 236.657 13.845 235.658 13.4274C234.658 12.9949 233.517 12.7787 232.235 12.7787C230.714 12.7787 229.416 13.1217 228.341 13.8077C227.268 14.4789 226.389 15.3215 225.702 16.3357C225.016 17.3498 224.501 18.379 224.159 19.423C223.816 20.467 223.621 21.3469 223.577 22.0627L222.928 20.7876ZM239.237 19.4006C239.445 18.0284 239.961 16.7533 240.78 15.5751C241.616 14.3819 242.712 13.42 244.069 12.6892C245.426 11.9583 246.978 11.5929 248.723 11.5929C250.363 11.5929 251.758 11.8987 252.905 12.5102C254.069 13.1067 254.957 14.0688 255.568 15.3961C256.18 16.7085 256.485 18.4386 256.485 20.5862V36.2462H255.278V20.5862C255.278 18.5281 254.993 16.9323 254.427 15.7988C253.86 14.6653 253.077 13.8748 252.077 13.4274C251.079 12.9799 249.937 12.7637 248.656 12.7787C247.223 12.7935 245.978 13.062 244.919 13.584C243.875 14.091 243.003 14.7324 242.301 15.5079C241.601 16.2835 241.064 17.0889 240.691 17.9241C240.333 18.7444 240.124 19.4826 240.064 20.1388L239.237 19.4006ZM275.806 19.1992C275.806 17.1858 275.165 15.6198 273.882 14.5013C272.599 13.3678 270.78 12.8011 268.424 12.8011C266.962 12.8011 265.642 13.062 264.463 13.584C263.301 14.091 262.376 14.792 261.69 15.6869C261.019 16.5817 260.683 17.5885 260.683 18.707L259.474 18.6623C259.474 17.3946 259.855 16.2313 260.616 15.1724C261.391 14.0986 262.45 13.2336 263.792 12.5773C265.149 11.9211 266.693 11.5929 268.424 11.5929C270.109 11.5929 271.592 11.8764 272.875 12.4431C274.173 13.0098 275.187 13.8599 275.917 14.9934C276.648 16.1269 277.014 17.5438 277.014 19.244V31.3693C277.014 32.2343 277.066 33.1067 277.171 33.9867C277.29 34.8666 277.447 35.5526 277.64 36.0448V36.2462H276.253C276.104 35.6645 275.993 34.9635 275.917 34.1433C275.843 33.3081 275.806 32.4952 275.806 31.7048V19.1992ZM276.388 23.9643H270.079C266.962 23.9643 264.508 24.546 262.719 25.7093C260.929 26.8726 260.034 28.3715 260.034 30.2059C260.034 31.6675 260.616 32.9203 261.779 33.9643C262.942 34.9934 264.441 35.5079 266.276 35.5079C267.976 35.5079 269.483 35.232 270.795 34.6802C272.107 34.1135 273.218 33.323 274.128 32.3088C275.038 31.2947 275.731 30.0941 276.209 28.707L276.745 29.8256C276.462 30.6609 276.038 31.4885 275.47 32.3088C274.919 33.1142 274.21 33.8524 273.346 34.5236C272.48 35.1798 271.459 35.7093 270.28 36.112C269.117 36.4997 267.782 36.6937 266.276 36.6937C264.77 36.6937 263.457 36.4178 262.338 35.8659C261.219 35.2991 260.355 34.5236 259.743 33.5393C259.132 32.54 258.826 31.3991 258.826 30.1165C258.826 27.9539 259.81 26.1865 261.779 24.8145C263.763 23.4274 266.507 22.7339 270.012 22.7339H276.343L276.388 23.9643ZM299.019 12.0404V35.9106C299.019 37.9688 298.654 39.7511 297.924 41.2574C297.193 42.7786 296.141 43.9494 294.768 44.7697C293.411 45.5899 291.778 46.0001 289.869 46.0001C288.691 46.0001 287.61 45.8286 286.625 45.4856C285.656 45.1425 284.776 44.6578 283.986 44.0314C283.21 43.4199 282.531 42.719 281.95 41.9286L282.8 41.1231C283.74 42.3014 284.769 43.2111 285.887 43.8525C287.021 44.4938 288.334 44.8144 289.824 44.8144C292.45 44.8144 294.433 44.009 295.775 42.3983C297.118 40.7875 297.789 38.625 297.789 35.9106V17.3648V12.0404H299.019ZM280.474 23.8972C280.474 21.3469 280.831 19.1545 281.548 17.32C282.278 15.4856 283.322 14.0762 284.68 13.0918C286.051 12.0926 287.692 11.5929 289.601 11.5929C290.914 11.5929 292.084 11.7943 293.113 12.197C294.157 12.5997 295.067 13.1664 295.842 13.8972C296.618 14.6131 297.26 15.4558 297.767 16.4251C298.274 17.3946 298.662 18.4461 298.929 19.5796V29.4453C298.676 30.713 298.155 31.8987 297.364 33.0024C296.589 34.106 295.544 35.0009 294.232 35.6869C292.935 36.3581 291.376 36.6937 289.556 36.6937C287.647 36.6937 286.014 36.1791 284.657 35.15C283.3 34.1209 282.263 32.6817 281.548 30.8323C280.831 28.9829 280.474 26.8278 280.474 24.367V23.8972ZM281.703 24.367C281.703 26.5147 281.988 28.4237 282.554 30.0941C283.136 31.7644 284 33.0843 285.149 34.0538C286.313 35.0083 287.774 35.4855 289.534 35.4855C291.234 35.4855 292.673 35.1873 293.852 34.5907C295.03 33.9942 295.97 33.1962 296.67 32.1969C297.372 31.1977 297.856 30.0941 298.124 28.886V20.3849C297.96 19.6392 297.707 18.8338 297.364 17.9688C297.02 17.0889 296.529 16.2611 295.887 15.4856C295.246 14.6951 294.411 14.0538 293.382 13.5616C292.368 13.0546 291.1 12.8011 289.579 12.8011C287.804 12.8011 286.335 13.2783 285.171 14.2328C284.009 15.1873 283.136 16.4998 282.554 18.1701C281.988 19.8405 281.703 21.7495 281.703 23.8972V24.367ZM318.743 19.1992C318.743 17.1858 318.101 15.6198 316.819 14.5013C315.536 13.3678 313.717 12.8011 311.36 12.8011C309.899 12.8011 308.578 13.062 307.4 13.584C306.237 14.091 305.312 14.792 304.626 15.6869C303.955 16.5817 303.62 17.5885 303.62 18.707L302.412 18.6623C302.412 17.3946 302.792 16.2313 303.553 15.1724C304.328 14.0986 305.388 13.2336 306.729 12.5773C308.087 11.9211 309.63 11.5929 311.36 11.5929C313.046 11.5929 314.529 11.8764 315.812 12.4431C317.109 13.0098 318.124 13.8599 318.855 14.9934C319.586 16.1269 319.951 17.5438 319.951 19.244V31.3693C319.951 32.2343 320.003 33.1067 320.108 33.9867C320.227 34.8666 320.384 35.5526 320.577 36.0448V36.2462H319.191C319.041 35.6645 318.929 34.9635 318.855 34.1433C318.78 33.3081 318.743 32.4952 318.743 31.7048V19.1992ZM319.324 23.9643H313.016C309.899 23.9643 307.445 24.546 305.655 25.7093C303.865 26.8726 302.971 28.3715 302.971 30.2059C302.971 31.6675 303.553 32.9203 304.716 33.9643C305.879 34.9934 307.378 35.5079 309.213 35.5079C310.913 35.5079 312.419 35.232 313.731 34.6802C315.044 34.1135 316.155 33.323 317.065 32.3088C317.975 31.2947 318.668 30.0941 319.146 28.707L319.682 29.8256C319.399 30.6609 318.974 31.4885 318.408 32.3088C317.856 33.1142 317.147 33.8524 316.282 34.5236C315.417 35.1798 314.395 35.7093 313.217 36.112C312.053 36.4997 310.719 36.6937 309.213 36.6937C307.706 36.6937 306.393 36.4178 305.276 35.8659C304.157 35.2991 303.291 34.5236 302.68 33.5393C302.068 32.54 301.763 31.3991 301.763 30.1165C301.763 27.9539 302.748 26.1865 304.716 24.8145C306.7 23.4274 309.444 22.7339 312.948 22.7339H319.28L319.324 23.9643ZM341.508 36.2462H322.985V35.0382H341.508V36.2462ZM323.411 36.2462H322.65V35.2619L339.451 12.0404H340.189V13.1142L323.411 36.2462ZM339.63 13.2708H323.344V12.0404H339.63V13.2708ZM344.723 36.2462H343.514V12.0404H344.723V36.2462ZM342.888 4.4788C342.888 4.13579 343.007 3.845 343.245 3.60635C343.485 3.35283 343.775 3.22607 344.118 3.22607C344.461 3.22607 344.752 3.35283 344.99 3.60635C345.244 3.845 345.371 4.13579 345.371 4.4788C345.371 4.82181 345.244 5.1127 344.99 5.35135C344.752 5.5899 344.461 5.70923 344.118 5.70923C343.775 5.70923 343.485 5.5899 343.245 5.35135C343.007 5.1127 342.888 4.82181 342.888 4.4788ZM350.664 36.2462H349.457V12.0404H350.664V17.2082V36.2462ZM349.814 20.7876C350.024 19.1918 350.538 17.7004 351.359 16.3134C352.178 14.9114 353.26 13.7779 354.603 12.9129C355.945 12.033 357.495 11.5929 359.256 11.5929C360.896 11.5929 362.284 11.8987 363.417 12.5102C364.565 13.1067 365.438 14.0688 366.034 15.3961C366.645 16.7085 366.952 18.4386 366.952 20.5862V36.2462H365.743V20.5862C365.743 18.5281 365.46 16.9397 364.893 15.8212C364.341 14.6877 363.574 13.8972 362.589 13.4498C361.604 13.0023 360.471 12.7787 359.188 12.7787C357.667 12.7787 356.362 13.1217 355.274 13.8077C354.199 14.4789 353.313 15.3215 352.611 16.3357C351.925 17.3498 351.404 18.379 351.045 19.423C350.702 20.467 350.509 21.3469 350.464 22.0627L349.814 20.7876ZM380.053 36.6937C378.099 36.6937 376.317 36.1791 374.706 35.15C373.095 34.1209 371.812 32.7041 370.858 30.8994C369.919 29.0799 369.449 26.9994 369.449 24.6579V23.6735C369.449 21.317 369.903 19.229 370.814 17.4095C371.738 15.59 372.969 14.1657 374.504 13.1365C376.041 12.1075 377.741 11.5929 379.605 11.5929C381.395 11.5929 382.983 12.0254 384.37 12.8905C385.758 13.7556 386.839 14.9636 387.614 16.5146C388.405 18.0658 388.8 19.8703 388.8 21.9285V23.3379H370.232V22.1299H387.592V21.839C387.592 20.2134 387.264 18.722 386.608 17.3648C385.951 15.9926 385.027 14.889 383.834 14.0538C382.64 13.2186 381.231 12.8011 379.605 12.8011C377.831 12.8011 376.265 13.2932 374.908 14.2775C373.566 15.2469 372.521 16.5594 371.776 18.2148C371.029 19.8555 370.657 21.675 370.657 23.6735V24.6579C370.657 26.6713 371.067 28.4982 371.888 30.1389C372.723 31.7794 373.849 33.0843 375.265 34.0538C376.682 35.0232 378.278 35.5079 380.053 35.5079C381.44 35.5079 382.73 35.2767 383.923 34.8144C385.131 34.352 386.234 33.4722 387.234 32.1746L388.084 32.7786C387.279 33.9271 386.22 34.8666 384.908 35.5974C383.61 36.3283 381.992 36.6937 380.053 36.6937Z" fill="#333333"/>
<path d="M422.656 19.3456V12.2324H427.621V13.6287H424.377V15.0874H427.368V16.4871H424.377V17.9493H427.621V19.3456H422.656Z" fill="#333333"/>
<path d="M421.915 12.2324V19.3456H420.455L417.621 15.2402H417.576V19.3456H415.854V12.2324H417.336L420.139 16.3309H420.198V12.2324H421.915Z" fill="#333333"/>
<path d="M415.074 12.2324V19.3456H413.354V12.2324H415.074Z" fill="#333333"/>
<path d="M408.185 19.3456V12.2324H409.905V17.9493H412.868V19.3456H408.185Z" fill="#333333"/>
<path d="M407.365 12.2324V19.3456H405.905L403.072 15.2402H403.026V19.3456H401.305V12.2324H402.786L405.588 16.3309H405.647V12.2324H407.365Z" fill="#333333"/>
<path d="M400.819 15.6919C400.819 16.4746 400.669 17.1379 400.368 17.6821C400.067 18.2262 399.659 18.6394 399.143 18.922C398.631 19.2045 398.057 19.3457 397.42 19.3457C396.779 19.3457 396.203 19.2033 395.691 18.9185C395.179 18.6337 394.773 18.2204 394.471 17.6785C394.172 17.1344 394.022 16.4722 394.022 15.6919C394.022 14.9093 394.172 14.2458 394.471 13.7017C394.773 13.1576 395.179 12.7443 395.691 12.4618C396.203 12.1793 396.779 12.0381 397.42 12.0381C398.057 12.0381 398.631 12.1793 399.143 12.4618C399.659 12.7443 400.067 13.1576 400.368 13.7017C400.669 14.2458 400.819 14.9093 400.819 15.6919ZM399.06 15.6919C399.06 15.2287 398.995 14.8375 398.862 14.518C398.732 14.1984 398.545 13.9565 398.299 13.792C398.055 13.6276 397.762 13.5455 397.42 13.5455C397.079 13.5455 396.785 13.6276 396.54 13.792C396.294 13.9565 396.105 14.1984 395.973 14.518C395.843 14.8375 395.779 15.2287 395.779 15.6919C395.779 16.155 395.843 16.5463 395.973 16.8658C396.105 17.1853 396.294 17.4273 396.54 17.5918C396.785 17.7561 397.079 17.8384 397.42 17.8384C397.762 17.8384 398.055 17.7561 398.299 17.5918C398.545 17.4273 398.732 17.1853 398.862 16.8658C398.995 16.5463 399.06 16.155 399.06 15.6919Z" fill="#333333"/>
<path d="M396.008 20.291L397.65 25.5858H397.711L399.352 20.291H401.339L398.861 27.5201H396.499L394.022 20.291H396.008Z" fill="#333333"/>
<path d="M407.834 23.9054C407.834 24.7006 407.679 25.3749 407.368 25.9279C407.057 26.4809 406.637 26.901 406.106 27.1881C405.578 27.4751 404.986 27.6187 404.329 27.6187C403.669 27.6187 403.075 27.474 402.547 27.1845C402.019 26.8951 401.599 26.4751 401.289 25.9244C400.98 25.3714 400.826 24.6983 400.826 23.9054C400.826 23.1099 400.98 22.4358 401.289 21.8827C401.599 21.3297 402.019 20.9097 402.547 20.6226C403.075 20.3355 403.669 20.1919 404.329 20.1919C404.986 20.1919 405.578 20.3355 406.106 20.6226C406.637 20.9097 407.057 21.3297 407.368 21.8827C407.679 22.4358 407.834 23.1099 407.834 23.9054ZM406.021 23.9054C406.021 23.4346 405.953 23.037 405.816 22.7122C405.683 22.3875 405.488 22.1415 405.236 21.9745C404.985 21.8074 404.682 21.7239 404.329 21.7239C403.978 21.7239 403.675 21.8074 403.422 21.9745C403.168 22.1415 402.974 22.3875 402.837 22.7122C402.704 23.037 402.637 23.4346 402.637 23.9054C402.637 24.376 402.704 24.7736 402.837 25.0983C402.974 25.4231 403.168 25.669 403.422 25.8361C403.675 26.0033 403.978 26.0868 404.329 26.0868C404.682 26.0868 404.985 26.0033 405.236 25.8361C405.488 25.669 405.683 25.4231 405.816 25.0983C405.953 24.7736 406.021 24.376 406.021 23.9054Z" fill="#333333"/>
<path d="M422.502 27.421V20.1919H427.621V21.6109H424.276V23.0935H427.359V24.516H424.276V26.002H427.621V27.421H422.502Z" fill="#333333"/>
<path d="M419.949 20.1919H421.72V24.8548C421.72 25.3937 421.591 25.8632 421.33 26.2632C421.069 26.6609 420.706 26.9692 420.24 27.1881C419.774 27.4045 419.233 27.5128 418.617 27.5128C417.992 27.5128 417.448 27.4045 416.981 27.1881C416.515 26.9692 416.154 26.6609 415.895 26.2632C415.637 25.8632 415.508 25.3937 415.508 24.8548V20.1919H417.283V24.7031C417.283 24.9524 417.338 25.1749 417.448 25.3702C417.56 25.5656 417.717 25.7185 417.917 25.8291C418.118 25.9396 418.351 25.9949 418.617 25.9949C418.881 25.9949 419.113 25.9396 419.312 25.8291C419.513 25.7185 419.668 25.5656 419.781 25.3702C419.893 25.1749 419.949 24.9524 419.949 24.7031V20.1919Z" fill="#333333"/>
<path d="M413.127 22.6522C413.086 22.504 413.026 22.3734 412.947 22.2604C412.868 22.1451 412.771 22.0475 412.656 21.9674C412.542 21.8874 412.411 21.8274 412.262 21.7874C412.115 21.7451 411.952 21.7239 411.775 21.7239C411.419 21.7239 411.111 21.8086 410.85 21.978C410.592 22.1475 410.392 22.3945 410.251 22.7192C410.111 23.0417 410.04 23.4335 410.04 23.8947C410.04 24.3582 410.108 24.7537 410.244 25.0807C410.381 25.4079 410.577 25.6573 410.836 25.8291C411.093 26.0008 411.407 26.0868 411.775 26.0868C412.1 26.0868 412.374 26.0349 412.599 25.9314C412.826 25.8255 412.998 25.6761 413.115 25.4831C413.233 25.2902 413.292 25.0631 413.292 24.802L413.621 24.8406H411.836V23.5665H415.001V24.5231C415.001 25.1701 414.862 25.7244 414.582 26.1856C414.305 26.6467 413.922 27.0009 413.434 27.248C412.949 27.4952 412.392 27.6187 411.76 27.6187C411.061 27.6187 410.445 27.4693 409.914 27.1704C409.384 26.8715 408.971 26.4455 408.674 25.8926C408.378 25.3372 408.229 24.6784 408.229 23.916C408.229 23.3229 408.319 22.7969 408.498 22.338C408.677 21.8768 408.928 21.4862 409.248 21.1662C409.57 20.8462 409.943 20.6037 410.366 20.439C410.792 20.2743 411.249 20.1919 411.739 20.1919C412.164 20.1919 412.56 20.252 412.926 20.3719C413.294 20.4919 413.618 20.6614 413.9 20.8803C414.184 21.0991 414.416 21.3591 414.593 21.6604C414.769 21.9615 414.879 22.2922 414.922 22.6522H413.127Z" fill="#333333"/>
<path d="M397.085 28.2671V36.2475H395.195V28.2671H397.085Z" fill="#333333"/>
<path d="M404.903 28.2671V36.2475H403.3L400.188 31.6416H400.139V36.2475H398.25V28.2671H399.875L402.952 32.8652H403.017V28.2671H404.903Z" fill="#333333"/>
<path d="M414.862 36.2475V28.2671H418.092C418.677 28.2671 419.183 28.375 419.607 28.5906C420.035 28.8036 420.365 29.1102 420.596 29.5102C420.828 29.9077 420.943 30.3791 420.943 30.9247C420.943 31.478 420.825 31.9482 420.589 32.3353C420.351 32.7197 420.015 33.0133 419.581 33.2159C419.145 33.4161 418.63 33.5159 418.034 33.5159H415.992V31.9963H417.683C417.968 31.9963 418.206 31.9586 418.397 31.8833C418.59 31.8052 418.737 31.6885 418.836 31.5326C418.935 31.3741 418.985 31.1715 418.985 30.9247C418.985 30.6779 418.935 30.474 418.836 30.313C418.737 30.1492 418.59 30.0272 418.397 29.9466C418.204 29.8634 417.966 29.822 417.683 29.822H416.751V36.2475H414.862ZM419.264 32.6002L421.211 36.2475H419.149L417.24 32.6002H419.264Z" fill="#333333"/>
<path d="M421.013 29.8336V28.2671H427.621V29.8336H425.251V36.2475H423.387V29.8336H421.013Z" fill="#333333"/>
<path d="M408.692 36.2475H406.66L409.298 28.2671H411.814L414.452 36.2475H412.421L410.585 30.2778H410.524L408.692 36.2475ZM408.421 33.1068H412.665V34.572H408.421V33.1068Z" fill="#333333"/>
</svg>
