<svg width="78" height="78" viewBox="0 0 78 78" fill="none" xmlns="http://www.w3.org/2000/svg">
<path d="M63 0H15C6.71573 0 0 6.71573 0 15V63C0 71.2843 6.71573 78 15 78H63C71.2843 78 78 71.2843 78 63V15C78 6.71573 71.2843 0 63 0Z" fill="#EEEEEE"/>
<path fill-rule="evenodd" clip-rule="evenodd" d="M51.2376 28.4019L55.1563 26.1182C55.3035 26.0332 55.4661 25.9781 55.6346 25.9562C55.8032 25.9343 55.9745 25.9459 56.1385 25.9904C56.3026 26.035 56.4562 26.1115 56.5906 26.2157C56.7249 26.3199 56.8374 26.4496 56.9214 26.5974C57.0932 26.8964 57.1398 27.2512 57.0512 27.5845C56.9626 27.9177 56.7458 28.2025 56.4482 28.3766L52.5306 30.6544C52.3837 30.74 52.2213 30.7956 52.0528 30.818C51.8843 30.8404 51.713 30.8292 51.5489 30.785C51.3848 30.7408 51.231 30.6645 51.0965 30.5605C50.9621 30.4565 50.8495 30.3269 50.7654 30.1791C50.5934 29.8806 50.5465 29.5261 50.635 29.1931C50.7235 28.8601 50.9401 28.5756 51.2376 28.4019ZM47.0989 25.5894L48.0336 22.0778C48.123 21.7467 48.3404 21.4647 48.6377 21.2938C48.935 21.123 49.288 21.0773 49.6191 21.1668C49.9501 21.2562 50.232 21.4736 50.4028 21.771C50.5736 22.0684 50.6193 22.4215 50.5299 22.7527L49.6001 26.2594C49.5573 26.4243 49.4823 26.5792 49.3794 26.7149C49.2766 26.8507 49.1478 26.9647 49.0006 27.0504C48.8535 27.1362 48.6908 27.1919 48.522 27.2144C48.3531 27.237 48.1815 27.2258 48.017 27.1817C47.6842 27.0913 47.4007 26.8728 47.2286 26.5738C47.0565 26.2748 47.0099 25.9198 47.0989 25.5865V25.5894ZM52.8762 35.6726L56.3635 36.6143C56.6973 36.703 57.0526 36.6555 57.3513 36.4822C57.65 36.3088 57.8676 36.0239 57.9563 35.6901C58.045 35.3563 57.9975 35.0009 57.8242 34.7021C57.651 34.4033 57.3661 34.1856 57.0324 34.0969L53.545 33.1562C53.3807 33.1121 53.2094 33.1009 53.0407 33.1233C52.8721 33.1457 52.7096 33.2012 52.5625 33.2867C52.4154 33.3721 52.2866 33.4858 52.1835 33.6211C52.0805 33.7565 52.0052 33.9109 51.962 34.0755C51.8741 34.4081 51.9208 34.7619 52.092 35.0602C52.2631 35.3586 52.5448 35.5776 52.8762 35.6696V35.6726ZM21.2689 43.2296L22.1091 42.7426C23.5276 45.2172 24.7679 47.382 25.9868 49.5069L25.1466 49.9939C23.0603 51.2073 21.1774 48.9226 20.6896 48.0764C20.1833 47.197 19.1805 44.4468 21.2689 43.2296ZM24.1721 38.5298C23.8518 38.676 23.5679 38.8914 23.3407 39.1605C23.1136 39.4295 22.9488 39.7456 22.8583 40.0859C22.7679 40.4262 22.7539 40.7824 22.8174 41.1288C22.881 41.4751 23.0204 41.8032 23.2258 42.0892L27.1035 48.8544C27.24 49.1801 27.449 49.4703 27.7146 49.7028C27.9803 49.9352 28.2955 50.1039 28.6363 50.1959C28.9771 50.2879 29.3344 50.3007 29.6809 50.2335C30.0275 50.1662 30.354 50.0206 30.6357 49.8078L39.5926 44.5988C40.8322 43.9533 42.2302 43.6752 43.6224 43.7972C45.0145 43.9191 46.3429 44.4361 47.4514 45.2873L36.4645 26.1153C36.4645 26.1153 36.9659 30.9514 33.129 33.3217L24.1721 38.5298ZM38.2092 21.3493C38.5032 21.1782 38.8282 21.0671 39.1654 21.0223C39.5026 20.9776 39.8454 21.0002 40.1738 21.0887C40.5023 21.1773 40.8099 21.3301 41.079 21.5383C41.348 21.7465 41.5731 22.006 41.7413 22.3018L53.3737 42.6014C53.7172 43.1995 53.8105 43.9091 53.6333 44.5756C53.456 45.2422 53.0225 45.8116 52.4273 46.1598C52.1334 46.3308 51.8084 46.4418 51.4713 46.4865C51.1342 46.5311 50.7916 46.5085 50.4633 46.42C50.1349 46.3314 49.8274 46.1787 49.5584 45.9706C49.2894 45.7624 49.0644 45.5031 48.8962 45.2074L37.259 24.9058C36.9164 24.3075 36.824 23.598 37.002 22.9319C37.1799 22.2657 37.6139 21.6969 38.2092 21.3493ZM31.286 50.9395L39.1224 46.3809C39.1224 46.3809 37.7049 48.836 39.3814 50.7418L41.9253 54.566C41.9253 54.566 43.0352 55.5905 40.8924 56.6705L39.2129 57.6443C39.2129 57.6443 37.8119 58.5373 36.888 57.4934L31.286 50.9395Z" fill="#888888"/>
</svg>
