<svg width="293" height="50" viewBox="0 0 293 50" fill="none" xmlns="http://www.w3.org/2000/svg">
<path fill-rule="evenodd" clip-rule="evenodd" d="M14.5219 32.3864V47.6752C14.5219 48.954 13.4769 50 12.1994 50H2.32244C1.04493 50 0 48.954 0 47.6752V32.3864H14.5219Z" fill="#FF9293"/>
<path fill-rule="evenodd" clip-rule="evenodd" d="M0 14.4886L0.00815229 2.13347C0.106699 0.96207 1.09025 0.0186392 2.286 0H14.5219V14.4886H0Z" fill="#FF5C4B"/>
<path fill-rule="evenodd" clip-rule="evenodd" d="M0 14.4886H14.5219V17.8977H0V14.4886Z" fill="#FF9293"/>
<path fill-rule="evenodd" clip-rule="evenodd" d="M0 17.8977H14.5219V32.3863H0V17.8977Z" fill="#FF5C4B"/>
<path fill-rule="evenodd" clip-rule="evenodd" d="M26.9011 32.3864L14.522 32.3732V17.8977H26.7749C27.7143 17.8977 28.4744 17.1283 28.4744 16.1932C28.4744 15.258 27.7143 14.4985 26.7749 14.4985H14.522V0.00645919L26.9011 0C30.2194 0 33.308 0.991126 35.8808 2.68917L35.8777 29.7135C33.3048 31.4115 30.2194 32.3864 26.9011 32.3864Z" fill="#FFA082"/>
<path fill-rule="evenodd" clip-rule="evenodd" d="M35.8806 2.68921C39.7765 5.25801 42.4853 9.62973 42.996 14.4887H35.8774L35.8806 2.68921Z" fill="#FF6014"/>
<path fill-rule="evenodd" clip-rule="evenodd" d="M42.9097 17.8977H35.8774V14.4886L42.9094 14.4889C42.9664 15.0493 42.996 15.62 42.996 16.1957C42.996 16.7705 42.9664 17.3381 42.9097 17.8977Z" fill="#FF7941"/>
<path fill-rule="evenodd" clip-rule="evenodd" d="M42.9097 17.8977C42.6669 20.2647 42.0037 22.4797 40.8575 24.4318L35.8774 17.8977H42.9097Z" fill="#FF5204"/>
<path fill-rule="evenodd" clip-rule="evenodd" d="M40.8578 24.4318C39.5791 26.5695 37.9715 28.3407 35.8809 29.7095V17.8977L40.8578 24.4318Z" fill="#FF6014"/>
<path fill-rule="evenodd" clip-rule="evenodd" d="M50.3788 37.2339V47.6796C50.3788 48.956 49.3368 50 48.063 50H38.1728C36.8992 50 35.8554 48.956 35.8569 47.6796L35.8776 32.3864H46.7796L50.3788 37.2339Z" fill="#FFC180"/>
<path fill-rule="evenodd" clip-rule="evenodd" d="M65.7753 32.0582L53.9281 17.9153L62.3861 17.9155C63.3178 17.9155 64.0729 17.1564 64.0729 16.2197C64.0729 15.283 63.3178 14.5239 62.3861 14.5239L50.4023 14.4886V0H62.3861C68.1268 0 73.3982 3.01155 76.2577 7.55141C71.8875 12.0582 68.9622 18.2191 68.9622 25.0102C68.9622 26.9758 69.3351 28.8753 69.7617 30.7103C68.5147 31.3398 67.1814 31.7704 65.7753 32.0582Z" fill="#FFCB4D"/>
<path fill-rule="evenodd" clip-rule="evenodd" d="M77.4444 46.3137C78.7149 47.8484 77.7239 50 75.987 50H62.4498C60.4206 50 59.3026 48.8098 58.5897 47.8821L50.3784 37.234L50.3992 32.3864H62.4333C63.5455 32.3864 64.7262 32.2719 65.7753 32.0582L77.4444 46.3137Z" fill="#FFD92E"/>
<path fill-rule="evenodd" clip-rule="evenodd" d="M50.4023 32.3864L50.3785 37.2339L46.7793 32.3864H50.4023Z" fill="#FF9A27"/>
<path fill-rule="evenodd" clip-rule="evenodd" d="M62.5084 32.3842H50.4025L50.3994 17.8977L53.9283 17.9152L65.7755 32.0582C64.72 32.2718 63.6274 32.3842 62.5084 32.3842Z" fill="#FFAD0E"/>
<path fill-rule="evenodd" clip-rule="evenodd" d="M46.9824 32.3863H35.8774V29.7156C37.9184 28.3605 39.5418 26.5785 40.8575 24.4318L46.9824 32.3863Z" fill="#FF9A27"/>
<path fill-rule="evenodd" clip-rule="evenodd" d="M46.7793 32.3863L40.8574 24.4318C42.0044 22.4816 42.6635 20.2624 42.9096 17.8977H50.3992V32.3863H46.7793Z" fill="#FF8307"/>
<path fill-rule="evenodd" clip-rule="evenodd" d="M50.4027 0V14.4886H42.9112C42.41 9.69507 39.7757 5.25957 35.8809 2.68917V2.31822C35.8917 1.04435 36.9244 0 38.204 0H50.4027Z" fill="#FF9A27"/>
<path fill-rule="evenodd" clip-rule="evenodd" d="M112.188 7.37872V42.6213C107.622 47.1782 101.298 50 94.3081 50C82.3673 50 72.3665 41.7657 69.7617 30.7103C75.1122 28.0461 78.7847 22.5553 78.7847 16.213C78.7847 13.0276 77.8578 10.0573 76.2577 7.55141C80.8364 2.89367 87.231 0 94.3081 0C101.298 0 107.622 2.82181 112.188 7.37872ZM94.2496 14.4886C100.068 14.4886 104.785 19.1945 104.785 25C104.785 30.8053 100.068 35.5114 94.2496 35.5114C88.4307 35.5114 83.7141 30.8053 83.7141 25C83.7141 19.1945 88.4307 14.4886 94.2496 14.4886Z" fill="#E6EC26"/>
<path fill-rule="evenodd" clip-rule="evenodd" d="M112.188 7.38635C114.178 9.43193 115.827 11.84 117.029 14.4886H112.188V7.38635Z" fill="#1BAB10"/>
<path fill-rule="evenodd" clip-rule="evenodd" d="M69.7621 30.7103C67.3234 22.1978 70.5919 13.2268 76.2581 7.55139C77.8576 10.0413 78.7851 13.0479 78.7851 16.213C78.7851 22.5149 75.1108 28.0631 69.7621 30.7103Z" fill="#E6BC0B"/>
<path fill-rule="evenodd" clip-rule="evenodd" d="M112.188 35.5114V14.4886H117.052C118.501 17.6877 119.307 21.2537 119.307 25.0103C119.307 28.7669 118.504 32.3143 117.056 35.5114H112.188Z" fill="#77D118"/>
<path fill-rule="evenodd" clip-rule="evenodd" d="M117.029 35.5114C115.828 38.164 114.189 40.6203 112.188 42.6136V35.5114H117.029Z" fill="#1BAB10"/>
<path fill-rule="evenodd" clip-rule="evenodd" d="M250.289 0H262.787C263.742 0 264.441 0.546277 264.83 1.24233C258.496 3.49455 254.285 8.17615 253.756 14.4886H250.289V0Z" fill="#DB83CF"/>
<path fill-rule="evenodd" clip-rule="evenodd" d="M126.714 14.4886H117.03C115.796 11.8328 114.317 9.64257 112.192 7.38636V2.18219C112.262 0.969623 113.278 0 114.511 0L126.714 0.00334765V14.4886Z" fill="#1EB96F"/>
<path fill-rule="evenodd" clip-rule="evenodd" d="M114.451 50C113.245 49.9687 112.261 49.0055 112.192 47.8133L112.188 42.6217C114.235 40.5689 115.794 38.1698 117.029 35.5114H126.71V50C125.087 50 115.739 50 114.451 50Z" fill="#1EB96F"/>
<path fill-rule="evenodd" clip-rule="evenodd" d="M126.711 35.5114H117.034C118.489 32.3143 119.301 28.7657 119.301 25.0094C119.301 21.253 118.486 17.6877 117.029 14.4886H126.711V35.5114Z" fill="#84E2A0"/>
<path fill-rule="evenodd" clip-rule="evenodd" d="M149.491 7.38594V28.1239C149.502 32.0437 150.626 36.038 152.45 39.2045C148.011 45.6388 140.3 50 131.834 50L126.71 49.999V35.5114H131.834C137.564 35.5114 142.209 30.6231 142.209 24.8619C142.209 19.1007 137.564 14.4304 131.834 14.4304L126.71 14.428V0H131.834V0.00761999C138.675 0.00785811 145.015 2.87133 149.491 7.38594Z" fill="#3AD1B1"/>
<path fill-rule="evenodd" clip-rule="evenodd" d="M171.13 50C163.124 50 156.192 45.6788 152.449 39.2045C155.196 35.1977 156.893 30.2162 156.893 25C156.893 17.9685 153.417 11.3331 149.49 7.38594V2.3122C149.49 1.04032 150.528 0 151.798 0H161.704C162.973 0 164.012 1.04032 164.012 2.3122V28.3826C164.045 32.3424 167.17 35.5422 171.13 35.5422C175.091 35.5422 178.221 32.3424 178.253 28.3826L178.254 2.3122C178.254 1.04032 179.292 0 180.562 0H190.462C191.732 0 192.771 1.04032 192.771 2.3122V7.44483C188.257 11.9554 185.464 18.193 185.463 25.0843C185.463 30.3293 187.083 35.1951 189.846 39.2096C186.098 45.6621 179.12 50 171.13 50Z" fill="#3CD3E6"/>
<path fill-rule="evenodd" clip-rule="evenodd" d="M149.491 7.38599C154.066 11.8728 156.893 18.3459 156.893 25.181C156.893 30.386 155.252 35.2155 152.45 39.2046C150.578 36.0442 149.501 32.3771 149.491 28.465V7.38599Z" fill="#0EADA0"/>
<path fill-rule="evenodd" clip-rule="evenodd" d="M189.846 39.2096C187.046 35.1883 185.454 30.3094 185.454 25.0555C185.454 18.1526 188.196 11.963 192.77 7.44482L192.77 28.3594C192.759 32.312 191.719 36.0209 189.846 39.2096Z" fill="#16A5DF"/>
<path fill-rule="evenodd" clip-rule="evenodd" d="M210.479 35.5752C214.328 35.5752 217.691 33.5063 219.511 30.424C220.108 29.4171 221.284 28.6647 222.369 28.6647H224.537H232.239C233.94 28.6647 234.968 30.051 234.524 31.7458L234.394 32.2443C231.326 42.5119 221.727 50 210.424 50C201.896 50 194.347 45.7121 189.846 39.2096C191.667 36.0178 192.76 32.3554 192.771 28.4186V7.44483C197.284 2.95905 203.545 0 210.424 0C214.351 0 218.225 0.915517 221.53 2.52573V12.1225C221.53 13.3914 222.566 14.4886 223.839 14.4886H233.204C233.536 15.203 233.933 16.3867 234.394 18.0398L234.524 18.5383C234.968 20.233 233.94 21.6194 232.239 21.6194H224.537H222.369C221.284 21.6194 220.108 20.867 219.512 19.8601C217.691 16.7778 214.328 14.7089 210.479 14.7089C204.695 14.7089 200.006 19.3799 200.006 25.142C200.006 30.9041 204.695 35.5752 210.479 35.5752Z" fill="#5EC8F7"/>
<path fill-rule="evenodd" clip-rule="evenodd" d="M221.53 2.52576C226.661 5.09685 230.8 9.16987 233.204 14.4887H223.839C222.569 14.4887 221.53 13.4241 221.53 12.1225V2.52576Z" fill="#5167C9"/>
<path fill-rule="evenodd" clip-rule="evenodd" d="M250.574 0V14.4886H243.313H236.052V0C240.892 0 245.733 0 250.574 0Z" fill="#DB43A6"/>
<path fill-rule="evenodd" clip-rule="evenodd" d="M236.052 14.4886H233.204C230.78 9.29127 226.889 5.30363 221.53 2.52573C221.53 1.25114 222.578 0 223.859 0H236.052V14.4886Z" fill="#DB83CF"/>
<path fill-rule="evenodd" clip-rule="evenodd" d="M250.574 47.6974C250.574 48.9635 249.528 50 248.251 50H238.374C237.097 50 236.052 48.964 236.052 47.6974V14.4886H250.574V47.6974Z" fill="#FF82CC"/>
<path fill-rule="evenodd" clip-rule="evenodd" d="M50.4027 17.8977H42.9099C42.9679 17.3376 42.9952 16.7695 42.9952 16.1939C42.9952 15.6179 42.968 15.0493 42.9097 14.4886H50.4027V17.8977Z" fill="#FFC180"/>
<path fill-rule="evenodd" clip-rule="evenodd" d="M264.83 1.24231C258.791 3.38768 254.338 7.86546 253.756 14.4886H262.802C264.085 14.4886 265.095 13.4402 265.095 12.1585V2.348C265.095 1.94577 265.012 1.57357 264.83 1.24231Z" fill="#DB4D80"/>
<path fill-rule="evenodd" clip-rule="evenodd" d="M273.61 50C284.413 50 292.958 44.3622 292.958 34.1492C292.958 26.3831 288.637 21.808 280.583 19.7868L271.842 17.5532C269.78 17.1276 268.797 16.3826 268.797 14.8933C268.797 12.7659 270.663 11.7022 272.922 11.7022C275.839 11.7022 277.536 12.7659 277.978 15.9186L277.98 15.9231C278.231 16.5288 278.803 16.9525 279.468 16.9525H290.577C291.475 16.9525 292.201 16.185 292.201 15.2374C292.201 15.0745 292.201 0 272.53 0C269.75 0 267.187 0.425139 264.811 1.24233C264.992 1.57251 265.095 1.95017 265.095 2.35109V12.1661C265.095 13.4437 264.048 14.4886 262.768 14.4886H253.756C253.708 15.0159 253.672 15.6177 253.672 16.1702C253.672 24.5744 258.485 28.4042 265.851 30.106L274.494 32.0209C276.655 32.5528 277.931 33.1918 277.931 35.0005C277.931 37.2341 275.967 38.2978 273.414 38.2978C271.034 38.2978 268.553 37.3051 267.886 33.7376C267.631 33.1427 267.064 32.7288 266.405 32.7288H254.76C253.863 32.7288 253.136 33.4963 253.136 34.443C253.136 34.613 253.136 34.7531 253.136 34.9308C253.069 43.9879 263.148 50 273.61 50Z" fill="#FF969E"/>
</svg>
