<svg width="72" height="63" viewBox="0 0 72 63" fill="none" xmlns="http://www.w3.org/2000/svg">
<path fill-rule="evenodd" clip-rule="evenodd" d="M67.9954 34.1135C69.072 34.0592 70.1213 34.4615 70.8836 35.2208C71.6458 35.9801 72.0497 37.0254 71.9951 38.0978V56.0274C71.9951 60.7289 69.6173 63 64.9956 63H6.99961C2.19994 63 4.48098e-05 60.7399 4.48098e-05 56.0274V38.0978C-0.004992 37.0396 0.414774 36.0232 1.16597 35.2749C1.91717 34.5266 2.93747 34.1086 3.99981 34.1135H8.99947C10.0668 34.0918 11.0968 34.5047 11.8516 35.2566C12.6065 36.0086 13.0209 37.0346 12.9992 38.0978V50.0509H58.996V38.0978C58.9797 37.0362 59.3958 36.0133 60.1495 35.2625C60.9031 34.5117 61.93 34.0972 62.9957 34.1135H67.9954ZM29.998 3.2348C33.5168 -1.06531 38.5174 -1.09121 41.9972 3.2348L52.9964 16.1839C55.4183 19.3156 54.5383 23.1565 50.9966 23.1565H41.9972V39.0939C41.9972 41.3321 40.5973 42.0643 38.3974 42.0643H33.5978C31.3889 42.0643 29.998 41.3013 29.998 39.0939V23.1565H20.9986C17.4409 23.1565 16.407 19.4272 18.9988 16.1839L29.998 3.2348Z" fill="#888888"/>
</svg>
