<svg width="72" height="57" viewBox="0 0 72 57" fill="none" xmlns="http://www.w3.org/2000/svg">
<path fill-rule="evenodd" clip-rule="evenodd" d="M72 14V49C72.0066 50.8586 71.2712 52.6429 69.9571 53.9571C68.6429 55.2713 66.8586 56.0067 65.0001 56H7.00127C5.13342 56.038 3.33084 55.3127 2.00979 53.9916C0.688748 52.6705 -0.036539 50.8679 0.00141834 49V14C1.88263 15.5444 7.32928 20.0982 13.0937 24.9183L13.919 25.6084C14.0567 25.7236 14.1946 25.8389 14.3326 25.9543L15.5741 26.9924L16.3997 27.6827C18.7342 29.6344 21.0194 31.5442 23.04 33.2301L24.0838 34.1007C27.0209 36.5495 29.2501 38.3996 30.0008 39C32.9847 41.88 38.0936 42.021 42.0005 39C48.4054 34.219 65.669 19.356 72 14ZM65.0001 0C71.1559 0 71.9999 4.536 71.9999 7C68.7915 9.73669 64.8309 12.949 60.7702 16.1981L59.7941 16.9783L58.327 18.1484C55.0673 20.7454 51.827 23.3097 48.94 25.6167L48.0848 26.3008C44.5685 29.1174 41.6564 31.4968 40.0006 33C39.0563 34.259 37.5744 35 36.0007 35C34.4269 35 32.945 34.259 32.0007 33C29.8957 31.2958 23.9748 26.479 17.7089 21.3827L16.7668 20.6165C15.9804 19.9769 15.1912 19.335 14.4062 18.6966L13.4665 17.9325C7.68951 13.2347 2.28548 8.84312 0.00141834 7C0.00141834 4.4 0.801402 0 7.00127 0H65.0001Z" fill="#888888"/>
</svg>
