<svg width="72" height="67" viewBox="0 0 72 67" fill="none" xmlns="http://www.w3.org/2000/svg">
<path fill-rule="evenodd" clip-rule="evenodd" d="M4.80584 66H67.2004C69.8205 65.8965 71.9155 63.786 72 61.165C72 45.509 59.8411 36.994 46.4022 36.994H25.604C12.2252 36.994 0.00625287 45.44 0.00625287 61.165C-0.0613298 62.4607 0.421375 63.7247 1.33541 64.6455C2.24944 65.5663 3.50978 66.0582 4.80584 66ZM36.0031 0C45.3912 0 53.0016 7.61116 53.0016 17C53.0016 26.3888 45.3912 34 36.0031 34C26.6151 34 19.0046 26.3888 19.0046 17C19.0046 7.61116 26.6151 0 36.0031 0Z" fill="#888888"/>
</svg>
