<svg width="72" height="56" viewBox="0 0 72 56" fill="none" xmlns="http://www.w3.org/2000/svg">
<path fill-rule="evenodd" clip-rule="evenodd" d="M62.526 0C68.553 0 72 3.416 72 9.6V46.4C72 53.408 68.853 56 62.526 56H9.474C2.474 56 0 53.129 0 46.4V9.6C0 3.212 2.81 0 9.474 0H62.526ZM31.4 26.752C29.251 23.631 27.571 22.584 24.603 26.752L11.013 49.006H44.99L31.4 26.752ZM49.888 31.356C48.085 28.191 44.853 28.198 43.229 31.356L41 36C42.686 38.936 47.067 45.782 49 49L60.988 49.005L49.888 31.356Z" fill="#888888"/>
</svg>
