<svg width="195" height="150" viewBox="0 0 195 150" fill="none" xmlns="http://www.w3.org/2000/svg">
<path d="M70.9883 9.71959C70.9883 11.8261 70.5787 13.6031 69.7594 15.0506C68.9401 16.4919 67.8346 17.5852 66.4424 18.3305C65.0502 19.0696 63.4982 19.4392 61.7857 19.4392C60.0615 19.4392 58.5028 19.0665 57.1111 18.3212C55.725 17.5698 54.6225 16.4734 53.8033 15.0321C52.9902 13.5846 52.5837 11.8138 52.5837 9.71959C52.5837 7.61307 52.9902 5.83916 53.8033 4.39784C54.6225 2.95037 55.725 1.85707 57.1111 1.11793C58.5028 0.372644 60.0615 0 61.7857 0C63.4982 0 65.0502 0.372644 66.4424 1.11793C67.8346 1.85707 68.9401 2.95037 69.7594 4.39784C70.5787 5.83916 70.9883 7.61307 70.9883 9.71959ZM65.7035 9.71959C65.7035 8.58627 65.5526 7.63152 65.2508 6.85544C64.9551 6.07322 64.5147 5.48191 63.9296 5.08153C63.3506 4.67499 62.6358 4.47175 61.7857 4.47175C60.9361 4.47175 60.2185 4.67499 59.6334 5.08153C59.0544 5.48191 58.614 6.07322 58.3122 6.85544C58.0165 7.63152 57.8685 8.58627 57.8685 9.71959C57.8685 10.8529 58.0165 11.8107 58.3122 12.593C58.614 13.369 59.0544 13.9603 59.6334 14.3669C60.2185 14.7673 60.9361 14.9674 61.7857 14.9674C62.6358 14.9674 63.3506 14.7673 63.9296 14.3669C64.5147 13.9603 64.9551 13.369 65.2508 12.593C65.5526 11.8107 65.7035 10.8529 65.7035 9.71959ZM88.4356 0.258696V19.1805H84.1489L77.312 9.23916H77.2008V19.1805H72.064V0.258696H76.425L83.1508 10.1631H83.2989V0.258696H88.4356ZM89.5648 19.1805V0.258696H94.7016V15.0413H102.352V19.1805H89.5648ZM108.264 0.258696V19.1805H103.127V0.258696H108.264ZM125.77 0.258696V19.1805H121.483L114.646 9.23916H114.535V19.1805H109.398V0.258696H113.759L120.485 10.1631H120.633V0.258696H125.77ZM126.899 19.1805V0.258696H140.536V4.39784H132.036V7.65002H139.834V11.7892H132.036V15.0413H140.499V19.1805H126.899Z" fill="#0EC8D0"/>
<path d="M29.9731 22.0185H36.3666L40.7645 32.7359H40.9862L45.384 22.0185H51.7775V40.9403H46.7514V30.0011H46.6036L42.3906 40.7924H39.3601L35.1471 29.9272H34.9992V40.9403H29.9731V22.0185ZM57.8263 40.9403H52.2829L58.5288 22.0185H65.5502L71.7958 40.9403H66.2526L62.1135 27.2293H61.9654L57.8263 40.9403ZM56.7916 33.475H67.2134V37.3185H56.7916V33.475ZM83.7165 28.2641C83.6361 27.9377 83.5102 27.6513 83.3376 27.4049C83.1649 27.1524 82.9497 26.9398 82.6909 26.7674C82.4383 26.5888 82.1427 26.4563 81.804 26.3701C81.4714 26.2777 81.1048 26.2315 80.7046 26.2315C79.8423 26.2315 79.1062 26.4378 78.4964 26.8505C77.8928 27.2632 77.4307 27.8576 77.1104 28.6337C76.7963 29.4098 76.6393 30.346 76.6393 31.4424C76.6393 32.5511 76.7902 33.4996 77.092 34.2881C77.3938 35.0765 77.8432 35.6801 78.4406 36.0989C79.0381 36.5178 79.7803 36.7272 80.6673 36.7272C81.4497 36.7272 82.0996 36.6133 82.6167 36.3854C83.1403 36.1574 83.5315 35.8341 83.7903 35.4152C84.049 34.9964 84.1782 34.5036 84.1782 33.937L85.0651 34.0294H80.7415V30.3706H89.1305V32.9946C89.1305 34.7192 88.7639 36.1944 88.0311 37.4201C87.3041 38.6397 86.3003 39.5759 85.0193 40.2288C83.7439 40.8756 82.2813 41.199 80.6304 41.199C78.7888 41.199 77.1719 40.8078 75.7798 40.0256C74.3881 39.2434 73.3005 38.1285 72.5186 36.681C71.7423 35.2335 71.3544 33.512 71.3544 31.5163C71.3544 29.9518 71.5914 28.5659 72.0659 27.3587C72.546 26.1515 73.2116 25.1321 74.0617 24.3005C74.9112 23.4629 75.8938 22.8315 77.0087 22.4065C78.1237 21.9754 79.3186 21.7598 80.5935 21.7598C81.7146 21.7598 82.7553 21.9199 83.7165 22.2402C84.6834 22.5543 85.5363 23.004 86.2757 23.5891C87.0207 24.1681 87.6215 24.8549 88.077 25.6495C88.533 26.444 88.8102 27.3156 88.9086 28.2641H83.7165ZM94.5558 40.9403H89.0122L95.2578 22.0185H102.28L108.525 40.9403H102.982L98.8426 27.2293H98.695L94.5558 40.9403ZM93.5208 33.475H103.943V37.3185H93.5208V33.475ZM109.121 40.9403V38.0946L118.064 26.1576H109.158V22.0185H124.606V24.8641L115.662 36.8011H124.569V40.9403H109.121ZM130.948 22.0185V40.9403H125.811V22.0185H130.948ZM148.453 22.0185V40.9403H144.166L137.329 30.9989H137.218V40.9403H132.082V22.0185H136.443L143.168 31.9228H143.316V22.0185H148.453ZM149.582 40.9403V22.0185H163.219V26.1576H154.719V29.4098H162.517V33.5489H154.719V36.8011H163.182V40.9403H149.582Z" fill="#00DAC1"/>
<path d="M72.5312 62.701V43.7792H85.8356V47.9184H77.6685V51.1705H85.0225V55.3097H77.6685V62.701H72.5312ZM104.755 53.2401C104.755 55.3466 104.345 57.1238 103.526 58.5713C102.707 60.0122 101.601 61.1059 100.209 61.8509C98.8169 62.5903 97.2649 62.9598 95.5524 62.9598C93.8277 62.9598 92.2695 62.587 90.8773 61.842C89.4918 61.0903 88.3891 59.9938 87.5698 58.5524C86.7566 57.1054 86.3503 55.3343 86.3503 53.2401C86.3503 51.1336 86.7566 49.3597 87.5698 47.9184C88.3891 46.4709 89.4918 45.3776 90.8773 44.6385C92.2695 43.8932 93.8277 43.5205 95.5524 43.5205C97.2649 43.5205 98.8169 43.8932 100.209 44.6385C101.601 45.3776 102.707 46.4709 103.526 47.9184C104.345 49.3597 104.755 51.1336 104.755 53.2401ZM99.4697 53.2401C99.4697 52.1067 99.3188 51.1521 99.017 50.3758C98.7214 49.5939 98.281 49.0026 97.6958 48.6019C97.1173 48.1956 96.4025 47.9921 95.5524 47.9921C94.7024 47.9921 93.9848 48.1956 93.3996 48.6019C92.8206 49.0026 92.3802 49.5939 92.0784 50.3758C91.7827 51.1521 91.6352 52.1067 91.6352 53.2401C91.6352 54.3735 91.7827 55.3314 92.0784 56.1134C92.3802 56.8896 92.8206 57.4809 93.3996 57.8873C93.9848 58.288 94.7024 58.4881 95.5524 58.4881C96.4025 58.4881 97.1173 58.288 97.6958 57.8873C98.281 57.4809 98.7214 56.8896 99.017 56.1134C99.3188 55.3314 99.4697 54.3735 99.4697 53.2401ZM105.831 62.701V43.7792H113.998C115.402 43.7792 116.631 44.0348 117.684 44.5461C118.738 45.0573 119.557 45.7933 120.142 46.7542C120.727 47.7149 121.02 48.8668 121.02 50.2098C121.02 51.5646 120.718 52.7075 120.114 53.6375C119.517 54.5675 118.676 55.2695 117.592 55.7439C116.514 56.2184 115.255 56.4554 113.813 56.4554H108.935V52.4638H112.778C113.382 52.4638 113.897 52.39 114.321 52.2425C114.752 52.0882 115.082 51.8451 115.31 51.5125C115.544 51.18 115.661 50.7457 115.661 50.2098C115.661 49.6677 115.544 49.2273 115.31 48.8886C115.082 48.5437 114.752 48.2911 114.321 48.1308C113.897 47.9647 113.382 47.8815 112.778 47.8815H110.968V62.701H105.831ZM116.917 54.0164L121.648 62.701H116.067L111.448 54.0164H116.917Z" fill="#34DB7E"/>
<path d="M39.0796 84.4608V65.539H47.247C48.6514 65.539 49.8801 65.7945 50.9334 66.3058C51.9867 66.8172 52.8059 67.5533 53.391 68.514C53.9762 69.4748 54.2688 70.6266 54.2688 71.9696C54.2688 73.3244 53.9669 74.4673 53.3633 75.3973C52.7659 76.3273 51.9251 77.0293 50.841 77.5037C49.7631 77.9782 48.5035 78.2152 47.0622 78.2152H42.1839V74.2236H46.0274C46.631 74.2236 47.1454 74.1499 47.5704 74.0023C48.0015 73.8481 48.3311 73.6049 48.5589 73.2724C48.793 72.9398 48.91 72.5056 48.91 71.9696C48.91 71.4275 48.793 70.9871 48.5589 70.6484C48.3311 70.3035 48.0015 70.0509 47.5704 69.8906C47.1454 69.7245 46.631 69.6413 46.0274 69.6413H44.2166V84.4608H39.0796ZM50.1666 75.7762L54.897 84.4608H49.3166L44.697 75.7762H50.1666ZM55.1576 84.4608V65.539H68.7946V69.6782H60.2945V72.9303H68.0922V77.0695H60.2945V80.3217H68.7577V84.4608H55.1576ZM82.3294 71.7846C82.2495 71.4582 82.1231 71.172 81.9505 70.9256C81.7783 70.673 81.5626 70.4606 81.3038 70.2879C81.0512 70.1091 80.7556 69.9771 80.4169 69.8906C80.0843 69.7983 79.7177 69.752 79.3175 69.752C78.4552 69.752 77.7191 69.9582 77.1093 70.3712C76.5057 70.7837 76.0436 71.3783 75.7233 72.1541C75.4092 72.9303 75.2522 73.8665 75.2522 74.963C75.2522 76.0718 75.4031 77.0203 75.7049 77.8089C76.0067 78.597 76.4565 79.2006 77.054 79.6197C77.6515 80.0383 78.3937 80.2479 79.2806 80.2479C80.0626 80.2479 80.7125 80.1339 81.23 79.9059C81.7537 79.6779 82.1444 79.3548 82.4032 78.9357C82.6619 78.517 82.7916 78.0241 82.7916 77.4574L83.6785 77.5501H79.3544V73.8911H87.7434V76.5151C87.7434 78.2398 87.3772 79.7148 86.644 80.9409C85.9174 82.1604 84.9132 83.0965 83.6322 83.7494C82.3573 84.396 80.8942 84.7196 79.2437 84.7196C77.4017 84.7196 75.7848 84.3284 74.3931 83.5459C73.001 82.764 71.9139 81.649 71.1315 80.2015C70.3557 78.754 69.9673 77.0326 69.9673 75.0368C69.9673 73.4725 70.2048 72.0864 70.6788 70.8792C71.1594 69.672 71.8245 68.6526 72.6746 67.821C73.5246 66.9832 74.5071 66.3522 75.6216 65.9269C76.7366 65.496 77.9315 65.2803 79.2068 65.2803C80.3275 65.2803 81.3686 65.4406 82.3294 65.7609C83.2963 66.075 84.1497 66.5244 84.8886 67.1095C85.6341 67.6885 86.2344 68.3754 86.6904 69.1701C87.1459 69.9644 87.4231 70.8362 87.522 71.7846H82.3294ZM100.036 65.539H105.173V77.6608C105.173 79.1022 104.828 80.3496 104.138 81.4026C103.454 82.4499 102.5 83.2597 101.274 83.8326C100.048 84.3993 98.6253 84.6827 97.0056 84.6827C95.3731 84.6827 93.9441 84.3993 92.7184 83.8326C91.4927 83.2597 90.5381 82.4499 89.8541 81.4026C89.1767 80.3496 88.838 79.1022 88.838 77.6608V65.539H93.9748V77.2171C93.9748 77.8022 94.1044 78.3259 94.3632 78.7881C94.6215 79.2436 94.9791 79.6012 95.4346 79.8595C95.8968 80.1183 96.4204 80.2479 97.0056 80.2479C97.5969 80.2479 98.1201 80.1183 98.5761 79.8595C99.0317 79.6012 99.3893 79.2436 99.6476 78.7881C99.9063 78.3259 100.036 77.8022 100.036 77.2171V65.539ZM106.313 84.4608V65.539H111.45V80.3217H119.101V84.4608H106.313ZM124.791 84.4608H119.248L125.493 65.539H132.515L138.761 84.4608H133.217L129.078 70.7501H128.93L124.791 84.4608ZM123.756 76.9957H134.178V80.8392H123.756V76.9957ZM139.283 84.4608V65.539H147.45C148.854 65.539 150.083 65.7945 151.136 66.3058C152.19 66.8172 153.009 67.5533 153.594 68.514C154.179 69.4748 154.472 70.6266 154.472 71.9696C154.472 73.3244 154.17 74.4673 153.566 75.3973C152.969 76.3273 152.128 77.0293 151.044 77.5037C149.966 77.9782 148.706 78.2152 147.265 78.2152H142.387V74.2236H146.23C146.834 74.2236 147.348 74.1499 147.773 74.0023C148.204 73.8481 148.534 73.6049 148.762 73.2724C148.996 72.9398 149.113 72.5056 149.113 71.9696C149.113 71.4275 148.996 70.9871 148.762 70.6484C148.534 70.3035 148.204 70.0509 147.773 69.8906C147.348 69.7245 146.834 69.6413 146.23 69.6413H144.419V84.4608H139.283ZM150.369 75.7762L155.1 84.4608H149.519L144.9 75.7762H150.369Z" fill="#FFC030"/>
<path d="M30.861 87.2988H35.9979V99.4206C35.9979 100.862 35.653 102.109 34.9631 103.162C34.2794 104.21 33.3247 105.02 32.099 105.592C30.8732 106.159 29.4504 106.442 27.8305 106.442C26.1982 106.442 24.7693 106.159 23.5435 105.592C22.3178 105.02 21.3631 104.21 20.6794 103.162C20.0018 102.109 19.6631 100.862 19.6631 99.4206V87.2988H24.8001V98.9768C24.8001 99.562 24.9294 100.086 25.1881 100.548C25.4468 101.003 25.8041 101.361 26.2598 101.619C26.7218 101.878 27.2453 102.008 27.8305 102.008C28.4218 102.008 28.9454 101.878 29.4011 101.619C29.857 101.361 30.2142 101.003 30.4729 100.548C30.7316 100.086 30.861 99.562 30.861 98.9768V87.2988ZM37.1385 106.221V87.2988H45.3059C46.7102 87.2988 47.939 87.576 48.9923 88.1304C50.0456 88.6848 50.8648 89.4639 51.4499 90.4677C52.0351 91.472 52.3276 92.6451 52.3276 93.9881C52.3276 95.3429 52.0258 96.5165 51.4222 97.508C50.8248 98.4995 49.984 99.2635 48.8999 99.7995C47.822 100.335 46.5624 100.603 45.1211 100.603H40.2428V96.6116H44.0863C44.6899 96.6116 45.2043 96.5071 45.6293 96.2975C46.0604 96.0823 46.39 95.7772 46.6178 95.3831C46.8519 94.9891 46.9689 94.5236 46.9689 93.9881C46.9689 93.446 46.8519 92.9838 46.6178 92.6021C46.39 92.2142 46.0604 91.9185 45.6293 91.7151C45.2043 91.5056 44.6899 91.401 44.0863 91.401H42.2754V106.221H37.1385ZM60.1919 106.221H52.9115V87.2988H60.1181C62.0647 87.2988 63.7459 87.6777 65.1626 88.435C66.5856 89.1867 67.6821 90.2709 68.4517 91.6872C69.228 93.0978 69.6159 94.7885 69.6159 96.7597C69.6159 98.7309 69.2308 100.424 68.4612 101.841C67.6911 103.252 66.6007 104.336 65.1906 105.093C63.7799 105.845 62.1139 106.221 60.1919 106.221ZM58.0485 101.86H60.0074C60.9436 101.86 61.7411 101.709 62.4001 101.407C63.0652 101.105 63.5704 100.585 63.9152 99.8454C64.2667 99.1065 64.4422 98.0776 64.4422 96.7597C64.4422 95.4418 64.2634 94.4129 63.9062 93.674C63.5552 92.9346 63.0377 92.4143 62.3542 92.1125C61.6763 91.8107 60.8447 91.6598 59.8593 91.6598H58.0485V101.86ZM74.413 106.221H68.8694L75.115 87.2988H82.1369L88.3825 106.221H82.8389L78.6998 92.5099H78.5522L74.413 106.221ZM73.378 98.7555H83.7996V102.599H73.378V98.7555ZM85.9984 91.4379V87.2988H102.444V91.4379H96.7526V106.221H91.6896V91.4379H85.9984ZM103.076 106.221V87.2988H116.714V91.4379H108.213V94.6901H116.011V98.8293H108.213V102.081H116.676V106.221H103.076ZM128.16 93.2119C128.111 92.5959 127.88 92.1153 127.467 91.7705C127.061 91.4256 126.442 91.253 125.61 91.253C125.08 91.253 124.646 91.3178 124.307 91.4474C123.975 91.5704 123.728 91.7397 123.569 91.9554C123.408 92.1707 123.325 92.4171 123.319 92.6943C123.306 92.9223 123.347 93.1286 123.439 93.3136C123.538 93.4919 123.691 93.6551 123.901 93.8032C124.111 93.9446 124.378 94.0742 124.705 94.1911C125.031 94.3084 125.42 94.4129 125.869 94.5052L127.421 94.8382C128.468 95.0596 129.364 95.3524 130.11 95.7157C130.855 96.079 131.465 96.5071 131.939 97C132.413 97.4863 132.761 98.0345 132.983 98.6443C133.211 99.254 133.328 99.9196 133.334 100.64C133.328 101.884 133.017 102.938 132.401 103.8C131.785 104.662 130.904 105.318 129.759 105.768C128.619 106.217 127.249 106.442 125.647 106.442C124.003 106.442 122.568 106.199 121.342 105.713C120.122 105.226 119.173 104.477 118.496 103.467C117.825 102.451 117.486 101.151 117.48 99.5686H122.358C122.389 100.147 122.533 100.634 122.792 101.028C123.051 101.422 123.414 101.721 123.883 101.924C124.357 102.128 124.92 102.229 125.573 102.229C126.122 102.229 126.58 102.161 126.95 102.026C127.32 101.89 127.6 101.703 127.791 101.462C127.982 101.222 128.08 100.948 128.087 100.64C128.08 100.351 127.985 100.098 127.8 99.8827C127.622 99.6609 127.326 99.4636 126.913 99.2914C126.5 99.1126 125.943 98.9461 125.241 98.7924L123.356 98.3855C121.681 98.0222 120.359 97.4158 119.392 96.5657C118.431 95.7095 117.954 94.5421 117.96 93.0643C117.954 91.8627 118.274 90.8126 118.921 89.9133C119.574 89.0079 120.476 88.3026 121.628 87.7979C122.786 87.2926 124.113 87.04 125.61 87.04C127.138 87.04 128.459 87.2955 129.574 87.8068C130.689 88.3182 131.548 89.0387 132.151 89.9691C132.761 90.893 133.069 91.9739 133.075 93.2119H128.16ZM156.2 96.7597C156.2 98.8662 155.79 100.643 154.972 102.091C154.152 103.532 153.047 104.625 151.655 105.371C150.262 106.11 148.71 106.479 146.998 106.479C145.273 106.479 143.715 106.107 142.323 105.362C140.937 104.61 139.835 103.513 139.015 102.072C138.202 100.625 137.796 98.8539 137.796 96.7597C137.796 94.6532 138.202 92.8793 139.015 91.4379C139.835 89.9904 140.937 88.8972 142.323 88.1578C143.715 87.4128 145.273 87.04 146.998 87.04C148.71 87.04 150.262 87.4128 151.655 88.1578C153.047 88.8972 154.152 89.9904 154.972 91.4379C155.79 92.8793 156.2 94.6532 156.2 96.7597ZM150.915 96.7597C150.915 95.6263 150.764 94.6717 150.463 93.8954C150.167 93.1135 149.726 92.5222 149.141 92.1215C148.562 91.7151 147.848 91.5117 146.998 91.5117C146.148 91.5117 145.43 91.7151 144.845 92.1215C144.266 92.5222 143.826 93.1135 143.524 93.8954C143.228 94.6717 143.081 95.6263 143.081 96.7597C143.081 97.8931 143.228 98.851 143.524 99.633C143.826 100.409 144.266 101.001 144.845 101.407C145.43 101.808 146.148 102.008 146.998 102.008C147.848 102.008 148.562 101.808 149.141 101.407C149.726 101.001 150.167 100.409 150.463 99.633C150.764 98.851 150.915 97.8931 150.915 96.7597ZM173.648 87.2988V106.221H169.361L162.524 96.2791H162.413V106.221H157.276V87.2988H161.637L168.363 97.2034H168.511V87.2988H173.648Z" fill="#FA9732"/>
<path d="M46.8277 127.98H41.2842L47.5299 109.059H54.5516L60.7973 127.98H55.2538L51.1147 114.27H50.9668L46.8277 127.98ZM45.7929 120.515H56.2146V124.359H45.7929V120.515ZM61.319 127.98V109.059H69.4861C70.8906 109.059 72.1196 109.314 73.1726 109.825C74.2261 110.337 75.0449 111.073 75.6301 112.034C76.2152 112.994 76.508 114.146 76.508 115.489C76.508 116.844 76.2062 117.987 75.6026 118.917C75.0052 119.847 74.1646 120.549 73.0803 121.023C72.0023 121.498 70.7426 121.735 69.3017 121.735H64.4232V117.743H68.2666C68.8702 117.743 69.3844 117.669 69.8097 117.522C70.2407 117.368 70.5704 117.124 70.7984 116.792C71.0321 116.459 71.1494 116.025 71.1494 115.489C71.1494 114.947 71.0321 114.507 70.7984 114.168C70.5704 113.823 70.2407 113.57 69.8097 113.41C69.3844 113.244 68.8702 113.161 68.2666 113.161H66.4558V127.98H61.319ZM72.4058 119.296L77.1362 127.98H71.5557L66.9364 119.296H72.4058ZM76.8794 113.198V109.059H93.3252V113.198H87.6336V127.98H82.5706V113.198H76.8794ZM102.755 127.98H97.2118L103.457 109.059H110.479L116.725 127.98H111.181L107.042 114.27H106.894L102.755 127.98ZM101.72 120.515H112.142V124.359H101.72V120.515ZM133.618 109.059V127.98H129.331L122.494 118.039H122.383V127.98H117.246V109.059H121.607L128.333 118.963H128.481V109.059H133.618ZM142.028 127.98H134.747V109.059H141.954C143.9 109.059 145.582 109.437 146.998 110.195C148.421 110.947 149.517 112.031 150.287 113.447C151.063 114.858 151.452 116.548 151.452 118.519C151.452 120.491 151.066 122.184 150.296 123.601C149.527 125.012 148.436 126.096 147.026 126.853C145.615 127.605 143.949 127.98 142.028 127.98ZM139.884 123.619H141.843C142.779 123.619 143.577 123.468 144.236 123.167C144.901 122.865 145.406 122.345 145.751 121.605C146.102 120.866 146.277 119.837 146.277 118.519C146.277 117.202 146.099 116.173 145.741 115.434C145.39 114.694 144.873 114.174 144.189 113.872C143.512 113.57 142.68 113.42 141.695 113.42H139.884V123.619Z" fill="#FF6B16"/>
<path d="M0 149.741V130.819H8.16741C9.57176 130.819 10.8006 131.097 11.8538 131.651C12.9071 132.205 13.7263 132.984 14.3114 133.988C14.8966 134.993 15.1892 136.166 15.1892 137.509C15.1892 138.863 14.8873 140.037 14.2837 141.029C13.6863 142.02 12.8455 142.784 11.7614 143.32C10.6835 143.856 9.42393 144.124 7.98262 144.124H3.10435V140.132H6.94784C7.55146 140.132 8.06578 140.028 8.49078 139.818C8.92194 139.603 9.25147 139.298 9.47937 138.904C9.71342 138.51 9.83045 138.044 9.83045 137.509C9.83045 136.967 9.71342 136.504 9.47937 136.123C9.25147 135.735 8.92194 135.439 8.49078 135.236C8.06578 135.026 7.55146 134.922 6.94784 134.922H5.13697V149.741H0ZM15.7731 149.741V130.819H20.91V138.211H27.71V130.819H32.847V149.741H27.71V142.35H20.91V149.741H15.7731ZM52.3157 140.28C52.3157 142.387 51.9062 144.164 51.087 145.611C50.2677 147.052 49.1621 148.146 47.7701 148.891C46.3781 149.63 44.8259 150 43.1136 150C41.3889 150 39.8306 149.627 38.4386 148.882C37.0527 148.13 35.9502 147.034 35.1309 145.592C34.3179 144.145 33.9114 142.374 33.9114 140.28C33.9114 138.174 34.3179 136.4 35.1309 134.958C35.9502 133.511 37.0527 132.418 38.4386 131.678C39.8306 130.933 41.3889 130.561 43.1136 130.561C44.8259 130.561 46.3781 130.933 47.7701 131.678C49.1621 132.418 50.2677 133.511 51.087 134.958C51.9062 136.4 52.3157 138.174 52.3157 140.28ZM47.031 140.28C47.031 139.147 46.8801 138.192 46.5782 137.416C46.2826 136.634 45.8422 136.043 45.2571 135.642C44.6781 135.236 43.9636 135.032 43.1136 135.032C42.2635 135.032 41.546 135.236 40.9608 135.642C40.3819 136.043 39.9415 136.634 39.6397 137.416C39.344 138.192 39.1962 139.147 39.1962 140.28C39.1962 141.414 39.344 142.372 39.6397 143.153C39.9415 143.93 40.3819 144.521 40.9608 144.927C41.546 145.328 42.2635 145.528 43.1136 145.528C43.9636 145.528 44.6781 145.328 45.2571 144.927C45.8422 144.521 46.2826 143.93 46.5782 143.153C46.8801 142.372 47.031 141.414 47.031 140.28ZM51.985 134.958V130.819H68.4308V134.958H62.7396V149.741H57.6761V134.958H51.985ZM86.5044 140.28C86.5044 142.387 86.0948 144.164 85.2755 145.611C84.4561 147.052 83.3506 148.146 81.9585 148.891C80.5668 149.63 79.0142 150 77.3023 150C75.5776 150 74.0194 149.627 72.6272 148.882C71.2412 148.13 70.1385 147.034 69.3197 145.592C68.5065 144.145 68.1001 142.374 68.1001 140.28C68.1001 138.174 68.5065 136.4 69.3197 134.958C70.1385 133.511 71.2412 132.418 72.6272 131.678C74.0194 130.933 75.5776 130.561 77.3023 130.561C79.0142 130.561 80.5668 130.933 81.9585 131.678C83.3506 132.418 84.4561 133.511 85.2755 134.958C86.0948 136.4 86.5044 138.174 86.5044 140.28ZM81.2196 140.28C81.2196 139.147 81.0687 138.192 80.7669 137.416C80.4712 136.634 80.0308 136.043 79.4456 135.642C78.8666 135.236 78.1524 135.032 77.3023 135.032C76.4522 135.032 75.7346 135.236 75.1495 135.642C74.5704 136.043 74.13 136.634 73.8282 137.416C73.5326 138.192 73.3845 139.147 73.3845 140.28C73.3845 141.414 73.5326 142.372 73.8282 143.153C74.13 143.93 74.5704 144.521 75.1495 144.927C75.7346 145.328 76.4522 145.528 77.3023 145.528C78.1524 145.528 78.8666 145.328 79.4456 144.927C80.0308 144.521 80.4712 143.93 80.7669 143.153C81.0687 142.372 81.2196 141.414 81.2196 140.28ZM99.8684 137.065C99.788 136.739 99.6622 136.452 99.4895 136.206C99.3168 135.953 99.1016 135.741 98.8428 135.568C98.5902 135.389 98.2946 135.257 97.9559 135.171C97.6233 135.079 97.2567 135.032 96.8565 135.032C95.9942 135.032 95.2581 135.238 94.6484 135.651C94.0447 136.064 93.5826 136.659 93.2623 137.434C92.9482 138.211 92.7912 139.147 92.7912 140.243C92.7912 141.352 92.9421 142.301 93.2439 143.089C93.5457 143.877 93.9951 144.481 94.5925 144.9C95.19 145.319 95.9322 145.528 96.8192 145.528C97.6016 145.528 98.2515 145.414 98.769 145.186C99.2922 144.958 99.6834 144.635 99.9422 144.216C100.201 143.797 100.33 143.304 100.33 142.738L101.217 142.83H96.8934V139.171H105.282V141.795C105.282 143.52 104.916 144.995 104.183 146.221C103.456 147.441 102.452 148.377 101.171 149.03C99.8958 149.676 98.4332 150 96.7823 150C94.9407 150 93.3238 149.609 91.9317 148.826C90.54 148.044 89.4529 146.929 88.6705 145.482C87.8942 144.034 87.5063 142.313 87.5063 140.317C87.5063 138.753 87.7433 137.367 88.2178 136.16C88.6979 134.952 89.3635 133.933 90.2136 133.101C91.0631 132.264 92.0457 131.632 93.1606 131.207C94.2756 130.776 95.4705 130.561 96.7454 130.561C97.8665 130.561 98.9076 130.721 99.8684 131.041C100.835 131.355 101.688 131.805 102.428 132.39C103.173 132.969 103.773 133.656 104.229 134.45C104.685 135.245 104.962 136.116 105.061 137.065H99.8684ZM106.377 149.741V130.819H114.544C115.949 130.819 117.178 131.075 118.231 131.586C119.284 132.097 120.103 132.834 120.688 133.794C121.273 134.755 121.566 135.907 121.566 137.25C121.566 138.605 121.264 139.748 120.661 140.678C120.063 141.608 119.222 142.31 118.138 142.784C117.06 143.258 115.801 143.495 114.36 143.495H109.481V139.504H113.325C113.928 139.504 114.442 139.43 114.868 139.283C115.299 139.128 115.628 138.885 115.856 138.553C116.09 138.22 116.207 137.786 116.207 137.25C116.207 136.708 116.09 136.267 115.856 135.929C115.628 135.584 115.299 135.331 114.868 135.171C114.442 135.005 113.928 134.922 113.325 134.922H111.514V149.741H106.377ZM117.464 141.056L122.194 149.741H116.614L111.994 141.056H117.464ZM127.37 149.741H121.827L128.072 130.819H135.094L141.34 149.741H135.796L131.657 136.03H131.509L127.37 149.741ZM126.335 142.276H136.757V146.119H126.335V142.276ZM141.861 149.741V130.819H150.029C151.433 130.819 152.662 131.097 153.715 131.651C154.768 132.205 155.587 132.984 156.173 133.988C156.758 134.993 157.05 136.166 157.05 137.509C157.05 138.863 156.749 140.037 156.145 141.029C155.548 142.02 154.707 142.784 153.623 143.32C152.545 143.856 151.285 144.124 149.844 144.124H144.966V140.132H148.809C149.413 140.132 149.927 140.028 150.352 139.818C150.783 139.603 151.113 139.298 151.34 138.904C151.575 138.51 151.691 138.044 151.691 137.509C151.691 136.967 151.575 136.504 151.34 136.123C151.113 135.735 150.783 135.439 150.352 135.236C149.927 135.026 149.413 134.922 148.809 134.922H146.998V149.741H141.861ZM157.634 149.741V130.819H162.771V138.211H169.571V130.819H174.708V149.741H169.571V142.35H162.771V149.741H157.634ZM175.07 130.819H180.799L184.494 138.506H184.642L188.338 130.819H194.066L187.118 143.791V149.741H182.018V143.791L175.07 130.819Z" fill="#F13A2B"/>
</svg>
