<svg width="412" height="318" viewBox="0 0 412 318" fill="none" xmlns="http://www.w3.org/2000/svg">
<path d="M40.3281 21.0288C40.3281 25.4819 39.4622 29.2384 37.7305 32.2983C35.9987 35.3452 33.6615 37.6564 30.7188 39.2319C27.776 40.7944 24.4948 41.5757 20.875 41.5757C17.2292 41.5757 13.9349 40.7879 10.9922 39.2124C8.0625 37.6239 5.73177 35.3062 4 32.2593C2.28125 29.1994 1.42188 25.4559 1.42188 21.0288C1.42188 16.5757 2.28125 12.8257 4 9.77881C5.73177 6.71891 8.0625 4.40771 10.9922 2.84521C13.9349 1.26969 17.2292 0.481932 20.875 0.481932C24.4948 0.481932 27.776 1.26969 30.7188 2.84521C33.6615 4.40771 35.9987 6.71891 37.7305 9.77881C39.4622 12.8257 40.3281 16.5757 40.3281 21.0288ZM29.1563 21.0288C29.1563 18.633 28.8372 16.6147 28.1992 14.9741C27.5742 13.3205 26.6432 12.0705 25.4063 11.2241C24.1823 10.3647 22.6719 9.93506 20.875 9.93506C19.0781 9.93506 17.5612 10.3647 16.3242 11.2241C15.1003 12.0705 14.1693 13.3205 13.5313 14.9741C12.9063 16.6147 12.5938 18.633 12.5938 21.0288C12.5938 23.4246 12.9063 25.4494 13.5313 27.103C14.1693 28.7437 15.1003 29.9937 16.3242 30.853C17.5612 31.6994 19.0781 32.1226 20.875 32.1226C22.6719 32.1226 24.1823 31.6994 25.4063 30.853C26.6432 29.9937 27.5742 28.7437 28.1992 27.103C28.8372 25.4494 29.1563 23.4246 29.1563 21.0288ZM77.2119 1.02881V41.0288H68.1494L53.6963 20.0132H53.4619V41.0288H42.6025V1.02881H51.8213L66.04 21.9663H66.3525V1.02881H77.2119ZM79.5986 41.0288V1.02881H90.458V32.2788H106.63V41.0288H79.5986ZM119.129 1.02881V41.0288H108.27V1.02881H119.129ZM156.135 1.02881V41.0288H147.072L132.619 20.0132H132.385V41.0288H121.525V1.02881H130.744L144.963 21.9663H145.275V1.02881H156.135ZM158.521 41.0288V1.02881H187.35V9.77881H169.381V16.6538H185.865V25.4038H169.381V32.2788H187.271V41.0288H158.521Z" fill="#0EC8D0"/>
<path d="M1.57812 47.0288H15.0938L24.3906 69.6851H24.8594L34.1563 47.0288H47.6719V87.0288H37.0469V63.9038H36.7344L27.8281 86.7163H21.4219L12.5156 63.7476H12.2031V87.0288H1.57812V47.0288ZM60.459 87.0288H48.7402L61.9434 47.0288H76.7871L89.9902 87.0288H78.2715L69.5215 58.0444H69.209L60.459 87.0288ZM58.2715 71.2476H80.3027V79.3726H58.2715V71.2476ZM115.189 60.2319C115.02 59.5418 114.753 58.9364 114.389 58.4155C114.024 57.8817 113.568 57.4325 113.021 57.0679C112.488 56.6903 111.863 56.4103 111.146 56.228C110.443 56.0327 109.669 55.9351 108.822 55.9351C106.999 55.9351 105.443 56.3713 104.154 57.2437C102.878 58.116 101.902 59.3726 101.225 61.0132C100.561 62.6538 100.229 64.633 100.229 66.9507C100.229 69.2944 100.548 71.2996 101.186 72.9663C101.824 74.633 102.774 75.909 104.037 76.7944C105.3 77.6798 106.869 78.1226 108.744 78.1226C110.398 78.1226 111.771 77.8817 112.865 77.3999C113.972 76.9181 114.799 76.2345 115.346 75.3491C115.893 74.4637 116.166 73.422 116.166 72.2241L118.041 72.4194H108.9V64.6851H126.635V70.2319C126.635 73.8778 125.86 76.9963 124.311 79.5874C122.774 82.1655 120.652 84.1447 117.943 85.5249C115.248 86.8921 112.156 87.5757 108.666 87.5757C104.773 87.5757 101.355 86.7489 98.4121 85.0952C95.4694 83.4416 93.1712 81.0848 91.5176 78.0249C89.877 74.965 89.0566 71.3257 89.0566 67.1069C89.0566 63.7996 89.5579 60.87 90.5605 58.3179C91.5762 55.7658 92.9824 53.6108 94.7793 51.853C96.5762 50.0822 98.653 48.7476 101.01 47.8491C103.367 46.9377 105.893 46.4819 108.588 46.4819C110.958 46.4819 113.158 46.8205 115.189 47.4976C117.234 48.1616 119.037 49.1121 120.6 50.3491C122.175 51.5731 123.445 53.0249 124.408 54.7046C125.372 56.3843 125.958 58.2267 126.166 60.2319H115.189ZM138.104 87.0288H126.385L139.588 47.0288H154.432L167.635 87.0288H155.916L147.166 58.0444H146.854L138.104 87.0288ZM135.916 71.2476H157.947V79.3726H135.916V71.2476ZM168.894 87.0288V81.0132L187.8 55.7788H168.972V47.0288H201.628V53.0444L182.722 78.2788H201.55V87.0288H168.894ZM215.035 47.0288V87.0288H204.176V47.0288H215.035ZM252.041 47.0288V87.0288H242.979L228.525 66.0132H228.291V87.0288H217.432V47.0288H226.65L240.869 67.9663H241.182V47.0288H252.041ZM254.428 87.0288V47.0288H283.256V55.7788H265.287V62.6538H281.771V71.4038H265.287V78.2788H283.178V87.0288H254.428Z" fill="#00DAC1"/>
<path d="M1.57812 133.029V93.0288H29.7031V101.779H12.4375V108.654H27.9844V117.404H12.4375V133.029H1.57812ZM69.6973 113.029C69.6973 117.482 68.8314 121.238 67.0996 124.298C65.3678 127.345 63.0306 129.656 60.0879 131.232C57.1452 132.794 53.8639 133.576 50.2441 133.576C46.5983 133.576 43.304 132.788 40.3613 131.212C37.4316 129.624 35.1009 127.306 33.3691 124.259C31.6504 121.199 30.791 117.456 30.791 113.029C30.791 108.576 31.6504 104.826 33.3691 101.779C35.1009 98.7189 37.4316 96.4077 40.3613 94.8452C43.304 93.2697 46.5983 92.4819 50.2441 92.4819C53.8639 92.4819 57.1452 93.2697 60.0879 94.8452C63.0306 96.4077 65.3678 98.7189 67.0996 101.779C68.8314 104.826 69.6973 108.576 69.6973 113.029ZM58.5254 113.029C58.5254 110.633 58.2064 108.615 57.5684 106.974C56.9434 105.32 56.0124 104.07 54.7754 103.224C53.5514 102.365 52.041 101.935 50.2441 101.935C48.4473 101.935 46.9303 102.365 45.6934 103.224C44.4694 104.07 43.5384 105.32 42.9004 106.974C42.2754 108.615 41.9629 110.633 41.9629 113.029C41.9629 115.425 42.2754 117.449 42.9004 119.103C43.5384 120.744 44.4694 121.994 45.6934 122.853C46.9303 123.699 48.4473 124.123 50.2441 124.123C52.041 124.123 53.5514 123.699 54.7754 122.853C56.0124 121.994 56.9434 120.744 57.5684 119.103C58.2064 117.449 58.5254 115.425 58.5254 113.029ZM71.9717 133.029V93.0288H89.2373C92.2061 93.0288 94.8037 93.5692 97.0303 94.6499C99.2568 95.7306 100.989 97.2866 102.226 99.3179C103.463 101.349 104.081 103.784 104.081 106.623C104.081 109.487 103.443 111.903 102.167 113.869C100.904 115.835 99.1266 117.319 96.835 118.322C94.5563 119.324 91.8936 119.826 88.8467 119.826H78.5342V111.388H86.6592C87.9352 111.388 89.0225 111.232 89.9209 110.919C90.8324 110.594 91.529 110.08 92.0107 109.376C92.5055 108.673 92.7529 107.755 92.7529 106.623C92.7529 105.477 92.5055 104.546 92.0107 103.83C91.529 103.1 90.8324 102.567 89.9209 102.228C89.0225 101.876 87.9352 101.701 86.6592 101.701H82.8311V133.029H71.9717ZM95.4092 114.669L105.409 133.029H93.6123L83.8467 114.669H95.4092Z" fill="#34DB7E"/>
<path d="M1.57812 179.029V139.029H18.8438C21.8125 139.029 24.4102 139.569 26.6367 140.65C28.8633 141.731 30.5951 143.287 31.832 145.318C33.069 147.349 33.6875 149.784 33.6875 152.623C33.6875 155.487 33.0495 157.903 31.7734 159.869C30.5104 161.835 28.7331 163.319 26.4414 164.322C24.1628 165.324 21.5 165.826 18.4531 165.826H8.14063V157.388H16.2656C17.5417 157.388 18.6289 157.232 19.5273 156.919C20.4388 156.594 21.1354 156.08 21.6172 155.376C22.112 154.673 22.3594 153.755 22.3594 152.623C22.3594 151.477 22.112 150.546 21.6172 149.83C21.1354 149.1 20.4388 148.567 19.5273 148.228C18.6289 147.876 17.5417 147.701 16.2656 147.701H12.4375V179.029H1.57812ZM25.0156 160.669L35.0156 179.029H23.2188L13.4531 160.669H25.0156ZM35.5664 179.029V139.029H64.3945V147.779H46.4258V154.654H62.9102V163.404H46.4258V170.279H64.3164V179.029H35.5664ZM93.0068 152.232C92.8376 151.542 92.5706 150.936 92.2061 150.416C91.8415 149.882 91.3857 149.432 90.8389 149.068C90.305 148.69 89.68 148.41 88.9639 148.228C88.2607 148.033 87.486 147.935 86.6396 147.935C84.8167 147.935 83.2607 148.371 81.9717 149.244C80.6956 150.116 79.7191 151.373 79.042 153.013C78.3779 154.654 78.0459 156.633 78.0459 158.951C78.0459 161.294 78.3649 163.3 79.0029 164.966C79.641 166.633 80.5915 167.909 81.8545 168.794C83.1175 169.68 84.6865 170.123 86.5615 170.123C88.2152 170.123 89.5889 169.882 90.6826 169.4C91.7894 168.918 92.6162 168.235 93.1631 167.349C93.71 166.464 93.9834 165.422 93.9834 164.224L95.8584 164.419H86.7178V156.685H104.452V162.232C104.452 165.878 103.677 168.996 102.128 171.587C100.591 174.166 98.4691 176.145 95.7607 177.525C93.0654 178.892 89.973 179.576 86.4834 179.576C82.5902 179.576 79.1722 178.749 76.2295 177.095C73.2868 175.442 70.9886 173.085 69.335 170.025C67.6943 166.965 66.874 163.326 66.874 159.107C66.874 155.8 67.3753 152.87 68.3779 150.318C69.3936 147.766 70.7998 145.611 72.5967 143.853C74.3936 142.082 76.4704 140.748 78.8271 139.849C81.1839 138.938 83.71 138.482 86.4053 138.482C88.7751 138.482 90.9756 138.82 93.0068 139.498C95.0511 140.162 96.8545 141.112 98.417 142.349C99.9925 143.573 101.262 145.025 102.226 146.705C103.189 148.384 103.775 150.227 103.983 152.232H93.0068ZM130.438 139.029H141.297V164.654C141.297 167.701 140.568 170.337 139.109 172.564C137.664 174.778 135.646 176.49 133.055 177.701C130.464 178.899 127.456 179.498 124.031 179.498C120.581 179.498 117.56 178.899 114.969 177.701C112.378 176.49 110.359 174.778 108.914 172.564C107.482 170.337 106.766 167.701 106.766 164.654V139.029H117.625V163.716C117.625 164.953 117.898 166.06 118.445 167.037C118.992 168 119.747 168.755 120.711 169.302C121.688 169.849 122.794 170.123 124.031 170.123C125.281 170.123 126.388 169.849 127.352 169.302C128.315 168.755 129.07 168 129.617 167.037C130.164 166.06 130.438 164.953 130.438 163.716V139.029ZM143.708 179.029V139.029H154.567V170.279H170.739V179.029H143.708ZM182.77 179.029H171.051L184.254 139.029H199.098L212.301 179.029H200.582L191.832 150.044H191.52L182.77 179.029ZM180.582 163.248H202.613V171.373H180.582V163.248ZM213.403 179.029V139.029H230.669C233.638 139.029 236.235 139.569 238.462 140.65C240.688 141.731 242.42 143.287 243.657 145.318C244.894 147.349 245.513 149.784 245.513 152.623C245.513 155.487 244.875 157.903 243.599 159.869C242.336 161.835 240.558 163.319 238.267 164.322C235.988 165.324 233.325 165.826 230.278 165.826H219.966V157.388H228.091C229.367 157.388 230.454 157.232 231.353 156.919C232.264 156.594 232.961 156.08 233.442 155.376C233.937 154.673 234.185 153.755 234.185 152.623C234.185 151.477 233.937 150.546 233.442 149.83C232.961 149.1 232.264 148.567 231.353 148.228C230.454 147.876 229.367 147.701 228.091 147.701H224.263V179.029H213.403ZM236.841 160.669L246.841 179.029H235.044L225.278 160.669H236.841Z" fill="#FFC030"/>
<path d="M25.25 185.029H36.1094V210.654C36.1094 213.701 35.3802 216.337 33.9219 218.564C32.4766 220.778 30.4583 222.49 27.8672 223.701C25.276 224.899 22.2682 225.498 18.8438 225.498C15.3932 225.498 12.3724 224.899 9.78125 223.701C7.1901 222.49 5.17188 220.778 3.72656 218.564C2.29427 216.337 1.57812 213.701 1.57812 210.654V185.029H12.4375V209.716C12.4375 210.953 12.7109 212.06 13.2578 213.037C13.8047 214 14.5599 214.755 15.5234 215.302C16.5 215.849 17.6068 216.123 18.8438 216.123C20.0938 216.123 21.2005 215.849 22.1641 215.302C23.1276 214.755 23.8828 214 24.4297 213.037C24.9766 212.06 25.25 210.953 25.25 209.716V185.029ZM38.5205 225.029V185.029H55.7861C58.7549 185.029 61.3525 185.615 63.5791 186.787C65.8057 187.958 67.5374 189.606 68.7744 191.728C70.0114 193.85 70.6299 196.331 70.6299 199.169C70.6299 202.034 69.9919 204.514 68.7158 206.611C67.4528 208.707 65.6755 210.322 63.3838 211.455C61.1051 212.587 58.4424 213.154 55.3955 213.154H45.083V204.716H53.208C54.484 204.716 55.5713 204.495 56.4697 204.052C57.3812 203.597 58.0778 202.952 58.5596 202.119C59.0544 201.285 59.3018 200.302 59.3018 199.169C59.3018 198.024 59.0544 197.047 58.5596 196.24C58.0778 195.419 57.3812 194.794 56.4697 194.365C55.5713 193.922 54.484 193.701 53.208 193.701H49.3799V225.029H38.5205ZM87.2549 225.029H71.8643V185.029H87.0986C91.2132 185.029 94.7679 185.83 97.7627 187.431C100.771 189.02 103.088 191.311 104.716 194.306C106.356 197.288 107.177 200.862 107.177 205.029C107.177 209.195 106.363 212.776 104.735 215.771C103.108 218.753 100.803 221.044 97.8213 222.646C94.8395 224.235 91.3174 225.029 87.2549 225.029ZM82.7236 215.81H86.8643C88.8434 215.81 90.5296 215.491 91.9229 214.853C93.3291 214.215 94.3968 213.115 95.126 211.552C95.8682 209.99 96.2393 207.815 96.2393 205.029C96.2393 202.242 95.8617 200.068 95.1064 198.505C94.3643 196.943 93.2705 195.843 91.8252 195.205C90.3929 194.567 88.6351 194.248 86.5518 194.248H82.7236V215.81ZM117.317 225.029H105.599L118.802 185.029H133.646L146.849 225.029H135.13L126.38 196.044H126.067L117.317 225.029ZM115.13 209.248H137.161V217.373H115.13V209.248ZM141.809 193.779V185.029H176.574V193.779H164.543V225.029H153.84V193.779H141.809ZM177.911 225.029V185.029H206.739V193.779H188.771V200.654H205.255V209.404H188.771V216.279H206.661V225.029H177.911ZM230.938 197.529C230.833 196.227 230.345 195.211 229.473 194.482C228.613 193.753 227.305 193.388 225.547 193.388C224.427 193.388 223.509 193.525 222.793 193.798C222.09 194.059 221.569 194.417 221.23 194.873C220.892 195.328 220.716 195.849 220.703 196.435C220.677 196.917 220.762 197.353 220.957 197.744C221.165 198.121 221.491 198.466 221.934 198.779C222.376 199.078 222.943 199.352 223.633 199.599C224.323 199.847 225.143 200.068 226.094 200.263L229.375 200.966C231.589 201.435 233.483 202.054 235.059 202.822C236.634 203.59 237.923 204.495 238.926 205.537C239.928 206.565 240.664 207.724 241.133 209.013C241.615 210.302 241.862 211.708 241.875 213.232C241.862 215.862 241.204 218.089 239.902 219.912C238.6 221.735 236.738 223.121 234.316 224.072C231.908 225.022 229.01 225.498 225.625 225.498C222.148 225.498 219.115 224.983 216.523 223.955C213.945 222.926 211.94 221.344 210.508 219.208C209.089 217.06 208.372 214.313 208.359 210.966H218.672C218.737 212.19 219.043 213.219 219.59 214.052C220.137 214.886 220.905 215.517 221.895 215.947C222.897 216.376 224.089 216.591 225.469 216.591C226.628 216.591 227.598 216.448 228.379 216.162C229.16 215.875 229.753 215.478 230.156 214.97C230.56 214.462 230.768 213.883 230.781 213.232C230.768 212.62 230.566 212.086 230.176 211.63C229.798 211.162 229.173 210.745 228.301 210.38C227.428 210.003 226.25 209.651 224.766 209.326L220.781 208.466C217.24 207.698 214.447 206.416 212.402 204.619C210.371 202.809 209.362 200.341 209.375 197.216C209.362 194.677 210.039 192.457 211.406 190.556C212.786 188.642 214.694 187.151 217.129 186.083C219.577 185.016 222.383 184.482 225.547 184.482C228.776 184.482 231.569 185.022 233.926 186.103C236.283 187.184 238.099 188.707 239.375 190.673C240.664 192.626 241.315 194.912 241.328 197.529H230.938ZM290.213 205.029C290.213 209.482 289.347 213.238 287.615 216.298C285.883 219.345 283.546 221.656 280.604 223.232C277.661 224.794 274.38 225.576 270.76 225.576C267.114 225.576 263.82 224.788 260.877 223.212C257.947 221.624 255.617 219.306 253.885 216.259C252.166 213.199 251.307 209.456 251.307 205.029C251.307 200.576 252.166 196.826 253.885 193.779C255.617 190.719 257.947 188.408 260.877 186.845C263.82 185.27 267.114 184.482 270.76 184.482C274.38 184.482 277.661 185.27 280.604 186.845C283.546 188.408 285.883 190.719 287.615 193.779C289.347 196.826 290.213 200.576 290.213 205.029ZM279.041 205.029C279.041 202.633 278.722 200.615 278.084 198.974C277.459 197.32 276.528 196.07 275.291 195.224C274.067 194.365 272.557 193.935 270.76 193.935C268.963 193.935 267.446 194.365 266.209 195.224C264.985 196.07 264.054 197.32 263.416 198.974C262.791 200.615 262.479 202.633 262.479 205.029C262.479 207.425 262.791 209.449 263.416 211.103C264.054 212.744 264.985 213.994 266.209 214.853C267.446 215.699 268.963 216.123 270.76 216.123C272.557 216.123 274.067 215.699 275.291 214.853C276.528 213.994 277.459 212.744 278.084 211.103C278.722 209.449 279.041 207.425 279.041 205.029ZM327.097 185.029V225.029H318.034L303.581 204.013H303.347V225.029H292.487V185.029H301.706L315.925 205.966H316.237V185.029H327.097Z" fill="#FA9732"/>
<path d="M11.9688 271.029H0.25L13.4531 231.029H28.2969L41.5 271.029H29.7813L21.0313 242.044H20.7188L11.9688 271.029ZM9.78125 255.248H31.8125V263.373H9.78125V255.248ZM42.6025 271.029V231.029H59.8682C62.8369 231.029 65.4346 231.569 67.6611 232.65C69.8877 233.731 71.6195 235.287 72.8564 237.318C74.0934 239.349 74.7119 241.784 74.7119 244.623C74.7119 247.487 74.0739 249.903 72.7979 251.869C71.5348 253.835 69.7575 255.319 67.4658 256.322C65.1872 257.324 62.5244 257.826 59.4775 257.826H49.165V249.388H57.29C58.5661 249.388 59.6533 249.232 60.5518 248.919C61.4632 248.594 62.1598 248.08 62.6416 247.376C63.1364 246.673 63.3838 245.755 63.3838 244.623C63.3838 243.477 63.1364 242.546 62.6416 241.83C62.1598 241.1 61.4632 240.567 60.5518 240.228C59.6533 239.876 58.5661 239.701 57.29 239.701H53.4619V271.029H42.6025ZM66.04 252.669L76.04 271.029H64.2432L54.4775 252.669H66.04ZM75.4971 239.779V231.029H110.263V239.779H98.2314V271.029H87.5283V239.779H75.4971ZM130.197 271.029H118.479L131.682 231.029H146.525L159.729 271.029H148.01L139.26 242.044H138.947L130.197 271.029ZM128.01 255.248H150.041V263.373H128.01V255.248ZM195.44 231.029V271.029H186.378L171.925 250.013H171.69V271.029H160.831V231.029H170.05L184.269 251.966H184.581V231.029H195.44ZM213.218 271.029H197.827V231.029H213.062C217.176 231.029 220.731 231.83 223.726 233.431C226.733 235.02 229.051 237.311 230.679 240.306C232.319 243.288 233.14 246.862 233.14 251.029C233.14 255.195 232.326 258.776 230.698 261.771C229.071 264.753 226.766 267.044 223.784 268.646C220.802 270.235 217.28 271.029 213.218 271.029ZM208.687 261.81H212.827C214.806 261.81 216.493 261.491 217.886 260.853C219.292 260.215 220.36 259.115 221.089 257.552C221.831 255.99 222.202 253.815 222.202 251.029C222.202 248.242 221.825 246.068 221.069 244.505C220.327 242.943 219.233 241.843 217.788 241.205C216.356 240.567 214.598 240.248 212.515 240.248H208.687V261.81Z" fill="#FF6B16"/>
<path d="M1.57812 317.029V277.029H18.8438C21.8125 277.029 24.4102 277.615 26.6367 278.787C28.8633 279.958 30.5951 281.606 31.832 283.728C33.069 285.85 33.6875 288.331 33.6875 291.169C33.6875 294.034 33.0495 296.514 31.7734 298.611C30.5104 300.707 28.7331 302.322 26.4414 303.455C24.1628 304.587 21.5 305.154 18.4531 305.154H8.14063V296.716H16.2656C17.5417 296.716 18.6289 296.495 19.5273 296.052C20.4388 295.597 21.1354 294.952 21.6172 294.119C22.112 293.285 22.3594 292.302 22.3594 291.169C22.3594 290.024 22.112 289.047 21.6172 288.24C21.1354 287.419 20.4388 286.794 19.5273 286.365C18.6289 285.922 17.5417 285.701 16.2656 285.701H12.4375V317.029H1.57812ZM34.9219 317.029V277.029H45.7813V292.654H60.1562V277.029H71.0156V317.029H60.1562V301.404H45.7813V317.029H34.9219ZM112.172 297.029C112.172 301.482 111.306 305.238 109.574 308.298C107.842 311.345 105.505 313.656 102.563 315.232C99.6198 316.794 96.3385 317.576 92.7188 317.576C89.0729 317.576 85.7786 316.788 82.8359 315.212C79.9063 313.624 77.5755 311.306 75.8438 308.259C74.125 305.199 73.2656 301.456 73.2656 297.029C73.2656 292.576 74.125 288.826 75.8438 285.779C77.5755 282.719 79.9063 280.408 82.8359 278.845C85.7786 277.27 89.0729 276.482 92.7188 276.482C96.3385 276.482 99.6198 277.27 102.563 278.845C105.505 280.408 107.842 282.719 109.574 285.779C111.306 288.826 112.172 292.576 112.172 297.029ZM101 297.029C101 294.633 100.681 292.615 100.043 290.974C99.418 289.32 98.487 288.07 97.25 287.224C96.026 286.365 94.5156 285.935 92.7188 285.935C90.9219 285.935 89.4049 286.365 88.168 287.224C86.944 288.07 86.013 289.32 85.375 290.974C84.75 292.615 84.4375 294.633 84.4375 297.029C84.4375 299.425 84.75 301.449 85.375 303.103C86.013 304.744 86.944 305.994 88.168 306.853C89.4049 307.699 90.9219 308.123 92.7188 308.123C94.5156 308.123 96.026 307.699 97.25 306.853C98.487 305.994 99.418 304.744 100.043 303.103C100.681 301.449 101 299.425 101 297.029ZM111.473 285.779V277.029H146.238V285.779H134.207V317.029H123.504V285.779H111.473ZM184.445 297.029C184.445 301.482 183.579 305.238 181.848 308.298C180.116 311.345 177.779 313.656 174.836 315.232C171.893 316.794 168.612 317.576 164.992 317.576C161.346 317.576 158.052 316.788 155.109 315.212C152.18 313.624 149.849 311.306 148.117 308.259C146.398 305.199 145.539 301.456 145.539 297.029C145.539 292.576 146.398 288.826 148.117 285.779C149.849 282.719 152.18 280.408 155.109 278.845C158.052 277.27 161.346 276.482 164.992 276.482C168.612 276.482 171.893 277.27 174.836 278.845C177.779 280.408 180.116 282.719 181.848 285.779C183.579 288.826 184.445 292.576 184.445 297.029ZM173.273 297.029C173.273 294.633 172.954 292.615 172.316 290.974C171.691 289.32 170.76 288.07 169.523 287.224C168.299 286.365 166.789 285.935 164.992 285.935C163.195 285.935 161.678 286.365 160.441 287.224C159.217 288.07 158.286 289.32 157.648 290.974C157.023 292.615 156.711 294.633 156.711 297.029C156.711 299.425 157.023 301.449 157.648 303.103C158.286 304.744 159.217 305.994 160.441 306.853C161.678 307.699 163.195 308.123 164.992 308.123C166.789 308.123 168.299 307.699 169.523 306.853C170.76 305.994 171.691 304.744 172.316 303.103C172.954 301.449 173.273 299.425 173.273 297.029ZM212.696 290.232C212.527 289.542 212.26 288.936 211.896 288.416C211.531 287.882 211.075 287.432 210.528 287.068C209.994 286.69 209.369 286.41 208.653 286.228C207.95 286.033 207.175 285.935 206.329 285.935C204.506 285.935 202.95 286.371 201.661 287.244C200.385 288.116 199.409 289.373 198.731 291.013C198.067 292.654 197.735 294.633 197.735 296.951C197.735 299.294 198.054 301.3 198.692 302.966C199.33 304.633 200.281 305.909 201.544 306.794C202.807 307.68 204.376 308.123 206.251 308.123C207.905 308.123 209.278 307.882 210.372 307.4C211.479 306.918 212.306 306.235 212.853 305.349C213.399 304.464 213.673 303.422 213.673 302.224L215.548 302.419H206.407V294.685H224.142V300.232C224.142 303.878 223.367 306.996 221.817 309.587C220.281 312.166 218.159 314.145 215.45 315.525C212.755 316.892 209.662 317.576 206.173 317.576C202.28 317.576 198.862 316.749 195.919 315.095C192.976 313.442 190.678 311.085 189.024 308.025C187.384 304.965 186.563 301.326 186.563 297.107C186.563 293.8 187.065 290.87 188.067 288.318C189.083 285.766 190.489 283.611 192.286 281.853C194.083 280.082 196.16 278.748 198.517 277.849C200.873 276.938 203.399 276.482 206.095 276.482C208.465 276.482 210.665 276.82 212.696 277.498C214.741 278.162 216.544 279.112 218.106 280.349C219.682 281.573 220.951 283.025 221.915 284.705C222.879 286.384 223.465 288.227 223.673 290.232H212.696ZM226.455 317.029V277.029H243.721C246.689 277.029 249.287 277.569 251.514 278.65C253.74 279.731 255.472 281.287 256.709 283.318C257.946 285.349 258.564 287.784 258.564 290.623C258.564 293.487 257.926 295.903 256.65 297.869C255.387 299.835 253.61 301.319 251.318 302.322C249.04 303.324 246.377 303.826 243.33 303.826H233.018V295.388H241.143C242.419 295.388 243.506 295.232 244.404 294.919C245.316 294.594 246.012 294.08 246.494 293.376C246.989 292.673 247.236 291.755 247.236 290.623C247.236 289.477 246.989 288.546 246.494 287.83C246.012 287.1 245.316 286.567 244.404 286.228C243.506 285.876 242.419 285.701 241.143 285.701H237.314V317.029H226.455ZM249.893 298.669L259.893 317.029H248.096L238.33 298.669H249.893ZM270.834 317.029H259.115L272.318 277.029H287.162L300.365 317.029H288.646L279.896 288.044H279.584L270.834 317.029ZM268.646 301.248H290.678V309.373H268.646V301.248ZM301.468 317.029V277.029H318.733C321.702 277.029 324.3 277.615 326.526 278.787C328.753 279.958 330.485 281.606 331.722 283.728C332.959 285.85 333.577 288.331 333.577 291.169C333.577 294.034 332.939 296.514 331.663 298.611C330.4 300.707 328.623 302.322 326.331 303.455C324.052 304.587 321.39 305.154 318.343 305.154H308.03V296.716H316.155C317.431 296.716 318.519 296.495 319.417 296.052C320.328 295.597 321.025 294.952 321.507 294.119C322.002 293.285 322.249 292.302 322.249 291.169C322.249 290.024 322.002 289.047 321.507 288.24C321.025 287.419 320.328 286.794 319.417 286.365C318.519 285.922 317.431 285.701 316.155 285.701H312.327V317.029H301.468ZM334.812 317.029V277.029H345.671V292.654H360.046V277.029H370.905V317.029H360.046V301.404H345.671V317.029H334.812ZM371.671 277.029H383.78L391.593 293.279H391.905L399.718 277.029H411.827L397.14 304.451V317.029H386.358V304.451L371.671 277.029Z" fill="#F13A2B"/>
</svg>
