<svg width="82" height="10" viewBox="0 0 82 10" fill="none" xmlns="http://www.w3.org/2000/svg">
<path d="M1.96123 9.85434H0V1.09493H1.96123V9.85434ZM5.37232 6.3409H1.43182V4.76472H5.37232V6.3409ZM5.76939 2.67715H1.43182V1.09493H5.76939V2.67715Z" fill="#74DF7A"/>
<path d="M10.0768 1.09493C10.7546 1.09493 11.3382 1.1972 11.8275 1.40175C12.3167 1.60228 12.6937 1.89907 12.9585 2.29213C13.2232 2.68116 13.3556 3.16645 13.3556 3.74801C13.3556 4.2333 13.2773 4.6444 13.1209 4.9813C12.9645 5.3182 12.7439 5.59694 12.4592 5.81755C12.1744 6.03411 11.8415 6.21457 11.4605 6.35901L10.8348 6.71991H8.01328L8.00125 5.13772H10.0707C10.3636 5.13772 10.6082 5.08959 10.8048 4.99332C11.0052 4.89306 11.1536 4.75269 11.2499 4.57221C11.3461 4.38772 11.3943 4.16913 11.3943 3.91645C11.3943 3.53143 11.286 3.22862 11.0695 3.00804C10.8528 2.78744 10.522 2.67715 10.0768 2.67715H8.69911V9.85434H6.7439V1.09493H10.0768ZM9.60756 5.96796L11.6831 5.95592L13.6683 9.76402V9.85434H11.5748L9.60756 5.96796Z" fill="#D4D156"/>
<path d="M20.5988 9.85434H15.9725V8.27812H20.5988V9.85434ZM16.6162 9.85434H14.655V1.09493H16.6162V9.85434ZM19.9973 6.11837H15.9725V4.59025H19.9973V6.11837ZM20.5988 2.67715H15.9725V1.09493H20.5988V2.67715Z" fill="#EBBD58"/>
<path d="M26.0917 7.53811C26.0917 7.34562 26.0515 7.17919 25.9714 7.03874C25.8912 6.89837 25.7347 6.76408 25.5021 6.63575C25.2695 6.50733 24.9246 6.37104 24.4674 6.2266C24.0743 6.09828 23.6993 5.95393 23.3424 5.79348C22.9894 5.62902 22.6746 5.43851 22.3978 5.22193C22.1251 5.00135 21.9085 4.74667 21.7481 4.4579C21.5917 4.16512 21.5135 3.82421 21.5135 3.43517C21.5135 2.93784 21.6539 2.5067 21.9346 2.14172C22.2194 1.77274 22.6084 1.48597 23.1017 1.28143C23.599 1.07688 24.1665 0.974609 24.8043 0.974609C25.454 0.974609 26.0215 1.08891 26.5068 1.31753C26.9921 1.54212 27.3711 1.85896 27.6438 2.26806C27.9165 2.67715 28.0529 3.15042 28.0529 3.68784H26.0977C26.0977 3.45923 26.0496 3.2587 25.9534 3.08624C25.861 2.90977 25.7167 2.77341 25.5201 2.67715C25.3237 2.57688 25.073 2.52674 24.7682 2.52674C24.4794 2.52674 24.2368 2.56886 24.0402 2.65309C23.8477 2.7333 23.7033 2.84359 23.6071 2.98397C23.5148 3.12033 23.4687 3.27675 23.4687 3.45322C23.4687 3.6337 23.5329 3.79212 23.6612 3.92849C23.7935 4.06485 23.9841 4.19119 24.2327 4.3075C24.4814 4.4198 24.7802 4.5321 25.1291 4.6444C25.7668 4.84092 26.3022 5.06953 26.7354 5.33022C27.1686 5.59092 27.4955 5.89972 27.716 6.25674C27.9366 6.61367 28.0469 7.03675 28.0469 7.52607C28.0469 8.03947 27.9146 8.48066 27.6498 8.84962C27.3891 9.2146 27.0182 9.49334 26.5369 9.68583C26.0556 9.87832 25.4901 9.97461 24.8403 9.97461C24.3991 9.97461 23.966 9.9185 23.5408 9.80619C23.1158 9.68981 22.7287 9.51134 22.3797 9.27071C22.0349 9.03007 21.7601 8.72527 21.5556 8.35631C21.351 7.98735 21.2488 7.55015 21.2488 7.0448H23.21C23.21 7.30146 23.2461 7.51802 23.3183 7.69449C23.3945 7.87096 23.5027 8.0154 23.6432 8.12771C23.7875 8.23595 23.96 8.31423 24.1606 8.36228C24.3651 8.41043 24.5917 8.4345 24.8403 8.4345C25.1332 8.4345 25.3697 8.39441 25.5503 8.31423C25.7347 8.23395 25.8711 8.12572 25.9593 7.98934C26.0476 7.85296 26.0917 7.70255 26.0917 7.53811Z" fill="#F5955B"/>
<path d="M35.0614 6.16642H30.5795V4.59025H35.0614V6.16642ZM31.1751 9.85434H29.2139V1.09493H31.1751V9.85434ZM36.4391 9.85434H34.4899V1.09493H36.4391V9.85434Z" fill="#FC6C5E"/>
<path d="M43.0688 9.85434H41.1196V1.09493H43.0688V9.85434Z" fill="#FD607E"/>
<path d="M51.8704 9.85434H49.9152L46.6063 4.31953V9.85434H44.6511V1.09493H46.6063L49.9211 6.63575V1.09493H51.8704V9.85434Z" fill="#FD5F9B"/>
<path d="M55.2993 9.85434H53.3381V1.09493H55.2993V9.85434ZM58.7104 6.3409H54.7699V4.76472H58.7104V6.3409ZM59.1075 2.67715H54.7699V1.09493H59.1075V2.67715Z" fill="#F75FFD"/>
<path d="M65.7913 9.85434H61.3936V8.27812H65.7913V9.85434ZM62.0314 9.85434H60.0762V1.09493H62.0314V9.85434Z" fill="#AD5FFD"/>
<path d="M73.5041 1.09493V6.84028C73.5041 7.51802 73.3598 8.0916 73.071 8.56084C72.7822 9.02609 72.3811 9.37904 71.8678 9.61967C71.3584 9.85633 70.7728 9.97461 70.1111 9.97461C69.4453 9.97461 68.8537 9.85633 68.3364 9.61967C67.823 9.37904 67.4219 9.02609 67.1332 8.56084C66.8444 8.0916 66.7 7.51802 66.7 6.84028V1.09493H68.6612V6.84028C68.6612 7.20526 68.7174 7.50399 68.8297 7.73667C68.9459 7.96527 69.1124 8.13368 69.329 8.24201C69.5456 8.34626 69.8062 8.39839 70.1111 8.39839C70.4199 8.39839 70.6806 8.34626 70.8931 8.24201C71.1057 8.13368 71.2662 7.96527 71.3745 7.73667C71.4867 7.50399 71.5429 7.20526 71.5429 6.84028V1.09493H73.5041Z" fill="#6174FF"/>
<path d="M78.1063 4.02474L79.6344 1.09493H81.8784L79.3756 5.43851L81.9385 9.85434H79.6765L78.1063 6.87032L76.5301 9.85434H74.2681L76.8309 5.43851L74.3282 1.09493H76.5722L78.1063 4.02474Z" fill="#54B5FF"/>
</svg>
