<svg width="78" height="78" viewBox="0 0 78 78" fill="none" xmlns="http://www.w3.org/2000/svg">
<path d="M63 0H15C6.71573 0 0 6.71573 0 15V63C0 71.2843 6.71573 78 15 78H63C71.2843 78 78 71.2843 78 63V15C78 6.71573 71.2843 0 63 0Z" fill="#BBBBBB"/>
<path fill-rule="evenodd" clip-rule="evenodd" d="M44 20H49C50.1334 20.7813 51.1391 21.5302 52.1068 22.2508C53.4007 23.2144 54.6269 24.1275 56 25L54 32H49V58H27V57.9999H39V40.9999C39 39.8954 38.1046 38.9999 37 38.9999H27V32H22L20 25C21.6092 23.9435 22.8154 23.0478 24.0352 22.142C24.956 21.4582 25.8846 20.7687 27 20H32C32 20 32.068 25 38 25C43.773 25 44 20 44 20Z" fill="#363636"/>
<path d="M55.5 34H53.5C53.2239 34 53 34.2239 53 34.5V38.5C53 38.7761 53.2239 39 53.5 39H55.5C55.7761 39 56 38.7761 56 38.5V34.5C56 34.2239 55.7761 34 55.5 34Z" fill="#363636"/>
<path d="M56.5 39H52.5C51.6716 39 51 39.6716 51 40.5V56.5C51 57.3284 51.6716 58 52.5 58H56.5C57.3284 58 58 57.3284 58 56.5V40.5C58 39.6716 57.3284 39 56.5 39Z" fill="#363636"/>
<path d="M25 41H37V56C37 57.1046 36.1046 58 35 58H27C25.8954 58 25 57.1046 25 56V41Z" fill="#363636"/>
<path fill-rule="evenodd" clip-rule="evenodd" d="M24 44C21.7909 44 20 45.7909 20 48V51C20 53.2091 21.7909 55 24 55H25V53H24.5C23.1193 53 22 51.8807 22 50.5V48.5C22 47.1193 23.1193 46 24.5 46H25V44H24Z" fill="#363636"/>
</svg>
