<svg width="104" height="9" viewBox="0 0 104 9" fill="none" xmlns="http://www.w3.org/2000/svg">
<path d="M2.17041 2.92871C2.17041 2.84118 2.15165 2.76526 2.11413 2.70095C2.07663 2.63665 2.00428 2.5759 1.89709 2.51874C1.7917 2.45979 1.6354 2.39728 1.42818 2.33117C1.25312 2.27401 1.0861 2.20971 0.927116 2.13825C0.769914 2.06501 0.630579 1.98016 0.509108 1.8837C0.387636 1.78724 0.292067 1.67469 0.2224 1.54608C0.152732 1.41746 0.117899 1.26741 0.117899 1.09593C0.117899 0.876201 0.180421 0.685062 0.305465 0.522505C0.430509 0.358161 0.601998 0.230438 0.819927 0.139335C1.03965 0.0482312 1.29064 0.00267947 1.57287 0.00267947C1.86226 0.00267947 2.11503 0.0535903 2.33117 0.155412C2.54733 0.257234 2.71435 0.399248 2.83225 0.581455C2.95193 0.761875 3.01177 0.970877 3.01177 1.20846H2.17309C2.17309 1.10307 2.15076 1.01018 2.1061 0.929791C2.06144 0.847619 1.99355 0.784204 1.90246 0.739546C1.81314 0.693101 1.69881 0.669878 1.55948 0.669878C1.4255 0.669878 1.31386 0.689528 1.22454 0.728828C1.13522 0.768127 1.06824 0.819932 1.02358 0.88424C0.980705 0.948548 0.959263 1.02089 0.959263 1.10128C0.959263 1.18523 0.988737 1.25848 1.04769 1.321C1.10664 1.38352 1.19239 1.44158 1.30493 1.49517C1.41746 1.54697 1.55411 1.59789 1.71489 1.6479C1.99892 1.73365 2.2374 1.83457 2.43032 1.95069C2.62325 2.0668 2.76794 2.20435 2.8644 2.36333C2.96265 2.52053 3.01177 2.7072 3.01177 2.92335C3.01177 3.15201 2.95283 3.34761 2.83493 3.51016C2.71881 3.67272 2.55447 3.79687 2.3419 3.88261C2.12932 3.96836 1.87923 4.01123 1.59163 4.01123C1.39513 4.01123 1.20221 3.98623 1.01285 3.93621C0.825295 3.88441 0.654695 3.8058 0.501069 3.70041C0.34923 3.59323 0.227759 3.45836 0.136655 3.2958C0.0455514 3.13325 0 2.94032 0 2.71703H0.844043C0.844043 2.83314 0.861014 2.93139 0.894958 3.01177C0.930688 3.09037 0.980705 3.15468 1.04501 3.2047C1.1111 3.25471 1.1897 3.29133 1.28081 3.31456C1.3737 3.33599 1.47731 3.34672 1.59163 3.34672C1.72561 3.34672 1.83457 3.32885 1.91853 3.29312C2.00428 3.25561 2.06769 3.2056 2.10878 3.14307C2.14986 3.07876 2.17041 3.00731 2.17041 2.92871ZM6.1736 3.95764H4.11305V3.27973H6.1736V3.95764ZM4.38368 3.95764H3.53963V0.0562698H4.38368V3.95764ZM5.90565 2.28027H4.11305V1.62379H5.90565V2.28027ZM6.17092 0.736867H4.11305V0.0562698H6.17092V0.736867ZM9.15858 3.95764H7.19985V3.27973H9.15858V3.95764ZM7.46781 3.95764H6.62643V0.0562698H7.46781V3.95764ZM12.1329 3.95764H10.1741V3.27973H12.1329V3.95764ZM10.4421 3.95764H9.6007V0.0562698H10.4421V3.95764ZM15.2438 1.78724L16.0289 0.0562698H16.9452L15.6725 2.54554V3.95764H14.8177V2.54554L13.5423 0.0562698H14.4613L15.2438 1.78724ZM20.4152 2.08734C20.4152 2.48748 20.3447 2.83136 20.2035 3.11895C20.0624 3.40477 19.8669 3.62538 19.6167 3.78079C19.3667 3.93442 19.0772 4.01123 18.7486 4.01123C18.4199 4.01123 18.1287 3.93442 17.875 3.78079C17.6232 3.62538 17.4258 3.40477 17.2829 3.11895C17.14 2.83136 17.0686 2.48748 17.0686 2.08734V1.92925C17.0686 1.52911 17.1391 1.18613 17.2802 0.900317C17.4231 0.612715 17.6205 0.391209 17.8723 0.235797C18.1243 0.0803857 18.4145 0.00267947 18.7432 0.00267947C19.0718 0.00267947 19.3613 0.0803857 19.6113 0.235797C19.8633 0.391209 20.0597 0.612715 20.2009 0.900317C20.3438 1.18613 20.4152 1.52911 20.4152 1.92925V2.08734ZM19.5658 1.92389C19.5658 1.65594 19.5337 1.43086 19.4694 1.24865C19.405 1.06644 19.3113 0.928898 19.188 0.836008C19.0648 0.743119 18.9165 0.696673 18.7432 0.696673C18.5664 0.696673 18.4172 0.743119 18.2957 0.836008C18.1743 0.928898 18.0814 1.06644 18.017 1.24865C17.9546 1.43086 17.9232 1.65594 17.9232 1.92389V2.08734C17.9232 2.3535 17.9555 2.57859 18.0197 2.76258C18.0841 2.94478 18.177 3.08323 18.2984 3.17791C18.4217 3.27258 18.5717 3.31992 18.7486 3.31992C18.9219 3.31992 19.0693 3.27258 19.1907 3.17791C19.3139 3.08323 19.4068 2.94478 19.4694 2.76258C19.5337 2.57859 19.5658 2.3535 19.5658 2.08734V1.92389ZM23.9575 0.0562698V2.62056C23.9575 2.92245 23.8932 3.17701 23.7646 3.38422C23.636 3.59145 23.4583 3.74775 23.2314 3.85314C23.0063 3.95854 22.7473 4.01123 22.4543 4.01123C22.1596 4.01123 21.8979 3.95854 21.6692 3.85314C21.4424 3.74775 21.2646 3.59145 21.136 3.38422C21.0092 3.17701 20.9457 2.92245 20.9457 2.62056V0.0562698H21.7898V2.62056C21.7898 2.78848 21.8157 2.92514 21.8675 3.03053C21.9193 3.13414 21.9953 3.21095 22.0952 3.26097C22.1953 3.3092 22.315 3.33332 22.4543 3.33332C22.5954 3.33332 22.7151 3.3092 22.8134 3.26097C22.9116 3.21095 22.9857 3.13414 23.0358 3.03053C23.0876 2.92514 23.1134 2.78848 23.1134 2.62056V0.0562698H23.9575ZM26.0663 0.0562698C26.3682 0.0562698 26.6272 0.101821 26.8433 0.192925C27.0614 0.282242 27.2283 0.414432 27.3444 0.589493C27.4606 0.762768 27.5186 0.978021 27.5186 1.23525C27.5186 1.44962 27.4829 1.63183 27.4115 1.78188C27.3417 1.93193 27.2435 2.05608 27.1167 2.15433C26.9898 2.25258 26.8407 2.33207 26.6692 2.39281L26.4012 2.54554H25.15L25.1446 1.86494H26.0636C26.1994 1.86494 26.3128 1.84261 26.4039 1.79795C26.495 1.75151 26.5629 1.68631 26.6076 1.60235C26.6523 1.51839 26.6745 1.41925 26.6745 1.30492C26.6745 1.12986 26.6245 0.991421 26.5245 0.889599C26.4263 0.787777 26.2735 0.736867 26.0663 0.736867H25.4393V3.95764H24.5979V0.0562698H26.0663ZM25.8787 2.224L26.7683 2.21864L27.6606 3.91745V3.95764H26.7576L25.8787 2.224ZM30.0374 2.59913V1.92121H31.018C31.1663 1.92121 31.286 1.89709 31.3771 1.84886C31.47 1.80063 31.5379 1.73454 31.5808 1.65058C31.6236 1.56663 31.645 1.47016 31.645 1.3612C31.645 1.25222 31.6236 1.1504 31.5808 1.05573C31.5379 0.959266 31.47 0.882453 31.3771 0.825291C31.286 0.766341 31.1663 0.736867 31.018 0.736867H30.3267V3.95764H29.4827V0.0562698H31.018C31.3271 0.0562698 31.5924 0.112539 31.8139 0.225079C32.0354 0.337619 32.2051 0.492138 32.323 0.688635C32.4408 0.883347 32.4998 1.10574 32.4998 1.35583C32.4998 1.6095 32.4408 1.82921 32.323 2.015C32.2051 2.20078 32.0354 2.34457 31.8139 2.44639C31.5924 2.54822 31.3271 2.59913 31.018 2.59913H30.0374ZM33.1616 3.95764H32.264L33.7137 0.0562698H34.2817L34.2013 0.795816L33.1616 3.95764ZM34.0111 0.795816L33.9226 0.0562698H34.4934L35.951 3.95764H35.0534L34.0111 0.795816ZM35.0266 3.18058H32.958V2.49998H35.0266V3.18058ZM37.1943 3.95764H36.3529V0.0562698H37.1943V3.95764ZM41.1144 3.95764H40.2731L38.7592 1.44694V3.95764H37.9178V0.0562698H38.7592L40.2758 2.56966V0.0562698H41.1144V3.95764ZM43.5743 3.95764H42.7329V0.0562698H43.5743V3.95764ZM44.7586 0.736867H41.5646V0.0562698H44.7586V0.736867ZM46.0957 3.95764H45.2543V0.0562698H46.0957V3.95764ZM50.0158 3.95764H49.1745L47.6605 1.44694V3.95764H46.8192V0.0562698H47.6605L49.1772 2.56966V0.0562698H50.0158V3.95764ZM53.81 3.46461C53.7475 3.53785 53.6519 3.61735 53.5233 3.70309C53.3965 3.78705 53.2321 3.85939 53.0303 3.92013C52.8302 3.98086 52.5873 4.01123 52.3014 4.01123C51.9638 4.01123 51.6673 3.938 51.4118 3.79152C51.1564 3.64325 50.9573 3.42799 50.8143 3.14575C50.6732 2.86351 50.6027 2.52143 50.6027 2.11949V1.89709C50.6027 1.49338 50.6705 1.1504 50.8063 0.868162C50.9438 0.58592 51.1359 0.370666 51.3824 0.2224C51.6288 0.0741328 51.9165 0 52.2452 0C52.59 0 52.8722 0.0562698 53.0919 0.16881C53.3117 0.279562 53.4787 0.433188 53.5929 0.629686C53.7091 0.826184 53.7805 1.05215 53.8073 1.3076H52.9901C52.9722 1.1772 52.9356 1.06555 52.8802 0.972663C52.8266 0.877987 52.7507 0.805641 52.6524 0.755622C52.5542 0.703819 52.4264 0.677917 52.2693 0.677917C52.096 0.677917 51.9486 0.723469 51.8272 0.814573C51.7057 0.905676 51.6128 1.04144 51.5485 1.22186C51.486 1.40049 51.4547 1.62379 51.4547 1.89173V2.11949C51.4547 2.38566 51.4887 2.60895 51.5565 2.78937C51.6245 2.9698 51.7244 3.10556 51.8566 3.19666C51.9906 3.28776 52.1559 3.33332 52.3523 3.33332C52.4738 3.33332 52.5747 3.32349 52.6551 3.30384C52.7356 3.28419 52.8007 3.26097 52.8507 3.23417C52.9008 3.2056 52.9392 3.1788 52.9659 3.15379V2.50534H52.2585V1.89173H53.81V3.46461ZM56.452 2.92871C56.452 2.84118 56.4332 2.76526 56.3957 2.70095C56.3582 2.63665 56.2859 2.5759 56.1787 2.51874C56.0733 2.45979 55.917 2.39728 55.7098 2.33117C55.5348 2.27401 55.3677 2.20971 55.2087 2.13825C55.0515 2.06501 54.9122 1.98016 54.7907 1.8837C54.6692 1.78724 54.5737 1.67469 54.504 1.54608C54.4343 1.41746 54.3995 1.26741 54.3995 1.09593C54.3995 0.876201 54.4621 0.685062 54.5871 0.522505C54.7121 0.358161 54.8836 0.230438 55.1015 0.139335C55.3212 0.0482312 55.5723 0.00267947 55.8544 0.00267947C56.1439 0.00267947 56.3966 0.0535903 56.6128 0.155412C56.8289 0.257234 56.996 0.399248 57.1138 0.581455C57.2335 0.761875 57.2934 0.970877 57.2934 1.20846H56.4547C56.4547 1.10307 56.4323 1.01018 56.3877 0.929791C56.343 0.847619 56.2752 0.784204 56.1841 0.739546C56.0947 0.693101 55.9804 0.669878 55.8411 0.669878C55.7071 0.669878 55.5954 0.689528 55.5061 0.728828C55.4168 0.768127 55.3499 0.819932 55.3052 0.88424C55.2623 0.948548 55.2409 1.02089 55.2409 1.10128C55.2409 1.18523 55.2703 1.25848 55.3293 1.321C55.3883 1.38352 55.474 1.44158 55.5865 1.49517C55.6991 1.54697 55.8357 1.59789 55.9965 1.6479C56.2805 1.73365 56.519 1.83457 56.7119 1.95069C56.9049 2.0668 57.0495 2.20435 57.146 2.36333C57.2442 2.52053 57.2934 2.7072 57.2934 2.92335C57.2934 3.15201 57.2344 3.34761 57.1165 3.51016C57.0005 3.67272 56.836 3.79687 56.6235 3.88261C56.4109 3.96836 56.1608 4.01123 55.8732 4.01123C55.6767 4.01123 55.4838 3.98623 55.2945 3.93621C55.1069 3.88441 54.9363 3.8058 54.7826 3.70041C54.6308 3.59323 54.5094 3.45836 54.4183 3.2958C54.3272 3.13325 54.2816 2.94032 54.2816 2.71703H55.1257C55.1257 2.83314 55.1426 2.93139 55.1766 3.01177C55.2123 3.09037 55.2623 3.15468 55.3266 3.2047C55.3927 3.25471 55.4713 3.29133 55.5624 3.31456C55.6553 3.33599 55.7589 3.34672 55.8732 3.34672C56.0072 3.34672 56.1161 3.32885 56.2002 3.29312C56.2859 3.25561 56.3493 3.2056 56.3904 3.14307C56.4314 3.07876 56.452 3.00731 56.452 2.92871ZM59.7692 3.95764H58.8716L60.3212 0.0562698H60.8893L60.8089 0.795816L59.7692 3.95764ZM60.6186 0.795816L60.5302 0.0562698H61.1009L62.5586 3.95764H61.661L60.6186 0.795816ZM61.6342 3.18058H59.5656V2.49998H61.6342V3.18058ZM66.1037 3.95764H65.2623L63.7484 1.44694V3.95764H62.907V0.0562698H63.7484L65.2649 2.56966V0.0562698H66.1037V3.95764ZM67.1459 3.95764L67.1513 3.27973H67.99C68.1954 3.27973 68.3678 3.23417 68.5071 3.14307C68.6482 3.05197 68.7546 2.91799 68.826 2.74114C68.8975 2.5643 68.9332 2.34726 68.9332 2.09002V1.91853C68.9332 1.65952 68.8975 1.44248 68.826 1.26741C68.7546 1.09235 68.6491 0.960159 68.5098 0.870842C68.3705 0.781525 68.199 0.736867 67.9954 0.736867H67.1298V0.0562698H67.9954C68.3473 0.0562698 68.6572 0.134869 68.9251 0.292067C69.1949 0.449265 69.4056 0.668092 69.5575 0.948548C69.7093 1.22722 69.7853 1.55233 69.7853 1.92389V2.09002C69.7853 2.46158 69.7093 2.78759 69.5575 3.06805C69.4056 3.3485 69.1949 3.56733 68.9251 3.72453C68.6572 3.87994 68.3455 3.95764 67.99 3.95764H67.1459ZM67.6255 3.95764H66.7815V0.0562698H67.6255V3.95764ZM3.38422 7.07611C3.38422 7.47625 3.31366 7.82013 3.17254 8.10772C3.03143 8.39353 2.83582 8.61415 2.58573 8.76956C2.33564 8.92319 2.04626 9 1.71757 9C1.38889 9 1.09771 8.92319 0.844043 8.76956C0.592173 8.61415 0.394782 8.39353 0.251875 8.10772C0.108967 7.82013 0.0375135 7.47625 0.0375135 7.07611V6.91802C0.0375135 6.51788 0.108074 6.1749 0.249195 5.88908C0.392102 5.60148 0.589494 5.37998 0.841369 5.22457C1.09324 5.06915 1.38352 4.99144 1.71221 4.99144C2.0409 4.99144 2.33029 5.06915 2.58037 5.22457C2.83225 5.37998 3.02874 5.60148 3.16987 5.88908C3.31277 6.1749 3.38422 6.51788 3.38422 6.91802V7.07611ZM2.53482 6.91266C2.53482 6.64471 2.50267 6.41963 2.43835 6.23742C2.37405 6.05521 2.28027 5.91767 2.15701 5.82478C2.03375 5.73189 1.88549 5.68544 1.71221 5.68544C1.53537 5.68544 1.3862 5.73189 1.26474 5.82478C1.14326 5.91767 1.05037 6.05521 0.986063 6.23742C0.923544 6.41963 0.892274 6.64471 0.892274 6.91266V7.07611C0.892274 7.34227 0.924432 7.56736 0.988737 7.75135C1.05305 7.93355 1.14594 8.072 1.26741 8.16668C1.39067 8.26135 1.54072 8.30869 1.71757 8.30869C1.89085 8.30869 2.03821 8.26135 2.15969 8.16668C2.28294 8.072 2.37583 7.93355 2.43835 7.75135C2.50267 7.56736 2.53482 7.34227 2.53482 7.07611V6.91266ZM5.57338 8.94641H4.73202V5.04503H5.57338V8.94641ZM6.75774 5.72563H3.56375V5.04503H6.75774V5.72563ZM9.79902 7.29047H7.7947V6.61256H9.79902V7.29047ZM8.0439 8.94641H7.19985V5.04503H8.0439V8.94641ZM10.4019 8.94641H9.56051V5.04503H10.4019V8.94641ZM13.7084 8.94641H11.6479V8.2685H13.7084V8.94641ZM11.9185 8.94641H11.0744V5.04503H11.9185V8.94641ZM13.4404 7.26904H11.6479V6.61256H13.4404V7.26904ZM13.7057 5.72563H11.6479V5.04503H13.7057V5.72563ZM15.6323 5.04503C15.9342 5.04503 16.1932 5.09059 16.4093 5.1817C16.6272 5.27101 16.7943 5.4032 16.9104 5.57826C17.0265 5.75153 17.0846 5.96679 17.0846 6.22402C17.0846 6.43839 17.0489 6.6206 16.9774 6.77065C16.9077 6.9207 16.8094 7.04485 16.6826 7.1431C16.5558 7.24135 16.4066 7.32084 16.2351 7.38157L15.9672 7.53431H14.7159L14.7106 6.85371H15.6296C15.7654 6.85371 15.8788 6.83138 15.9699 6.78672C16.061 6.74028 16.1289 6.67507 16.1736 6.59111C16.2182 6.50716 16.2405 6.40802 16.2405 6.29369C16.2405 6.11863 16.1905 5.98019 16.0905 5.87837C15.9923 5.77655 15.8395 5.72563 15.6323 5.72563H15.0053V8.94641H14.1639V5.04503H15.6323ZM15.4447 7.21276L16.3343 7.20741L17.2266 8.90622V8.94641H16.3236L15.4447 7.21276ZM19.8927 8.94641H19.0487V5.04503H19.8927V8.94641ZM21.4228 7.36817H19.6676V6.69026H21.4228V7.36817ZM21.6076 5.72563H19.6676V5.04503H21.6076V5.72563ZM25.2866 7.07611C25.2866 7.47625 25.216 7.82013 25.0749 8.10772C24.9337 8.39353 24.7382 8.61415 24.4881 8.76956C24.238 8.92319 23.9486 9 23.6199 9C23.2912 9 23.0001 8.92319 22.7464 8.76956C22.4945 8.61415 22.2971 8.39353 22.1542 8.10772C22.0113 7.82013 21.9399 7.47625 21.9399 7.07611V6.91802C21.9399 6.51788 22.0104 6.1749 22.1515 5.88908C22.2945 5.60148 22.4918 5.37998 22.7437 5.22457C22.9956 5.06915 23.2859 4.99144 23.6145 4.99144C23.9433 4.99144 24.2326 5.06915 24.4828 5.22457C24.7346 5.37998 24.9311 5.60148 25.0722 5.88908C25.2151 6.1749 25.2866 6.51788 25.2866 6.91802V7.07611ZM24.4372 6.91266C24.4372 6.64471 24.405 6.41963 24.3407 6.23742C24.2764 6.05521 24.1826 5.91767 24.0593 5.82478C23.9361 5.73189 23.7878 5.68544 23.6145 5.68544C23.4377 5.68544 23.2886 5.73189 23.1671 5.82478C23.0456 5.91767 22.9527 6.05521 22.8885 6.23742C22.8259 6.41963 22.7947 6.64471 22.7947 6.91266V7.07611C22.7947 7.34227 22.8268 7.56736 22.891 7.75135C22.9554 7.93355 23.0483 8.072 23.1697 8.16668C23.293 8.26135 23.4431 8.30869 23.6199 8.30869C23.7932 8.30869 23.9406 8.26135 24.062 8.16668C24.1853 8.072 24.2782 7.93355 24.3407 7.75135C24.405 7.56736 24.4372 7.34227 24.4372 7.07611V6.91266ZM27.3204 5.04503C27.6222 5.04503 27.8812 5.09059 28.0974 5.1817C28.3153 5.27101 28.4824 5.4032 28.5985 5.57826C28.7145 5.75153 28.7726 5.96679 28.7726 6.22402C28.7726 6.43839 28.7369 6.6206 28.6654 6.77065C28.5958 6.9207 28.4975 7.04485 28.3707 7.1431C28.2439 7.24135 28.0947 7.32084 27.9232 7.38157L27.6552 7.53431H26.4039L26.3986 6.85371H27.3177C27.4534 6.85371 27.5668 6.83138 27.6579 6.78672C27.749 6.74028 27.817 6.67507 27.8616 6.59111C27.9063 6.50716 27.9286 6.40802 27.9286 6.29369C27.9286 6.11863 27.8785 5.98019 27.7785 5.87837C27.6803 5.77655 27.5275 5.72563 27.3204 5.72563H26.6933V8.94641H25.852V5.04503H27.3204ZM27.1328 7.21276L28.0224 7.20741L28.9147 8.90622V8.94641H28.0116L27.1328 7.21276ZM30.4661 5.04503L31.4334 7.82906L32.398 5.04503H33.108L31.7174 8.94641H31.144L29.756 5.04503H30.4661ZM30.0776 5.04503L30.2089 7.93623V8.94641H29.3648V5.04503H30.0776ZM33.4993 5.04503V8.94641H32.6553V7.93623L32.7839 5.04503H33.4993ZM36.1949 7.91748C36.1949 7.82994 36.1761 7.75402 36.1386 7.68972C36.1011 7.62541 36.0288 7.56467 35.9216 7.50751C35.8162 7.44856 35.6599 7.38604 35.4527 7.31994C35.2776 7.26278 35.1105 7.19848 34.9516 7.12702C34.7943 7.05378 34.6551 6.96893 34.5335 6.87247C34.4121 6.77601 34.3165 6.66346 34.2469 6.53485C34.1772 6.40623 34.1424 6.25618 34.1424 6.08469C34.1424 5.86497 34.2049 5.67383 34.3299 5.51127C34.455 5.34693 34.6264 5.2192 34.8444 5.12811C35.0641 5.037 35.3151 4.99144 35.5973 4.99144C35.8867 4.99144 36.1395 5.04236 36.3556 5.14418C36.5718 5.246 36.7389 5.38801 36.8567 5.57022C36.9764 5.75065 37.0362 5.95964 37.0362 6.19723H36.1976C36.1976 6.09184 36.1752 5.99895 36.1305 5.91856C36.0859 5.83639 36.018 5.77298 35.9269 5.72832C35.8376 5.68187 35.7233 5.65864 35.584 5.65864C35.45 5.65864 35.3383 5.6783 35.249 5.7176C35.1597 5.75689 35.0927 5.80869 35.0481 5.87301C35.0052 5.93732 34.9837 6.00966 34.9837 6.09005C34.9837 6.174 35.0133 6.24725 35.0721 6.30977C35.1311 6.37229 35.2169 6.43035 35.3294 6.48393C35.4419 6.53574 35.5786 6.58665 35.7393 6.63667C36.0234 6.72242 36.2618 6.82334 36.4548 6.93946C36.6477 7.05557 36.7924 7.19312 36.8888 7.3521C36.9871 7.5093 37.0362 7.69597 37.0362 7.91212C37.0362 8.14077 36.9773 8.33637 36.8594 8.49893C36.7433 8.66149 36.5789 8.78564 36.3664 8.87138C36.1538 8.95713 35.9037 9 35.6161 9C35.4196 9 35.2267 8.975 35.0373 8.92498C34.8497 8.87318 34.6792 8.79457 34.5256 8.68918C34.3737 8.582 34.2523 8.44712 34.1612 8.28457C34.07 8.12202 34.0245 7.92909 34.0245 7.70579H34.8685C34.8685 7.82191 34.8854 7.92016 34.9195 8.00054C34.9552 8.07914 35.0052 8.14345 35.0695 8.19347C35.1356 8.24348 35.2142 8.2801 35.3053 8.30333C35.3982 8.32476 35.5018 8.33549 35.6161 8.33549C35.7501 8.33549 35.8591 8.31762 35.943 8.28189C36.0288 8.24438 36.0921 8.19436 36.1332 8.13183C36.1743 8.06753 36.1949 7.99608 36.1949 7.91748ZM42.1675 7.07611C42.1675 7.47625 42.0969 7.82013 41.9558 8.10772C41.8147 8.39353 41.6191 8.61415 41.369 8.76956C41.1189 8.92319 40.8296 9 40.5009 9C40.1721 9 39.881 8.92319 39.6274 8.76956C39.3754 8.61415 39.1781 8.39353 39.0352 8.10772C38.8922 7.82013 38.8208 7.47625 38.8208 7.07611V6.91802C38.8208 6.51788 38.8913 6.1749 39.0325 5.88908C39.1754 5.60148 39.3727 5.37998 39.6247 5.22457C39.8765 5.06915 40.1669 4.99144 40.4955 4.99144C40.8242 4.99144 41.1136 5.06915 41.3637 5.22457C41.6155 5.37998 41.812 5.60148 41.9531 5.88908C42.0961 6.1749 42.1675 6.51788 42.1675 6.91802V7.07611ZM41.3182 6.91266C41.3182 6.64471 41.2859 6.41963 41.2217 6.23742C41.1573 6.05521 41.0635 5.91767 40.9403 5.82478C40.8171 5.73189 40.6688 5.68544 40.4955 5.68544C40.3186 5.68544 40.1694 5.73189 40.048 5.82478C39.9266 5.91767 39.8337 6.05521 39.7693 6.23742C39.7068 6.41963 39.6756 6.64471 39.6756 6.91266V7.07611C39.6756 7.34227 39.7077 7.56736 39.772 7.75135C39.8363 7.93355 39.9292 8.072 40.0507 8.16668C40.1739 8.26135 40.324 8.30869 40.5009 8.30869C40.6741 8.30869 40.8215 8.26135 40.943 8.16668C41.0662 8.072 41.1591 7.93355 41.2217 7.75135C41.2859 7.56736 41.3182 7.34227 41.3182 7.07611V6.91266ZM43.5743 8.94641H42.7302V5.04503H43.5743V8.94641ZM45.1042 7.36817H43.3492V6.69026H45.1042V7.36817ZM45.2891 5.72563H43.3492V5.04503H45.2891V5.72563ZM47.6846 8.94641H46.787L48.2366 5.04503H48.8047L48.7243 5.78458L47.6846 8.94641ZM48.534 5.78458L48.4456 5.04503H49.0163L50.474 8.94641H49.5764L48.534 5.78458ZM49.5496 8.16935H47.481V7.48875H49.5496V8.16935ZM52.2934 5.04503C52.5953 5.04503 52.8543 5.09059 53.0705 5.1817C53.2884 5.27101 53.4554 5.4032 53.5716 5.57826C53.6876 5.75153 53.7457 5.96679 53.7457 6.22402C53.7457 6.43839 53.71 6.6206 53.6385 6.77065C53.5689 6.9207 53.4706 7.04485 53.3438 7.1431C53.217 7.24135 53.0678 7.32084 52.8963 7.38157L52.6283 7.53431H51.377L51.3716 6.85371H52.2908C52.4265 6.85371 52.5399 6.83138 52.631 6.78672C52.7221 6.74028 52.79 6.67507 52.8346 6.59111C52.8793 6.50716 52.9017 6.40802 52.9017 6.29369C52.9017 6.11863 52.8516 5.98019 52.7516 5.87837C52.6533 5.77655 52.5006 5.72563 52.2934 5.72563H51.6664V8.94641H50.8251V5.04503H52.2934ZM52.1059 7.21276L52.9955 7.20741L53.8878 8.90622V8.94641H52.9847L52.1059 7.21276ZM56.0393 8.94641H55.198V5.04503H56.0393V8.94641ZM57.2237 5.72563H54.0297V5.04503H57.2237V5.72563Z" fill="#D1D1D1"/>
<path d="M76.5401 0.35H99.4599C101.777 0.35 103.65 2.21094 103.65 4.5C103.65 6.78906 101.777 8.65 99.4599 8.65H76.5401C74.2231 8.65 72.35 6.78906 72.35 4.5C72.35 2.21094 74.2231 0.35 76.5401 0.35Z" stroke="#8E8E8E" stroke-width="0.7"/>
<path d="M77.8193 6H76.0371V5.49463H77.8193V6ZM76.2129 6H75.583V2.44531H76.2129V6ZM79.4014 6.04883C79.1393 6.04883 78.9131 5.99268 78.7227 5.88037C78.5322 5.76644 78.3857 5.61344 78.2832 5.42139C78.1807 5.2277 78.1294 5.01123 78.1294 4.77197V4.67188C78.1294 4.39681 78.1815 4.15755 78.2856 3.9541C78.3898 3.74902 78.5322 3.59033 78.7129 3.47803C78.8952 3.36572 79.1011 3.30957 79.3306 3.30957C79.5845 3.30957 79.7952 3.36491 79.9629 3.47559C80.1305 3.58464 80.2559 3.73682 80.3389 3.93213C80.4219 4.12581 80.4634 4.35042 80.4634 4.60596V4.86719H78.4199V4.43018H79.8652V4.38379C79.862 4.28125 79.8424 4.18522 79.8066 4.0957C79.7708 4.00618 79.7139 3.93376 79.6357 3.87842C79.5592 3.82308 79.4567 3.79541 79.3281 3.79541C79.1995 3.79541 79.0913 3.83203 79.0034 3.90527C78.9155 3.97689 78.8488 4.07861 78.8032 4.21045C78.7576 4.34066 78.7349 4.49447 78.7349 4.67188V4.77197C78.7349 4.92171 78.7625 5.05599 78.8179 5.1748C78.8732 5.29362 78.9538 5.38802 79.0596 5.45801C79.1654 5.52637 79.2915 5.56055 79.438 5.56055C79.5796 5.56055 79.7049 5.53288 79.814 5.47754C79.9246 5.4222 80.0199 5.34245 80.0996 5.23828L80.417 5.55566C80.334 5.68099 80.2087 5.79492 80.041 5.89746C79.875 5.99837 79.6618 6.04883 79.4014 6.04883ZM82.3994 4.21533C82.3994 4.07861 82.3612 3.96956 82.2847 3.88818C82.2098 3.8068 82.0959 3.76611 81.9429 3.76611C81.8517 3.76611 81.772 3.78239 81.7036 3.81494C81.6353 3.84587 81.5824 3.88818 81.5449 3.94189C81.5075 3.99561 81.4888 4.05664 81.4888 4.125H80.8833C80.8833 3.9834 80.9281 3.85075 81.0176 3.72705C81.1071 3.60173 81.2332 3.50081 81.396 3.42432C81.5604 3.34782 81.7541 3.30957 81.9771 3.30957C82.1756 3.30957 82.3522 3.34294 82.5068 3.40967C82.6615 3.4764 82.7827 3.57731 82.8706 3.7124C82.9601 3.84749 83.0049 4.01676 83.0049 4.22021V5.38477C83.0049 5.50846 83.0138 5.61751 83.0317 5.71191C83.0496 5.80632 83.0749 5.88851 83.1074 5.9585V6H82.4873C82.4596 5.93652 82.4377 5.85433 82.4214 5.75342C82.4067 5.65251 82.3994 5.55404 82.3994 5.45801V4.21533ZM82.4922 4.76465H82.0771C81.8623 4.76465 81.7004 4.80452 81.5913 4.88428C81.4839 4.9624 81.4302 5.06901 81.4302 5.2041C81.4302 5.30827 81.466 5.39535 81.5376 5.46533C81.6092 5.53369 81.7101 5.56787 81.8403 5.56787C81.9591 5.56787 82.0625 5.54427 82.1504 5.49707C82.2399 5.44824 82.3099 5.38883 82.3604 5.31885C82.4108 5.24723 82.4368 5.1805 82.4385 5.11865L82.6313 5.38965C82.6118 5.45638 82.5785 5.52799 82.5312 5.60449C82.4857 5.67936 82.4246 5.75098 82.3481 5.81934C82.2733 5.88607 82.1838 5.94141 82.0796 5.98535C81.9771 6.02767 81.8574 6.04883 81.7207 6.04883C81.5482 6.04883 81.3944 6.01465 81.2593 5.94629C81.1242 5.87793 81.0176 5.78434 80.9395 5.66553C80.863 5.54508 80.8247 5.40999 80.8247 5.26025C80.8247 4.98031 80.9297 4.76546 81.1396 4.61572C81.3496 4.46598 81.6475 4.39111 82.0332 4.39111H82.4873L82.4922 4.76465ZM84.2231 6H83.6177V3.3584H84.1938L84.2231 3.87598V6ZM85.019 3.91504C84.9816 3.90853 84.9417 3.90365 84.8994 3.90039C84.8587 3.89714 84.818 3.89551 84.7773 3.89551C84.6439 3.89551 84.5324 3.91992 84.4429 3.96875C84.355 4.01595 84.2882 4.08431 84.2427 4.17383C84.1971 4.26172 84.1702 4.36589 84.1621 4.48633L84.0229 4.48877C84.0229 4.26579 84.0522 4.06559 84.1108 3.88818C84.1694 3.71077 84.2573 3.56999 84.3745 3.46582C84.4917 3.36165 84.6382 3.30957 84.814 3.30957C84.8481 3.30957 84.8864 3.31283 84.9287 3.31934C84.971 3.32585 85.0028 3.33317 85.0239 3.34131L85.019 3.91504ZM85.9883 6H85.3828V3.3584H85.9517L85.9883 3.92236V6ZM85.6855 4.58643C85.6872 4.33089 85.7319 4.10791 85.8198 3.91748C85.9077 3.72542 86.0306 3.5765 86.1885 3.4707C86.3464 3.36328 86.5303 3.30957 86.7402 3.30957C86.9111 3.30957 87.0592 3.34212 87.1846 3.40723C87.3099 3.4707 87.4076 3.57487 87.4775 3.71973C87.5475 3.86296 87.5825 4.05583 87.5825 4.29834V6H86.9746V4.29346C86.9746 4.17139 86.9567 4.07454 86.9209 4.00293C86.8867 3.93132 86.8346 3.88086 86.7646 3.85156C86.6963 3.82064 86.6125 3.80518 86.5132 3.80518C86.4123 3.80518 86.3228 3.82552 86.2446 3.86621C86.1681 3.90527 86.1022 3.96061 86.0469 4.03223C85.9932 4.10384 85.9517 4.18685 85.9224 4.28125C85.8947 4.37565 85.8809 4.47656 85.8809 4.58398L85.6855 4.58643ZM90.0288 6H89.4209V3.3584H89.9922L90.0288 3.89795V6ZM89.7236 4.58643C89.7236 4.34066 89.7627 4.12174 89.8408 3.92969C89.9206 3.73763 90.0386 3.58626 90.1948 3.47559C90.3511 3.36491 90.5456 3.30957 90.7783 3.30957C91.0176 3.30957 91.2145 3.382 91.3691 3.52686C91.5238 3.67171 91.6011 3.90934 91.6011 4.23975V6H90.9956V4.2959C90.9956 4.1722 90.9761 4.07454 90.937 4.00293C90.8996 3.93132 90.8459 3.88086 90.7759 3.85156C90.7075 3.82064 90.6253 3.80518 90.5293 3.80518C90.4202 3.80518 90.3275 3.82552 90.251 3.86621C90.1761 3.90527 90.1151 3.96061 90.0679 4.03223C90.0207 4.10384 89.9857 4.18685 89.9629 4.28125C89.9417 4.37565 89.9312 4.47656 89.9312 4.58398L89.7236 4.58643ZM91.2788 4.50098C91.2804 4.28451 91.3203 4.08594 91.3984 3.90527C91.4766 3.72461 91.5921 3.58057 91.7451 3.47314C91.8981 3.3641 92.0869 3.30957 92.3115 3.30957C92.4906 3.30957 92.6444 3.34294 92.7729 3.40967C92.9015 3.47477 93.0008 3.57975 93.0708 3.72461C93.1408 3.86784 93.1758 4.05827 93.1758 4.2959V6H92.5679V4.29102C92.5679 4.16243 92.5483 4.06315 92.5093 3.99316C92.4718 3.92155 92.4181 3.87272 92.3481 3.84668C92.2798 3.81901 92.1984 3.80518 92.104 3.80518C92.0145 3.80518 91.9355 3.82145 91.8672 3.854C91.8005 3.88656 91.7443 3.93213 91.6987 3.99072C91.6548 4.04769 91.6206 4.11523 91.5962 4.19336C91.5734 4.26986 91.562 4.35286 91.562 4.44238L91.2788 4.50098ZM93.6616 4.65479C93.6616 4.39762 93.7104 4.16813 93.8081 3.96631C93.9058 3.76449 94.0457 3.60498 94.228 3.48779C94.4119 3.36898 94.6325 3.30957 94.8896 3.30957C95.1501 3.30957 95.3722 3.36898 95.5562 3.48779C95.7401 3.60498 95.88 3.76449 95.9761 3.96631C96.0737 4.16813 96.1226 4.39762 96.1226 4.65479V4.70605C96.1226 4.96159 96.0737 5.19108 95.9761 5.39453C95.88 5.59635 95.7401 5.75586 95.5562 5.87305C95.3739 5.99023 95.1533 6.04883 94.8945 6.04883C94.6357 6.04883 94.4144 5.99023 94.2305 5.87305C94.0465 5.75586 93.9058 5.59635 93.8081 5.39453C93.7104 5.19108 93.6616 4.96159 93.6616 4.70605V4.65479ZM94.2671 4.70605C94.2671 4.8623 94.2891 5.00553 94.333 5.13574C94.377 5.26432 94.4445 5.36768 94.5356 5.4458C94.6284 5.52393 94.748 5.56299 94.8945 5.56299C95.0394 5.56299 95.1574 5.52393 95.2485 5.4458C95.3413 5.36768 95.4089 5.26432 95.4512 5.13574C95.4951 5.00553 95.5171 4.8623 95.5171 4.70605V4.65479C95.5171 4.50016 95.4951 4.35775 95.4512 4.22754C95.4089 4.09733 95.3413 3.99316 95.2485 3.91504C95.1558 3.83529 95.0361 3.79541 94.8896 3.79541C94.7448 3.79541 94.626 3.83529 94.5332 3.91504C94.4421 3.99316 94.3745 4.09733 94.3306 4.22754C94.2882 4.35775 94.2671 4.50016 94.2671 4.65479V4.70605ZM97.2212 6H96.6157V3.3584H97.1919L97.2212 3.87598V6ZM98.0171 3.91504C97.9797 3.90853 97.9398 3.90365 97.8975 3.90039C97.8568 3.89714 97.8161 3.89551 97.7754 3.89551C97.6419 3.89551 97.5304 3.91992 97.4409 3.96875C97.353 4.01595 97.2863 4.08431 97.2407 4.17383C97.1951 4.26172 97.1683 4.36589 97.1602 4.48633L97.021 4.48877C97.021 4.26579 97.0503 4.06559 97.1089 3.88818C97.1675 3.71077 97.2554 3.56999 97.3726 3.46582C97.4897 3.36165 97.6362 3.30957 97.812 3.30957C97.8462 3.30957 97.8844 3.31283 97.9268 3.31934C97.9691 3.32585 98.0008 3.33317 98.022 3.34131L98.0171 3.91504ZM99.5576 6.04883C99.2956 6.04883 99.0693 5.99268 98.8789 5.88037C98.6885 5.76644 98.542 5.61344 98.4395 5.42139C98.3369 5.2277 98.2856 5.01123 98.2856 4.77197V4.67188C98.2856 4.39681 98.3377 4.15755 98.4419 3.9541C98.5461 3.74902 98.6885 3.59033 98.8691 3.47803C99.0514 3.36572 99.2573 3.30957 99.4868 3.30957C99.7407 3.30957 99.9515 3.36491 100.119 3.47559C100.287 3.58464 100.412 3.73682 100.495 3.93213C100.578 4.12581 100.62 4.35042 100.62 4.60596V4.86719H98.5762V4.43018H100.021V4.38379C100.018 4.28125 99.9987 4.18522 99.9629 4.0957C99.9271 4.00618 99.8701 3.93376 99.792 3.87842C99.7155 3.82308 99.613 3.79541 99.4844 3.79541C99.3558 3.79541 99.2476 3.83203 99.1597 3.90527C99.0718 3.97689 99.005 4.07861 98.9595 4.21045C98.9139 4.34066 98.8911 4.49447 98.8911 4.67188V4.77197C98.8911 4.92171 98.9188 5.05599 98.9741 5.1748C99.0295 5.29362 99.11 5.38802 99.2158 5.45801C99.3216 5.52637 99.4478 5.56055 99.5942 5.56055C99.7358 5.56055 99.8612 5.53288 99.9702 5.47754C100.081 5.4222 100.176 5.34245 100.256 5.23828L100.573 5.55566C100.49 5.68099 100.365 5.79492 100.197 5.89746C100.031 5.99837 99.818 6.04883 99.5576 6.04883Z" fill="#8E8E8E"/>
</svg>
