<svg width="110" height="9" viewBox="0 0 110 9" fill="none" xmlns="http://www.w3.org/2000/svg">
<path d="M6.01793 0.120315H6.7737L3.71679 8.87968H3.15842L3.42915 7.7908L6.01793 0.120315ZM3.33327 7.7908L3.61527 8.87968H3.05126L0 0.120315H0.755767L3.33327 7.7908ZM8.23761 8.87968H7.56648V2.37031H8.23761V8.87968ZM7.448 0.487294C7.448 0.350933 7.48747 0.236631 7.56648 0.144379C7.64918 0.0481218 7.76198 0 7.90488 0C8.05148 0 8.1662 0.0481218 8.2489 0.144379C8.3316 0.236631 8.37299 0.350933 8.37299 0.487294C8.37299 0.619648 8.3316 0.731951 8.2489 0.824195C8.1662 0.91644 8.05148 0.962562 7.90488 0.962562C7.76198 0.962562 7.64918 0.91644 7.56648 0.824195C7.48747 0.731951 7.448 0.619648 7.448 0.487294ZM13.3901 7.21925C13.3901 7.04281 13.3469 6.86828 13.2604 6.69586C13.1777 6.52337 13.0198 6.36495 12.7867 6.22055C12.5535 6.07622 12.2095 5.95189 11.7545 5.84762C11.3033 5.74729 10.9179 5.62296 10.5983 5.47462C10.2825 5.3262 10.0419 5.13569 9.87638 4.90307C9.71097 4.67045 9.6282 4.37567 9.6282 4.01871C9.6282 3.69386 9.71473 3.39908 9.88766 3.13436C10.0607 2.86564 10.3088 2.65107 10.6321 2.49064C10.9555 2.33021 11.3372 2.25 11.7771 2.25C12.2471 2.25 12.6494 2.33422 12.9841 2.50267C13.3225 2.67112 13.5819 2.90174 13.7624 3.19452C13.9429 3.4873 14.0331 3.82017 14.0331 4.19318H13.3507C13.3507 3.85629 13.2153 3.54946 12.9446 3.2727C12.6739 2.99599 12.2847 2.85762 11.7771 2.85762C11.4274 2.85762 11.1435 2.91577 10.9255 3.03209C10.7074 3.14438 10.5476 3.28875 10.4461 3.46526C10.3482 3.63768 10.2994 3.81419 10.2994 3.99463C10.2994 4.18719 10.3408 4.35961 10.4235 4.51204C10.5062 4.66045 10.6641 4.79479 10.8973 4.91511C11.1303 5.03543 11.4744 5.15174 11.9294 5.26403C12.4219 5.38034 12.8243 5.5227 13.1363 5.69118C13.4522 5.85565 13.6853 6.06017 13.8357 6.30483C13.9899 6.54547 14.0669 6.83822 14.0669 7.18313C14.0669 7.54008 13.973 7.85698 13.785 8.13367C13.6007 8.40641 13.3394 8.61897 13.001 8.7714C12.6663 8.92382 12.2696 9 11.8109 9C11.2958 9 10.8596 8.90974 10.5024 8.72929C10.149 8.54476 9.88014 8.30412 9.69592 8.00736C9.5154 7.71053 9.42517 7.39174 9.42517 7.05077H10.0964C10.1189 7.39174 10.2185 7.66041 10.3953 7.85698C10.5758 8.04946 10.7938 8.18781 11.0495 8.27208C11.3052 8.35227 11.559 8.39241 11.8109 8.39241C12.1568 8.39241 12.4464 8.33826 12.6795 8.22991C12.9126 8.11762 13.0893 7.97329 13.2097 7.79678C13.33 7.61633 13.3901 7.42377 13.3901 7.21925ZM15.9934 8.87968H15.3222V2.37031H15.9934V8.87968ZM15.2037 0.487294C15.2037 0.350933 15.2432 0.236631 15.3222 0.144379C15.4049 0.0481218 15.5177 0 15.6606 0C15.8072 0 15.9219 0.0481218 16.0046 0.144379C16.0873 0.236631 16.1287 0.350933 16.1287 0.487294C16.1287 0.619648 16.0873 0.731951 16.0046 0.824195C15.9219 0.91644 15.8072 0.962562 15.6606 0.962562C15.5177 0.962562 15.4049 0.91644 15.3222 0.824195C15.2432 0.731951 15.2037 0.619648 15.2037 0.487294ZM19.8035 2.95989H16.741V2.37031H19.8035V2.95989ZM18.5345 0.69786V7.29747C18.5345 7.59824 18.5722 7.82684 18.6473 7.98328C18.7225 8.13571 18.8203 8.23794 18.9406 8.29011C19.0647 8.34228 19.1963 8.36833 19.3354 8.36833C19.4369 8.36833 19.5329 8.36227 19.6231 8.35023C19.7171 8.33425 19.8017 8.32017 19.8769 8.30813L19.9051 8.90376C19.8223 8.93185 19.7152 8.95389 19.5836 8.96994C19.452 8.99 19.3204 9 19.1888 9C18.9293 9 18.7 8.94987 18.5007 8.84962C18.3014 8.74535 18.1435 8.56884 18.027 8.32017C17.9142 8.06749 17.8577 7.72461 17.8577 7.29141V0.69786H18.5345Z" fill="#00D9C6"/>
<path d="M77.9388 0.462722H78.6654L75.7266 8.88432H75.1898L75.4499 7.83742L77.9388 0.462722ZM75.3573 7.83742L75.6289 8.88432H75.0863L72.1526 0.462722H72.8792L75.3573 7.83742ZM80.6182 9C80.1086 9 79.6549 8.86888 79.257 8.60665C78.8629 8.34063 78.552 7.97815 78.3248 7.51928C78.1001 7.05655 77.9884 6.52634 77.9884 5.92863V5.67994C77.9884 5.036 78.1039 4.47688 78.3356 4.00258C78.5704 3.52828 78.8775 3.16195 79.257 2.9036C79.6403 2.64139 80.054 2.51029 80.4989 2.51029C80.9977 2.51029 81.421 2.63368 81.7681 2.88046C82.1152 3.12339 82.3773 3.4608 82.5543 3.89265C82.7346 4.32458 82.8253 4.81811 82.8253 5.37337V5.79562H78.3844V5.21146H82.1749V5.13043C82.1672 4.77959 82.1006 4.44988 81.9737 4.14141C81.8512 3.83288 81.6665 3.58229 81.421 3.38946C81.1747 3.1928 80.8676 3.09447 80.4989 3.09447C80.134 3.09447 79.8104 3.20437 79.5286 3.42416C79.2462 3.64396 79.0279 3.94856 78.8724 4.33805C78.7169 4.72368 78.6389 5.17098 78.6389 5.67994V5.92863C78.6389 6.39136 78.722 6.80975 78.8883 7.18381C79.0584 7.55786 79.2951 7.85671 79.599 8.08036C79.9024 8.30401 80.2514 8.41583 80.6455 8.41583C80.9926 8.41583 81.2998 8.34835 81.5669 8.21337C81.8347 8.07454 82.0752 7.85672 82.2884 7.55976L82.7003 7.88948C82.5086 8.19408 82.2453 8.45631 81.909 8.6761C81.5764 8.89203 81.1462 9 80.6182 9ZM84.4118 8.88432H83.7607V2.62596H84.3845L84.4118 3.9621V8.88432ZM83.9777 5.18831C84.0069 4.69857 84.1205 4.25127 84.3198 3.84642C84.5184 3.44152 84.7875 3.11761 85.1276 2.87468C85.4709 2.63175 85.8669 2.51029 86.3149 2.51029C86.709 2.51029 87.0454 2.5874 87.3233 2.74164C87.6019 2.89589 87.8151 3.14267 87.9636 3.48198C88.1153 3.81745 88.1914 4.26095 88.1914 4.81236V8.88432H87.5403V4.80653C87.5403 4.37467 87.4845 4.03534 87.3722 3.78854C87.2605 3.54175 87.1012 3.36632 86.895 3.26221C86.6894 3.1581 86.445 3.10604 86.1633 3.10604C85.8523 3.10604 85.5794 3.17931 85.3446 3.32584C85.113 3.46851 84.9176 3.65553 84.7589 3.8869C84.6034 4.1144 84.4841 4.35924 84.401 4.62147C84.3179 4.8837 84.2741 5.13043 84.2709 5.3618L83.9777 5.18831ZM93.3513 0H94.0018V8.88432H93.3945L93.3513 7.66969V0ZM89.2785 5.69727C89.2785 5.04947 89.3712 4.4865 89.5552 4.00833C89.7399 3.53024 90 3.16195 90.3364 2.9036C90.6759 2.64139 91.0788 2.51029 91.5453 2.51029C92.0009 2.51029 92.3874 2.61632 92.7059 2.82841C93.0239 3.03663 93.2771 3.32969 93.4649 3.70759C93.6566 4.08164 93.7867 4.52122 93.8552 5.02632V6.59382C93.7974 7.05655 93.6743 7.46912 93.4865 7.8316C93.2986 8.19408 93.0423 8.47946 92.7167 8.68768C92.395 8.89589 92.0009 9 91.5345 9C91.0719 9 90.6708 8.86503 90.3307 8.59515C89.9943 8.3252 89.7341 7.95114 89.5501 7.47298C89.3692 6.99489 89.2785 6.44342 89.2785 5.81877V5.69727ZM89.9296 5.81877C89.9296 6.30465 89.9911 6.74227 90.1136 7.13176C90.2367 7.51739 90.4246 7.82585 90.6778 8.05721C90.9342 8.28472 91.2597 8.39844 91.6538 8.39844C92.0263 8.39844 92.3391 8.32323 92.5917 8.1729C92.8449 8.01863 93.0474 7.81617 93.199 7.56558C93.3513 7.31107 93.4611 7.03151 93.5303 6.72683V4.92222C93.4865 4.72172 93.4237 4.5154 93.3405 4.30333C93.2574 4.09125 93.1432 3.89651 92.9985 3.71916C92.8576 3.53789 92.6767 3.39139 92.4565 3.27956C92.2395 3.16774 91.9755 3.11183 91.6646 3.11183C91.2673 3.11183 90.9399 3.22558 90.6835 3.45309C90.4265 3.68058 90.2367 3.991 90.1136 4.38435C89.9911 4.77377 89.9296 5.21146 89.9296 5.69727V5.81877ZM96.0978 8.88432H95.4525V2.62596H96.0978V8.88432ZM95.3389 0.81555C95.3389 0.684448 95.3769 0.574553 95.4525 0.485859C95.5324 0.393313 95.6409 0.347047 95.778 0.347047C95.9189 0.347047 96.0293 0.393313 96.1086 0.485859C96.1886 0.574553 96.2279 0.684448 96.2279 0.81555C96.2279 0.942801 96.1886 1.05077 96.1086 1.13946C96.0293 1.22815 95.9189 1.27249 95.778 1.27249C95.6409 1.27249 95.5324 1.22815 95.4525 1.13946C95.3769 1.05077 95.3389 0.942801 95.3389 0.81555ZM98.178 0V7.66969L98.1343 8.88432H97.527V0H98.178ZM102.261 5.81877C102.261 6.44342 102.172 6.99489 101.995 7.47298C101.822 7.95114 101.567 8.3252 101.23 8.59515C100.898 8.86503 100.495 9 100.022 9C99.5513 9 99.154 8.89589 98.8285 8.68768C98.503 8.47946 98.2466 8.19408 98.0587 7.8316C97.8703 7.46912 97.7459 7.05655 97.6843 6.59382V5.02632C97.7567 4.52122 97.8868 4.08164 98.0746 3.70759C98.2663 3.32969 98.5214 3.03663 98.8393 2.82841C99.1572 2.61632 99.5481 2.51029 100.011 2.51029C100.488 2.51029 100.893 2.64139 101.225 2.9036C101.562 3.16195 101.818 3.53024 101.995 4.00833C102.172 4.4865 102.261 5.04947 102.261 5.69727V5.81877ZM101.605 5.69727C101.605 5.21146 101.545 4.77377 101.426 4.38435C101.31 3.991 101.126 3.68058 100.873 3.45309C100.62 3.22558 100.291 3.11183 99.8857 3.11183C99.5748 3.11183 99.3114 3.16774 99.0944 3.27956C98.8774 3.39139 98.6965 3.53789 98.5518 3.71916C98.4109 3.89651 98.2986 4.09125 98.2155 4.30333C98.1324 4.5154 98.0714 4.72172 98.0315 4.92222V6.72683C98.093 7.01993 98.1977 7.29367 98.3462 7.54818C98.4979 7.8027 98.7022 8.00902 98.9586 8.16707C99.2156 8.32134 99.5278 8.39844 99.8965 8.39844C100.291 8.39844 100.612 8.28472 100.862 8.05721C101.115 7.82585 101.301 7.51739 101.42 7.13176C101.543 6.74227 101.605 6.30465 101.605 5.81877V5.69727ZM104.086 8.88432H103.441V0H104.086V8.88432ZM107.793 9C107.283 9 106.829 8.86888 106.432 8.60665C106.037 8.34063 105.727 7.97815 105.499 7.51928C105.275 7.05655 105.163 6.52634 105.163 5.92863V5.67994C105.163 5.036 105.279 4.47688 105.51 4.00258C105.745 3.52828 106.052 3.16195 106.432 2.9036C106.815 2.64139 107.229 2.51029 107.673 2.51029C108.172 2.51029 108.595 2.63368 108.942 2.88046C109.289 3.12339 109.551 3.4608 109.728 3.89265C109.909 4.32458 110 4.81811 110 5.37337V5.79562H105.558V5.21146H109.349V5.13043C109.342 4.77959 109.275 4.44988 109.148 4.14141C109.025 3.83288 108.841 3.58229 108.595 3.38946C108.349 3.1928 108.042 3.09447 107.673 3.09447C107.308 3.09447 106.985 3.20437 106.703 3.42416C106.421 3.64396 106.202 3.94856 106.046 4.33805C105.891 4.72368 105.813 5.17098 105.813 5.67994V5.92863C105.813 6.39136 105.897 6.80975 106.063 7.18381C106.233 7.55786 106.47 7.85671 106.773 8.08036C107.077 8.30401 107.426 8.41583 107.82 8.41583C108.167 8.41583 108.474 8.34835 108.741 8.21337C109.009 8.07454 109.25 7.85672 109.463 7.55976L109.875 7.88948C109.683 8.19408 109.419 8.45631 109.083 8.6761C108.75 8.89203 108.32 9 107.793 9Z" fill="#00C0F1"/>
<path fill-rule="evenodd" clip-rule="evenodd" d="M24.3171 2.33777C26.149 2.33777 27.6341 3.82287 27.6341 5.65482C27.6341 7.48681 26.149 8.9719 24.3171 8.9719C22.4851 8.9719 21 7.48681 21 5.65482C21 3.82287 22.4851 2.33777 24.3171 2.33777ZM24.4323 3.9979C25.2961 3.9979 25.9963 4.73973 25.9963 5.65482C25.9963 6.56995 25.2961 7.31178 24.4323 7.31178C23.5686 7.31178 22.8684 6.56995 22.8684 5.65482C22.8684 4.73973 23.5686 3.9979 24.4323 3.9979Z" fill="white"/>
<path d="M27.6428 2.42853H26.2759C26.1375 2.42853 26.0254 2.54067 26.0254 2.67901V8.63062C26.0254 8.76895 26.1375 8.88109 26.2759 8.88109H27.6428C27.7812 8.88109 27.8933 8.76895 27.8933 8.63062V2.67901C27.8933 2.54067 27.7812 2.42853 27.6428 2.42853Z" fill="white"/>
<path fill-rule="evenodd" clip-rule="evenodd" d="M30.0474 2.42853H28.6804C28.5426 2.42853 28.4299 2.5412 28.4299 2.67898V8.63065C28.4299 8.76843 28.5426 8.88109 28.6804 8.88109H30.0474C30.1852 8.88109 30.2978 8.76843 30.2978 8.63065V5.32561C30.4052 4.57323 31.0182 3.99652 31.7583 3.99652C31.8704 3.99652 31.9796 4.00978 32.0846 4.03486C32.2098 4.05547 32.3194 3.92954 32.3194 3.79984V2.66751C32.3194 2.55965 32.2385 2.45021 32.1476 2.44107C32.0552 2.43283 31.9617 2.42853 31.8671 2.42853C31.2953 2.42853 30.7593 2.58188 30.2978 2.84948V2.67898C30.2978 2.5412 30.1852 2.42853 30.0474 2.42853Z" fill="white"/>
<path fill-rule="evenodd" clip-rule="evenodd" d="M35.7722 8.67075V7.52216C35.7722 7.40643 35.6596 7.31178 35.5218 7.31178H35.366C35.0831 7.31178 34.8539 7.08252 34.8539 6.79964V5.44359V3.9979H35.561C35.6768 3.9979 35.7714 3.90325 35.7714 3.7875V2.63899C35.7714 2.52321 35.6768 2.42856 35.561 2.42856H34.8539V1.03984C34.8539 0.902092 34.7412 0.789423 34.6034 0.789423H33.2364C33.0986 0.789423 32.986 0.902092 32.986 1.03984V2.42856H32.7316C32.6159 2.42856 32.5212 2.52321 32.5212 2.63899V3.7875C32.5212 3.90325 32.6159 3.9979 32.7316 3.9979H32.986V7.15924C32.986 8.1102 33.7569 8.88112 34.7079 8.88112H35.366H35.5218C35.6596 8.88112 35.7722 8.78647 35.7722 8.67075Z" fill="white"/>
<path fill-rule="evenodd" clip-rule="evenodd" d="M42.3028 5.0073V8.6307C42.3028 8.76839 42.19 8.88112 42.0523 8.88112H40.6853C40.5476 8.88112 40.4349 8.76845 40.4349 8.6307V5.0073H40.4316C40.3855 4.43972 39.9088 3.9979 39.3362 3.9979C38.7595 3.9979 38.283 4.44226 38.2375 5.0073V8.6307C38.2375 8.76845 38.1249 8.88112 37.9871 8.88112H36.6201C36.4823 8.88112 36.3696 8.76845 36.3696 8.6307V2.67898C36.3696 2.54123 36.4823 2.42856 36.6201 2.42856H37.9871C38.1249 2.42856 38.2375 2.54123 38.2375 2.67898V2.777C38.6513 2.49942 39.1468 2.33777 39.6794 2.33777C39.7168 2.33777 39.8675 2.33777 39.9253 2.33777C41.2383 2.34484 42.3028 3.40215 42.3028 4.71519V5.0073Z" fill="white"/>
<path fill-rule="evenodd" clip-rule="evenodd" d="M51.3912 8.67075V7.52216C51.3912 7.40643 51.2785 7.31178 51.1407 7.31178H50.9849C50.702 7.31178 50.4728 7.08252 50.4728 6.79964V5.44359V3.9979H51.1799C51.2957 3.9979 51.3903 3.90325 51.3903 3.7875V2.63899C51.3903 2.52321 51.2957 2.42856 51.1799 2.42856H50.4728V1.03984C50.4728 0.902092 50.3601 0.789423 50.2223 0.789423H48.8553C48.7175 0.789423 48.6049 0.902092 48.6049 1.03984V2.42856H48.3505C48.2348 2.42856 48.1401 2.52321 48.1401 2.63899V3.7875C48.1401 3.90325 48.2348 3.9979 48.3505 3.9979H48.6049V7.15924C48.6049 8.1102 49.3758 8.88112 50.3268 8.88112H50.9849H51.1407C51.2785 8.88112 51.3912 8.78647 51.3912 8.67075Z" fill="white"/>
<path fill-rule="evenodd" clip-rule="evenodd" d="M54.6987 2.33777C56.5306 2.33777 58.0157 3.82287 58.0157 5.65488C58.0157 7.48681 56.5306 8.9719 54.6987 8.9719C52.8667 8.9719 51.3816 7.48681 51.3816 5.65488C51.3816 3.82287 52.8667 2.33777 54.6987 2.33777ZM54.6985 3.9979C55.4987 3.9979 56.1474 4.73973 56.1474 5.65482C56.1474 6.56995 55.4987 7.31178 54.6985 7.31178C53.8982 7.31178 53.2495 6.56995 53.2495 5.65482C53.2495 4.73973 53.8982 3.9979 54.6985 3.9979Z" fill="white"/>
<path fill-rule="evenodd" clip-rule="evenodd" d="M65.187 8.58307e-06H66.554C66.6918 8.58307e-06 66.8044 0.112734 66.8044 0.250456V4.53816L68.4564 2.5942C68.5443 2.49275 68.6741 2.42854 68.8188 2.42854H70.2146C70.3621 2.42854 70.4816 2.54807 70.4816 2.69554C70.4816 2.76349 70.4562 2.82551 70.4144 2.87267L68.0501 5.65484L70.4144 8.43698C70.4562 8.48414 70.4816 8.54616 70.4816 8.61411C70.4816 8.76158 70.3621 8.88111 70.2146 8.88111H68.8188C68.6741 8.88111 68.5443 8.81687 68.4564 8.71545L66.8044 6.77152V8.63066C66.8044 8.76838 66.6918 8.88111 66.554 8.88111H65.187C65.0492 8.88111 64.9365 8.76838 64.9365 8.63066V0.250456C64.9365 0.112734 65.0492 8.58307e-06 65.187 8.58307e-06Z" fill="white"/>
<path d="M42.5943 7.16772C42.9 8.34892 43.9882 8.97883 45.4545 8.97883C46.9687 8.97883 48.1662 8.23063 48.1662 6.87539C48.1662 5.84485 47.5606 5.23783 46.4318 4.96963L45.2067 4.67314C44.9177 4.61669 44.78 4.51789 44.78 4.32023C44.78 4.03789 45.0415 3.89671 45.3581 3.89671C45.7669 3.89671 45.9696 4.06001 46.0667 4.26781L46.067 4.26839C46.1021 4.34874 46.1822 4.40493 46.2756 4.40493H47.8326C47.9583 4.40493 48.0602 4.30307 48.0602 4.17737C48.0602 4.15581 48.0573 4.13485 48.0516 4.11504C47.7675 3.02613 46.8621 2.34386 45.3031 2.34386C43.844 2.34386 42.6602 3.13439 42.6602 4.48963C42.6602 5.60487 43.3347 6.11309 44.367 6.33894L45.5784 6.59305C45.8812 6.66363 46.0601 6.74836 46.0601 6.98834C46.0601 7.2848 45.7848 7.42595 45.427 7.42595C45.0934 7.42595 44.8217 7.27791 44.6922 7.0093C44.6564 6.93034 44.577 6.87539 44.4847 6.87539H42.8125C42.6868 6.87539 42.585 6.97724 42.585 7.10294C42.585 7.12546 42.5882 7.14717 42.5943 7.16772ZM44.6956 7.0174C44.6973 7.0215 44.6988 7.02565 44.7003 7.02986C44.6988 7.02568 44.6973 7.0215 44.6956 7.0174ZM48.0279 4.06044C48.0315 4.06638 48.0348 4.07246 48.0377 4.07872C48.0348 4.07249 48.0315 4.06635 48.0279 4.06044Z" fill="white"/>
<path fill-rule="evenodd" clip-rule="evenodd" d="M61.4858 8.9719C62.9813 8.9719 64.2453 7.98208 64.6593 6.6219L64.6593 6.62179C64.669 6.59595 64.6743 6.56802 64.6743 6.53881C64.6743 6.40821 64.5684 6.30235 64.4378 6.30235L64.4358 6.30238H62.9708L62.9689 6.30235C62.8772 6.30235 62.7984 6.35736 62.7636 6.43615C62.5195 6.95731 62.0388 7.31178 61.4856 7.31178C60.6854 7.31178 60.0366 6.56995 60.0366 5.65485C60.0366 4.73973 60.6854 3.9979 61.4856 3.9979C62.0388 3.9979 62.5195 4.35236 62.7636 4.87353C62.7984 4.95232 62.8772 5.00733 62.9689 5.00733L62.9708 5.0073H64.4358L64.4378 5.00733C64.5684 5.00733 64.6743 4.90146 64.6743 4.77086C64.6743 4.74166 64.669 4.71372 64.6593 4.68789L64.6593 4.68777C64.2453 3.3276 62.9813 2.33777 61.4858 2.33777C59.6538 2.33777 58.1687 3.82287 58.1687 5.65485C58.1687 7.48683 59.6538 8.9719 61.4858 8.9719Z" fill="white"/>
<path fill-rule="evenodd" clip-rule="evenodd" d="M69.8895 0C70.2166 0 70.4817 0.274405 70.4817 0.612871C70.4817 0.951336 70.2166 1.22574 69.8895 1.22574C69.5625 1.22574 69.2974 0.951336 69.2974 0.612871C69.2974 0.274405 69.5625 0 69.8895 0ZM70.2461 0.23929C70.1549 0.1449 70.0288 0.0864904 69.8895 0.0864904C69.7503 0.0864904 69.6242 0.1449 69.533 0.23929C69.4409 0.334603 69.3839 0.466702 69.3839 0.612871C69.3839 0.759039 69.4409 0.891139 69.533 0.986452C69.6242 1.08084 69.7503 1.13925 69.8895 1.13925C70.0288 1.13925 70.1549 1.08084 70.2461 0.986452C70.3382 0.891139 70.3952 0.759039 70.3952 0.612871C70.3952 0.466702 70.3382 0.334603 70.2461 0.23929Z" fill="white"/>
<path d="M69.9035 0.304394C69.9508 0.304394 69.991 0.311486 70.0243 0.325671C70.0577 0.339682 70.0831 0.36067 70.1008 0.38829C70.1184 0.416053 70.1273 0.450188 70.1273 0.490521C70.1273 0.521629 70.1216 0.548816 70.1103 0.572255C70.0991 0.595665 70.083 0.615327 70.0623 0.631386C70.0415 0.6473 70.0169 0.659581 69.9887 0.668403L69.9557 0.685327H69.7604L69.7595 0.597683H69.9044C69.9296 0.597683 69.9505 0.593359 69.9673 0.584537C69.9842 0.575715 69.9968 0.563721 70.005 0.548528C70.0133 0.533334 70.0175 0.515979 70.0175 0.49646C70.0175 0.464776 70.0084 0.439492 69.9903 0.42081C69.9721 0.402013 69.9431 0.392614 69.9035 0.392614H69.7939V0.921359H69.6846V0.304394H69.9035ZM69.8908 0.644705L70.0056 0.644273L70.1518 0.915852V0.921359H70.035L69.8908 0.644705Z" fill="white"/>
</svg>
