<svg width="78" height="78" viewBox="0 0 78 78" fill="none" xmlns="http://www.w3.org/2000/svg">
<path d="M63 0H15C6.71573 0 0 6.71573 0 15V63C0 71.2843 6.71573 78 15 78H63C71.2843 78 78 71.2843 78 63V15C78 6.71573 71.2843 0 63 0Z" fill="#EEEEEE"/>
<path fill-rule="evenodd" clip-rule="evenodd" d="M36.0815 35.384C36.3009 35.3752 36.5178 35.4335 36.7044 35.5515C36.891 35.6696 37.0387 35.8419 37.1287 36.0463C37.2186 36.2508 37.2466 36.478 37.2091 36.6988C37.1716 36.9197 37.0703 37.124 36.9181 37.2855C36.766 37.4471 36.57 37.5585 36.3554 37.6055C36.1408 37.6524 35.9173 37.6328 35.7137 37.549C35.5101 37.4653 35.3357 37.3213 35.2128 37.1356C35.09 36.9498 35.0244 36.7308 35.0244 36.5067C35.0198 36.215 35.1283 35.9332 35.3264 35.7229C35.5244 35.5126 35.7959 35.3908 36.0815 35.384ZM41.804 41.3707C42.0234 41.3618 42.2403 41.4202 42.4269 41.5382C42.6135 41.6562 42.7612 41.8285 42.8512 42.033C42.9411 42.2374 42.9691 42.4647 42.9316 42.6855C42.8941 42.9063 42.7928 43.1107 42.6406 43.2722C42.4885 43.4338 42.2925 43.5452 42.0779 43.5922C41.8633 43.6391 41.6398 43.6195 41.4362 43.5357C41.2326 43.452 41.0581 43.308 40.9353 43.1223C40.8125 42.9365 40.7468 42.7175 40.7469 42.4934C40.7422 42.2017 40.8508 41.9199 41.0489 41.7096C41.2469 41.4993 41.5184 41.3774 41.804 41.3707ZM38.9284 42.8388C39.1465 42.8353 39.3608 42.8982 39.5439 43.0194C39.7269 43.1407 39.8705 43.3148 39.9564 43.5196C40.0422 43.7244 40.0665 43.9507 40.026 44.1696C39.9855 44.3885 39.8822 44.5902 39.7291 44.749C39.576 44.9078 39.3801 45.0165 39.1664 45.0612C38.9526 45.106 38.7307 45.0848 38.5288 45.0004C38.3268 44.9159 38.1541 44.772 38.0325 44.587C37.9109 44.402 37.8459 44.1843 37.8459 43.9615C37.8442 43.6662 37.9572 43.3823 38.1601 43.1719C38.3629 42.9615 38.6392 42.8417 38.9284 42.8388ZM43.2274 38.3773C43.442 38.3751 43.6523 38.4381 43.8317 38.5582C44.0112 38.6783 44.1516 38.8501 44.2352 39.0519C44.3188 39.2536 44.3418 39.4762 44.3012 39.6913C44.2607 39.9064 44.1584 40.1044 44.0075 40.2601C43.8566 40.4158 43.6637 40.5221 43.4534 40.5657C43.2432 40.6092 43.025 40.588 42.8266 40.5047C42.6282 40.4214 42.4585 40.2797 42.339 40.0977C42.2196 39.9157 42.1558 39.7016 42.1558 39.4825C42.1558 39.1913 42.2684 38.9119 42.469 38.7049C42.6697 38.498 42.9422 38.3802 43.2274 38.3773ZM38.9284 33.9168C39.1466 33.9133 39.3609 33.9762 39.5439 34.0975C39.727 34.2188 39.8706 34.3929 39.9564 34.5978C40.0423 34.8027 40.0665 35.029 40.0259 35.248C39.9854 35.4669 39.882 35.6686 39.7288 35.8273C39.5756 35.9861 39.3797 36.0947 39.1658 36.1393C38.952 36.184 38.73 36.1627 38.5281 36.0781C38.3262 35.9935 38.1535 35.8495 38.0321 35.6644C37.9106 35.4793 37.8458 35.2614 37.8459 35.0386C37.8442 34.7434 37.9572 34.4596 38.1601 34.2493C38.363 34.039 38.6393 33.9194 38.9284 33.9168ZM36.0815 41.3707C36.3009 41.3618 36.5178 41.4202 36.7044 41.5382C36.891 41.6562 37.0387 41.8285 37.1287 42.033C37.2186 42.2374 37.2466 42.4647 37.2091 42.6855C37.1716 42.9063 37.0703 43.1107 36.9181 43.2722C36.766 43.4338 36.57 43.5452 36.3554 43.5922C36.1408 43.6391 35.9173 43.6195 35.7137 43.5357C35.5101 43.452 35.3357 43.308 35.2128 43.1223C35.09 42.9365 35.0244 42.7175 35.0244 42.4934C35.0198 42.2017 35.1283 41.9199 35.3264 41.7096C35.5244 41.4993 35.7959 41.3774 36.0815 41.3707ZM34.6581 38.3773C34.8727 38.3751 35.083 38.4381 35.2624 38.5582C35.4419 38.6783 35.5823 38.8501 35.6659 39.0519C35.7495 39.2536 35.7724 39.4762 35.7319 39.6913C35.6914 39.9064 35.5891 40.1044 35.4382 40.2601C35.2873 40.4158 35.0944 40.5221 34.8841 40.5657C34.6739 40.6092 34.4557 40.588 34.2573 40.5047C34.0589 40.4214 33.8892 40.2797 33.7697 40.0977C33.6503 39.9157 33.5865 39.7016 33.5865 39.4825C33.5865 39.1913 33.6991 38.9119 33.8997 38.7049C34.1004 38.498 34.3729 38.3802 34.6581 38.3773ZM38.9284 38.3773C39.1424 38.3773 39.3517 38.4421 39.5297 38.5636C39.7077 38.685 39.8465 38.8576 39.9284 39.0596C40.0103 39.2616 40.0318 39.4838 39.99 39.6982C39.9482 39.9126 39.8451 40.1095 39.6937 40.2641C39.5424 40.4186 39.3495 40.5239 39.1395 40.5665C38.9296 40.6092 38.7119 40.5873 38.5141 40.5037C38.3163 40.42 38.1473 40.2783 38.0283 40.0966C37.9094 39.9148 37.8459 39.7011 37.8459 39.4825C37.8459 39.1894 37.96 38.9083 38.163 38.701C38.3659 38.4938 38.6413 38.3773 38.9284 38.3773ZM41.804 35.384C42.0234 35.3752 42.2403 35.4335 42.4269 35.5515C42.6135 35.6696 42.7612 35.8419 42.8512 36.0463C42.9411 36.2508 42.9691 36.478 42.9316 36.6988C42.8941 36.9197 42.7928 37.124 42.6406 37.2855C42.4885 37.4471 42.2925 37.5585 42.0779 37.6055C41.8633 37.6524 41.6398 37.6328 41.4362 37.549C41.2326 37.4653 41.0581 37.3213 40.9353 37.1356C40.8125 36.9498 40.7468 36.7308 40.7469 36.5067C40.7422 36.215 40.8508 35.9332 41.0489 35.7229C41.2469 35.5126 41.5184 35.3908 41.804 35.384ZM43.2274 45.0833C43.5911 45.0775 43.9483 45.1822 44.2535 45.3843C44.5587 45.5864 44.7981 45.8766 44.9413 46.218C45.0845 46.5594 45.1249 46.9366 45.0575 47.3015C44.99 47.6665 44.8178 48.0027 44.5626 48.2674C44.3075 48.5321 43.981 48.7133 43.6246 48.788C43.2683 48.8626 42.8983 48.8273 42.5617 48.6866C42.2251 48.5458 41.9371 48.306 41.7344 47.9976C41.5317 47.6892 41.4234 47.3262 41.4234 46.9548C41.4215 46.711 41.4666 46.4692 41.5563 46.2432C41.6459 46.0171 41.7782 45.8113 41.9458 45.6376C42.1133 45.4638 42.3127 45.3254 42.5326 45.2303C42.7525 45.1352 42.9886 45.0853 43.2274 45.0833ZM30.3455 37.6294C30.7103 37.6179 31.0701 37.7178 31.3789 37.9163C31.6878 38.1149 31.9315 38.403 32.079 38.7438C32.2265 39.0847 32.2709 39.4627 32.2066 39.8296C32.1424 40.1964 31.9724 40.5352 31.7184 40.8028C31.4643 41.0703 31.1379 41.2543 30.7808 41.3313C30.4237 41.4082 30.0523 41.3745 29.7141 41.2346C29.3758 41.0947 29.0862 40.8549 28.8823 40.5458C28.6784 40.2368 28.5694 39.8727 28.5694 39.5C28.5657 39.2581 28.6087 39.0179 28.696 38.7929C28.7833 38.568 28.913 38.3628 29.078 38.1891C29.2429 38.0154 29.4398 37.8765 29.6572 37.7805C29.8747 37.6845 30.1086 37.6332 30.3455 37.6294ZM43.2274 30.1746C43.5912 30.1688 43.9484 30.2736 44.2536 30.4757C44.5588 30.6778 44.7982 30.968 44.9414 31.3095C45.0845 31.651 45.1249 32.0282 45.0574 32.3932C44.9899 32.7582 44.8176 33.0944 44.5623 33.3591C44.3071 33.6237 43.9805 33.8049 43.6241 33.8794C43.2677 33.9539 42.8977 33.9185 42.5611 33.7776C42.2245 33.6367 41.9366 33.3968 41.734 33.0883C41.5314 32.7798 41.4232 32.4167 41.4234 32.0453C41.4215 31.8015 41.4666 31.5597 41.5563 31.3337C41.6459 31.1077 41.7783 30.902 41.9458 30.7283C42.1134 30.5546 42.3128 30.4163 42.5327 30.3213C42.7526 30.2263 42.9887 30.1765 43.2274 30.1746ZM47.5121 37.6294C47.8769 37.6179 48.2367 37.7178 48.5455 37.9163C48.8543 38.1149 49.0981 38.403 49.2455 38.7438C49.393 39.0847 49.4375 39.4627 49.3732 39.8296C49.309 40.1964 49.1389 40.5352 48.8849 40.8028C48.6309 41.0703 48.3044 41.2543 47.9474 41.3313C47.5903 41.4082 47.2189 41.3745 46.8806 41.2346C46.5424 41.0947 46.2528 40.8549 46.0488 40.5458C45.8449 40.2368 45.736 39.8727 45.736 39.5C45.7323 39.2581 45.7753 39.0179 45.8626 38.7929C45.9498 38.568 46.0796 38.3628 46.2445 38.1891C46.4095 38.0154 46.6063 37.8765 46.8238 37.7805C47.0413 37.6845 47.2752 37.6332 47.5121 37.6294ZM34.6437 45.0833C35.008 45.0745 35.3665 45.1768 35.6736 45.377C35.9806 45.5773 36.2223 45.8664 36.3677 46.2075C36.5131 46.5486 36.5556 46.9262 36.4898 47.2921C36.4241 47.658 36.253 47.9956 35.9985 48.2618C35.7439 48.528 35.4175 48.7107 35.0608 48.7865C34.7041 48.8624 34.3334 48.828 33.9959 48.6877C33.6585 48.5475 33.3696 48.3077 33.1662 47.9991C32.9629 47.6904 32.8542 47.3269 32.8541 46.9548C32.8485 46.4644 33.0339 45.9918 33.3695 45.6409C33.7051 45.2899 34.1634 45.0894 34.6437 45.0833ZM34.6437 30.1746C35.008 30.1659 35.3666 30.2681 35.6736 30.4684C35.9807 30.6687 36.2224 30.9579 36.3678 31.299C36.5131 31.6402 36.5556 32.0179 36.4898 32.3838C36.4239 32.7497 36.2528 33.0873 35.9982 33.3534C35.7435 33.6196 35.417 33.8022 35.0603 33.878C34.7035 33.9537 34.3328 33.9192 33.9953 33.7788C33.6579 33.6384 33.3691 33.3985 33.1658 33.0897C32.9625 32.7809 32.854 32.4173 32.8541 32.0453C32.8485 31.5549 33.034 31.0824 33.3696 30.7316C33.7052 30.3808 34.1635 30.1805 34.6437 30.1746ZM28.9357 30.9234C29.4453 30.9119 29.9468 31.0557 30.3761 31.3365C30.8054 31.6172 31.1431 32.0222 31.346 32.4998C31.5488 32.9773 31.6078 33.5058 31.5152 34.0177C31.4227 34.5296 31.1828 35.0017 30.8263 35.3739C30.4698 35.746 30.0129 36.0012 29.5137 36.107C29.0145 36.2127 28.4958 36.1642 28.0237 35.9676C27.5516 35.7711 27.1476 35.4353 26.8633 35.0033C26.5789 34.5712 26.427 34.0625 26.4271 33.5419C26.4199 32.8551 26.6801 32.1934 27.1505 31.7024C27.6209 31.2114 28.263 30.9312 28.9357 30.9234ZM48.9499 42.8388C49.4561 42.8304 49.9534 42.9759 50.3783 43.257C50.8032 43.538 51.1366 43.9418 51.3361 44.417C51.5355 44.8921 51.592 45.4171 51.4983 45.9251C51.4046 46.4331 51.165 46.9012 50.8099 47.2697C50.4549 47.6382 50.0005 47.8905 49.5046 47.9945C49.0086 48.0985 48.4936 48.0495 48.025 47.8536C47.5565 47.6578 47.1556 47.324 46.8734 46.8948C46.5913 46.4656 46.4406 45.9604 46.4405 45.4434C46.4372 45.104 46.4995 44.7672 46.6239 44.4525C46.7483 44.1377 46.9324 43.8511 47.1655 43.6091C47.3987 43.3671 47.6763 43.1745 47.9825 43.0423C48.2887 42.9101 48.6175 42.8409 48.9499 42.8388ZM38.9284 24.9653C39.4354 24.9536 39.9344 25.0964 40.3616 25.3756C40.7888 25.6547 41.1248 26.0575 41.3268 26.5325C41.5288 27.0075 41.5876 27.5332 41.4957 28.0425C41.4037 28.5517 41.1653 29.0215 40.8107 29.3918C40.4561 29.7621 40.0016 30.0161 39.505 30.1214C39.0084 30.2267 38.4924 30.1785 38.0227 29.983C37.5531 29.7875 37.1511 29.4535 36.8682 29.0238C36.5853 28.594 36.4342 28.0878 36.4342 27.57C36.4275 26.8871 36.6863 26.2294 37.1539 25.7411C37.6214 25.2528 38.2596 24.9738 38.9284 24.9653ZM48.9499 30.9234C49.4596 30.9121 49.961 31.056 50.3902 31.3369C50.8194 31.6178 51.1569 32.0229 51.3596 32.5005C51.5624 32.978 51.6212 33.5064 51.5285 34.0183C51.4359 34.5301 51.1959 35.0022 50.8394 35.3742C50.4829 35.7463 50.0259 36.0014 49.5267 36.1071C49.0275 36.2128 48.5089 36.1642 48.0368 35.9676C47.5648 35.771 47.1609 35.4352 46.8766 35.0032C46.5923 34.5712 46.4404 34.0624 46.4405 33.5419C46.4333 32.8549 46.6936 32.1931 47.1642 31.7021C47.6348 31.211 48.2771 30.931 48.9499 30.9234ZM39.0411 48.9977C39.5269 48.9942 40.0028 49.1381 40.4083 49.4112C40.8139 49.6842 41.1309 50.0742 41.3192 50.5314C41.5075 50.9887 41.5585 51.4928 41.4658 51.9797C41.3731 52.4666 41.1409 52.9145 40.7986 53.2665C40.4563 53.6185 40.0193 53.8587 39.5431 53.9568C39.0668 54.0548 38.5728 54.0063 38.1237 53.8172C37.6745 53.6282 37.2905 53.3073 37.0202 52.8951C36.7499 52.4829 36.6056 51.998 36.6056 51.502C36.6037 50.8402 36.8591 50.2048 37.3158 49.7352C37.7725 49.2656 38.393 49.0004 39.0411 48.9977ZM28.9384 42.8388C29.4446 42.8302 29.9419 42.9756 30.3669 43.2565C30.792 43.5375 31.1255 43.9412 31.3251 44.4163C31.5247 44.8914 31.5813 45.4165 31.4877 45.9245C31.3941 46.4326 31.1546 46.9008 30.7996 47.2694C30.4446 47.638 29.9902 47.8904 29.4942 47.9944C28.9983 48.0985 28.4832 48.0495 28.0146 47.8537C27.546 47.6579 27.1451 47.3241 26.8628 46.8949C26.5806 46.4657 26.4299 45.9604 26.4298 45.4434C26.4243 44.7589 26.6851 44.1001 27.1549 43.6117C27.6247 43.1233 28.2652 42.8453 28.9357 42.8388H28.9384ZM46.7986 50.2936C47.4505 50.2821 48.091 50.4689 48.6386 50.8304C49.1861 51.1918 49.6159 51.7115 49.8732 52.3232C50.1305 52.9349 50.2036 53.611 50.0833 54.2653C49.963 54.9196 49.6547 55.5226 49.1976 55.9973C48.7406 56.4721 48.1554 56.7972 47.5168 56.9313C46.8781 57.0654 46.2149 57.0023 45.6114 56.7501C45.008 56.498 44.4917 56.0681 44.1284 55.5153C43.765 54.9626 43.571 54.3119 43.5711 53.6461C43.5639 52.766 43.8987 51.9189 44.5022 51.2905C45.1057 50.662 45.9286 50.3035 46.7905 50.2936H46.7986ZM23.2186 36.1613C23.8676 36.1507 24.5051 36.3376 25.0498 36.6981C25.5946 37.0586 26.0219 37.5764 26.2775 38.1857C26.5331 38.795 26.6053 39.4682 26.485 40.1195C26.3647 40.7708 26.0573 41.3709 25.6019 41.8432C25.1466 42.3156 24.5638 42.639 23.9279 42.7721C23.292 42.9053 22.6317 42.8422 22.031 42.5909C21.4303 42.3397 20.9164 41.9116 20.5548 41.3611C20.1931 40.8107 20 40.1629 20.0001 39.5C19.9927 38.6223 20.327 37.7774 20.9295 37.1513C21.5321 36.5252 22.3535 36.1691 23.2132 36.1613H23.2186ZM31.0834 50.2936C31.7358 50.2791 32.3777 50.4635 32.9271 50.8231C33.4765 51.1827 33.9086 51.7013 34.1681 52.3127C34.4276 52.9241 34.5028 53.6006 34.3842 54.2559C34.2656 54.9111 33.9584 55.5154 33.502 55.9917C33.0456 56.468 32.4605 56.7946 31.8215 56.9299C31.1825 57.0652 30.5185 57.003 29.9142 56.7513C29.3099 56.4997 28.7928 56.0699 28.4288 55.5168C28.0647 54.9637 27.8703 54.3125 27.8704 53.6461C27.8607 52.7674 28.1932 51.9206 28.7946 51.292C29.3961 50.6634 30.2173 50.3043 31.078 50.2936H31.0834ZM31.0834 22.0005C31.7326 21.9888 32.3706 22.1747 32.9161 22.5345C33.4615 22.8944 33.8897 23.4118 34.1461 24.021C34.4025 24.6301 34.4755 25.3035 34.3559 25.9552C34.2362 26.6069 33.9292 27.2074 33.4741 27.6804C33.0189 28.1533 32.4362 28.4772 31.8002 28.6108C31.1641 28.7444 30.5035 28.6817 29.9025 28.4306C29.3015 28.1795 28.7873 27.7514 28.4254 27.2009C28.0635 26.6504 27.8703 26.0023 27.8704 25.3392C27.8629 24.4624 28.1965 23.6184 28.7978 22.9925C29.3992 22.3665 30.2193 22.0098 31.078 22.0005H31.0834ZM54.6778 36.1613C55.3269 36.1509 55.9643 36.3379 56.5089 36.6985C57.0535 37.0591 57.4807 37.5771 57.7361 38.1864C57.9915 38.7957 58.0636 39.4688 57.9432 40.1201C57.8228 40.7713 57.5154 41.3713 57.0599 41.8436C56.6045 42.3159 56.0218 42.6391 55.3859 42.7722C54.75 42.9053 54.0898 42.8421 53.4891 42.5908C52.8885 42.3395 52.3746 41.9115 52.013 41.361C51.6514 40.8106 51.4584 40.1628 51.4585 39.5C51.4548 39.0653 51.535 38.6342 51.6945 38.2311C51.854 37.8281 52.0898 37.4611 52.3882 37.151C52.6866 36.841 53.042 36.594 53.4339 36.4242C53.8258 36.2544 54.2467 36.1651 54.6724 36.1613H54.6778ZM46.7905 22.0005C47.4389 21.9919 48.0752 22.1804 48.6185 22.542C49.1618 22.9036 49.5875 23.422 49.8415 24.0313C50.0955 24.6406 50.1663 25.3132 50.045 25.9637C49.9236 26.6141 49.6156 27.2131 49.16 27.6843C48.7045 28.1556 48.122 28.4779 47.4865 28.6103C46.8511 28.7427 46.1915 28.6791 45.5915 28.4278C44.9916 28.1764 44.4783 27.7485 44.1171 27.1986C43.7559 26.6486 43.5631 26.0014 43.563 25.3392C43.56 24.9036 43.6412 24.4716 43.8018 24.068C43.9624 23.6644 44.1994 23.297 44.4991 22.987C44.7988 22.6769 45.1555 22.4302 45.5486 22.2609C45.9418 22.0917 46.3638 22.0032 46.7905 22.0005Z" fill="#888888"/>
</svg>
