<svg width="203" height="151" viewBox="0 0 203 151" fill="none" xmlns="http://www.w3.org/2000/svg">
<path opacity="0.8" fill-rule="evenodd" clip-rule="evenodd" d="M34 89C52.7777 89 68 73.7777 68 55C68 36.2223 52.7777 21 34 21C15.2223 21 0 36.2223 0 55C0 73.7777 15.2223 89 34 89ZM34 70C42.2843 70 49 63.2843 49 55C49 46.7157 42.2843 40 34 40C25.7157 40 19 46.7157 19 55C19 63.2843 25.7157 70 34 70Z" fill="#19F4A3"/>
<rect opacity="0.8" width="19" height="88" fill="#19F4A3"/>
<rect opacity="0.8" x="119" width="19" height="88" fill="#FA6C0E"/>
<rect opacity="0.8" x="140" width="19" height="88" fill="#FE3187"/>
<path opacity="0.8" d="M173 20H203L170 54H140L173 20Z" fill="#FE3187"/>
<path opacity="0.8" d="M173 88H203L170 54H140L173 88Z" fill="#FE3187"/>
<rect opacity="0.8" x="49" y="21" width="19" height="34" fill="#FCCF22"/>
<rect opacity="0.8" x="98" y="21" width="19" height="34" fill="#FCCF22"/>
<rect opacity="0.8" x="98" y="22" width="19" height="67" fill="#FCCF22"/>
<path opacity="0.8" fill-rule="evenodd" clip-rule="evenodd" d="M49 55C49 73.7777 64.2223 89 83 89C101.778 89 117 73.7777 117 55H98C98 63.2843 91.2843 70 83 70C74.7157 70 68 63.2843 68 55H49Z" fill="#FCCF22"/>
<path opacity="0.7" d="M59.4135 107.939C59.4135 110.463 58.9805 112.659 58.1146 114.526C57.2611 116.382 56.0489 117.823 54.4779 118.85C52.907 119.864 51.0515 120.371 48.9115 120.371C46.821 120.371 44.9841 119.864 43.4008 118.85C41.8174 117.823 40.5805 116.382 39.6898 114.526C38.8116 112.659 38.3725 110.463 38.3725 107.939V105.045C38.3725 102.521 38.8116 100.332 39.6898 98.4766C40.5681 96.6087 41.7927 95.1676 43.3637 94.1533C44.947 93.1266 46.7839 92.6133 48.8744 92.6133C51.0144 92.6133 52.8699 93.1266 54.4408 94.1533C56.0242 95.1676 57.2488 96.6087 58.1146 98.4766C58.9805 100.332 59.4135 102.521 59.4135 105.045V107.939ZM57.1498 105.008C57.1498 102.88 56.822 101.043 56.1664 99.4971C55.5108 97.9385 54.5645 96.7386 53.3275 95.8975C52.1029 95.0439 50.6186 94.6172 48.8744 94.6172C47.1798 94.6172 45.7139 95.0439 44.477 95.8975C43.2523 96.7386 42.3061 97.9385 41.6381 99.4971C40.9825 101.043 40.6547 102.88 40.6547 105.008V107.939C40.6547 110.079 40.9887 111.929 41.6566 113.487C42.3246 115.046 43.2771 116.252 44.5141 117.105C45.751 117.959 47.2169 118.386 48.9115 118.386C50.668 118.386 52.1586 117.959 53.3832 117.105C54.6078 116.252 55.5417 115.046 56.185 113.487C56.8282 111.929 57.1498 110.079 57.1498 107.939V105.008ZM70.9018 92.9844C72.7696 92.9844 74.3901 93.2874 75.7631 93.8936C77.1362 94.4997 78.1938 95.3965 78.936 96.584C79.6905 97.7591 80.0678 99.2064 80.0678 100.926C80.0678 102.2 79.8019 103.356 79.27 104.396C78.7381 105.435 77.9959 106.307 77.0434 107.012C76.1033 107.704 75.0148 108.181 73.7778 108.44L72.9799 108.737H63.6098L63.5727 106.808H71.4028C72.8253 106.808 74.0066 106.535 74.9467 105.991C75.8868 105.435 76.5919 104.711 77.062 103.82C77.5444 102.917 77.7856 101.952 77.7856 100.926C77.7856 99.0827 77.1918 97.623 76.0043 96.5469C74.8292 95.4707 73.1284 94.9326 70.9018 94.9326H64.4077V120H62.1254V92.9844H70.9018ZM71.811 107.921L74.2602 107.902L81.2368 119.759V120H78.7875L71.811 107.921ZM84.561 120L84.5981 118.07H90.6841C92.6137 118.07 94.2837 117.637 95.6938 116.771C97.104 115.893 98.1925 114.681 98.9594 113.135C99.7264 111.576 100.11 109.776 100.11 107.735V105.212C100.11 103.121 99.7264 101.309 98.9594 99.7754C98.1925 98.2415 97.1102 97.054 95.7124 96.2129C94.327 95.3594 92.7065 94.9326 90.8511 94.9326H84.4497V92.9844H90.8511C93.1024 92.9844 95.0939 93.4915 96.8257 94.5059C98.5574 95.5202 99.9119 96.9489 100.889 98.792C101.879 100.623 102.374 102.775 102.374 105.249V107.735C102.374 110.209 101.879 112.368 100.889 114.211C99.9119 116.042 98.5451 117.464 96.7886 118.479C95.032 119.493 92.9972 120 90.6841 120H84.561ZM85.5815 120H83.2993V92.9844H85.5815V120ZM121.952 120H106.755V118.07H121.952V120ZM107.442 120H105.16V92.9844H107.442V120ZM120.059 107.049H106.755V105.101H120.059V107.049ZM121.859 94.9326H106.755V92.9844H121.859V94.9326ZM132.475 92.9844C134.343 92.9844 135.963 93.2874 137.336 93.8936C138.71 94.4997 139.767 95.3965 140.509 96.584C141.264 97.7591 141.641 99.2064 141.641 100.926C141.641 102.2 141.375 103.356 140.843 104.396C140.311 105.435 139.569 106.307 138.617 107.012C137.677 107.704 136.588 108.181 135.351 108.44L134.553 108.737H125.183L125.146 106.808H132.976C134.399 106.808 135.58 106.535 136.52 105.991C137.46 105.435 138.165 104.711 138.635 103.82C139.118 102.917 139.359 101.952 139.359 100.926C139.359 99.0827 138.765 97.623 137.578 96.5469C136.403 95.4707 134.702 94.9326 132.475 94.9326H125.981V120H123.699V92.9844H132.475ZM133.384 107.921L135.834 107.902L142.81 119.759V120H140.361L133.384 107.921ZM160.162 113.357C160.162 112.355 159.933 111.502 159.475 110.797C159.03 110.092 158.269 109.467 157.193 108.923C156.117 108.366 154.645 107.822 152.777 107.29C151.416 106.919 150.192 106.505 149.103 106.047C148.027 105.589 147.099 105.063 146.32 104.47C145.553 103.876 144.965 103.183 144.557 102.392C144.149 101.588 143.945 100.654 143.945 99.5898C143.945 98.1921 144.328 96.9736 145.095 95.9346C145.875 94.8831 146.945 94.0667 148.305 93.4854C149.678 92.904 151.249 92.6133 153.018 92.6133C154.911 92.6133 156.55 92.972 157.935 93.6895C159.321 94.4069 160.391 95.3779 161.145 96.6025C161.9 97.8148 162.277 99.1755 162.277 100.685H159.995C159.995 99.5094 159.716 98.4642 159.16 97.5488C158.615 96.6211 157.824 95.8913 156.785 95.3594C155.746 94.8275 154.49 94.5615 153.018 94.5615C151.534 94.5615 150.284 94.7904 149.27 95.248C148.268 95.6934 147.514 96.2933 147.006 97.0479C146.499 97.8024 146.246 98.6312 146.246 99.5342C146.246 100.388 146.468 101.161 146.914 101.854C147.371 102.534 148.126 103.152 149.177 103.709C150.241 104.266 151.676 104.791 153.482 105.286C155.399 105.793 157.026 106.393 158.362 107.086C159.698 107.779 160.712 108.626 161.405 109.628C162.11 110.63 162.463 111.861 162.463 113.32C162.463 114.78 162.06 116.042 161.256 117.105C160.452 118.157 159.351 118.967 157.954 119.536C156.556 120.093 154.96 120.371 153.167 120.371C151.967 120.371 150.773 120.216 149.586 119.907C148.398 119.598 147.31 119.122 146.32 118.479C145.343 117.823 144.557 116.982 143.963 115.955C143.382 114.928 143.091 113.704 143.091 112.281H145.374C145.374 113.419 145.602 114.384 146.06 115.176C146.518 115.955 147.124 116.586 147.879 117.068C148.645 117.551 149.487 117.903 150.402 118.126C151.317 118.336 152.239 118.441 153.167 118.441C154.589 118.441 155.82 118.231 156.859 117.811C157.898 117.378 158.708 116.784 159.29 116.029C159.871 115.262 160.162 114.372 160.162 113.357Z" fill="white"/>
<path opacity="0.7" d="M12.1831 133.974C12.0864 134.114 11.9325 134.273 11.7212 134.452C11.5135 134.628 11.2235 134.782 10.8511 134.914C10.4823 135.043 10.0042 135.107 9.41699 135.107C8.7832 135.107 8.21924 134.961 7.7251 134.667C7.23454 134.373 6.84961 133.949 6.57031 133.394C6.29102 132.839 6.15137 132.173 6.15137 131.396V130.778C6.15137 130.001 6.27311 129.337 6.5166 128.786C6.76009 128.231 7.11458 127.806 7.58008 127.513C8.04915 127.219 8.62028 127.072 9.29346 127.072C9.89144 127.072 10.3927 127.176 10.7974 127.384C11.202 127.588 11.5171 127.871 11.7427 128.232C11.9718 128.594 12.1187 129.006 12.1831 129.468H11.1411C11.0946 129.185 11.0015 128.927 10.8618 128.694C10.7257 128.458 10.5306 128.27 10.2764 128.13C10.0221 127.987 9.69629 127.916 9.29883 127.916C8.81543 127.916 8.41797 128.032 8.10645 128.265C7.7985 128.494 7.56934 128.821 7.41895 129.248C7.27214 129.674 7.19873 130.18 7.19873 130.768V131.396C7.19873 131.998 7.29183 132.513 7.47803 132.943C7.66423 133.369 7.92383 133.697 8.25684 133.926C8.58984 134.155 8.97835 134.27 9.42236 134.27C9.79118 134.27 10.0884 134.239 10.314 134.178C10.5431 134.114 10.7222 134.039 10.8511 133.953C10.98 133.863 11.0785 133.779 11.1465 133.7V131.938H9.3418V131.106H12.1831V133.974ZM16.1631 135.107C15.6224 135.107 15.1515 134.987 14.7505 134.748C14.353 134.504 14.0433 134.171 13.8213 133.749C13.6029 133.326 13.4937 132.843 13.4937 132.298V132.067C13.4937 131.437 13.6136 130.9 13.8535 130.456C14.097 130.008 14.4121 129.668 14.7988 129.436C15.1891 129.199 15.6009 129.081 16.0342 129.081C16.5928 129.081 17.0475 129.206 17.3984 129.457C17.7529 129.704 18.0125 130.042 18.1772 130.472C18.3455 130.898 18.4297 131.382 18.4297 131.922V132.368H14.0898V131.562H17.4253V131.487C17.411 131.229 17.359 130.979 17.2695 130.735C17.18 130.488 17.0368 130.286 16.8398 130.128C16.6429 129.967 16.3743 129.887 16.0342 129.887C15.7334 129.887 15.4666 129.973 15.2339 130.145C15.0047 130.313 14.8239 130.56 14.6914 130.886C14.5625 131.208 14.498 131.602 14.498 132.067V132.298C14.498 132.667 14.5661 133.004 14.7021 133.308C14.8382 133.609 15.0352 133.851 15.293 134.033C15.5508 134.212 15.8587 134.302 16.2168 134.302C16.5677 134.302 16.8649 134.23 17.1084 134.087C17.3519 133.944 17.5649 133.752 17.7476 133.512L18.3545 133.985C18.1683 134.271 17.8997 134.531 17.5488 134.764C17.2015 134.993 16.7396 135.107 16.1631 135.107ZM22.0337 129.946H18.8862V129.188H22.0337V129.946ZM20.9487 127.776V133.561C20.9487 133.761 20.9792 133.911 21.04 134.012C21.1009 134.112 21.1797 134.178 21.2764 134.21C21.373 134.243 21.4769 134.259 21.5879 134.259C21.6702 134.259 21.7562 134.252 21.8457 134.237C21.9388 134.223 22.0068 134.21 22.0498 134.2L22.0552 135C21.9764 135.025 21.8726 135.048 21.7437 135.07C21.6183 135.095 21.4661 135.107 21.2871 135.107C21.0436 135.107 20.8198 135.059 20.6157 134.962C20.4116 134.866 20.2487 134.705 20.127 134.479C20.0052 134.25 19.9443 133.942 19.9443 133.555V127.776H20.9487ZM26.4058 135V128.571C26.4058 127.948 26.5758 127.47 26.916 127.137C27.2598 126.804 27.7288 126.637 28.3232 126.637C28.4378 126.637 28.5524 126.644 28.667 126.659C28.7816 126.673 28.8944 126.694 29.0054 126.723L28.9517 127.523C28.8765 127.509 28.7905 127.498 28.6938 127.491C28.6007 127.484 28.5076 127.48 28.4146 127.48C28.0994 127.48 27.8524 127.575 27.6733 127.765C27.4979 127.951 27.4102 128.22 27.4102 128.571V135H26.4058ZM28.6455 129.946H25.4927V129.188H28.6455V129.946ZM33.168 131.015C33.168 130.667 33.0641 130.392 32.8564 130.188C32.6523 129.98 32.3498 129.876 31.9487 129.876C31.7017 129.876 31.4832 129.919 31.2935 130.005C31.1073 130.091 30.9622 130.204 30.8584 130.343C30.7546 130.483 30.7026 130.635 30.7026 130.8H29.6982C29.6982 130.521 29.7931 130.25 29.9829 129.989C30.1727 129.724 30.4395 129.507 30.7832 129.339C31.1305 129.167 31.5387 129.081 32.0078 129.081C32.4303 129.081 32.8045 129.153 33.1304 129.296C33.4562 129.439 33.7104 129.656 33.8931 129.946C34.0793 130.232 34.1724 130.592 34.1724 131.025V133.732C34.1724 133.926 34.1885 134.132 34.2207 134.35C34.2565 134.569 34.3084 134.757 34.3765 134.914V135H33.3291C33.279 134.885 33.2396 134.733 33.2109 134.543C33.1823 134.35 33.168 134.171 33.168 134.006V131.015ZM33.3506 132.175H32.3516C31.7858 132.175 31.349 132.264 31.041 132.443C30.7331 132.622 30.5791 132.891 30.5791 133.249C30.5791 133.528 30.6722 133.765 30.8584 133.958C31.0482 134.151 31.3239 134.248 31.6855 134.248C31.9899 134.248 32.2585 134.184 32.4912 134.055C32.724 133.926 32.9084 133.766 33.0444 133.577C33.1805 133.387 33.2539 133.204 33.2646 133.029L33.6943 133.507C33.6693 133.657 33.6012 133.824 33.4902 134.006C33.3792 134.189 33.2306 134.364 33.0444 134.533C32.8618 134.697 32.6434 134.835 32.3892 134.946C32.1385 135.054 31.8556 135.107 31.5405 135.107C31.1466 135.107 30.8011 135.032 30.5039 134.882C30.2103 134.728 29.9811 134.52 29.8164 134.259C29.6553 133.997 29.5747 133.707 29.5747 133.389C29.5747 132.762 29.811 132.288 30.2837 131.965C30.7563 131.639 31.3919 131.477 32.1904 131.477H33.3398L33.3506 132.175ZM39.1191 133.458C39.1191 133.315 39.0869 133.183 39.0225 133.061C38.9616 132.936 38.8363 132.823 38.6465 132.723C38.4567 132.619 38.1702 132.528 37.7871 132.449C37.3574 132.359 36.985 132.246 36.6699 132.11C36.3584 131.971 36.1167 131.793 35.9448 131.579C35.7765 131.364 35.6924 131.097 35.6924 130.778C35.6924 130.47 35.7801 130.189 35.9556 129.935C36.1346 129.677 36.3853 129.471 36.7075 129.317C37.0334 129.16 37.4129 129.081 37.8462 129.081C38.3117 129.081 38.7091 129.163 39.0386 129.328C39.3716 129.489 39.6258 129.708 39.8013 129.983C39.9767 130.256 40.0645 130.558 40.0645 130.891H39.0601C39.0601 130.651 38.9544 130.424 38.7432 130.209C38.5355 129.994 38.2365 129.887 37.8462 129.887C37.5741 129.887 37.3521 129.93 37.1802 130.016C37.0119 130.098 36.8883 130.205 36.8096 130.338C36.7344 130.467 36.6968 130.603 36.6968 130.746C36.6968 130.889 36.7326 131.015 36.8042 131.122C36.8758 131.226 37.0065 131.319 37.1963 131.401C37.3896 131.484 37.6689 131.566 38.0342 131.648C38.5104 131.756 38.9025 131.885 39.2104 132.035C39.5184 132.186 39.7476 132.37 39.8979 132.588C40.0483 132.807 40.1235 133.074 40.1235 133.389C40.1235 133.725 40.0304 134.024 39.8442 134.286C39.658 134.543 39.3966 134.746 39.0601 134.893C38.7235 135.036 38.3278 135.107 37.873 135.107C37.361 135.107 36.9277 135.016 36.5732 134.833C36.2188 134.651 35.9502 134.416 35.7676 134.13C35.585 133.84 35.4937 133.534 35.4937 133.211H36.498C36.516 133.484 36.5947 133.7 36.7344 133.861C36.8776 134.019 37.0513 134.132 37.2554 134.2C37.4631 134.268 37.6689 134.302 37.873 134.302C38.1452 134.302 38.3726 134.266 38.5552 134.194C38.7414 134.119 38.881 134.019 38.9741 133.894C39.0708 133.765 39.1191 133.62 39.1191 133.458ZM43.8618 129.946H40.7144V129.188H43.8618V129.946ZM42.7769 127.776V133.561C42.7769 133.761 42.8073 133.911 42.8682 134.012C42.929 134.112 43.0078 134.178 43.1045 134.21C43.2012 134.243 43.305 134.259 43.416 134.259C43.4984 134.259 43.5843 134.252 43.6738 134.237C43.7669 134.223 43.835 134.21 43.8779 134.2L43.8833 135C43.8045 135.025 43.7007 135.048 43.5718 135.07C43.4465 135.095 43.2943 135.107 43.1152 135.107C42.8717 135.107 42.6479 135.059 42.4438 134.962C42.2397 134.866 42.0768 134.705 41.9551 134.479C41.8333 134.25 41.7725 133.942 41.7725 133.555V127.776H42.7769ZM51.4028 130.306L51.4888 129.188H52.4072V137.234H51.4028V130.306ZM47.5034 132.046C47.5034 131.455 47.5947 130.938 47.7773 130.494C47.9635 130.046 48.2285 129.699 48.5723 129.452C48.9196 129.205 49.335 129.081 49.8184 129.081C50.3089 129.081 50.7189 129.194 51.0483 129.419C51.3813 129.641 51.641 129.958 51.8271 130.37C52.0169 130.782 52.1387 131.272 52.1924 131.842V132.363C52.1423 132.925 52.0223 133.412 51.8325 133.824C51.6463 134.232 51.3849 134.549 51.0483 134.774C50.7153 134.996 50.3018 135.107 49.8076 135.107C49.3314 135.107 48.9196 134.98 48.5723 134.726C48.2285 134.468 47.9635 134.117 47.7773 133.673C47.5947 133.229 47.5034 132.724 47.5034 132.159V132.046ZM48.5078 132.159C48.5078 132.545 48.5615 132.902 48.6689 133.228C48.7799 133.55 48.95 133.809 49.1792 134.006C49.4084 134.203 49.702 134.302 50.0601 134.302C50.3895 134.302 50.6616 134.23 50.8765 134.087C51.0949 133.94 51.2703 133.75 51.4028 133.518C51.5389 133.281 51.6427 133.029 51.7144 132.76V131.455C51.6714 131.258 51.6087 131.067 51.5264 130.88C51.444 130.694 51.3366 130.526 51.2041 130.375C51.0716 130.225 50.9105 130.107 50.7207 130.021C50.5345 129.931 50.3179 129.887 50.0708 129.887C49.7091 129.887 49.4119 129.987 49.1792 130.188C48.95 130.384 48.7799 130.648 48.6689 130.977C48.5615 131.303 48.5078 131.659 48.5078 132.046V132.159ZM57.5635 129.188H58.5679V135H57.6118L57.5635 133.657V129.188ZM58.1704 132.422C58.1704 132.938 58.097 133.398 57.9502 133.802C57.8034 134.207 57.5635 134.526 57.2305 134.758C56.8975 134.991 56.4517 135.107 55.8931 135.107C55.3237 135.107 54.8636 134.939 54.5127 134.603C54.1618 134.266 53.9863 133.711 53.9863 132.938V129.188H54.9907V132.948C54.9907 133.299 55.0409 133.571 55.1411 133.765C55.245 133.954 55.3774 134.087 55.5386 134.162C55.7033 134.234 55.8752 134.27 56.0542 134.27C56.4767 134.27 56.8115 134.189 57.0586 134.028C57.3057 133.863 57.4829 133.641 57.5903 133.362C57.6978 133.083 57.7515 132.773 57.7515 132.433L58.1704 132.422ZM59.8193 132.035C59.8193 131.473 59.9268 130.97 60.1416 130.526C60.3564 130.082 60.6608 129.731 61.0547 129.473C61.4486 129.212 61.9159 129.081 62.4565 129.081C63.0044 129.081 63.4771 129.212 63.8745 129.473C64.272 129.731 64.5763 130.082 64.7876 130.526C65.0024 130.97 65.1099 131.473 65.1099 132.035V132.159C65.1099 132.717 65.0024 133.22 64.7876 133.668C64.5763 134.112 64.272 134.463 63.8745 134.721C63.4806 134.979 63.0116 135.107 62.4673 135.107C61.923 135.107 61.4521 134.979 61.0547 134.721C60.6608 134.463 60.3564 134.112 60.1416 133.668C59.9268 133.22 59.8193 132.717 59.8193 132.159V132.035ZM60.8237 132.159C60.8237 132.542 60.8846 132.896 61.0063 133.222C61.1281 133.548 61.3089 133.809 61.5488 134.006C61.7923 134.203 62.0985 134.302 62.4673 134.302C62.8325 134.302 63.1351 134.203 63.375 134.006C63.6185 133.809 63.8011 133.548 63.9229 133.222C64.0446 132.896 64.1055 132.542 64.1055 132.159V132.035C64.1055 131.652 64.0446 131.298 63.9229 130.972C63.8011 130.646 63.6185 130.384 63.375 130.188C63.1315 129.987 62.8254 129.887 62.4565 129.887C62.0949 129.887 61.7923 129.987 61.5488 130.188C61.3053 130.384 61.1227 130.646 61.001 130.972C60.8828 131.298 60.8237 131.652 60.8237 132.035V132.159ZM68.8052 129.946H65.6577V129.188H68.8052V129.946ZM67.7202 127.776V133.561C67.7202 133.761 67.7507 133.911 67.8115 134.012C67.8724 134.112 67.9512 134.178 68.0479 134.21C68.1445 134.243 68.2484 134.259 68.3594 134.259C68.4417 134.259 68.5277 134.252 68.6172 134.237C68.7103 134.223 68.7783 134.21 68.8213 134.2L68.8267 135C68.7479 135.025 68.644 135.048 68.5151 135.07C68.3898 135.095 68.2376 135.107 68.0586 135.107C67.8151 135.107 67.5913 135.059 67.3872 134.962C67.1831 134.866 67.0202 134.705 66.8984 134.479C66.7767 134.25 66.7158 133.942 66.7158 133.555V127.776H67.7202ZM72.377 135.107C71.8363 135.107 71.3654 134.987 70.9644 134.748C70.5669 134.504 70.2572 134.171 70.0352 133.749C69.8167 133.326 69.7075 132.843 69.7075 132.298V132.067C69.7075 131.437 69.8275 130.9 70.0674 130.456C70.3109 130.008 70.626 129.668 71.0127 129.436C71.403 129.199 71.8148 129.081 72.248 129.081C72.8066 129.081 73.2614 129.206 73.6123 129.457C73.9668 129.704 74.2264 130.042 74.3911 130.472C74.5594 130.898 74.6436 131.382 74.6436 131.922V132.368H70.3037V131.562H73.6392V131.487C73.6248 131.229 73.5729 130.979 73.4834 130.735C73.3939 130.488 73.2507 130.286 73.0537 130.128C72.8568 129.967 72.5882 129.887 72.248 129.887C71.9473 129.887 71.6805 129.973 71.4478 130.145C71.2186 130.313 71.0378 130.56 70.9053 130.886C70.7764 131.208 70.7119 131.602 70.7119 132.067V132.298C70.7119 132.667 70.7799 133.004 70.916 133.308C71.0521 133.609 71.249 133.851 71.5068 134.033C71.7646 134.212 72.0726 134.302 72.4307 134.302C72.7816 134.302 73.0788 134.23 73.3223 134.087C73.5658 133.944 73.7788 133.752 73.9614 133.512L74.5684 133.985C74.3822 134.271 74.1136 134.531 73.7627 134.764C73.4154 134.993 72.9535 135.107 72.377 135.107ZM79.1875 133.458C79.1875 133.315 79.1553 133.183 79.0908 133.061C79.0299 132.936 78.9046 132.823 78.7148 132.723C78.5251 132.619 78.2386 132.528 77.8555 132.449C77.4258 132.359 77.0534 132.246 76.7383 132.11C76.4268 131.971 76.1851 131.793 76.0132 131.579C75.8449 131.364 75.7607 131.097 75.7607 130.778C75.7607 130.47 75.8485 130.189 76.0239 129.935C76.203 129.677 76.4536 129.471 76.7759 129.317C77.1017 129.16 77.4813 129.081 77.9146 129.081C78.38 129.081 78.7775 129.163 79.1069 129.328C79.4399 129.489 79.6942 129.708 79.8696 129.983C80.0451 130.256 80.1328 130.558 80.1328 130.891H79.1284C79.1284 130.651 79.0228 130.424 78.8115 130.209C78.6038 129.994 78.3049 129.887 77.9146 129.887C77.6424 129.887 77.4204 129.93 77.2485 130.016C77.0802 130.098 76.9567 130.205 76.8779 130.338C76.8027 130.467 76.7651 130.603 76.7651 130.746C76.7651 130.889 76.8009 131.015 76.8726 131.122C76.9442 131.226 77.0749 131.319 77.2646 131.401C77.458 131.484 77.7373 131.566 78.1025 131.648C78.5788 131.756 78.9709 131.885 79.2788 132.035C79.5868 132.186 79.8159 132.37 79.9663 132.588C80.1167 132.807 80.1919 133.074 80.1919 133.389C80.1919 133.725 80.0988 134.024 79.9126 134.286C79.7264 134.543 79.465 134.746 79.1284 134.893C78.7918 135.036 78.3962 135.107 77.9414 135.107C77.4294 135.107 76.9961 135.016 76.6416 134.833C76.2871 134.651 76.0186 134.416 75.8359 134.13C75.6533 133.84 75.562 133.534 75.562 133.211H76.5664C76.5843 133.484 76.6631 133.7 76.8027 133.861C76.946 134.019 77.1196 134.132 77.3237 134.2C77.5314 134.268 77.7373 134.302 77.9414 134.302C78.2135 134.302 78.4409 134.266 78.6235 134.194C78.8097 134.119 78.9494 134.019 79.0425 133.894C79.1392 133.765 79.1875 133.62 79.1875 133.458ZM84.7036 135V128.571C84.7036 127.948 84.8737 127.47 85.2139 127.137C85.5576 126.804 86.0267 126.637 86.6211 126.637C86.7357 126.637 86.8503 126.644 86.9648 126.659C87.0794 126.673 87.1922 126.694 87.3032 126.723L87.2495 127.523C87.1743 127.509 87.0884 127.498 86.9917 127.491C86.8986 127.484 86.8055 127.48 86.7124 127.48C86.3973 127.48 86.1502 127.575 85.9712 127.765C85.7957 127.951 85.708 128.22 85.708 128.571V135H84.7036ZM86.9434 129.946H83.7905V129.188H86.9434V129.946ZM87.7812 132.035C87.7812 131.473 87.8887 130.97 88.1035 130.526C88.3184 130.082 88.6227 129.731 89.0166 129.473C89.4105 129.212 89.8778 129.081 90.4185 129.081C90.9663 129.081 91.439 129.212 91.8364 129.473C92.2339 129.731 92.5382 130.082 92.7495 130.526C92.9644 130.97 93.0718 131.473 93.0718 132.035V132.159C93.0718 132.717 92.9644 133.22 92.7495 133.668C92.5382 134.112 92.2339 134.463 91.8364 134.721C91.4425 134.979 90.9735 135.107 90.4292 135.107C89.8849 135.107 89.4141 134.979 89.0166 134.721C88.6227 134.463 88.3184 134.112 88.1035 133.668C87.8887 133.22 87.7812 132.717 87.7812 132.159V132.035ZM88.7856 132.159C88.7856 132.542 88.8465 132.896 88.9683 133.222C89.09 133.548 89.2708 133.809 89.5107 134.006C89.7542 134.203 90.0604 134.302 90.4292 134.302C90.7944 134.302 91.097 134.203 91.3369 134.006C91.5804 133.809 91.763 133.548 91.8848 133.222C92.0065 132.896 92.0674 132.542 92.0674 132.159V132.035C92.0674 131.652 92.0065 131.298 91.8848 130.972C91.763 130.646 91.5804 130.384 91.3369 130.188C91.0934 129.987 90.7873 129.887 90.4185 129.887C90.0568 129.887 89.7542 129.987 89.5107 130.188C89.2673 130.384 89.0846 130.646 88.9629 130.972C88.8447 131.298 88.7856 131.652 88.7856 132.035V132.159ZM95.3276 135H94.3232V129.188H95.3008L95.3276 130.102V135ZM97.1377 130.075C97.0518 130.057 96.9712 130.046 96.896 130.042C96.8244 130.035 96.742 130.032 96.6489 130.032C96.3446 130.032 96.0868 130.094 95.8755 130.22C95.6678 130.345 95.5067 130.519 95.3921 130.741C95.2775 130.959 95.2059 131.21 95.1772 131.493L94.8926 131.654C94.8926 131.185 94.9552 130.757 95.0806 130.37C95.2059 129.98 95.401 129.668 95.666 129.436C95.9346 129.199 96.2783 129.081 96.6973 129.081C96.7653 129.081 96.8459 129.09 96.939 129.108C97.0356 129.122 97.1019 129.138 97.1377 129.156V130.075ZM102.278 127.18L104.829 133.571L107.38 127.18H108.396L105.221 135H104.432L101.263 127.18H102.278ZM101.827 127.18L101.972 131.944V135H100.935V127.18H101.827ZM108.723 127.18V135H107.687V131.944L107.832 127.18H108.723ZM112.811 135.107C112.27 135.107 111.799 134.987 111.398 134.748C111 134.504 110.691 134.171 110.469 133.749C110.25 133.326 110.141 132.843 110.141 132.298V132.067C110.141 131.437 110.261 130.9 110.501 130.456C110.744 130.008 111.06 129.668 111.446 129.436C111.837 129.199 112.248 129.081 112.682 129.081C113.24 129.081 113.695 129.206 114.046 129.457C114.4 129.704 114.66 130.042 114.825 130.472C114.993 130.898 115.077 131.382 115.077 131.922V132.368H110.737V131.562H114.073V131.487C114.058 131.229 114.007 130.979 113.917 130.735C113.827 130.488 113.684 130.286 113.487 130.128C113.29 129.967 113.022 129.887 112.682 129.887C112.381 129.887 112.114 129.973 111.881 130.145C111.652 130.313 111.471 130.56 111.339 130.886C111.21 131.208 111.146 131.602 111.146 132.067V132.298C111.146 132.667 111.214 133.004 111.35 133.308C111.486 133.609 111.683 133.851 111.94 134.033C112.198 134.212 112.506 134.302 112.864 134.302C113.215 134.302 113.512 134.23 113.756 134.087C113.999 133.944 114.212 133.752 114.395 133.512L115.002 133.985C114.816 134.271 114.547 134.531 114.196 134.764C113.849 134.993 113.387 135.107 112.811 135.107ZM117.242 135H116.237V129.188H117.215L117.242 130.102V135ZM119.052 130.075C118.966 130.057 118.885 130.046 118.81 130.042C118.738 130.035 118.656 130.032 118.563 130.032C118.259 130.032 118.001 130.094 117.79 130.22C117.582 130.345 117.421 130.519 117.306 130.741C117.192 130.959 117.12 131.21 117.091 131.493L116.807 131.654C116.807 131.185 116.869 130.757 116.995 130.37C117.12 129.98 117.315 129.668 117.58 129.436C117.849 129.199 118.192 129.081 118.611 129.081C118.679 129.081 118.76 129.09 118.853 129.108C118.95 129.122 119.016 129.138 119.052 129.156V130.075ZM122.188 134.302C122.425 134.302 122.643 134.253 122.844 134.157C123.044 134.056 123.209 133.92 123.338 133.749C123.467 133.577 123.54 133.382 123.558 133.163H124.509C124.491 133.507 124.375 133.827 124.16 134.125C123.945 134.418 123.666 134.656 123.322 134.839C122.978 135.018 122.6 135.107 122.188 135.107C121.605 135.107 121.121 134.975 120.738 134.71C120.355 134.441 120.069 134.087 119.879 133.646C119.693 133.206 119.6 132.726 119.6 132.207V131.981C119.6 131.459 119.694 130.979 119.884 130.542C120.074 130.102 120.361 129.749 120.744 129.484C121.127 129.215 121.608 129.081 122.188 129.081C122.643 129.081 123.041 129.174 123.381 129.36C123.725 129.543 123.993 129.794 124.187 130.112C124.383 130.427 124.491 130.785 124.509 131.187H123.558C123.54 130.947 123.472 130.728 123.354 130.531C123.239 130.334 123.082 130.179 122.881 130.064C122.684 129.946 122.453 129.887 122.188 129.887C121.784 129.887 121.465 129.991 121.232 130.198C121.003 130.406 120.84 130.671 120.744 130.993C120.651 131.312 120.604 131.641 120.604 131.981V132.207C120.604 132.547 120.651 132.878 120.744 133.201C120.837 133.523 120.998 133.788 121.227 133.996C121.46 134.2 121.78 134.302 122.188 134.302ZM126.63 135H125.626V126.75H126.63V135ZM125.975 131.853C125.982 131.323 126.084 130.85 126.281 130.435C126.478 130.016 126.752 129.686 127.103 129.446C127.458 129.203 127.869 129.081 128.338 129.081C128.722 129.081 129.051 129.153 129.327 129.296C129.606 129.436 129.821 129.659 129.971 129.967C130.125 130.275 130.202 130.683 130.202 131.192V135H129.198V131.181C129.198 130.877 129.153 130.632 129.063 130.445C128.978 130.259 128.849 130.125 128.677 130.042C128.505 129.957 128.294 129.914 128.043 129.914C127.796 129.914 127.572 129.965 127.372 130.069C127.171 130.173 126.997 130.316 126.851 130.499C126.704 130.682 126.591 130.891 126.512 131.127C126.433 131.36 126.394 131.607 126.394 131.869L125.975 131.853ZM135.111 131.015C135.111 130.667 135.007 130.392 134.8 130.188C134.596 129.98 134.293 129.876 133.892 129.876C133.645 129.876 133.427 129.919 133.237 130.005C133.051 130.091 132.906 130.204 132.802 130.343C132.698 130.483 132.646 130.635 132.646 130.8H131.642C131.642 130.521 131.736 130.25 131.926 129.989C132.116 129.724 132.383 129.507 132.727 129.339C133.074 129.167 133.482 129.081 133.951 129.081C134.374 129.081 134.748 129.153 135.074 129.296C135.4 129.439 135.654 129.656 135.836 129.946C136.023 130.232 136.116 130.592 136.116 131.025V133.732C136.116 133.926 136.132 134.132 136.164 134.35C136.2 134.569 136.252 134.757 136.32 134.914V135H135.272C135.222 134.885 135.183 134.733 135.154 134.543C135.126 134.35 135.111 134.171 135.111 134.006V131.015ZM135.294 132.175H134.295C133.729 132.175 133.292 132.264 132.984 132.443C132.676 132.622 132.522 132.891 132.522 133.249C132.522 133.528 132.616 133.765 132.802 133.958C132.992 134.151 133.267 134.248 133.629 134.248C133.933 134.248 134.202 134.184 134.435 134.055C134.667 133.926 134.852 133.766 134.988 133.577C135.124 133.387 135.197 133.204 135.208 133.029L135.638 133.507C135.613 133.657 135.545 133.824 135.434 134.006C135.323 134.189 135.174 134.364 134.988 134.533C134.805 134.697 134.587 134.835 134.333 134.946C134.082 135.054 133.799 135.107 133.484 135.107C133.09 135.107 132.744 135.032 132.447 134.882C132.154 134.728 131.924 134.52 131.76 134.259C131.599 133.997 131.518 133.707 131.518 133.389C131.518 132.762 131.754 132.288 132.227 131.965C132.7 131.639 133.335 131.477 134.134 131.477H135.283L135.294 132.175ZM138.683 135H137.679V129.188H138.629L138.683 130.429V135ZM138.028 131.853C138.035 131.323 138.137 130.85 138.334 130.435C138.531 130.016 138.805 129.686 139.156 129.446C139.51 129.203 139.922 129.081 140.391 129.081C140.774 129.081 141.104 129.153 141.379 129.296C141.659 129.436 141.874 129.659 142.024 129.967C142.178 130.275 142.255 130.683 142.255 131.192V135H141.25V131.181C141.25 130.877 141.206 130.632 141.116 130.445C141.03 130.259 140.901 130.125 140.729 130.042C140.558 129.957 140.346 129.914 140.096 129.914C139.849 129.914 139.625 129.965 139.424 130.069C139.224 130.173 139.05 130.316 138.903 130.499C138.757 130.682 138.644 130.891 138.565 131.127C138.486 131.36 138.447 131.607 138.447 131.869L138.028 131.853ZM147.422 126.75H148.426V135H147.508L147.422 133.872V126.75ZM143.517 132.046C143.517 131.455 143.612 130.938 143.802 130.494C143.995 130.046 144.264 129.699 144.607 129.452C144.951 129.205 145.354 129.081 145.816 129.081C146.303 129.081 146.709 129.194 147.035 129.419C147.361 129.641 147.615 129.958 147.798 130.37C147.984 130.782 148.104 131.272 148.158 131.842V132.363C148.104 132.925 147.986 133.412 147.803 133.824C147.621 134.232 147.365 134.549 147.035 134.774C146.709 134.996 146.299 135.107 145.805 135.107C145.35 135.107 144.951 134.98 144.607 134.726C144.264 134.468 143.995 134.117 143.802 133.673C143.612 133.229 143.517 132.724 143.517 132.159V132.046ZM144.521 132.159C144.521 132.545 144.573 132.898 144.677 133.217C144.785 133.535 144.951 133.792 145.177 133.985C145.402 134.175 145.694 134.27 146.052 134.27C146.382 134.27 146.652 134.2 146.863 134.06C147.078 133.92 147.25 133.736 147.379 133.507C147.508 133.278 147.608 133.029 147.68 132.76V131.455C147.637 131.258 147.574 131.068 147.492 130.886C147.413 130.7 147.309 130.535 147.18 130.392C147.055 130.245 146.899 130.128 146.713 130.042C146.53 129.957 146.314 129.914 146.063 129.914C145.701 129.914 145.406 130.01 145.177 130.204C144.951 130.397 144.785 130.657 144.677 130.982C144.573 131.305 144.521 131.659 144.521 132.046V132.159ZM151.058 135H150.054V129.188H151.058V135ZM149.979 127.642C149.979 127.484 150.027 127.35 150.124 127.239C150.224 127.128 150.371 127.072 150.564 127.072C150.757 127.072 150.904 127.128 151.004 127.239C151.108 127.35 151.16 127.484 151.16 127.642C151.16 127.796 151.108 127.928 151.004 128.039C150.904 128.146 150.757 128.2 150.564 128.2C150.371 128.2 150.224 128.146 150.124 128.039C150.027 127.928 149.979 127.796 149.979 127.642ZM156.026 133.458C156.026 133.315 155.994 133.183 155.93 133.061C155.869 132.936 155.743 132.823 155.554 132.723C155.364 132.619 155.077 132.528 154.694 132.449C154.265 132.359 153.892 132.246 153.577 132.11C153.266 131.971 153.024 131.793 152.852 131.579C152.684 131.364 152.6 131.097 152.6 130.778C152.6 130.47 152.687 130.189 152.863 129.935C153.042 129.677 153.292 129.471 153.615 129.317C153.941 129.16 154.32 129.081 154.753 129.081C155.219 129.081 155.616 129.163 155.946 129.328C156.279 129.489 156.533 129.708 156.708 129.983C156.884 130.256 156.972 130.558 156.972 130.891H155.967C155.967 130.651 155.862 130.424 155.65 130.209C155.443 129.994 155.144 129.887 154.753 129.887C154.481 129.887 154.259 129.93 154.087 130.016C153.919 130.098 153.796 130.205 153.717 130.338C153.642 130.467 153.604 130.603 153.604 130.746C153.604 130.889 153.64 131.015 153.711 131.122C153.783 131.226 153.914 131.319 154.104 131.401C154.297 131.484 154.576 131.566 154.941 131.648C155.418 131.756 155.81 131.885 156.118 132.035C156.426 132.186 156.655 132.37 156.805 132.588C156.956 132.807 157.031 133.074 157.031 133.389C157.031 133.725 156.938 134.024 156.751 134.286C156.565 134.543 156.304 134.746 155.967 134.893C155.631 135.036 155.235 135.107 154.78 135.107C154.268 135.107 153.835 135.016 153.48 134.833C153.126 134.651 152.857 134.416 152.675 134.13C152.492 133.84 152.401 133.534 152.401 133.211H153.405C153.423 133.484 153.502 133.7 153.642 133.861C153.785 134.019 153.958 134.132 154.163 134.2C154.37 134.268 154.576 134.302 154.78 134.302C155.052 134.302 155.28 134.266 155.462 134.194C155.649 134.119 155.788 134.019 155.881 133.894C155.978 133.765 156.026 133.62 156.026 133.458ZM160.742 135.107C160.201 135.107 159.731 134.987 159.33 134.748C158.932 134.504 158.622 134.171 158.4 133.749C158.182 133.326 158.073 132.843 158.073 132.298V132.067C158.073 131.437 158.193 130.9 158.433 130.456C158.676 130.008 158.991 129.668 159.378 129.436C159.768 129.199 160.18 129.081 160.613 129.081C161.172 129.081 161.627 129.206 161.978 129.457C162.332 129.704 162.592 130.042 162.756 130.472C162.925 130.898 163.009 131.382 163.009 131.922V132.368H158.669V131.562H162.004V131.487C161.99 131.229 161.938 130.979 161.849 130.735C161.759 130.488 161.616 130.286 161.419 130.128C161.222 129.967 160.953 129.887 160.613 129.887C160.312 129.887 160.046 129.973 159.813 130.145C159.584 130.313 159.403 130.56 159.271 130.886C159.142 131.208 159.077 131.602 159.077 132.067V132.298C159.077 132.667 159.145 133.004 159.281 133.308C159.417 133.609 159.614 133.851 159.872 134.033C160.13 134.212 160.438 134.302 160.796 134.302C161.147 134.302 161.444 134.23 161.688 134.087C161.931 133.944 162.144 133.752 162.327 133.512L162.934 133.985C162.747 134.271 162.479 134.531 162.128 134.764C161.781 134.993 161.319 135.107 160.742 135.107ZM169.862 129.188H170.523L170.394 130.145L168.874 135H168.235L168.369 133.958L169.862 129.188ZM168.648 134.012L168.734 135H168.063L166.376 129.188H167.375L168.648 134.012ZM173.16 129.188H174.154L172.467 135H171.801L171.946 133.979L173.16 129.188ZM172.134 133.883L172.295 135H171.656L170.093 130.134L169.97 129.188H170.673L172.134 133.883ZM176.259 135H175.255V129.188H176.259V135ZM175.18 127.642C175.18 127.484 175.228 127.35 175.325 127.239C175.425 127.128 175.572 127.072 175.765 127.072C175.958 127.072 176.105 127.128 176.206 127.239C176.309 127.35 176.361 127.484 176.361 127.642C176.361 127.796 176.309 127.928 176.206 128.039C176.105 128.146 175.958 128.2 175.765 128.2C175.572 128.2 175.425 128.146 175.325 128.039C175.228 127.928 175.18 127.796 175.18 127.642ZM180.288 129.946H177.14V129.188H180.288V129.946ZM179.203 127.776V133.561C179.203 133.761 179.233 133.911 179.294 134.012C179.355 134.112 179.434 134.178 179.53 134.21C179.627 134.243 179.731 134.259 179.842 134.259C179.924 134.259 180.01 134.252 180.1 134.237C180.193 134.223 180.261 134.21 180.304 134.2L180.309 135C180.23 135.025 180.126 135.048 179.998 135.07C179.872 135.095 179.72 135.107 179.541 135.107C179.298 135.107 179.074 135.059 178.87 134.962C178.666 134.866 178.503 134.705 178.381 134.479C178.259 134.25 178.198 133.942 178.198 133.555V127.776H179.203ZM182.447 135H181.442V126.75H182.447V135ZM181.792 131.853C181.799 131.323 181.901 130.85 182.098 130.435C182.295 130.016 182.569 129.686 182.919 129.446C183.274 129.203 183.686 129.081 184.155 129.081C184.538 129.081 184.867 129.153 185.143 129.296C185.422 129.436 185.637 129.659 185.788 129.967C185.942 130.275 186.019 130.683 186.019 131.192V135H185.014V131.181C185.014 130.877 184.969 130.632 184.88 130.445C184.794 130.259 184.665 130.125 184.493 130.042C184.321 129.957 184.11 129.914 183.859 129.914C183.612 129.914 183.389 129.965 183.188 130.069C182.987 130.173 182.814 130.316 182.667 130.499C182.52 130.682 182.407 130.891 182.329 131.127C182.25 131.36 182.21 131.607 182.21 131.869L181.792 131.853ZM188.591 135H187.587V129.188H188.591V135ZM187.512 127.642C187.512 127.484 187.56 127.35 187.657 127.239C187.757 127.128 187.904 127.072 188.097 127.072C188.291 127.072 188.437 127.128 188.538 127.239C188.641 127.35 188.693 127.484 188.693 127.642C188.693 127.796 188.641 127.928 188.538 128.039C188.437 128.146 188.291 128.2 188.097 128.2C187.904 128.2 187.757 128.146 187.657 128.039C187.56 127.928 187.512 127.796 187.512 127.642ZM191.18 135H190.176V129.188H191.126L191.18 130.429V135ZM190.525 131.853C190.532 131.323 190.634 130.85 190.831 130.435C191.028 130.016 191.302 129.686 191.653 129.446C192.007 129.203 192.419 129.081 192.888 129.081C193.271 129.081 193.601 129.153 193.876 129.296C194.156 129.436 194.371 129.659 194.521 129.967C194.675 130.275 194.752 130.683 194.752 131.192V135H193.748V131.181C193.748 130.877 193.703 130.632 193.613 130.445C193.527 130.259 193.398 130.125 193.227 130.042C193.055 129.957 192.843 129.914 192.593 129.914C192.346 129.914 192.122 129.965 191.921 130.069C191.721 130.173 191.547 130.316 191.4 130.499C191.254 130.682 191.141 130.891 191.062 131.127C190.983 131.36 190.944 131.607 190.944 131.869L190.525 131.853ZM68.0854 148H62.9561V147.291L65.5181 144.439C65.8368 144.088 66.082 143.791 66.2539 143.547C66.4294 143.3 66.5511 143.078 66.6191 142.881C66.6872 142.684 66.7212 142.484 66.7212 142.28C66.7212 141.893 66.603 141.564 66.3667 141.292C66.134 141.016 65.8009 140.878 65.3677 140.878C65.0168 140.878 64.7249 140.946 64.4922 141.082C64.263 141.218 64.0911 141.406 63.9766 141.646C63.8656 141.886 63.8101 142.163 63.8101 142.479H62.8057C62.8057 142.038 62.9023 141.635 63.0957 141.27C63.2891 140.905 63.5755 140.615 63.9551 140.4C64.3382 140.181 64.8091 140.072 65.3677 140.072C66.1053 140.072 66.6818 140.264 67.0972 140.647C67.5161 141.03 67.7256 141.535 67.7256 142.162C67.7256 142.47 67.6593 142.779 67.5269 143.091C67.3944 143.402 67.2171 143.712 66.9951 144.02C66.7731 144.324 66.5278 144.622 66.2593 144.912L64.1646 147.194H68.0854V148ZM74.939 142.188H75.5996L75.4707 143.145L73.9507 148H73.3115L73.4458 146.958L74.939 142.188ZM73.7251 147.012L73.811 148H73.1396L71.4531 142.188H72.4521L73.7251 147.012ZM78.2368 142.188H79.2305L77.5439 148H76.8779L77.0229 146.979L78.2368 142.188ZM77.2109 146.883L77.3721 148H76.7329L75.1699 143.134L75.0464 142.188H75.75L77.2109 146.883ZM79.9878 145.035C79.9878 144.473 80.0952 143.97 80.3101 143.526C80.5249 143.082 80.8293 142.731 81.2231 142.473C81.617 142.212 82.0843 142.081 82.625 142.081C83.1729 142.081 83.6455 142.212 84.043 142.473C84.4404 142.731 84.7448 143.082 84.9561 143.526C85.1709 143.97 85.2783 144.473 85.2783 145.035V145.159C85.2783 145.717 85.1709 146.22 84.9561 146.668C84.7448 147.112 84.4404 147.463 84.043 147.721C83.6491 147.979 83.18 148.107 82.6357 148.107C82.0915 148.107 81.6206 147.979 81.2231 147.721C80.8293 147.463 80.5249 147.112 80.3101 146.668C80.0952 146.22 79.9878 145.717 79.9878 145.159V145.035ZM80.9922 145.159C80.9922 145.542 81.0531 145.896 81.1748 146.222C81.2965 146.548 81.4774 146.809 81.7173 147.006C81.9608 147.203 82.2669 147.302 82.6357 147.302C83.001 147.302 83.3035 147.203 83.5435 147.006C83.7869 146.809 83.9696 146.548 84.0913 146.222C84.2131 145.896 84.2739 145.542 84.2739 145.159V145.035C84.2739 144.652 84.2131 144.298 84.0913 143.972C83.9696 143.646 83.7869 143.384 83.5435 143.188C83.3 142.987 82.9938 142.887 82.625 142.887C82.2633 142.887 81.9608 142.987 81.7173 143.188C81.4738 143.384 81.2912 143.646 81.1694 143.972C81.0513 144.298 80.9922 144.652 80.9922 145.035V145.159ZM87.5342 148H86.5298V142.188H87.5073L87.5342 143.102V148ZM89.3442 143.075C89.2583 143.057 89.1777 143.046 89.1025 143.042C89.0309 143.035 88.9486 143.032 88.8555 143.032C88.5511 143.032 88.2933 143.094 88.082 143.22C87.8743 143.345 87.7132 143.519 87.5986 143.741C87.484 143.959 87.4124 144.21 87.3838 144.493L87.0991 144.654C87.0991 144.185 87.1618 143.757 87.2871 143.37C87.4124 142.98 87.6076 142.668 87.8726 142.436C88.1411 142.199 88.4849 142.081 88.9038 142.081C88.9718 142.081 89.0524 142.09 89.1455 142.108C89.2422 142.122 89.3084 142.138 89.3442 142.156V143.075ZM91.2671 148H90.2627V139.75H91.2671V148ZM92.2876 144.896L90.8589 146.367L90.7783 145.314L91.7988 144.106L93.5928 142.188H94.812L92.2876 144.896ZM91.8311 145.223L92.3521 144.342L95.0806 148H93.8989L91.8311 145.223ZM96.9336 148H95.9292V142.188H96.9336V148ZM95.854 140.642C95.854 140.484 95.9023 140.35 95.999 140.239C96.0993 140.128 96.2461 140.072 96.4395 140.072C96.6328 140.072 96.7796 140.128 96.8799 140.239C96.9837 140.35 97.0356 140.484 97.0356 140.642C97.0356 140.796 96.9837 140.928 96.8799 141.039C96.7796 141.146 96.6328 141.2 96.4395 141.2C96.2461 141.2 96.0993 141.146 95.999 141.039C95.9023 140.928 95.854 140.796 95.854 140.642ZM99.5225 148H98.5181V142.188H99.4688L99.5225 143.429V148ZM98.8672 144.853C98.8743 144.323 98.9764 143.85 99.1733 143.435C99.3703 143.016 99.6442 142.686 99.9951 142.446C100.35 142.203 100.761 142.081 101.23 142.081C101.614 142.081 101.943 142.153 102.219 142.296C102.498 142.436 102.713 142.659 102.863 142.967C103.017 143.275 103.094 143.683 103.094 144.192V148H102.09V144.181C102.09 143.877 102.045 143.632 101.956 143.445C101.87 143.259 101.741 143.125 101.569 143.042C101.397 142.957 101.186 142.914 100.935 142.914C100.688 142.914 100.464 142.965 100.264 143.069C100.063 143.173 99.8895 143.316 99.7427 143.499C99.5959 143.682 99.4831 143.891 99.4043 144.127C99.3255 144.36 99.2861 144.607 99.2861 144.869L98.8672 144.853ZM109.276 142.188V147.876C109.276 148.389 109.171 148.825 108.959 149.187C108.752 149.549 108.462 149.823 108.089 150.009C107.721 150.199 107.294 150.293 106.811 150.293C106.611 150.293 106.374 150.261 106.102 150.197C105.833 150.136 105.569 150.03 105.307 149.88C105.049 149.733 104.833 149.534 104.657 149.284L105.178 148.698C105.422 148.992 105.676 149.196 105.941 149.311C106.209 149.429 106.474 149.488 106.736 149.488C107.205 149.488 107.577 149.354 107.853 149.085C108.132 148.82 108.272 148.433 108.272 147.925V143.467L108.363 142.188H109.276ZM104.362 145.046C104.362 144.455 104.455 143.938 104.641 143.494C104.827 143.046 105.092 142.699 105.436 142.452C105.78 142.205 106.188 142.081 106.661 142.081C107.026 142.081 107.345 142.146 107.617 142.274C107.892 142.4 108.125 142.582 108.315 142.822C108.508 143.062 108.66 143.352 108.771 143.692C108.886 144.033 108.965 144.416 109.008 144.842V145.363C108.954 145.925 108.834 146.412 108.648 146.824C108.465 147.232 108.209 147.549 107.88 147.774C107.55 147.996 107.14 148.107 106.65 148.107C106.184 148.107 105.78 147.98 105.436 147.726C105.096 147.468 104.831 147.117 104.641 146.673C104.455 146.229 104.362 145.724 104.362 145.159V145.046ZM105.366 145.159C105.366 145.545 105.418 145.898 105.522 146.217C105.629 146.535 105.796 146.792 106.021 146.985C106.247 147.175 106.539 147.27 106.897 147.27C107.226 147.27 107.497 147.2 107.708 147.06C107.919 146.92 108.089 146.736 108.218 146.507C108.347 146.278 108.447 146.029 108.519 145.76V144.455C108.476 144.258 108.415 144.068 108.336 143.886C108.258 143.7 108.154 143.535 108.025 143.392C107.896 143.245 107.738 143.128 107.552 143.042C107.37 142.957 107.155 142.914 106.908 142.914C106.546 142.914 106.251 143.01 106.021 143.204C105.796 143.397 105.629 143.657 105.522 143.982C105.418 144.305 105.366 144.659 105.366 145.046V145.159ZM117.167 139.75H118.171V148H117.252L117.167 146.872V139.75ZM113.262 145.046C113.262 144.455 113.357 143.938 113.546 143.494C113.74 143.046 114.008 142.699 114.352 142.452C114.696 142.205 115.099 142.081 115.561 142.081C116.048 142.081 116.454 142.194 116.78 142.419C117.106 142.641 117.36 142.958 117.542 143.37C117.729 143.782 117.849 144.272 117.902 144.842V145.363C117.849 145.925 117.73 146.412 117.548 146.824C117.365 147.232 117.109 147.549 116.78 147.774C116.454 147.996 116.044 148.107 115.55 148.107C115.095 148.107 114.696 147.98 114.352 147.726C114.008 147.468 113.74 147.117 113.546 146.673C113.357 146.229 113.262 145.724 113.262 145.159V145.046ZM114.266 145.159C114.266 145.545 114.318 145.898 114.422 146.217C114.529 146.535 114.696 146.792 114.921 146.985C115.147 147.175 115.439 147.27 115.797 147.27C116.126 147.27 116.397 147.2 116.608 147.06C116.823 146.92 116.995 146.736 117.124 146.507C117.252 146.278 117.353 146.029 117.424 145.76V144.455C117.381 144.258 117.319 144.068 117.236 143.886C117.158 143.7 117.054 143.535 116.925 143.392C116.799 143.245 116.644 143.128 116.458 143.042C116.275 142.957 116.058 142.914 115.808 142.914C115.446 142.914 115.151 143.01 114.921 143.204C114.696 143.397 114.529 143.657 114.422 143.982C114.318 144.305 114.266 144.659 114.266 145.046V145.159ZM123.139 144.015C123.139 143.667 123.035 143.392 122.828 143.188C122.624 142.98 122.321 142.876 121.92 142.876C121.673 142.876 121.454 142.919 121.265 143.005C121.078 143.091 120.933 143.204 120.83 143.343C120.726 143.483 120.674 143.635 120.674 143.8H119.669C119.669 143.521 119.764 143.25 119.954 142.989C120.144 142.724 120.411 142.507 120.754 142.339C121.102 142.167 121.51 142.081 121.979 142.081C122.402 142.081 122.776 142.153 123.102 142.296C123.427 142.439 123.682 142.656 123.864 142.946C124.05 143.232 124.144 143.592 124.144 144.025V146.732C124.144 146.926 124.16 147.132 124.192 147.35C124.228 147.569 124.28 147.757 124.348 147.914V148H123.3C123.25 147.885 123.211 147.733 123.182 147.543C123.153 147.35 123.139 147.171 123.139 147.006V144.015ZM123.322 145.175H122.323C121.757 145.175 121.32 145.264 121.012 145.443C120.704 145.622 120.55 145.891 120.55 146.249C120.55 146.528 120.643 146.765 120.83 146.958C121.019 147.151 121.295 147.248 121.657 147.248C121.961 147.248 122.23 147.184 122.462 147.055C122.695 146.926 122.88 146.766 123.016 146.577C123.152 146.387 123.225 146.204 123.236 146.029L123.666 146.507C123.64 146.657 123.572 146.824 123.461 147.006C123.35 147.189 123.202 147.364 123.016 147.533C122.833 147.697 122.615 147.835 122.36 147.946C122.11 148.054 121.827 148.107 121.512 148.107C121.118 148.107 120.772 148.032 120.475 147.882C120.181 147.728 119.952 147.52 119.788 147.259C119.626 146.997 119.546 146.707 119.546 146.389C119.546 145.762 119.782 145.288 120.255 144.965C120.728 144.639 121.363 144.477 122.162 144.477H123.311L123.322 145.175ZM128.956 142.188H130.025L127.694 148.897C127.64 149.04 127.569 149.194 127.479 149.359C127.393 149.527 127.282 149.687 127.146 149.837C127.014 149.987 126.851 150.109 126.657 150.202C126.464 150.299 126.235 150.347 125.97 150.347C125.916 150.347 125.852 150.342 125.776 150.331C125.701 150.32 125.63 150.308 125.562 150.293C125.493 150.283 125.442 150.272 125.406 150.261V149.461C125.434 149.465 125.479 149.47 125.54 149.477C125.604 149.484 125.649 149.488 125.674 149.488C126.011 149.488 126.274 149.418 126.464 149.278C126.654 149.139 126.808 148.89 126.926 148.532L127.339 147.398L128.956 142.188ZM127.667 146.706L127.925 147.753L127.205 148.113L125.073 142.188H126.168L127.667 146.706ZM134.3 146.458C134.3 146.315 134.268 146.183 134.204 146.061C134.143 145.936 134.017 145.823 133.828 145.723C133.638 145.619 133.351 145.528 132.968 145.449C132.539 145.359 132.166 145.246 131.851 145.11C131.54 144.971 131.298 144.793 131.126 144.579C130.958 144.364 130.874 144.097 130.874 143.778C130.874 143.47 130.961 143.189 131.137 142.935C131.316 142.677 131.566 142.471 131.889 142.317C132.215 142.16 132.594 142.081 133.027 142.081C133.493 142.081 133.89 142.163 134.22 142.328C134.553 142.489 134.807 142.708 134.982 142.983C135.158 143.256 135.246 143.558 135.246 143.891H134.241C134.241 143.651 134.136 143.424 133.924 143.209C133.717 142.994 133.418 142.887 133.027 142.887C132.755 142.887 132.533 142.93 132.361 143.016C132.193 143.098 132.069 143.205 131.991 143.338C131.916 143.467 131.878 143.603 131.878 143.746C131.878 143.889 131.914 144.015 131.985 144.122C132.057 144.226 132.188 144.319 132.377 144.401C132.571 144.484 132.85 144.566 133.215 144.648C133.692 144.756 134.084 144.885 134.392 145.035C134.7 145.186 134.929 145.37 135.079 145.588C135.229 145.807 135.305 146.074 135.305 146.389C135.305 146.725 135.212 147.024 135.025 147.286C134.839 147.543 134.578 147.746 134.241 147.893C133.905 148.036 133.509 148.107 133.054 148.107C132.542 148.107 132.109 148.016 131.754 147.833C131.4 147.651 131.131 147.416 130.949 147.13C130.766 146.84 130.675 146.534 130.675 146.211H131.679C131.697 146.484 131.776 146.7 131.916 146.861C132.059 147.019 132.232 147.132 132.437 147.2C132.644 147.268 132.85 147.302 133.054 147.302C133.326 147.302 133.554 147.266 133.736 147.194C133.923 147.119 134.062 147.019 134.155 146.894C134.252 146.765 134.3 146.62 134.3 146.458ZM137.722 145.792H136.819L136.744 140.18H137.797L137.722 145.792ZM136.712 147.5C136.712 147.343 136.76 147.209 136.857 147.098C136.957 146.987 137.104 146.931 137.297 146.931C137.491 146.931 137.638 146.987 137.738 147.098C137.842 147.209 137.894 147.343 137.894 147.5C137.894 147.658 137.842 147.791 137.738 147.898C137.638 148.005 137.491 148.059 137.297 148.059C137.104 148.059 136.957 148.005 136.857 147.898C136.76 147.791 136.712 147.658 136.712 147.5Z" fill="white"/>
</svg>
