<svg width="32" height="32" viewBox="0 0 32 32" fill="none" xmlns="http://www.w3.org/2000/svg">
<path fill-rule="evenodd" clip-rule="evenodd" d="M26 0C29.3137 0 32 2.68629 32 6V26C32 29.3137 29.3137 32 26 32H6C2.68629 32 0 29.3137 0 26L0 6C0 2.68629 2.68629 0 6 0L26 0ZM17 8C16.8058 8 16.5 8 16.5 8H16H15.5H15C14.7283 8 14.3868 8.03485 14.1358 8.13896C13.8849 8.24308 13.6569 8.39567 13.465 8.588L7.616 14.444C7.22772 14.8319 7.00943 15.3581 7.00915 15.9069C7.00887 16.4558 7.22662 16.9822 7.6145 17.3705C8.00238 17.7588 8.52861 17.9771 9.07744 17.9773C9.62626 17.9776 10.1527 17.7599 10.541 17.372L14 13.9089V23C14 24.1046 14.8954 25 16 25C17.1046 25 18 24.1046 18 23V13.9089L21.459 17.372C21.8476 17.7583 22.3735 17.9747 22.9215 17.9738C23.4694 17.9728 23.9946 17.7545 24.3818 17.3668C24.7689 16.979 24.9865 16.4536 24.9868 15.9056C24.987 15.3577 24.7699 14.832 24.383 14.444L18.534 8.588C18.3421 8.39582 18.1142 8.24336 17.8634 8.13933C17.6125 8.03531 17.2716 8 17 8Z" fill="#888888"/>
</svg>
