<svg width="16" height="16" viewBox="0 0 16 16" fill="none" xmlns="http://www.w3.org/2000/svg">
<path fill-rule="evenodd" clip-rule="evenodd" d="M8 16C12.4183 16 16 12.4183 16 8C16 3.58173 12.4183 0 8 0C3.58173 0 0 3.58173 0 8C0 12.4183 3.58173 16 8 16ZM7.99951 6.51251L5.793 4.30603C5.59793 4.11121 5.33347 4.00189 5.05777 4.00208C4.7821 4.00226 4.51779 4.11194 4.323 4.30701C4.1282 4.50208 4.01886 4.76654 4.01904 5.04224C4.01923 5.31793 4.12894 5.58221 4.32401 5.77704L6.52948 7.98254L4.306 10.206C4.20416 10.3013 4.12256 10.416 4.06598 10.5435C4.0094 10.6709 3.97903 10.8084 3.97665 10.9478C3.97427 11.0872 3.99997 11.2257 4.05219 11.355C4.1044 11.4843 4.1821 11.6017 4.28061 11.7004C4.37912 11.799 4.49649 11.8769 4.6257 11.9293C4.75491 11.9816 4.89334 12.0075 5.03275 12.0054C5.09543 12.0044 5.15775 11.9977 5.21896 11.9856C5.29385 11.9707 5.36707 11.9476 5.43723 11.9166C5.56473 11.8602 5.6796 11.7787 5.77499 11.677L7.99951 9.45251L10.224 11.677C10.3194 11.7787 10.4343 11.8602 10.5618 11.9166C10.6274 11.9456 10.6957 11.9677 10.7656 11.9826C10.8314 11.9966 10.8986 12.0043 10.9662 12.0054C11.1057 12.0075 11.2441 11.9816 11.3733 11.9293C11.5025 11.8769 11.6198 11.799 11.7184 11.7004C11.761 11.6577 11.7998 11.6114 11.8343 11.5622C11.8794 11.4978 11.9172 11.4283 11.9468 11.355C11.999 11.2257 12.0247 11.0872 12.0223 10.9478C12.02 10.8084 11.9896 10.6709 11.933 10.5435C11.8764 10.416 11.7948 10.3013 11.693 10.206L9.46951 7.98254L11.675 5.77704C11.8701 5.58221 11.9797 5.31793 11.9799 5.04224C11.9801 4.76654 11.8708 4.50208 11.676 4.30701C11.4812 4.11194 11.2169 4.00226 10.9412 4.00208C10.6655 4.00189 10.4011 4.11121 10.206 4.30603L7.99951 6.51251Z" fill="#FF369F"/>
</svg>
