<svg width="310" height="102" viewBox="0 0 310 102" fill="none" xmlns="http://www.w3.org/2000/svg">
<path d="M5.40625 90.125H0.515625V88.5469H5.40625V90.125ZM3.94531 86.4688V94.4922C3.94531 94.7318 3.97917 94.9167 4.04688 95.0469C4.11458 95.1771 4.21354 95.2656 4.34375 95.3125C4.47396 95.3594 4.63281 95.3828 4.82031 95.3828C4.95573 95.3828 5.08073 95.3776 5.19531 95.3672C5.3099 95.3516 5.40365 95.3359 5.47656 95.3203V96.9531C5.29948 97.0156 5.10156 97.0651 4.88281 97.1016C4.66927 97.138 4.42448 97.1562 4.14844 97.1562C3.67969 97.1562 3.26823 97.0755 2.91406 96.9141C2.5599 96.7474 2.28385 96.4844 2.08594 96.125C1.89323 95.7604 1.79688 95.2839 1.79688 94.6953V86.4688H3.94531ZM8.83594 97H6.67969V85H8.83594V97ZM7.86719 92.5C7.8724 91.7083 8.00781 91.0052 8.27344 90.3906C8.54427 89.7708 8.92188 89.2839 9.40625 88.9297C9.89583 88.5703 10.4661 88.3906 11.1172 88.3906C11.6745 88.3906 12.1615 88.4974 12.5781 88.7109C12.9948 88.9245 13.3177 89.2682 13.5469 89.7422C13.7812 90.2161 13.8984 90.849 13.8984 91.6406V97H11.7422V91.625C11.7422 91.25 11.6875 90.9557 11.5781 90.7422C11.474 90.5234 11.3177 90.3698 11.1094 90.2812C10.901 90.1875 10.6484 90.1406 10.3516 90.1406C10.0234 90.1406 9.74219 90.2005 9.50781 90.3203C9.27865 90.4349 9.08854 90.599 8.9375 90.8125C8.78646 91.026 8.67448 91.276 8.60156 91.5625C8.53385 91.8438 8.5 92.151 8.5 92.4844L7.86719 92.5ZM19.5078 97.1562C18.6484 97.1562 17.9062 96.974 17.2812 96.6094C16.6615 96.2396 16.1849 95.7474 15.8516 95.1328C15.5234 94.513 15.3594 93.8229 15.3594 93.0625V92.7578C15.3594 91.8932 15.5208 91.1328 15.8438 90.4766C16.1719 89.8203 16.6302 89.3099 17.2188 88.9453C17.8073 88.5755 18.4896 88.3906 19.2656 88.3906C20.0833 88.3906 20.763 88.5651 21.3047 88.9141C21.8516 89.263 22.263 89.75 22.5391 90.375C22.8203 90.9948 22.9609 91.7188 22.9609 92.5469V93.4609H16.3203V91.9688H20.8438V91.7969C20.8333 91.4896 20.7734 91.2083 20.6641 90.9531C20.5547 90.6979 20.3854 90.4948 20.1562 90.3438C19.9271 90.1927 19.6276 90.1172 19.2578 90.1172C18.8568 90.1172 18.526 90.2318 18.2656 90.4609C18.0104 90.6849 17.8203 90.9948 17.6953 91.3906C17.5703 91.7812 17.5078 92.237 17.5078 92.7578V93.0625C17.5078 93.5208 17.5911 93.9271 17.7578 94.2812C17.9245 94.6354 18.1693 94.9141 18.4922 95.1172C18.8151 95.3203 19.1979 95.4219 19.6406 95.4219C20.0677 95.4219 20.4557 95.3411 20.8047 95.1797C21.1589 95.0182 21.4609 94.7734 21.7109 94.4453L22.7891 95.6094C22.5234 96 22.1172 96.3568 21.5703 96.6797C21.0286 96.9974 20.3411 97.1562 19.5078 97.1562ZM31.7891 95.4297C32.0755 95.4297 32.3307 95.375 32.5547 95.2656C32.7786 95.1562 32.9557 95.0026 33.0859 94.8047C33.2161 94.6016 33.2865 94.3698 33.2969 94.1094H35.3125C35.3073 94.6927 35.1458 95.2135 34.8281 95.6719C34.5156 96.1302 34.099 96.4922 33.5781 96.7578C33.0573 97.0234 32.4714 97.1562 31.8203 97.1562C30.9505 97.1562 30.2292 96.9661 29.6562 96.5859C29.0833 96.2057 28.6536 95.6927 28.3672 95.0469C28.0807 94.401 27.9375 93.6823 27.9375 92.8906V92.6562C27.9375 91.8646 28.0807 91.1458 28.3672 90.5C28.6536 89.8542 29.0833 89.3411 29.6562 88.9609C30.2292 88.5807 30.9479 88.3906 31.8125 88.3906C32.5052 88.3906 33.112 88.526 33.6328 88.7969C34.1536 89.0625 34.5625 89.4401 34.8594 89.9297C35.1562 90.4193 35.3073 90.9948 35.3125 91.6562H33.2969C33.2865 91.375 33.2214 91.1172 33.1016 90.8828C32.9818 90.6484 32.8099 90.4635 32.5859 90.3281C32.3672 90.1875 32.099 90.1172 31.7812 90.1172C31.3229 90.1172 30.9714 90.2396 30.7266 90.4844C30.4818 90.724 30.3125 91.0391 30.2188 91.4297C30.1302 91.8151 30.0859 92.224 30.0859 92.6562V92.8906C30.0859 93.3333 30.1302 93.7474 30.2188 94.1328C30.3073 94.5182 30.474 94.8307 30.7188 95.0703C30.9688 95.3099 31.3255 95.4297 31.7891 95.4297ZM36.2969 92.6953C36.2969 91.8724 36.4531 91.138 36.7656 90.4922C37.0781 89.8411 37.5286 89.3281 38.1172 88.9531C38.7109 88.5781 39.4271 88.3906 40.2656 88.3906C41.1198 88.3906 41.8438 88.5781 42.4375 88.9531C43.0312 89.3281 43.4818 89.8411 43.7891 90.4922C44.1016 91.138 44.2578 91.8724 44.2578 92.6953V92.8594C44.2578 93.6771 44.1016 94.4115 43.7891 95.0625C43.4818 95.7135 43.0312 96.2266 42.4375 96.6016C41.849 96.9714 41.1302 97.1562 40.2812 97.1562C39.4375 97.1562 38.7188 96.9714 38.125 96.6016C37.5312 96.2266 37.0781 95.7135 36.7656 95.0625C36.4531 94.4115 36.2969 93.6771 36.2969 92.8594V92.6953ZM38.4531 92.8594C38.4531 93.3281 38.513 93.7578 38.6328 94.1484C38.7578 94.5391 38.9531 94.8516 39.2188 95.0859C39.4896 95.3151 39.8438 95.4297 40.2812 95.4297C40.7188 95.4297 41.0703 95.3151 41.3359 95.0859C41.6068 94.8516 41.8021 94.5391 41.9219 94.1484C42.0469 93.7578 42.1094 93.3281 42.1094 92.8594V92.6953C42.1094 92.2318 42.0469 91.8047 41.9219 91.4141C41.8021 91.0234 41.6068 90.7109 41.3359 90.4766C41.0703 90.237 40.7135 90.1172 40.2656 90.1172C39.8333 90.1172 39.4818 90.237 39.2109 90.4766C38.9453 90.7109 38.7526 91.0234 38.6328 91.4141C38.513 91.8047 38.4531 92.2318 38.4531 92.6953V92.8594ZM47.8672 97H45.7109V88.5469H47.7344L47.8672 90.2891V97ZM46.8906 92.5C46.8906 91.7083 47.0156 91.0052 47.2656 90.3906C47.5156 89.7708 47.888 89.2839 48.3828 88.9297C48.8828 88.5703 49.5 88.3906 50.2344 88.3906C50.9948 88.3906 51.6172 88.6224 52.1016 89.0859C52.5859 89.5443 52.8281 90.3021 52.8281 91.3594V97H50.6719V91.6016C50.6719 91.2214 50.6172 90.9245 50.5078 90.7109C50.3984 90.4974 50.2422 90.349 50.0391 90.2656C49.8411 90.1823 49.6016 90.1406 49.3203 90.1406C49.0078 90.1406 48.7396 90.2005 48.5156 90.3203C48.2917 90.4349 48.1068 90.599 47.9609 90.8125C47.8151 91.026 47.7083 91.276 47.6406 91.5625C47.5781 91.8438 47.5469 92.151 47.5469 92.4844L46.8906 92.5ZM51.7812 92.3125C51.7812 91.5833 51.9036 90.9245 52.1484 90.3359C52.3932 89.7422 52.7604 89.2708 53.25 88.9219C53.7396 88.5677 54.3411 88.3906 55.0547 88.3906C55.6172 88.3906 56.1016 88.4948 56.5078 88.7031C56.9193 88.9115 57.2344 89.25 57.4531 89.7188C57.6771 90.1875 57.7891 90.8099 57.7891 91.5859V97H55.6328V91.5781C55.6328 91.1927 55.5781 90.8958 55.4688 90.6875C55.3594 90.4792 55.2031 90.3359 55 90.2578C54.8021 90.1797 54.5651 90.1406 54.2891 90.1406C54.0182 90.1406 53.7786 90.1927 53.5703 90.2969C53.3672 90.3958 53.1979 90.5391 53.0625 90.7266C52.9271 90.9089 52.8229 91.125 52.75 91.375C52.6823 91.6198 52.6484 91.888 52.6484 92.1797L51.7812 92.3125ZM61.7422 97H59.5859V88.5469H61.6094L61.7422 90.2891V97ZM60.7656 92.5C60.7656 91.7083 60.8906 91.0052 61.1406 90.3906C61.3906 89.7708 61.763 89.2839 62.2578 88.9297C62.7578 88.5703 63.375 88.3906 64.1094 88.3906C64.8698 88.3906 65.4922 88.6224 65.9766 89.0859C66.4609 89.5443 66.7031 90.3021 66.7031 91.3594V97H64.5469V91.6016C64.5469 91.2214 64.4922 90.9245 64.3828 90.7109C64.2734 90.4974 64.1172 90.349 63.9141 90.2656C63.7161 90.1823 63.4766 90.1406 63.1953 90.1406C62.8828 90.1406 62.6146 90.2005 62.3906 90.3203C62.1667 90.4349 61.9818 90.599 61.8359 90.8125C61.6901 91.026 61.5833 91.276 61.5156 91.5625C61.4531 91.8438 61.4219 92.151 61.4219 92.4844L60.7656 92.5ZM65.6562 92.3125C65.6562 91.5833 65.7786 90.9245 66.0234 90.3359C66.2682 89.7422 66.6354 89.2708 67.125 88.9219C67.6146 88.5677 68.2161 88.3906 68.9297 88.3906C69.4922 88.3906 69.9766 88.4948 70.3828 88.7031C70.7943 88.9115 71.1094 89.25 71.3281 89.7188C71.5521 90.1875 71.6641 90.8099 71.6641 91.5859V97H69.5078V91.5781C69.5078 91.1927 69.4531 90.8958 69.3438 90.6875C69.2344 90.4792 69.0781 90.3359 68.875 90.2578C68.6771 90.1797 68.4401 90.1406 68.1641 90.1406C67.8932 90.1406 67.6536 90.1927 67.4453 90.2969C67.2422 90.3958 67.0729 90.5391 66.9375 90.7266C66.8021 90.9089 66.6979 91.125 66.625 91.375C66.5573 91.6198 66.5234 91.888 66.5234 92.1797L65.6562 92.3125ZM78.4766 88.5469H80.625V97H78.6016L78.4766 94.9844V88.5469ZM79.4062 93.2109C79.4062 93.9661 79.2917 94.6406 79.0625 95.2344C78.8385 95.8281 78.4896 96.2969 78.0156 96.6406C77.5469 96.9844 76.9479 97.1562 76.2188 97.1562C75.3854 97.1562 74.7083 96.9141 74.1875 96.4297C73.6719 95.9401 73.4141 95.1354 73.4141 94.0156V88.5469H75.5625V94.0312C75.5625 94.3698 75.6172 94.6406 75.7266 94.8438C75.8359 95.0417 75.9844 95.1849 76.1719 95.2734C76.3594 95.362 76.5703 95.4062 76.8047 95.4062C77.2943 95.4062 77.6797 95.3125 77.9609 95.125C78.2422 94.9323 78.4427 94.6719 78.5625 94.3438C78.6823 94.0104 78.7422 93.638 78.7422 93.2266L79.4062 93.2109ZM84.5078 97H82.3672V88.5469H84.3828L84.5078 90.3516V97ZM83.5469 92.5C83.5469 91.6615 83.6849 90.9349 83.9609 90.3203C84.2422 89.7057 84.6328 89.2318 85.1328 88.8984C85.638 88.5599 86.224 88.3906 86.8906 88.3906C87.4323 88.3906 87.901 88.4948 88.2969 88.7031C88.6979 88.9115 89.0104 89.25 89.2344 89.7188C89.4583 90.1823 89.5703 90.8073 89.5703 91.5938V97H87.4141V91.5859C87.4141 91.2161 87.3594 90.9271 87.25 90.7188C87.1458 90.5052 86.9896 90.3568 86.7812 90.2734C86.5781 90.1849 86.3255 90.1406 86.0234 90.1406C85.7214 90.1406 85.4557 90.2005 85.2266 90.3203C84.9974 90.4349 84.8047 90.599 84.6484 90.8125C84.4922 91.026 84.3724 91.276 84.2891 91.5625C84.2109 91.8438 84.1719 92.151 84.1719 92.4844L83.5469 92.5ZM93.6328 97H91.4766V88.5469H93.6328V97ZM91.3438 86.3516C91.3438 86.0286 91.4505 85.7604 91.6641 85.5469C91.8828 85.3333 92.1771 85.2266 92.5469 85.2266C92.9219 85.2266 93.2188 85.3333 93.4375 85.5469C93.6562 85.7604 93.7656 86.0286 93.7656 86.3516C93.7656 86.6693 93.6562 86.9349 93.4375 87.1484C93.2188 87.362 92.9219 87.4688 92.5469 87.4688C92.1771 87.4688 91.8828 87.362 91.6641 87.1484C91.4505 86.9349 91.3438 86.6693 91.3438 86.3516ZM99.625 90.125H94.7344V88.5469H99.625V90.125ZM98.1641 86.4688V94.4922C98.1641 94.7318 98.1979 94.9167 98.2656 95.0469C98.3333 95.1771 98.4323 95.2656 98.5625 95.3125C98.6927 95.3594 98.8516 95.3828 99.0391 95.3828C99.1745 95.3828 99.2995 95.3776 99.4141 95.3672C99.5286 95.3516 99.6224 95.3359 99.6953 95.3203V96.9531C99.5182 97.0156 99.3203 97.0651 99.1016 97.1016C98.888 97.138 98.6432 97.1562 98.3672 97.1562C97.8984 97.1562 97.487 97.0755 97.1328 96.9141C96.7786 96.7474 96.5026 96.4844 96.3047 96.125C96.112 95.7604 96.0156 95.2839 96.0156 94.6953V86.4688H98.1641ZM105.664 88.5469H107.961L104.586 98.2734C104.508 98.4818 104.406 98.7083 104.281 98.9531C104.156 99.2031 103.992 99.4375 103.789 99.6562C103.586 99.8802 103.331 100.062 103.023 100.203C102.716 100.344 102.344 100.414 101.906 100.414C101.776 100.414 101.656 100.409 101.547 100.398C101.443 100.388 101.341 100.37 101.242 100.344C101.143 100.323 101.039 100.297 100.93 100.266V98.6328C100.982 98.6328 101.042 98.6354 101.109 98.6406C101.177 98.6458 101.234 98.6484 101.281 98.6484C101.734 98.6484 102.07 98.5729 102.289 98.4219C102.513 98.2708 102.685 98.0208 102.805 97.6719L103.422 96.0469L105.664 88.5469ZM104.273 94.6641L104.602 97.0078L103.133 97.2188L100.094 88.5469H102.414L104.273 94.6641ZM117.531 91.3281C117.531 90.9219 117.424 90.599 117.211 90.3594C116.997 90.1146 116.664 89.9922 116.211 89.9922C115.951 89.9922 115.721 90.0365 115.523 90.125C115.331 90.2135 115.182 90.3359 115.078 90.4922C114.974 90.6484 114.922 90.8359 114.922 91.0547H112.773C112.773 90.5755 112.919 90.1354 113.211 89.7344C113.503 89.3281 113.914 89.0026 114.445 88.7578C114.982 88.513 115.609 88.3906 116.328 88.3906C116.974 88.3906 117.549 88.5 118.055 88.7188C118.565 88.9375 118.964 89.2656 119.25 89.7031C119.542 90.1406 119.688 90.6875 119.688 91.3438V94.9766C119.688 95.4245 119.716 95.7969 119.773 96.0938C119.831 96.3906 119.914 96.6484 120.023 96.8672V97H117.844C117.74 96.776 117.661 96.4948 117.609 96.1562C117.557 95.8125 117.531 95.4714 117.531 95.1328V91.3281ZM117.844 93.1172H116.578C115.948 93.1172 115.482 93.2422 115.18 93.4922C114.883 93.7422 114.734 94.0625 114.734 94.4531C114.734 94.75 114.836 94.9974 115.039 95.1953C115.247 95.3932 115.536 95.4922 115.906 95.4922C116.26 95.4922 116.568 95.4219 116.828 95.2812C117.089 95.1406 117.289 94.9688 117.43 94.7656C117.576 94.5625 117.648 94.375 117.648 94.2031L118.266 95.1406C118.193 95.3542 118.083 95.5781 117.938 95.8125C117.797 96.0417 117.612 96.2578 117.383 96.4609C117.159 96.6641 116.885 96.8307 116.562 96.9609C116.245 97.0911 115.875 97.1562 115.453 97.1562C114.911 97.1562 114.422 97.0495 113.984 96.8359C113.552 96.6172 113.208 96.3177 112.953 95.9375C112.703 95.5521 112.578 95.1146 112.578 94.625C112.578 93.7344 112.909 93.0469 113.57 92.5625C114.237 92.0781 115.206 91.8359 116.477 91.8359H117.828L117.844 93.1172ZM123.617 97H121.477V88.5469H123.492L123.617 90.3516V97ZM122.656 92.5C122.656 91.6615 122.794 90.9349 123.07 90.3203C123.352 89.7057 123.742 89.2318 124.242 88.8984C124.747 88.5599 125.333 88.3906 126 88.3906C126.542 88.3906 127.01 88.4948 127.406 88.7031C127.807 88.9115 128.12 89.25 128.344 89.7188C128.568 90.1823 128.68 90.8073 128.68 91.5938V97H126.523V91.5859C126.523 91.2161 126.469 90.9271 126.359 90.7188C126.255 90.5052 126.099 90.3568 125.891 90.2734C125.688 90.1849 125.435 90.1406 125.133 90.1406C124.831 90.1406 124.565 90.2005 124.336 90.3203C124.107 90.4349 123.914 90.599 123.758 90.8125C123.602 91.026 123.482 91.276 123.398 91.5625C123.32 91.8438 123.281 92.151 123.281 92.4844L122.656 92.5ZM135.508 85H137.664V97H135.719L135.508 95.1719V85ZM130.117 92.7109C130.117 91.8516 130.247 91.099 130.508 90.4531C130.768 89.8021 131.146 89.2969 131.641 88.9375C132.135 88.5729 132.734 88.3906 133.438 88.3906C134.109 88.3906 134.669 88.5729 135.117 88.9375C135.57 89.3021 135.927 89.8047 136.188 90.4453C136.448 91.0859 136.625 91.8229 136.719 92.6562V92.9766C136.625 93.7734 136.448 94.487 136.188 95.1172C135.927 95.7474 135.57 96.2448 135.117 96.6094C134.664 96.974 134.099 97.1562 133.422 97.1562C132.729 97.1562 132.135 96.9714 131.641 96.6016C131.146 96.2266 130.768 95.7161 130.508 95.0703C130.247 94.4245 130.117 93.6927 130.117 92.875V92.7109ZM132.266 92.875C132.266 93.3438 132.32 93.7708 132.43 94.1562C132.539 94.5365 132.719 94.8411 132.969 95.0703C133.219 95.2943 133.549 95.4062 133.961 95.4062C134.362 95.4062 134.69 95.3177 134.945 95.1406C135.201 94.9635 135.398 94.7214 135.539 94.4141C135.68 94.1016 135.768 93.7474 135.805 93.3516V92.2812C135.784 91.9583 135.732 91.6667 135.648 91.4062C135.565 91.1406 135.448 90.9141 135.297 90.7266C135.151 90.5391 134.969 90.3958 134.75 90.2969C134.531 90.1927 134.273 90.1406 133.977 90.1406C133.565 90.1406 133.232 90.2552 132.977 90.4844C132.727 90.7083 132.544 91.0156 132.43 91.4062C132.32 91.7917 132.266 92.2266 132.266 92.7109V92.875ZM148.102 94.6719C148.102 94.5 148.055 94.349 147.961 94.2188C147.872 94.0885 147.703 93.9688 147.453 93.8594C147.203 93.7448 146.833 93.638 146.344 93.5391C145.76 93.4141 145.242 93.2474 144.789 93.0391C144.336 92.8255 143.979 92.5521 143.719 92.2188C143.464 91.8854 143.336 91.4766 143.336 90.9922C143.336 90.5286 143.469 90.099 143.734 89.7031C144 89.3073 144.383 88.9896 144.883 88.75C145.383 88.5104 145.979 88.3906 146.672 88.3906C147.396 88.3906 148.018 88.5078 148.539 88.7422C149.065 88.9766 149.466 89.2995 149.742 89.7109C150.023 90.1172 150.164 90.5807 150.164 91.1016H148.016C148.016 90.7734 147.904 90.4974 147.68 90.2734C147.461 90.0495 147.122 89.9375 146.664 89.9375C146.398 89.9375 146.169 89.9818 145.977 90.0703C145.789 90.1536 145.646 90.2682 145.547 90.4141C145.453 90.5547 145.406 90.7161 145.406 90.8984C145.406 91.0651 145.456 91.2135 145.555 91.3438C145.659 91.4688 145.828 91.5807 146.062 91.6797C146.297 91.7734 146.62 91.862 147.031 91.9453C147.656 92.0703 148.206 92.2344 148.68 92.4375C149.154 92.6354 149.526 92.9062 149.797 93.25C150.068 93.5938 150.203 94.0365 150.203 94.5781C150.203 95.0729 150.057 95.5156 149.766 95.9062C149.479 96.2969 149.073 96.6042 148.547 96.8281C148.021 97.0469 147.401 97.1562 146.688 97.1562C145.901 97.1562 145.237 97.0156 144.695 96.7344C144.159 96.4531 143.75 96.0964 143.469 95.6641C143.193 95.2266 143.055 94.776 143.055 94.3125H145.109C145.13 94.625 145.216 94.875 145.367 95.0625C145.518 95.25 145.714 95.388 145.953 95.4766C146.193 95.5651 146.451 95.6094 146.727 95.6094C147.029 95.6094 147.281 95.5703 147.484 95.4922C147.688 95.4089 147.841 95.2969 147.945 95.1562C148.049 95.0156 148.102 94.8542 148.102 94.6719ZM155.781 90.125H150.891V88.5469H155.781V90.125ZM154.32 86.4688V94.4922C154.32 94.7318 154.354 94.9167 154.422 95.0469C154.49 95.1771 154.589 95.2656 154.719 95.3125C154.849 95.3594 155.008 95.3828 155.195 95.3828C155.331 95.3828 155.456 95.3776 155.57 95.3672C155.685 95.3516 155.779 95.3359 155.852 95.3203V96.9531C155.674 97.0156 155.477 97.0651 155.258 97.1016C155.044 97.138 154.799 97.1562 154.523 97.1562C154.055 97.1562 153.643 97.0755 153.289 96.9141C152.935 96.7474 152.659 96.4844 152.461 96.125C152.268 95.7604 152.172 95.2839 152.172 94.6953V86.4688H154.32ZM161.734 91.3281C161.734 90.9219 161.628 90.599 161.414 90.3594C161.201 90.1146 160.867 89.9922 160.414 89.9922C160.154 89.9922 159.924 90.0365 159.727 90.125C159.534 90.2135 159.385 90.3359 159.281 90.4922C159.177 90.6484 159.125 90.8359 159.125 91.0547H156.977C156.977 90.5755 157.122 90.1354 157.414 89.7344C157.706 89.3281 158.117 89.0026 158.648 88.7578C159.185 88.513 159.812 88.3906 160.531 88.3906C161.177 88.3906 161.753 88.5 162.258 88.7188C162.768 88.9375 163.167 89.2656 163.453 89.7031C163.745 90.1406 163.891 90.6875 163.891 91.3438V94.9766C163.891 95.4245 163.919 95.7969 163.977 96.0938C164.034 96.3906 164.117 96.6484 164.227 96.8672V97H162.047C161.943 96.776 161.865 96.4948 161.812 96.1562C161.76 95.8125 161.734 95.4714 161.734 95.1328V91.3281ZM162.047 93.1172H160.781C160.151 93.1172 159.685 93.2422 159.383 93.4922C159.086 93.7422 158.938 94.0625 158.938 94.4531C158.938 94.75 159.039 94.9974 159.242 95.1953C159.451 95.3932 159.74 95.4922 160.109 95.4922C160.464 95.4922 160.771 95.4219 161.031 95.2812C161.292 95.1406 161.492 94.9688 161.633 94.7656C161.779 94.5625 161.852 94.375 161.852 94.2031L162.469 95.1406C162.396 95.3542 162.286 95.5781 162.141 95.8125C162 96.0417 161.815 96.2578 161.586 96.4609C161.362 96.6641 161.089 96.8307 160.766 96.9609C160.448 97.0911 160.078 97.1562 159.656 97.1562C159.115 97.1562 158.625 97.0495 158.188 96.8359C157.755 96.6172 157.411 96.3177 157.156 95.9375C156.906 95.5521 156.781 95.1146 156.781 94.625C156.781 93.7344 157.112 93.0469 157.773 92.5625C158.44 92.0781 159.409 91.8359 160.68 91.8359H162.031L162.047 93.1172ZM167.867 97H165.719V88.5469H167.75L167.867 90.3516V97ZM170.375 90.5469C170.255 90.5312 170.122 90.5182 169.977 90.5078C169.831 90.4922 169.695 90.4844 169.57 90.4844C169.154 90.4844 168.807 90.5547 168.531 90.6953C168.255 90.8359 168.047 91.0391 167.906 91.3047C167.771 91.5703 167.695 91.8932 167.68 92.2734L167.227 92.1797C167.227 91.4505 167.32 90.8021 167.508 90.2344C167.695 89.6615 167.971 89.2109 168.336 88.8828C168.706 88.5547 169.161 88.3906 169.703 88.3906C169.818 88.3906 169.943 88.401 170.078 88.4219C170.214 88.4375 170.32 88.4609 170.398 88.4922L170.375 90.5469ZM175.953 90.125H171.062V88.5469H175.953V90.125ZM174.492 86.4688V94.4922C174.492 94.7318 174.526 94.9167 174.594 95.0469C174.661 95.1771 174.76 95.2656 174.891 95.3125C175.021 95.3594 175.18 95.3828 175.367 95.3828C175.503 95.3828 175.628 95.3776 175.742 95.3672C175.857 95.3516 175.951 95.3359 176.023 95.3203V96.9531C175.846 97.0156 175.648 97.0651 175.43 97.1016C175.216 97.138 174.971 97.1562 174.695 97.1562C174.227 97.1562 173.815 97.0755 173.461 96.9141C173.107 96.7474 172.831 96.4844 172.633 96.125C172.44 95.7604 172.344 95.2839 172.344 94.6953V86.4688H174.492ZM185.883 94.6719C185.883 94.5 185.836 94.349 185.742 94.2188C185.654 94.0885 185.484 93.9688 185.234 93.8594C184.984 93.7448 184.615 93.638 184.125 93.5391C183.542 93.4141 183.023 93.2474 182.57 93.0391C182.117 92.8255 181.76 92.5521 181.5 92.2188C181.245 91.8854 181.117 91.4766 181.117 90.9922C181.117 90.5286 181.25 90.099 181.516 89.7031C181.781 89.3073 182.164 88.9896 182.664 88.75C183.164 88.5104 183.76 88.3906 184.453 88.3906C185.177 88.3906 185.799 88.5078 186.32 88.7422C186.846 88.9766 187.247 89.2995 187.523 89.7109C187.805 90.1172 187.945 90.5807 187.945 91.1016H185.797C185.797 90.7734 185.685 90.4974 185.461 90.2734C185.242 90.0495 184.904 89.9375 184.445 89.9375C184.18 89.9375 183.951 89.9818 183.758 90.0703C183.57 90.1536 183.427 90.2682 183.328 90.4141C183.234 90.5547 183.188 90.7161 183.188 90.8984C183.188 91.0651 183.237 91.2135 183.336 91.3438C183.44 91.4688 183.609 91.5807 183.844 91.6797C184.078 91.7734 184.401 91.862 184.812 91.9453C185.438 92.0703 185.987 92.2344 186.461 92.4375C186.935 92.6354 187.307 92.9062 187.578 93.25C187.849 93.5938 187.984 94.0365 187.984 94.5781C187.984 95.0729 187.839 95.5156 187.547 95.9062C187.26 96.2969 186.854 96.6042 186.328 96.8281C185.802 97.0469 185.182 97.1562 184.469 97.1562C183.682 97.1562 183.018 97.0156 182.477 96.7344C181.94 96.4531 181.531 96.0964 181.25 95.6641C180.974 95.2266 180.836 94.776 180.836 94.3125H182.891C182.911 94.625 182.997 94.875 183.148 95.0625C183.299 95.25 183.495 95.388 183.734 95.4766C183.974 95.5651 184.232 95.6094 184.508 95.6094C184.81 95.6094 185.062 95.5703 185.266 95.4922C185.469 95.4089 185.622 95.2969 185.727 95.1562C185.831 95.0156 185.883 94.8542 185.883 94.6719ZM193.336 97.1562C192.477 97.1562 191.734 96.974 191.109 96.6094C190.49 96.2396 190.013 95.7474 189.68 95.1328C189.352 94.513 189.188 93.8229 189.188 93.0625V92.7578C189.188 91.8932 189.349 91.1328 189.672 90.4766C190 89.8203 190.458 89.3099 191.047 88.9453C191.635 88.5755 192.318 88.3906 193.094 88.3906C193.911 88.3906 194.591 88.5651 195.133 88.9141C195.68 89.263 196.091 89.75 196.367 90.375C196.648 90.9948 196.789 91.7188 196.789 92.5469V93.4609H190.148V91.9688H194.672V91.7969C194.661 91.4896 194.602 91.2083 194.492 90.9531C194.383 90.6979 194.214 90.4948 193.984 90.3438C193.755 90.1927 193.456 90.1172 193.086 90.1172C192.685 90.1172 192.354 90.2318 192.094 90.4609C191.839 90.6849 191.648 90.9948 191.523 91.3906C191.398 91.7812 191.336 92.237 191.336 92.7578V93.0625C191.336 93.5208 191.419 93.9271 191.586 94.2812C191.753 94.6354 191.997 94.9141 192.32 95.1172C192.643 95.3203 193.026 95.4219 193.469 95.4219C193.896 95.4219 194.284 95.3411 194.633 95.1797C194.987 95.0182 195.289 94.7734 195.539 94.4453L196.617 95.6094C196.352 96 195.945 96.3568 195.398 96.6797C194.857 96.9974 194.169 97.1562 193.336 97.1562ZM200.414 97H198.258V85H200.414V97ZM204.617 97H202.461V85H204.617V97ZM208.82 97H206.664V88.5469H208.82V97ZM206.531 86.3516C206.531 86.0286 206.638 85.7604 206.852 85.5469C207.07 85.3333 207.365 85.2266 207.734 85.2266C208.109 85.2266 208.406 85.3333 208.625 85.5469C208.844 85.7604 208.953 86.0286 208.953 86.3516C208.953 86.6693 208.844 86.9349 208.625 87.1484C208.406 87.362 208.109 87.4688 207.734 87.4688C207.365 87.4688 207.07 87.362 206.852 87.1484C206.638 86.9349 206.531 86.6693 206.531 86.3516ZM212.852 97H210.711V88.5469H212.727L212.852 90.3516V97ZM211.891 92.5C211.891 91.6615 212.029 90.9349 212.305 90.3203C212.586 89.7057 212.977 89.2318 213.477 88.8984C213.982 88.5599 214.568 88.3906 215.234 88.3906C215.776 88.3906 216.245 88.4948 216.641 88.7031C217.042 88.9115 217.354 89.25 217.578 89.7188C217.802 90.1823 217.914 90.8073 217.914 91.5938V97H215.758V91.5859C215.758 91.2161 215.703 90.9271 215.594 90.7188C215.49 90.5052 215.333 90.3568 215.125 90.2734C214.922 90.1849 214.669 90.1406 214.367 90.1406C214.065 90.1406 213.799 90.2005 213.57 90.3203C213.341 90.4349 213.148 90.599 212.992 90.8125C212.836 91.026 212.716 91.276 212.633 91.5625C212.555 91.8438 212.516 92.151 212.516 92.4844L211.891 92.5ZM227.016 88.5469V96.7266C227.016 97.4922 226.846 98.1432 226.508 98.6797C226.174 99.2214 225.706 99.6302 225.102 99.9062C224.503 100.188 223.807 100.328 223.016 100.328C222.682 100.328 222.318 100.281 221.922 100.188C221.526 100.094 221.146 99.9479 220.781 99.75C220.417 99.5521 220.112 99.2969 219.867 98.9844L220.836 97.6797C221.112 97.9922 221.427 98.2318 221.781 98.3984C222.135 98.5651 222.513 98.6484 222.914 98.6484C223.529 98.6484 224.005 98.4844 224.344 98.1562C224.688 97.8281 224.859 97.3568 224.859 96.7422V90.4922L225.062 88.5469H227.016ZM219.367 92.7109C219.367 91.8516 219.505 91.099 219.781 90.4531C220.057 89.8021 220.451 89.2969 220.961 88.9375C221.471 88.5729 222.078 88.3906 222.781 88.3906C223.344 88.3906 223.818 88.4948 224.203 88.7031C224.589 88.9115 224.906 89.2057 225.156 89.5859C225.406 89.9661 225.602 90.4167 225.742 90.9375C225.883 91.4583 225.992 92.0312 226.07 92.6562V92.9766C225.971 93.7734 225.797 94.487 225.547 95.1172C225.297 95.7474 224.945 96.2448 224.492 96.6094C224.039 96.974 223.464 97.1562 222.766 97.1562C222.073 97.1562 221.471 96.9714 220.961 96.6016C220.451 96.2266 220.057 95.7161 219.781 95.0703C219.505 94.4245 219.367 93.6927 219.367 92.875V92.7109ZM221.516 92.875C221.516 93.3438 221.578 93.7708 221.703 94.1562C221.833 94.5365 222.031 94.8411 222.297 95.0703C222.562 95.2943 222.901 95.4062 223.312 95.4062C223.729 95.4062 224.068 95.3177 224.328 95.1406C224.594 94.9635 224.797 94.7214 224.938 94.4141C225.078 94.1016 225.167 93.7474 225.203 93.3516V92.2812C225.182 91.9583 225.13 91.6667 225.047 91.4062C224.969 91.1406 224.852 90.9141 224.695 90.7266C224.544 90.5391 224.357 90.3958 224.133 90.2969C223.909 90.1927 223.641 90.1406 223.328 90.1406C222.917 90.1406 222.576 90.2552 222.305 90.4844C222.039 90.7083 221.841 91.0156 221.711 91.4062C221.581 91.7917 221.516 92.2266 221.516 92.7109V92.875ZM235.086 97H232.93V88.5469H235.086V97ZM232.797 86.3516C232.797 86.0286 232.904 85.7604 233.117 85.5469C233.336 85.3333 233.63 85.2266 234 85.2266C234.375 85.2266 234.672 85.3333 234.891 85.5469C235.109 85.7604 235.219 86.0286 235.219 86.3516C235.219 86.6693 235.109 86.9349 234.891 87.1484C234.672 87.362 234.375 87.4688 234 87.4688C233.63 87.4688 233.336 87.362 233.117 87.1484C232.904 86.9349 232.797 86.6693 232.797 86.3516ZM239.117 97H236.977V88.5469H238.992L239.117 90.3516V97ZM238.156 92.5C238.156 91.6615 238.294 90.9349 238.57 90.3203C238.852 89.7057 239.242 89.2318 239.742 88.8984C240.247 88.5599 240.833 88.3906 241.5 88.3906C242.042 88.3906 242.51 88.4948 242.906 88.7031C243.307 88.9115 243.62 89.25 243.844 89.7188C244.068 90.1823 244.18 90.8073 244.18 91.5938V97H242.023V91.5859C242.023 91.2161 241.969 90.9271 241.859 90.7188C241.755 90.5052 241.599 90.3568 241.391 90.2734C241.188 90.1849 240.935 90.1406 240.633 90.1406C240.331 90.1406 240.065 90.2005 239.836 90.3203C239.607 90.4349 239.414 90.599 239.258 90.8125C239.102 91.026 238.982 91.276 238.898 91.5625C238.82 91.8438 238.781 92.151 238.781 92.4844L238.156 92.5ZM254.57 94.6719C254.57 94.5 254.523 94.349 254.43 94.2188C254.341 94.0885 254.172 93.9688 253.922 93.8594C253.672 93.7448 253.302 93.638 252.812 93.5391C252.229 93.4141 251.711 93.2474 251.258 93.0391C250.805 92.8255 250.448 92.5521 250.188 92.2188C249.932 91.8854 249.805 91.4766 249.805 90.9922C249.805 90.5286 249.938 90.099 250.203 89.7031C250.469 89.3073 250.852 88.9896 251.352 88.75C251.852 88.5104 252.448 88.3906 253.141 88.3906C253.865 88.3906 254.487 88.5078 255.008 88.7422C255.534 88.9766 255.935 89.2995 256.211 89.7109C256.492 90.1172 256.633 90.5807 256.633 91.1016H254.484C254.484 90.7734 254.372 90.4974 254.148 90.2734C253.93 90.0495 253.591 89.9375 253.133 89.9375C252.867 89.9375 252.638 89.9818 252.445 90.0703C252.258 90.1536 252.115 90.2682 252.016 90.4141C251.922 90.5547 251.875 90.7161 251.875 90.8984C251.875 91.0651 251.924 91.2135 252.023 91.3438C252.128 91.4688 252.297 91.5807 252.531 91.6797C252.766 91.7734 253.089 91.862 253.5 91.9453C254.125 92.0703 254.674 92.2344 255.148 92.4375C255.622 92.6354 255.995 92.9062 256.266 93.25C256.536 93.5938 256.672 94.0365 256.672 94.5781C256.672 95.0729 256.526 95.5156 256.234 95.9062C255.948 96.2969 255.542 96.6042 255.016 96.8281C254.49 97.0469 253.87 97.1562 253.156 97.1562C252.37 97.1562 251.706 97.0156 251.164 96.7344C250.628 96.4531 250.219 96.0964 249.938 95.6641C249.661 95.2266 249.523 94.776 249.523 94.3125H251.578C251.599 94.625 251.685 94.875 251.836 95.0625C251.987 95.25 252.182 95.388 252.422 95.4766C252.661 95.5651 252.919 95.6094 253.195 95.6094C253.497 95.6094 253.75 95.5703 253.953 95.4922C254.156 95.4089 254.31 95.2969 254.414 95.1562C254.518 95.0156 254.57 94.8542 254.57 94.6719ZM262.023 97.1562C261.164 97.1562 260.422 96.974 259.797 96.6094C259.177 96.2396 258.701 95.7474 258.367 95.1328C258.039 94.513 257.875 93.8229 257.875 93.0625V92.7578C257.875 91.8932 258.036 91.1328 258.359 90.4766C258.688 89.8203 259.146 89.3099 259.734 88.9453C260.323 88.5755 261.005 88.3906 261.781 88.3906C262.599 88.3906 263.279 88.5651 263.82 88.9141C264.367 89.263 264.779 89.75 265.055 90.375C265.336 90.9948 265.477 91.7188 265.477 92.5469V93.4609H258.836V91.9688H263.359V91.7969C263.349 91.4896 263.289 91.2083 263.18 90.9531C263.07 90.6979 262.901 90.4948 262.672 90.3438C262.443 90.1927 262.143 90.1172 261.773 90.1172C261.372 90.1172 261.042 90.2318 260.781 90.4609C260.526 90.6849 260.336 90.9948 260.211 91.3906C260.086 91.7812 260.023 92.237 260.023 92.7578V93.0625C260.023 93.5208 260.107 93.9271 260.273 94.2812C260.44 94.6354 260.685 94.9141 261.008 95.1172C261.331 95.3203 261.714 95.4219 262.156 95.4219C262.583 95.4219 262.971 95.3411 263.32 95.1797C263.674 95.0182 263.977 94.7734 264.227 94.4453L265.305 95.6094C265.039 96 264.633 96.3568 264.086 96.6797C263.544 96.9974 262.857 97.1562 262.023 97.1562ZM270.32 95.4297C270.607 95.4297 270.862 95.375 271.086 95.2656C271.31 95.1562 271.487 95.0026 271.617 94.8047C271.747 94.6016 271.818 94.3698 271.828 94.1094H273.844C273.839 94.6927 273.677 95.2135 273.359 95.6719C273.047 96.1302 272.63 96.4922 272.109 96.7578C271.589 97.0234 271.003 97.1562 270.352 97.1562C269.482 97.1562 268.76 96.9661 268.188 96.5859C267.615 96.2057 267.185 95.6927 266.898 95.0469C266.612 94.401 266.469 93.6823 266.469 92.8906V92.6562C266.469 91.8646 266.612 91.1458 266.898 90.5C267.185 89.8542 267.615 89.3411 268.188 88.9609C268.76 88.5807 269.479 88.3906 270.344 88.3906C271.036 88.3906 271.643 88.526 272.164 88.7969C272.685 89.0625 273.094 89.4401 273.391 89.9297C273.688 90.4193 273.839 90.9948 273.844 91.6562H271.828C271.818 91.375 271.753 91.1172 271.633 90.8828C271.513 90.6484 271.341 90.4635 271.117 90.3281C270.898 90.1875 270.63 90.1172 270.312 90.1172C269.854 90.1172 269.503 90.2396 269.258 90.4844C269.013 90.724 268.844 91.0391 268.75 91.4297C268.661 91.8151 268.617 92.224 268.617 92.6562V92.8906C268.617 93.3333 268.661 93.7474 268.75 94.1328C268.839 94.5182 269.005 94.8307 269.25 95.0703C269.5 95.3099 269.857 95.4297 270.32 95.4297ZM274.828 92.6953C274.828 91.8724 274.984 91.138 275.297 90.4922C275.609 89.8411 276.06 89.3281 276.648 88.9531C277.242 88.5781 277.958 88.3906 278.797 88.3906C279.651 88.3906 280.375 88.5781 280.969 88.9531C281.562 89.3281 282.013 89.8411 282.32 90.4922C282.633 91.138 282.789 91.8724 282.789 92.6953V92.8594C282.789 93.6771 282.633 94.4115 282.32 95.0625C282.013 95.7135 281.562 96.2266 280.969 96.6016C280.38 96.9714 279.661 97.1562 278.812 97.1562C277.969 97.1562 277.25 96.9714 276.656 96.6016C276.062 96.2266 275.609 95.7135 275.297 95.0625C274.984 94.4115 274.828 93.6771 274.828 92.8594V92.6953ZM276.984 92.8594C276.984 93.3281 277.044 93.7578 277.164 94.1484C277.289 94.5391 277.484 94.8516 277.75 95.0859C278.021 95.3151 278.375 95.4297 278.812 95.4297C279.25 95.4297 279.602 95.3151 279.867 95.0859C280.138 94.8516 280.333 94.5391 280.453 94.1484C280.578 93.7578 280.641 93.3281 280.641 92.8594V92.6953C280.641 92.2318 280.578 91.8047 280.453 91.4141C280.333 91.0234 280.138 90.7109 279.867 90.4766C279.602 90.237 279.245 90.1172 278.797 90.1172C278.365 90.1172 278.013 90.237 277.742 90.4766C277.477 90.7109 277.284 91.0234 277.164 91.4141C277.044 91.8047 276.984 92.2318 276.984 92.6953V92.8594ZM286.352 97H284.211V88.5469H286.227L286.352 90.3516V97ZM285.391 92.5C285.391 91.6615 285.529 90.9349 285.805 90.3203C286.086 89.7057 286.477 89.2318 286.977 88.8984C287.482 88.5599 288.068 88.3906 288.734 88.3906C289.276 88.3906 289.745 88.4948 290.141 88.7031C290.542 88.9115 290.854 89.25 291.078 89.7188C291.302 90.1823 291.414 90.8073 291.414 91.5938V97H289.258V91.5859C289.258 91.2161 289.203 90.9271 289.094 90.7188C288.99 90.5052 288.833 90.3568 288.625 90.2734C288.422 90.1849 288.169 90.1406 287.867 90.1406C287.565 90.1406 287.299 90.2005 287.07 90.3203C286.841 90.4349 286.648 90.599 286.492 90.8125C286.336 91.026 286.216 91.276 286.133 91.5625C286.055 91.8438 286.016 92.151 286.016 92.4844L285.391 92.5ZM298.242 85H300.398V97H298.453L298.242 95.1719V85ZM292.852 92.7109C292.852 91.8516 292.982 91.099 293.242 90.4531C293.503 89.8021 293.88 89.2969 294.375 88.9375C294.87 88.5729 295.469 88.3906 296.172 88.3906C296.844 88.3906 297.404 88.5729 297.852 88.9375C298.305 89.3021 298.661 89.8047 298.922 90.4453C299.182 91.0859 299.359 91.8229 299.453 92.6562V92.9766C299.359 93.7734 299.182 94.487 298.922 95.1172C298.661 95.7474 298.305 96.2448 297.852 96.6094C297.398 96.974 296.833 97.1562 296.156 97.1562C295.464 97.1562 294.87 96.9714 294.375 96.6016C293.88 96.2266 293.503 95.7161 293.242 95.0703C292.982 94.4245 292.852 93.6927 292.852 92.875V92.7109ZM295 92.875C295 93.3438 295.055 93.7708 295.164 94.1562C295.273 94.5365 295.453 94.8411 295.703 95.0703C295.953 95.2943 296.284 95.4062 296.695 95.4062C297.096 95.4062 297.424 95.3177 297.68 95.1406C297.935 94.9635 298.133 94.7214 298.273 94.4141C298.414 94.1016 298.503 93.7474 298.539 93.3516V92.2812C298.518 91.9583 298.466 91.6667 298.383 91.4062C298.299 91.1406 298.182 90.9141 298.031 90.7266C297.885 90.5391 297.703 90.3958 297.484 90.2969C297.266 90.1927 297.008 90.1406 296.711 90.1406C296.299 90.1406 295.966 90.2552 295.711 90.4844C295.461 90.7083 295.279 91.0156 295.164 91.4062C295.055 91.7917 295 92.2266 295 92.7109V92.875ZM306.852 94.6719C306.852 94.5 306.805 94.349 306.711 94.2188C306.622 94.0885 306.453 93.9688 306.203 93.8594C305.953 93.7448 305.583 93.638 305.094 93.5391C304.51 93.4141 303.992 93.2474 303.539 93.0391C303.086 92.8255 302.729 92.5521 302.469 92.2188C302.214 91.8854 302.086 91.4766 302.086 90.9922C302.086 90.5286 302.219 90.099 302.484 89.7031C302.75 89.3073 303.133 88.9896 303.633 88.75C304.133 88.5104 304.729 88.3906 305.422 88.3906C306.146 88.3906 306.768 88.5078 307.289 88.7422C307.815 88.9766 308.216 89.2995 308.492 89.7109C308.773 90.1172 308.914 90.5807 308.914 91.1016H306.766C306.766 90.7734 306.654 90.4974 306.43 90.2734C306.211 90.0495 305.872 89.9375 305.414 89.9375C305.148 89.9375 304.919 89.9818 304.727 90.0703C304.539 90.1536 304.396 90.2682 304.297 90.4141C304.203 90.5547 304.156 90.7161 304.156 90.8984C304.156 91.0651 304.206 91.2135 304.305 91.3438C304.409 91.4688 304.578 91.5807 304.812 91.6797C305.047 91.7734 305.37 91.862 305.781 91.9453C306.406 92.0703 306.956 92.2344 307.43 92.4375C307.904 92.6354 308.276 92.9062 308.547 93.25C308.818 93.5938 308.953 94.0365 308.953 94.5781C308.953 95.0729 308.807 95.5156 308.516 95.9062C308.229 96.2969 307.823 96.6042 307.297 96.8281C306.771 97.0469 306.151 97.1562 305.438 97.1562C304.651 97.1562 303.987 97.0156 303.445 96.7344C302.909 96.4531 302.5 96.0964 302.219 95.6641C301.943 95.2266 301.805 94.776 301.805 94.3125H303.859C303.88 94.625 303.966 94.875 304.117 95.0625C304.268 95.25 304.464 95.388 304.703 95.4766C304.943 95.5651 305.201 95.6094 305.477 95.6094C305.779 95.6094 306.031 95.5703 306.234 95.4922C306.438 95.4089 306.591 95.2969 306.695 95.1562C306.799 95.0156 306.852 94.8542 306.852 94.6719Z" fill="#333333"/>
<path fill-rule="evenodd" clip-rule="evenodd" d="M207 79C204.791 79 203 77.2091 203 75V4C203 1.79086 204.791 0 207 0H216.331H221.216C223.384 0 225.383 1.16917 226.445 3.05843L250.4 45.6444V4C250.4 1.79086 252.191 0 254.4 0H265.162C267.372 0 269.162 1.79086 269.162 4V75C269.162 77.2091 267.372 79 265.162 79H255.337H250.947C248.779 79 246.78 77.8308 245.717 75.9416L221.762 33.3556V75C221.762 77.2091 219.972 79 217.762 79H207Z" fill="#333333"/>
<path d="M199.763 4C199.763 1.79086 197.972 0 195.762 0H185C182.791 0 181 1.79086 181 4V75C181 77.2091 182.791 79 185 79H195.763C197.972 79 199.763 77.2091 199.763 75V4Z" fill="#333333"/>
<path fill-rule="evenodd" clip-rule="evenodd" d="M139.5 79C161.315 79 179 61.3153 179 39.5C179 17.6847 161.315 0 139.5 0C117.685 0 100 17.6847 100 39.5C100 61.3153 117.685 79 139.5 79ZM139.5 60.2375C150.953 60.2375 160.237 50.953 160.237 39.5C160.237 28.047 150.953 18.7625 139.5 18.7625C128.047 18.7625 118.763 28.047 118.763 39.5C118.763 50.953 128.047 60.2375 139.5 60.2375Z" fill="#333333"/>
<path fill-rule="evenodd" clip-rule="evenodd" d="M98.2625 4C98.2625 1.79086 96.4716 0 94.2625 0H83.5C81.2909 0 79.5 1.79086 79.5 4V49.375H79.4884C79.4962 49.5386 79.5 49.7032 79.5 49.8688C79.5 55.5953 74.8578 60.2375 69.1313 60.2375C64.3387 60.2375 60.3056 57.1251 59.1175 52.3474C58.7177 50.7395 57.4194 49.375 55.7625 49.375C54.3496 49.375 52.7749 49.375 51.85 49.375H47.4062C46.6851 49.375 45.3789 49.375 44.0002 49.375C41.7911 49.375 39.9723 51.1756 40.2508 53.3671C42.1302 68.1556 54.3441 79 69.1313 79C85.22 79 98.2625 65.9575 98.2625 49.8688C98.2625 49.7038 98.2611 49.5392 98.2584 49.375H98.2625V4Z" fill="#333333"/>
</svg>
