<svg width="262" height="109" viewBox="0 0 262 109" fill="none" xmlns="http://www.w3.org/2000/svg">
<path d="M253.876 0H8.12403C3.63725 0 0 3.63725 0 8.12403V37.5736C0 42.0604 3.63725 45.6977 8.12403 45.6977H253.876C258.363 45.6977 262 42.0604 262 37.5736V8.12403C262 3.63725 258.363 0 253.876 0Z" fill="#333333"/>
<path d="M5.07751 6.58354C5.07751 5.75171 5.7509 5.07751 6.5814 5.07751H13.8003C14.6307 5.07751 15.3041 5.75171 15.3041 6.58354V16.6179C15.3041 17.3519 15.4388 18.0818 15.7002 18.7675L18.9135 27.2007L14.423 38.9855C14.1519 39.6968 14.5985 40.4543 15.307 40.5962C14.3324 40.4665 13.4928 39.8129 13.1356 38.8755L5.76934 19.5437C5.31197 18.3434 5.07751 17.0698 5.07751 15.7852V6.58354Z" fill="#FC8831"/>
<path d="M18.9137 27.2008L23.2476 38.5746C23.6232 39.5604 22.8971 40.62 21.8434 40.62H15.6649C15.544 40.62 15.4246 40.6119 15.3072 40.5963C14.5987 40.4544 14.1521 39.6969 14.4232 38.9856L18.9137 27.2008Z" fill="#F95706"/>
<path d="M22.5229 15.7852V16.6179C22.5229 17.3518 22.3888 18.0796 22.1276 18.7655L18.9135 27.2007L23.2474 38.5745C23.623 39.5603 22.8969 40.6199 21.8432 40.6199H22.1623C23.285 40.6199 24.2912 39.9259 24.6914 38.8755L27.6361 31.1475L23.2145 19.5436C22.7573 18.3434 22.5229 17.0697 22.5229 15.7852Z" fill="#FCA31F"/>
<path d="M32.7495 6.58354C32.7495 5.75171 32.0763 5.07751 31.2457 5.07751H24.027C23.1963 5.07751 22.5231 5.75171 22.5231 6.58354V15.7852C22.5231 17.0698 22.7575 18.3434 23.2147 19.5437L27.6363 31.1476L32.0579 19.5437C32.5152 18.3434 32.7495 17.0698 32.7495 15.7852V6.58354Z" fill="#FC7C02"/>
<path d="M50.1946 6.58354C50.1946 5.75171 49.5212 5.07751 48.6907 5.07751H41.4718C40.6413 5.07751 39.9679 5.75171 39.9679 6.58354V16.6179C39.9679 17.3519 39.8333 18.0818 39.5719 18.7675L36.3586 27.2007L40.8491 38.9855C41.1201 39.6968 40.6736 40.4543 39.9651 40.5962C40.9396 40.4665 41.7793 39.8129 42.1365 38.8755L49.5027 19.5437C49.9601 18.3434 50.1946 17.0698 50.1946 15.7852V6.58354Z" fill="#FEE400"/>
<path d="M36.3588 27.2008L32.025 38.5746C31.6493 39.5604 32.3755 40.62 33.4292 40.62H39.6077C39.7285 40.62 39.848 40.6119 39.9653 40.5963C40.6738 40.4544 41.1204 39.6969 40.8494 38.9856L36.3588 27.2008Z" fill="#FEAD00"/>
<path d="M32.7493 15.7852V16.6179C32.7493 17.3518 32.8833 18.0796 33.1446 18.7655L36.3586 27.2007L32.0248 38.5745C31.6491 39.5603 32.3753 40.6199 33.429 40.6199H33.1098C31.9871 40.6199 30.981 39.9259 30.5807 38.8755L27.636 31.1475L32.0576 19.5436C32.5148 18.3434 32.7493 17.0697 32.7493 15.7852Z" fill="#FFC20F"/>
<path d="M56.1855 6.047C56.4078 5.46318 56.9668 5.07751 57.5907 5.07751H58.7378C57.6841 5.07751 56.9571 6.13437 57.3326 7.12022L61.9688 19.2944L54.5122 38.8749C54.1121 39.9256 53.1058 40.6199 51.9828 40.6199H44.7661C43.9231 40.6199 43.3415 39.7744 43.6419 38.9859L56.1855 6.047Z" fill="#D5F33A"/>
<path d="M58.7381 5.07751H65.1999C66.2536 5.07751 66.9805 6.13437 66.6051 7.12022L61.969 19.2944L57.3328 7.12022C56.9573 6.13437 57.6843 5.07751 58.7381 5.07751Z" fill="#8EDE14"/>
<path d="M67.7519 6.04724C67.5296 5.46342 66.9704 5.07776 66.3467 5.07776H65.1994C66.2531 5.07776 66.98 6.13462 66.6046 7.12046L61.9686 19.2945L69.4252 38.8752C69.8253 39.9259 70.8316 40.6202 71.9544 40.6202H76.1053C75.2748 40.6202 74.6014 39.946 74.6014 39.1141V24.0336L67.7519 6.04724Z" fill="#AAE958"/>
<path d="M74.6016 30.3791V24.0334L77.0182 30.3791H74.6016Z" fill="#32CA23"/>
<path d="M74.6016 30.3792H77.0182L80.2958 38.9861C80.596 39.7746 80.0144 40.6201 79.1716 40.6201H76.1055C75.275 40.6201 74.6016 39.9459 74.6016 39.1141V30.3792Z" fill="#00A60F"/>
<path d="M74.6016 6.58378C74.6016 5.75196 75.275 5.07776 76.1055 5.07776H83.3242C84.1549 5.07776 84.8281 5.75196 84.8281 6.58378V30.3792H77.0182L74.6016 24.0336V6.58378Z" fill="#4BDD64"/>
<path d="M77.0181 30.3792H84.8281V40.6201H79.1716C80.0144 40.6201 80.596 39.7746 80.2957 38.9861L77.0181 30.3792Z" fill="#00B52B"/>
<path d="M84.8283 30.3792H98.0627C98.8933 30.3792 99.5666 31.0534 99.5666 31.885V39.1141C99.5666 39.9459 98.8933 40.6201 98.0627 40.6201H84.8283V30.3792Z" fill="#00D16E"/>
<path d="M100.913 6.58378C100.913 5.75196 101.586 5.07776 102.417 5.07776H109.635C110.466 5.07776 111.139 5.75196 111.139 6.58378V30.3792H103.329H100.913V24.0336V6.58378Z" fill="#00D29C"/>
<path d="M103.329 30.3792H111.139V40.6201H105.483H102.417C101.586 40.6201 100.913 39.9459 100.913 39.1141V30.3792H103.329Z" fill="#00AE7A"/>
<path d="M111.139 30.3792H124.374C125.204 30.3792 125.877 31.0534 125.877 31.885V39.1141C125.877 39.9459 125.204 40.6201 124.374 40.6201H111.139V30.3792Z" fill="#01D3C8"/>
<path d="M137.445 27.9694V39.114C137.445 39.9459 136.772 40.6201 135.941 40.6201H128.723C127.892 40.6201 127.219 39.9459 127.219 39.114V27.9694H137.445Z" fill="#00D5E8"/>
<path d="M137.445 17.7284H127.219V27.9694H137.445V17.7284Z" fill="#00B3E4"/>
<path d="M137.445 15.3188H127.219V17.7284H137.445V15.3188Z" fill="#00D5E8"/>
<path fill-rule="evenodd" clip-rule="evenodd" d="M137.445 15.3189H144.965C145.629 15.3189 146.168 15.8581 146.168 16.5236C146.168 17.1891 145.629 17.7285 144.965 17.7285H137.445V27.9695H146.469C146.885 27.9695 147.297 27.9463 147.702 27.9028L154.955 8.85706C152.863 6.53634 149.836 5.07776 146.469 5.07776H137.445V15.3189Z" fill="#05D6FB"/>
<path fill-rule="evenodd" clip-rule="evenodd" d="M128.723 5.07776C127.892 5.07776 127.219 5.75196 127.219 6.58378V15.3189H137.445C137.445 13.6925 137.445 6.90278 137.445 5.07776H128.723Z" fill="#00B3E4"/>
<path d="M156.023 6.047C156.245 5.46318 156.804 5.07751 157.428 5.07751H158.575C157.522 5.07751 156.794 6.13437 157.17 7.12022L161.806 19.2944L154.349 38.8749C153.949 39.9256 152.943 40.6199 151.82 40.6199H144.603C143.76 40.6199 143.179 39.7744 143.479 38.9859L147.7 27.9025C153.432 27.2864 157.896 22.4273 157.896 16.5234C157.896 13.5744 156.782 10.886 154.953 8.85682L156.023 6.047Z" fill="#00BCF1"/>
<path d="M147.702 27.9027L154.955 8.85693C156.784 10.8861 157.898 13.5745 157.898 16.5235C157.898 22.4274 153.434 27.2866 147.702 27.9027Z" fill="#009EED"/>
<path fill-rule="evenodd" clip-rule="evenodd" d="M204.344 15.3186H209.521V17.7282H204.344C204.386 17.3323 204.407 16.9303 204.407 16.5233C204.407 16.1163 204.386 15.7146 204.344 15.3186Z" fill="#E674FB"/>
<path d="M158.574 5.07751H165.036C166.089 5.07751 166.816 6.13437 166.441 7.12022L161.805 19.2944L157.169 7.12022C156.793 6.13437 157.52 5.07751 158.574 5.07751Z" fill="#0072D5"/>
<path d="M167.588 6.04712C167.366 5.4633 166.807 5.07764 166.183 5.07764H165.036C166.089 5.07764 166.816 6.1345 166.441 7.12034L161.805 19.2944L169.261 38.875C169.662 39.9257 170.668 40.62 171.791 40.62H175.941C175.111 40.62 174.438 39.9459 174.438 39.114V24.0335L167.588 6.04712Z" fill="#009BE1"/>
<path d="M174.438 27.9635V24.0333L175.937 27.9635H174.438Z" fill="#0020DA"/>
<path d="M174.438 27.962H175.934L180.132 38.9859C180.432 39.7745 179.85 40.62 179.008 40.62H175.941C175.111 40.62 174.438 39.9458 174.438 39.1139V27.962Z" fill="#0048DD"/>
<path d="M184.664 27.962V39.1139C184.664 39.9458 183.991 40.62 183.16 40.62H179.008C179.85 40.62 180.432 39.7745 180.132 38.9859L175.934 27.962H184.664Z" fill="#6877FA"/>
<path fill-rule="evenodd" clip-rule="evenodd" d="M174.437 17.7283L184.663 17.7283V27.9621H175.937L174.437 24.0343V17.7283Z" fill="#3E35F6"/>
<path d="M184.664 15.3186H174.438V17.7282H184.664V15.3186Z" fill="#6877FA"/>
<path fill-rule="evenodd" clip-rule="evenodd" d="M175.941 5.07751C175.111 5.07751 174.438 5.75171 174.438 6.58354V15.3186H184.664C184.664 13.6922 184.664 6.90254 184.664 5.07751H175.941Z" fill="#3E35F6"/>
<path fill-rule="evenodd" clip-rule="evenodd" d="M184.664 15.3186H192.184C192.848 15.3186 193.387 15.8579 193.387 16.5234C193.387 17.1888 192.848 17.7282 192.184 17.7282H184.664V27.9692H193.688C196.023 27.9692 198.194 27.2672 200.004 26.0633V6.98345C198.194 5.77948 196.023 5.07751 193.688 5.07751H184.664V15.3186Z" fill="#9772FB"/>
<path d="M210.23 27.962H200.004V30.3716H210.23V27.962Z" fill="#E674FB"/>
<path fill-rule="evenodd" clip-rule="evenodd" d="M201.508 40.6127C200.677 40.6127 200.004 39.9385 200.004 39.1067V30.3716H210.23C210.23 31.998 210.23 38.7877 210.23 40.6127H201.508Z" fill="#E32DED"/>
<path d="M210.23 5.07764H223.465C224.295 5.07764 224.969 5.75184 224.969 6.58351V13.8126C224.969 14.6444 224.295 15.3186 223.465 15.3186H210.23V5.07764Z" fill="#FC62F1"/>
<path d="M210.231 17.7283H223.465C224.296 17.7283 224.969 18.4025 224.969 19.2341V26.4632C224.969 27.2951 224.296 27.9693 223.465 27.9693H210.231V17.7283Z" fill="#FC62F1"/>
<path d="M210.231 30.3717H223.465C224.296 30.3717 224.969 31.0459 224.969 31.8776V39.1067C224.969 39.9385 224.296 40.6127 223.465 40.6127H210.231V30.3717Z" fill="#FC62F1"/>
<path fill-rule="evenodd" clip-rule="evenodd" d="M201.508 5.07751C200.677 5.07751 200.004 5.75171 200.004 6.58354V6.98345C202.771 8.82424 204.691 11.8394 205.054 15.3186H210.23C210.23 13.6922 210.23 6.90254 210.23 5.07751H201.508Z" fill="#E32DED"/>
<path fill-rule="evenodd" clip-rule="evenodd" d="M200.004 6.9834V15.3186H205.054C204.691 11.8394 202.771 8.82419 200.004 6.9834Z" fill="#8614E9"/>
<path fill-rule="evenodd" clip-rule="evenodd" d="M200.004 27.9694C200.004 27.7768 200.004 26.479 200.004 26.0635C202.771 24.2227 204.691 21.2075 205.054 17.7283H210.23C210.23 19.3547 210.23 26.1444 210.23 27.9694H200.004Z" fill="#E32DED"/>
<path fill-rule="evenodd" clip-rule="evenodd" d="M200.004 26.0635V17.7283H205.054C204.691 21.2075 202.771 24.2227 200.004 26.0635Z" fill="#8614E9"/>
<path fill-rule="evenodd" clip-rule="evenodd" d="M205.054 17.7282C205.096 17.3323 205.117 16.9303 205.117 16.5233C205.117 16.1163 205.096 15.7146 205.054 15.3186H200.004V17.7282H205.054Z" fill="#8834F7"/>
<path d="M236.47 15.3186H226.243V17.7282H236.47V15.3186Z" fill="#FF6274"/>
<path fill-rule="evenodd" clip-rule="evenodd" d="M227.747 5.07751C226.916 5.07751 226.243 5.75171 226.243 6.58354V15.3186H236.47C236.47 13.6922 236.47 6.90254 236.47 5.07751H227.747Z" fill="#FF3125"/>
<path fill-rule="evenodd" clip-rule="evenodd" d="M234.317 27.962H226.243V17.7211L234.317 27.962Z" fill="#FF3125"/>
<path fill-rule="evenodd" clip-rule="evenodd" d="M226.249 17.7283H236.47V27.9693H226.243V27.9622H234.317L226.249 17.7283Z" fill="#FC1A07"/>
<path d="M236.47 30.7003V39.1138C236.47 39.9456 235.796 40.6198 234.966 40.6198H227.747C226.916 40.6198 226.243 39.9456 226.243 39.1138V27.9691H234.317L236.47 30.7003Z" fill="#FF6274"/>
<path d="M236.755 31.062L243.477 39.5887C243.99 40.2398 244.773 40.6197 245.602 40.6197H255.342C256.347 40.6197 256.909 39.4584 256.286 38.6683L247.685 27.7578C246.976 27.8958 246.243 27.969 245.493 27.969H236.47V30.7002L236.755 31.062Z" fill="#FC8831"/>
<path d="M234.316 27.9691L236.469 30.7003V27.9691H234.316Z" fill="#FC3416"/>
<path d="M239.778 17.7283H236.47V27.9693H245.493C246.243 27.9693 246.976 27.896 247.685 27.758L239.778 17.7283Z" fill="#FC4410"/>
<path fill-rule="evenodd" clip-rule="evenodd" d="M236.47 15.3186H243.989C244.653 15.3186 245.192 15.8579 245.192 16.5234C245.192 17.1888 244.653 17.7282 243.989 17.7282H239.778L247.685 27.758C252.949 26.7339 256.923 22.0939 256.923 16.5234C256.923 10.202 251.805 5.07751 245.493 5.07751H236.47C236.47 6.65424 236.47 13.6427 236.47 15.3186Z" fill="#FF7F52"/>
<path fill-rule="evenodd" clip-rule="evenodd" d="M1.0155 55.8527C0.454656 55.8527 0 56.3073 0 56.8682C0 63.9767 0 72.1007 0 79.2093C0 79.7701 0.454656 80.2248 1.0155 80.2248H15.2326C15.7934 80.2248 16.2481 79.7701 16.2481 79.2093V75.1472C16.2481 74.5865 15.7934 74.1317 15.2326 74.1317H6.09302V56.8682C6.09302 56.3073 5.63837 55.8527 5.07752 55.8527L1.0155 55.8527Z" fill="#333333"/>
<path d="M22.3411 55.8527H18.2791C17.7182 55.8527 17.2635 56.3073 17.2635 56.8682V79.2093C17.2635 79.7701 17.7182 80.2248 18.2791 80.2248H22.3411C22.9019 80.2248 23.3566 79.7701 23.3566 79.2093V56.8682C23.3566 56.3073 22.9019 55.8527 22.3411 55.8527Z" fill="#333333"/>
<path d="M58.8992 55.8527H54.8372C54.2764 55.8527 53.8217 56.3073 53.8217 56.8682V79.2093C53.8217 79.7701 54.2764 80.2248 54.8372 80.2248H58.8992C59.4601 80.2248 59.9147 79.7701 59.9147 79.2093V56.8682C59.9147 56.3073 59.4601 55.8527 58.8992 55.8527Z" fill="#333333"/>
<path d="M72.1008 55.8527H68.0388C67.3844 55.8527 67.0233 56.2829 67.0233 56.8682V79.1651C67.0233 79.7503 67.3844 80.2248 68.0388 80.2248H72.1008C72.7551 80.2248 73.1163 79.7503 73.1163 79.1651V56.9123C73.1163 56.3271 72.7551 55.8527 72.1008 55.8527Z" fill="#333333"/>
<path d="M62.0022 61.9457C61.4101 61.9457 60.9302 61.491 60.9302 60.9302V56.8682C60.9302 56.3073 61.4101 55.8527 62.0022 55.8527H78.1374C78.7294 55.8527 79.2093 56.3073 79.2093 56.8682V60.9302C79.2093 61.491 78.7294 61.9457 78.1374 61.9457H62.0022Z" fill="#333333"/>
<path d="M30.4651 55.8527H26.4031C25.8422 55.8527 25.3876 56.3073 25.3876 56.8682V79.2093C25.3876 79.7701 25.8422 80.2248 26.4031 80.2248H30.4651C31.0259 80.2248 31.4806 79.7701 31.4806 79.2093V56.8682C31.4806 56.3073 31.0259 55.8527 30.4651 55.8527Z" fill="#333333"/>
<path d="M28.4692 57.1245C28.2927 56.4811 28.8032 55.8527 29.5024 55.8527H33.7021C34.1881 55.8527 34.6127 56.1647 34.7353 56.6118L41.6005 78.9529C41.777 79.5964 41.2665 80.2248 40.5673 80.2248H36.3676C35.8816 80.2248 35.457 79.9128 35.3344 79.4656L28.4692 57.1245Z" fill="#333333"/>
<path d="M48.7091 57.1245C48.8856 56.4811 48.375 55.8527 47.6759 55.8527H43.4761C42.9902 55.8527 42.5655 56.1647 42.443 56.6118L35.5778 78.9529C35.4013 79.5964 35.9118 80.2248 36.611 80.2248H40.8107C41.2967 80.2248 41.7213 79.9128 41.8439 79.4656L48.7091 57.1245Z" fill="#333333"/>
<path d="M46.7132 55.8527H50.7752C51.3361 55.8527 51.7907 56.3073 51.7907 56.8682V79.2093C51.7907 79.7701 51.3361 80.2248 50.7752 80.2248H46.7132C46.1523 80.2248 45.6977 79.7701 45.6977 79.2093V56.8682C45.6977 56.3073 46.1523 55.8527 46.7132 55.8527Z" fill="#333333"/>
<path d="M80.2248 56.8682C80.2248 56.3073 80.6794 55.8527 81.2403 55.8527H86.3178V80.2248H81.2403C80.6794 80.2248 80.2248 79.7701 80.2248 79.2093V56.8682Z" fill="#333333"/>
<path d="M86.3178 61.9457V55.8527H95.4573C96.0182 55.8527 96.4728 56.3073 96.4728 56.8682V60.9302C96.4728 61.491 96.0182 61.9457 95.4573 61.9457H86.3178Z" fill="#333333"/>
<path d="M86.3178 71.0852V64.9922H95.4573C96.0182 64.9922 96.4728 65.4468 96.4728 66.0077V70.0697C96.4728 70.6306 96.0182 71.0852 95.4573 71.0852H86.3178Z" fill="#333333"/>
<path d="M86.3178 80.2247V74.1317H95.4573C96.0182 74.1317 96.4728 74.5864 96.4728 75.1472V79.2092C96.4728 79.7701 96.0182 80.2247 95.4573 80.2247H86.3178Z" fill="#333333"/>
<path fill-rule="evenodd" clip-rule="evenodd" d="M85.3023 106.628C92.0325 106.628 97.4884 101.172 97.4884 94.4418C97.4884 87.7116 92.0325 82.2557 85.3023 82.2557C78.5722 82.2557 73.1163 87.7116 73.1163 94.4418C73.1163 101.172 78.5722 106.628 85.3023 106.628ZM85.3022 100.535C88.5428 100.535 91.3953 97.6823 91.3953 94.4418C91.3953 91.2014 88.5429 88.3488 85.3023 88.3488C82.0619 88.3488 79.2093 91.2014 79.2093 94.4418C79.2093 97.6823 82.0618 100.535 85.3022 100.535Z" fill="#333333"/>
<path d="M103.581 82.2557H99.5194C98.9586 82.2557 98.5039 82.7104 98.5039 83.2712V105.612C98.5039 106.173 98.9586 106.628 99.5194 106.628H103.581C104.142 106.628 104.597 106.173 104.597 105.612V83.2712C104.597 82.7104 104.142 82.2557 103.581 82.2557Z" fill="#333333"/>
<path d="M117.798 82.2557H113.736C113.176 82.2557 112.721 82.7076 112.721 83.265V105.619C112.721 106.176 113.176 106.628 113.736 106.628H117.798C118.359 106.628 118.814 106.176 118.814 105.619V83.265C118.814 82.7076 118.359 82.2557 117.798 82.2557Z" fill="#333333"/>
<path d="M100.535 82.2557H105.802C106.552 82.2557 107.23 82.7257 107.534 83.4548L116.783 106.628H111.515C110.766 106.628 110.088 106.158 109.784 105.429L100.535 82.2557Z" fill="#333333"/>
<path fill-rule="evenodd" clip-rule="evenodd" d="M98.5541 55.8527C97.9656 55.8527 97.4884 56.3271 97.4884 56.9123V79.1651C97.4884 79.7503 97.9656 80.2248 98.5541 80.2248H107.091V80.2134C113.612 79.9361 118.814 74.5913 118.814 68.0387C118.814 61.4861 113.612 56.1414 107.091 55.864V55.8527H98.5541ZM106.628 74.1317C109.857 74.1226 112.721 71.2519 112.721 68.0387C112.721 64.8255 109.857 61.9547 106.628 61.9457H103.581V74.1317H106.628Z" fill="#333333"/>
<path d="M0 83.2712C0 82.7104 0.454641 82.2557 1.0155 82.2557H6.09302V106.628H1.0155C0.454641 106.628 0 106.173 0 105.612V83.2712Z" fill="#333333"/>
<path d="M6.09302 88.3488V82.2557H15.2326C15.7934 82.2557 16.2481 82.7104 16.2481 83.2712V87.3333C16.2481 87.8941 15.7934 88.3488 15.2326 88.3488H6.09302Z" fill="#333333"/>
<path d="M6.09302 97.4883V91.3953H15.2326C15.7934 91.3953 16.2481 91.8499 16.2481 92.4108V96.4728C16.2481 97.0336 15.7934 97.4883 15.2326 97.4883H6.09302Z" fill="#333333"/>
<path d="M6.09302 106.628V100.535H15.2326C15.7934 100.535 16.2481 100.989 16.2481 101.55V105.612C16.2481 106.173 15.7934 106.628 15.2326 106.628H6.09302Z" fill="#333333"/>
<path fill-rule="evenodd" clip-rule="evenodd" d="M18.3293 82.2557C17.7408 82.2557 17.2635 82.7302 17.2635 83.3154V105.568C17.2635 106.153 17.7408 106.628 18.3293 106.628H26.866V106.616C33.3873 106.339 38.5891 100.994 38.5891 94.4418C38.5891 87.8891 33.3873 82.5444 26.866 82.267V82.2557H18.3293ZM26.4031 100.535C29.6323 100.526 32.4961 97.655 32.4961 94.4418C32.4961 91.2286 29.6323 88.3578 26.4031 88.3488H23.3566V100.535H26.4031Z" fill="#333333"/>
<path d="M44.6822 82.2557H40.6202C40.0593 82.2557 39.6047 82.7104 39.6047 83.2712V105.612C39.6047 106.173 40.0593 106.628 40.6202 106.628H44.6822C45.243 106.628 45.6977 106.173 45.6977 105.612V83.2712C45.6977 82.7104 45.243 82.2557 44.6822 82.2557Z" fill="#333333"/>
<path d="M57.8837 82.2557H53.8217C53.1674 82.2557 52.8062 82.686 52.8062 83.2712V105.568C52.8062 106.153 53.1674 106.628 53.8217 106.628H57.8837C58.5381 106.628 58.8992 106.153 58.8992 105.568V83.3154C58.8992 82.7302 58.5381 82.2557 57.8837 82.2557Z" fill="#333333"/>
<path d="M47.7851 88.3488C47.1931 88.3488 46.7132 87.8941 46.7132 87.3333V83.2712C46.7132 82.7104 47.1931 82.2557 47.7851 82.2557H63.9203C64.5124 82.2557 64.9923 82.7104 64.9923 83.2712V87.3333C64.9923 87.8941 64.5124 88.3488 63.9203 88.3488H47.7851Z" fill="#333333"/>
<path d="M71.0853 82.2557H67.0233C66.4624 82.2557 66.0078 82.7104 66.0078 83.2712V105.612C66.0078 106.173 66.4624 106.628 67.0233 106.628H71.0853C71.6461 106.628 72.1008 106.173 72.1008 105.612V83.2712C72.1008 82.7104 71.6461 82.2557 71.0853 82.2557Z" fill="#333333"/>
<path opacity="0.3" d="M126.938 55.8527H125.922V106.628H126.938V55.8527Z" fill="#333333"/>
<path d="M153.549 85.6356H134.825V83.7284L144.607 72.6542C145.838 71.2596 146.815 70.0428 147.54 69.0038C148.265 67.951 148.784 66.994 149.099 66.1327C149.427 65.2577 149.591 64.41 149.591 63.5897C149.591 61.785 149.057 60.3085 147.991 59.16C146.925 58.0116 145.38 57.4374 143.356 57.4374C141.975 57.4374 140.779 57.7382 139.767 58.3397C138.756 58.9413 137.976 59.7616 137.43 60.8007C136.896 61.8397 136.63 63.0292 136.63 64.369H134.169C134.169 62.7284 134.531 61.2245 135.256 59.8573C135.994 58.4901 137.047 57.4032 138.414 56.5966C139.795 55.7762 141.442 55.3661 143.356 55.3661C146.05 55.3661 148.169 56.077 149.714 57.4989C151.272 58.9071 152.052 60.8622 152.052 63.3641C152.052 64.5673 151.771 65.7772 151.211 66.994C150.664 68.2108 149.939 69.4208 149.037 70.6239C148.148 71.827 147.198 73.0028 146.186 74.1512L137.84 83.5643H153.549V85.6356ZM157.704 70.3163L159.16 55.7762H174.089V58.0321H161.272L160.206 68.1425C160.725 67.7733 161.477 67.411 162.461 67.0555C163.459 66.6864 164.581 66.5018 165.825 66.5018C167.602 66.5018 169.154 66.8915 170.48 67.6708C171.806 68.4501 172.838 69.5575 173.577 70.993C174.315 72.4286 174.684 74.1376 174.684 76.12C174.684 78.0204 174.37 79.7225 173.741 81.2264C173.112 82.7167 172.141 83.8925 170.829 84.7538C169.516 85.6151 167.828 86.0458 165.763 86.0458C164.574 86.0458 163.453 85.8817 162.4 85.5536C161.361 85.2118 160.431 84.6991 159.611 84.0155C158.791 83.3319 158.121 82.4706 157.601 81.4315C157.095 80.3925 156.781 79.1757 156.658 77.7811H159.016C159.249 79.7909 159.939 81.329 161.087 82.3954C162.249 83.4481 163.808 83.9745 165.763 83.9745C167.171 83.9745 168.354 83.6669 169.311 83.0516C170.268 82.4364 170.986 81.5477 171.464 80.3856C171.957 79.2235 172.203 77.8153 172.203 76.161C172.203 74.7528 171.936 73.4882 171.403 72.3671C170.883 71.246 170.118 70.3641 169.106 69.7216C168.108 69.0653 166.871 68.7372 165.394 68.7372C163.972 68.7372 162.837 68.9286 161.99 69.3114C161.156 69.6942 160.376 70.2137 159.652 70.87L157.704 70.3163ZM195.225 73.1874C195.225 76.0995 194.862 78.5057 194.138 80.4061C193.427 82.3065 192.388 83.7216 191.021 84.6512C189.653 85.5809 188.006 86.0458 186.078 86.0458C184.178 86.0458 182.537 85.5809 181.156 84.6512C179.775 83.7216 178.716 82.3065 177.978 80.4061C177.239 78.5057 176.87 76.0995 176.87 73.1874V68.1425C176.87 65.2167 177.232 62.8104 177.957 60.9237C178.695 59.037 179.748 57.6356 181.115 56.7196C182.482 55.8036 184.123 55.3456 186.037 55.3456C187.965 55.3456 189.612 55.8036 190.98 56.7196C192.347 57.6356 193.393 59.037 194.117 60.9237C194.856 62.8104 195.225 65.2167 195.225 68.1425V73.1874ZM192.784 67.8348C192.784 65.5653 192.531 63.6581 192.025 62.1132C191.52 60.5682 190.768 59.4061 189.77 58.6268C188.785 57.8339 187.541 57.4374 186.037 57.4374C184.561 57.4374 183.323 57.8339 182.325 58.6268C181.327 59.4061 180.575 60.5682 180.069 62.1132C179.577 63.6581 179.331 65.5653 179.331 67.8348V73.454C179.331 75.6825 179.584 77.5829 180.09 79.1552C180.596 80.7274 181.348 81.9237 182.346 82.744C183.357 83.5643 184.602 83.9745 186.078 83.9745C187.582 83.9745 188.826 83.5643 189.811 82.744C190.795 81.9237 191.533 80.7274 192.025 79.1552C192.531 77.5829 192.784 75.6825 192.784 73.454V67.8348ZM217.611 72.7567H197.144V70.4393H217.611V72.7567ZM208.526 82.6415H206.065V60.9032H208.526V82.6415Z" fill="#333333"/>
<path d="M135.922 99.3838L135.91 98.4873H137.867C138.351 98.4873 138.742 98.3662 139.039 98.124C139.336 97.8818 139.484 97.5439 139.484 97.1104C139.484 96.6416 139.347 96.3018 139.074 96.0908C138.804 95.876 138.392 95.7686 137.838 95.7686H136.173V103.38H135.037V94.8486H137.838C138.709 94.8486 139.39 95.0303 139.882 95.3936C140.375 95.7529 140.621 96.3291 140.621 97.1221C140.621 97.4736 140.531 97.792 140.351 98.0771C140.172 98.3584 139.92 98.5889 139.595 98.7686C139.275 98.9482 138.902 99.0635 138.476 99.1143L138.078 99.3838H135.922ZM135.47 103.38L136.121 102.466H138.025C138.56 102.466 138.974 102.327 139.267 102.05C139.56 101.772 139.707 101.399 139.707 100.931C139.707 100.614 139.65 100.341 139.537 100.11C139.423 99.876 139.248 99.6963 139.009 99.5713C138.771 99.4463 138.461 99.3838 138.078 99.3838H136.466L136.478 98.4873H138.681L138.922 98.8154C139.332 98.8506 139.679 98.9658 139.964 99.1611C140.25 99.3564 140.466 99.6064 140.615 99.9111C140.767 100.216 140.843 100.552 140.843 100.919C140.843 101.72 140.586 102.331 140.07 102.753C139.558 103.171 138.877 103.38 138.025 103.38H135.47ZM144.98 103.497C144.39 103.497 143.877 103.366 143.439 103.104C143.005 102.839 142.668 102.476 142.425 102.015C142.187 101.554 142.068 101.026 142.068 100.433V100.181C142.068 99.4932 142.199 98.9072 142.461 98.4229C142.726 97.9346 143.07 97.5635 143.492 97.3096C143.918 97.0518 144.367 96.9229 144.839 96.9229C145.449 96.9229 145.945 97.0596 146.328 97.333C146.714 97.6025 146.998 97.9717 147.177 98.4404C147.361 98.9053 147.453 99.4326 147.453 100.022V100.509H142.718V99.6299H146.357V99.5479C146.341 99.2666 146.285 98.9932 146.187 98.7275C146.089 98.458 145.933 98.2373 145.718 98.0654C145.504 97.8896 145.211 97.8018 144.839 97.8018C144.511 97.8018 144.22 97.8955 143.966 98.083C143.716 98.2666 143.519 98.5361 143.375 98.8916C143.234 99.2432 143.164 99.6729 143.164 100.181V100.433C143.164 100.835 143.238 101.202 143.386 101.534C143.535 101.862 143.75 102.126 144.031 102.325C144.312 102.521 144.648 102.618 145.039 102.618C145.422 102.618 145.746 102.54 146.011 102.384C146.277 102.228 146.509 102.019 146.709 101.757L147.371 102.272C147.168 102.585 146.875 102.868 146.492 103.122C146.113 103.372 145.609 103.497 144.98 103.497ZM152.41 101.698C152.41 101.542 152.375 101.397 152.304 101.265C152.238 101.128 152.101 101.005 151.894 100.896C151.687 100.782 151.375 100.683 150.957 100.597C150.488 100.499 150.082 100.376 149.738 100.228C149.398 100.075 149.134 99.8818 148.947 99.6475C148.763 99.4131 148.672 99.1221 148.672 98.7744C148.672 98.4385 148.767 98.1318 148.959 97.8545C149.154 97.5732 149.427 97.3486 149.779 97.1807C150.134 97.0088 150.548 96.9229 151.021 96.9229C151.529 96.9229 151.963 97.0127 152.322 97.1924C152.685 97.3682 152.963 97.6064 153.154 97.9072C153.345 98.2041 153.441 98.5342 153.441 98.8975H152.345C152.345 98.6357 152.23 98.3877 152 98.1533C151.773 97.9189 151.447 97.8018 151.021 97.8018C150.724 97.8018 150.482 97.8486 150.295 97.9424C150.111 98.0322 149.976 98.1494 149.89 98.2939C149.808 98.4346 149.767 98.583 149.767 98.7393C149.767 98.8955 149.806 99.0322 149.884 99.1494C149.963 99.2627 150.105 99.3643 150.312 99.4541C150.523 99.5439 150.828 99.6338 151.226 99.7236C151.746 99.8408 152.173 99.9814 152.509 100.146C152.845 100.31 153.095 100.511 153.259 100.749C153.423 100.987 153.505 101.278 153.505 101.622C153.505 101.989 153.404 102.315 153.201 102.601C152.998 102.882 152.713 103.103 152.345 103.263C151.978 103.419 151.547 103.497 151.05 103.497C150.492 103.497 150.019 103.397 149.632 103.198C149.246 102.999 148.953 102.743 148.754 102.431C148.554 102.114 148.455 101.78 148.455 101.429H149.55C149.57 101.726 149.656 101.962 149.808 102.138C149.964 102.31 150.154 102.433 150.377 102.507C150.603 102.581 150.828 102.618 151.05 102.618C151.347 102.618 151.595 102.579 151.795 102.501C151.998 102.419 152.15 102.31 152.252 102.173C152.357 102.032 152.41 101.874 152.41 101.698ZM157.584 97.8662H154.15V97.04H157.584V97.8662ZM156.4 95.499V101.81C156.4 102.028 156.433 102.192 156.5 102.302C156.566 102.411 156.652 102.483 156.757 102.519C156.863 102.554 156.976 102.571 157.097 102.571C157.187 102.571 157.281 102.563 157.379 102.548C157.48 102.532 157.554 102.519 157.601 102.507L157.607 103.38C157.521 103.407 157.408 103.433 157.267 103.456C157.13 103.483 156.964 103.497 156.769 103.497C156.504 103.497 156.259 103.444 156.037 103.339C155.814 103.233 155.636 103.058 155.504 102.812C155.371 102.562 155.304 102.226 155.304 101.804V95.499H156.4ZM161.105 100.192H158.24V99.3076H161.105V100.192ZM165.851 101.698C165.851 101.542 165.816 101.397 165.746 101.265C165.679 101.128 165.543 101.005 165.336 100.896C165.129 100.782 164.816 100.683 164.398 100.597C163.929 100.499 163.523 100.376 163.179 100.228C162.839 100.075 162.576 99.8818 162.388 99.6475C162.205 99.4131 162.113 99.1221 162.113 98.7744C162.113 98.4385 162.209 98.1318 162.4 97.8545C162.595 97.5732 162.869 97.3486 163.22 97.1807C163.576 97.0088 163.99 96.9229 164.463 96.9229C164.97 96.9229 165.404 97.0127 165.763 97.1924C166.127 97.3682 166.404 97.6064 166.595 97.9072C166.787 98.2041 166.882 98.5342 166.882 98.8975H165.787C165.787 98.6357 165.672 98.3877 165.441 98.1533C165.214 97.9189 164.888 97.8018 164.463 97.8018C164.166 97.8018 163.923 97.8486 163.736 97.9424C163.552 98.0322 163.418 98.1494 163.332 98.2939C163.25 98.4346 163.209 98.583 163.209 98.7393C163.209 98.8955 163.248 99.0322 163.326 99.1494C163.404 99.2627 163.547 99.3643 163.754 99.4541C163.964 99.5439 164.269 99.6338 164.668 99.7236C165.187 99.8408 165.615 99.9814 165.951 100.146C166.287 100.31 166.537 100.511 166.701 100.749C166.865 100.987 166.947 101.278 166.947 101.622C166.947 101.989 166.845 102.315 166.642 102.601C166.439 102.882 166.154 103.103 165.787 103.263C165.42 103.419 164.988 103.497 164.492 103.497C163.933 103.497 163.461 103.397 163.074 103.198C162.687 102.999 162.394 102.743 162.195 102.431C161.996 102.114 161.896 101.78 161.896 101.429H162.992C163.011 101.726 163.097 101.962 163.25 102.138C163.406 102.31 163.595 102.433 163.818 102.507C164.045 102.581 164.269 102.618 164.492 102.618C164.789 102.618 165.037 102.579 165.236 102.501C165.439 102.419 165.591 102.31 165.693 102.173C165.798 102.032 165.851 101.874 165.851 101.698ZM170.996 103.497C170.406 103.497 169.892 103.366 169.455 103.104C169.021 102.839 168.683 102.476 168.441 102.015C168.203 101.554 168.084 101.026 168.084 100.433V100.181C168.084 99.4932 168.214 98.9072 168.476 98.4229C168.742 97.9346 169.086 97.5635 169.507 97.3096C169.933 97.0518 170.382 96.9229 170.855 96.9229C171.464 96.9229 171.961 97.0596 172.343 97.333C172.73 97.6025 173.013 97.9717 173.193 98.4404C173.377 98.9053 173.468 99.4326 173.468 100.022V100.509H168.734V99.6299H172.373V99.5479C172.357 99.2666 172.3 98.9932 172.203 98.7275C172.105 98.458 171.949 98.2373 171.734 98.0654C171.519 97.8896 171.226 97.8018 170.855 97.8018C170.527 97.8018 170.236 97.8955 169.982 98.083C169.732 98.2666 169.535 98.5361 169.39 98.8916C169.25 99.2432 169.179 99.6729 169.179 100.181V100.433C169.179 100.835 169.254 101.202 169.402 101.534C169.55 101.862 169.765 102.126 170.047 102.325C170.328 102.521 170.664 102.618 171.054 102.618C171.437 102.618 171.761 102.54 172.027 102.384C172.293 102.228 172.525 102.019 172.724 101.757L173.386 102.272C173.183 102.585 172.89 102.868 172.507 103.122C172.129 103.372 171.625 103.497 170.996 103.497ZM175.923 103.38H174.828V94.3799H175.923V103.38ZM178.841 103.38H177.746V94.3799H178.841V103.38ZM181.759 103.38H180.664V97.04H181.759V103.38ZM180.582 95.3525C180.582 95.1807 180.634 95.0342 180.74 94.9131C180.849 94.792 181.009 94.7314 181.22 94.7314C181.431 94.7314 181.591 94.792 181.701 94.9131C181.814 95.0342 181.871 95.1807 181.871 95.3525C181.871 95.5205 181.814 95.665 181.701 95.7861C181.591 95.9033 181.431 95.9619 181.22 95.9619C181.009 95.9619 180.849 95.9033 180.74 95.7861C180.634 95.665 180.582 95.5205 180.582 95.3525ZM184.584 103.38H183.488V97.04H184.525L184.584 98.3936V103.38ZM183.869 99.9463C183.877 99.3682 183.988 98.8525 184.203 98.3994C184.418 97.9424 184.716 97.583 185.099 97.3213C185.486 97.0557 185.935 96.9229 186.447 96.9229C186.865 96.9229 187.224 97.001 187.525 97.1572C187.83 97.3096 188.064 97.5537 188.228 97.8896C188.396 98.2256 188.48 98.6709 188.48 99.2256V103.38H187.384V99.2139C187.384 98.8818 187.336 98.6143 187.238 98.4111C187.144 98.208 187.004 98.0615 186.816 97.9717C186.629 97.8779 186.398 97.8311 186.125 97.8311C185.855 97.8311 185.611 97.8877 185.392 98.001C185.173 98.1143 184.984 98.2705 184.824 98.4697C184.664 98.6689 184.541 98.8975 184.455 99.1553C184.369 99.4092 184.326 99.6787 184.326 99.9639L183.869 99.9463ZM195.224 97.04V103.245C195.224 103.804 195.109 104.28 194.879 104.675C194.652 105.069 194.336 105.368 193.929 105.571C193.527 105.778 193.062 105.882 192.535 105.882C192.316 105.882 192.058 105.847 191.761 105.776C191.468 105.71 191.179 105.595 190.894 105.431C190.613 105.271 190.377 105.054 190.185 104.78L190.754 104.142C191.019 104.462 191.297 104.685 191.586 104.81C191.879 104.938 192.168 105.003 192.453 105.003C192.964 105.003 193.371 104.856 193.672 104.563C193.976 104.274 194.129 103.853 194.129 103.298V98.4346L194.228 97.04H195.224ZM189.863 100.157C189.863 99.5127 189.964 98.9482 190.168 98.4639C190.371 97.9756 190.66 97.5967 191.035 97.3271C191.41 97.0576 191.855 96.9229 192.371 96.9229C192.769 96.9229 193.117 96.9932 193.414 97.1338C193.714 97.2705 193.968 97.4697 194.175 97.7314C194.386 97.9932 194.552 98.3096 194.673 98.6807C194.798 99.0518 194.884 99.4697 194.931 99.9346V100.503C194.873 101.116 194.742 101.647 194.539 102.097C194.339 102.542 194.06 102.888 193.701 103.134C193.341 103.376 192.894 103.497 192.359 103.497C191.851 103.497 191.41 103.358 191.035 103.081C190.664 102.8 190.375 102.417 190.168 101.933C189.964 101.448 189.863 100.897 189.863 100.28V100.157ZM190.959 100.28C190.959 100.702 191.015 101.087 191.129 101.435C191.246 101.782 191.427 102.062 191.673 102.272C191.92 102.479 192.238 102.583 192.629 102.583C192.988 102.583 193.283 102.507 193.513 102.354C193.744 102.202 193.929 102.001 194.07 101.751C194.211 101.501 194.32 101.229 194.398 100.937V99.5127C194.351 99.2979 194.285 99.0908 194.199 98.8916C194.113 98.6885 194 98.5088 193.859 98.3525C193.718 98.1924 193.547 98.0654 193.343 97.9717C193.144 97.8779 192.91 97.8311 192.64 97.8311C192.246 97.8311 191.923 97.9365 191.673 98.1475C191.427 98.3584 191.246 98.6416 191.129 98.9971C191.015 99.3486 190.959 99.7354 190.959 100.157V100.28ZM203.937 94.8486H204.769L204.289 97.1514L202.472 103.38H201.646L202.25 100.808L203.937 94.8486ZM201.851 100.696L202.25 103.38H201.435L199.373 94.8486H200.509L201.851 100.696ZM208.261 94.8486H209.404L207.341 103.38H206.527L206.949 100.69L208.261 94.8486ZM206.533 100.808L207.13 103.38H206.304L204.552 97.1514L204.078 94.8486H204.892L206.533 100.808ZM214.027 99.0322C214.027 98.6533 213.914 98.3525 213.687 98.1299C213.464 97.9033 213.134 97.79 212.697 97.79C212.427 97.79 212.189 97.8369 211.982 97.9307C211.779 98.0244 211.621 98.1475 211.507 98.2998C211.394 98.4521 211.338 98.6182 211.338 98.7979H210.242C210.242 98.4932 210.345 98.1982 210.552 97.9131C210.759 97.624 211.05 97.3877 211.425 97.2041C211.804 97.0166 212.25 96.9229 212.761 96.9229C213.222 96.9229 213.63 97.001 213.986 97.1572C214.341 97.3135 214.619 97.5498 214.818 97.8662C215.021 98.1787 215.123 98.5713 215.123 99.0439V101.997C215.123 102.208 215.14 102.433 215.175 102.671C215.214 102.909 215.271 103.114 215.345 103.286V103.38H214.203C214.148 103.255 214.105 103.089 214.074 102.882C214.043 102.671 214.027 102.476 214.027 102.296V99.0322ZM214.226 100.298H213.136C212.519 100.298 212.043 100.396 211.707 100.591C211.371 100.786 211.203 101.079 211.203 101.47C211.203 101.774 211.304 102.032 211.507 102.243C211.714 102.454 212.015 102.56 212.41 102.56C212.742 102.56 213.035 102.489 213.289 102.349C213.543 102.208 213.744 102.034 213.892 101.827C214.041 101.62 214.121 101.421 214.132 101.229L214.601 101.751C214.574 101.915 214.5 102.097 214.379 102.296C214.257 102.495 214.095 102.687 213.892 102.87C213.693 103.05 213.455 103.2 213.177 103.321C212.904 103.438 212.595 103.497 212.252 103.497C211.822 103.497 211.445 103.415 211.121 103.251C210.8 103.083 210.55 102.856 210.371 102.571C210.195 102.286 210.107 101.97 210.107 101.622C210.107 100.938 210.365 100.421 210.88 100.069C211.396 99.7139 212.089 99.5361 212.961 99.5361H214.214L214.226 100.298ZM218.017 103.38H216.922V94.3799H218.017V103.38ZM220.935 103.38H219.839V94.3799H220.935V103.38ZM223.759 105.817H222.664V97.04H223.66L223.759 98.2588V105.817ZM228.025 100.28C228.025 100.897 227.929 101.448 227.738 101.933C227.547 102.417 227.267 102.8 226.9 103.081C226.537 103.358 226.093 103.497 225.57 103.497C225.027 103.497 224.572 103.38 224.205 103.146C223.838 102.911 223.55 102.579 223.343 102.149C223.136 101.716 223.002 101.204 222.939 100.614V99.9346C223.002 99.3135 223.136 98.7783 223.343 98.3291C223.554 97.8799 223.841 97.5342 224.205 97.292C224.572 97.0459 225.021 96.9229 225.552 96.9229C226.084 96.9229 226.533 97.0576 226.9 97.3271C227.267 97.5967 227.547 97.9756 227.738 98.4639C227.929 98.9482 228.025 99.5127 228.025 100.157V100.28ZM226.929 100.157C226.929 99.7354 226.869 99.3486 226.748 98.9971C226.63 98.6416 226.445 98.3584 226.191 98.1475C225.941 97.9365 225.619 97.8311 225.224 97.8311C224.955 97.8311 224.72 97.8779 224.521 97.9717C224.322 98.0654 224.152 98.1924 224.011 98.3525C223.871 98.5088 223.755 98.6885 223.666 98.8916C223.58 99.0908 223.515 99.2979 223.472 99.5127V101.042C223.55 101.315 223.658 101.573 223.795 101.815C223.935 102.054 224.121 102.247 224.351 102.396C224.586 102.544 224.88 102.618 225.236 102.618C225.627 102.618 225.947 102.511 226.197 102.296C226.447 102.081 226.63 101.798 226.748 101.446C226.869 101.091 226.929 100.702 226.929 100.28V100.157ZM233.14 99.0322C233.14 98.6533 233.027 98.3525 232.8 98.1299C232.578 97.9033 232.248 97.79 231.81 97.79C231.541 97.79 231.302 97.8369 231.095 97.9307C230.892 98.0244 230.734 98.1475 230.621 98.2998C230.507 98.4521 230.451 98.6182 230.451 98.7979H229.355C229.355 98.4932 229.459 98.1982 229.666 97.9131C229.873 97.624 230.164 97.3877 230.539 97.2041C230.918 97.0166 231.363 96.9229 231.875 96.9229C232.336 96.9229 232.744 97.001 233.099 97.1572C233.455 97.3135 233.732 97.5498 233.931 97.8662C234.134 98.1787 234.236 98.5713 234.236 99.0439V101.997C234.236 102.208 234.254 102.433 234.289 102.671C234.328 102.909 234.384 103.114 234.459 103.286V103.38H233.316C233.261 103.255 233.218 103.089 233.187 102.882C233.156 102.671 233.14 102.476 233.14 102.296V99.0322ZM233.339 100.298H232.25C231.632 100.298 231.156 100.396 230.82 100.591C230.484 100.786 230.316 101.079 230.316 101.47C230.316 101.774 230.418 102.032 230.621 102.243C230.828 102.454 231.129 102.56 231.523 102.56C231.855 102.56 232.148 102.489 232.402 102.349C232.656 102.208 232.857 102.034 233.005 101.827C233.154 101.62 233.234 101.421 233.246 101.229L233.714 101.751C233.687 101.915 233.613 102.097 233.492 102.296C233.371 102.495 233.209 102.687 233.005 102.87C232.806 103.05 232.568 103.2 232.291 103.321C232.017 103.438 231.709 103.497 231.365 103.497C230.935 103.497 230.558 103.415 230.234 103.251C229.914 103.083 229.664 102.856 229.484 102.571C229.308 102.286 229.22 101.97 229.22 101.622C229.22 100.938 229.478 100.421 229.994 100.069C230.509 99.7139 231.203 99.5361 232.074 99.5361H233.328L233.339 100.298ZM237.037 105.817H235.941V97.04H236.937L237.037 98.2588V105.817ZM241.302 100.28C241.302 100.897 241.207 101.448 241.015 101.933C240.824 102.417 240.545 102.8 240.177 103.081C239.814 103.358 239.371 103.497 238.847 103.497C238.304 103.497 237.849 103.38 237.482 103.146C237.115 102.911 236.828 102.579 236.621 102.149C236.414 101.716 236.279 101.204 236.216 100.614V99.9346C236.279 99.3135 236.414 98.7783 236.621 98.3291C236.832 97.8799 237.119 97.5342 237.482 97.292C237.849 97.0459 238.298 96.9229 238.83 96.9229C239.361 96.9229 239.81 97.0576 240.177 97.3271C240.545 97.5967 240.824 97.9756 241.015 98.4639C241.207 98.9482 241.302 99.5127 241.302 100.157V100.28ZM240.207 100.157C240.207 99.7354 240.146 99.3486 240.025 98.9971C239.908 98.6416 239.722 98.3584 239.468 98.1475C239.218 97.9365 238.896 97.8311 238.502 97.8311C238.232 97.8311 237.998 97.8779 237.798 97.9717C237.599 98.0654 237.429 98.1924 237.289 98.3525C237.148 98.5088 237.033 98.6885 236.943 98.8916C236.857 99.0908 236.793 99.2979 236.75 99.5127V101.042C236.828 101.315 236.935 101.573 237.072 101.815C237.213 102.054 237.398 102.247 237.629 102.396C237.863 102.544 238.158 102.618 238.513 102.618C238.904 102.618 239.224 102.511 239.474 102.296C239.724 102.081 239.908 101.798 240.025 101.446C240.146 101.091 240.207 100.702 240.207 100.28V100.157ZM245.316 103.497C244.726 103.497 244.213 103.366 243.775 103.104C243.341 102.839 243.004 102.476 242.761 102.015C242.523 101.554 242.404 101.026 242.404 100.433V100.181C242.404 99.4932 242.535 98.9072 242.797 98.4229C243.062 97.9346 243.406 97.5635 243.828 97.3096C244.254 97.0518 244.703 96.9229 245.175 96.9229C245.785 96.9229 246.281 97.0596 246.664 97.333C247.05 97.6025 247.334 97.9717 247.513 98.4404C247.697 98.9053 247.789 99.4326 247.789 100.022V100.509H243.054V99.6299H246.693V99.5479C246.677 99.2666 246.621 98.9932 246.523 98.7275C246.425 98.458 246.269 98.2373 246.054 98.0654C245.839 97.8896 245.547 97.8018 245.175 97.8018C244.847 97.8018 244.556 97.8955 244.302 98.083C244.052 98.2666 243.855 98.5361 243.711 98.8916C243.57 99.2432 243.5 99.6729 243.5 100.181V100.433C243.5 100.835 243.574 101.202 243.722 101.534C243.871 101.862 244.086 102.126 244.367 102.325C244.648 102.521 244.984 102.618 245.375 102.618C245.757 102.618 246.082 102.54 246.347 102.384C246.613 102.228 246.845 102.019 247.045 101.757L247.707 102.272C247.504 102.585 247.211 102.868 246.828 103.122C246.449 103.372 245.945 103.497 245.316 103.497ZM250.15 103.38H249.054V97.04H250.121L250.15 98.0361V103.38ZM252.125 98.0068C252.031 97.9873 251.943 97.9756 251.861 97.9717C251.783 97.9639 251.693 97.96 251.591 97.96C251.259 97.96 250.978 98.0283 250.748 98.165C250.521 98.3018 250.345 98.4912 250.22 98.7334C250.095 98.9717 250.017 99.2451 249.986 99.5537L249.675 99.7295C249.675 99.2178 249.744 98.751 249.88 98.3291C250.017 97.9033 250.23 97.5635 250.519 97.3096C250.812 97.0518 251.187 96.9229 251.644 96.9229C251.718 96.9229 251.806 96.9326 251.908 96.9521C252.013 96.9678 252.086 96.9854 252.125 97.0049V98.0068ZM256.812 101.698C256.812 101.542 256.777 101.397 256.707 101.265C256.64 101.128 256.504 101.005 256.297 100.896C256.089 100.782 255.777 100.683 255.359 100.597C254.89 100.499 254.484 100.376 254.14 100.228C253.8 100.075 253.537 99.8818 253.349 99.6475C253.166 99.4131 253.074 99.1221 253.074 98.7744C253.074 98.4385 253.17 98.1318 253.361 97.8545C253.556 97.5732 253.83 97.3486 254.181 97.1807C254.537 97.0088 254.951 96.9229 255.423 96.9229C255.931 96.9229 256.365 97.0127 256.724 97.1924C257.088 97.3682 257.365 97.6064 257.556 97.9072C257.748 98.2041 257.843 98.5342 257.843 98.8975H256.748C256.748 98.6357 256.632 98.3877 256.402 98.1533C256.175 97.9189 255.849 97.8018 255.423 97.8018C255.127 97.8018 254.884 97.8486 254.697 97.9424C254.513 98.0322 254.379 98.1494 254.293 98.2939C254.211 98.4346 254.17 98.583 254.17 98.7393C254.17 98.8955 254.209 99.0322 254.287 99.1494C254.365 99.2627 254.507 99.3643 254.714 99.4541C254.925 99.5439 255.23 99.6338 255.629 99.7236C256.148 99.8408 256.576 99.9814 256.912 100.146C257.248 100.31 257.498 100.511 257.662 100.749C257.826 100.987 257.908 101.278 257.908 101.622C257.908 101.989 257.806 102.315 257.603 102.601C257.4 102.882 257.115 103.103 256.748 103.263C256.38 103.419 255.949 103.497 255.453 103.497C254.894 103.497 254.422 103.397 254.035 103.198C253.648 102.999 253.355 102.743 253.156 102.431C252.957 102.114 252.857 101.78 252.857 101.429H253.953C253.972 101.726 254.058 101.962 254.211 102.138C254.367 102.31 254.556 102.433 254.779 102.507C255.005 102.581 255.23 102.618 255.453 102.618C255.75 102.618 255.998 102.579 256.197 102.501C256.4 102.419 256.552 102.31 256.654 102.173C256.759 102.032 256.812 101.874 256.812 101.698Z" fill="#333333"/>
</svg>
