<svg id="Icon_-_Art_Rollover" data-name="Icon - Art Rollover" xmlns="http://www.w3.org/2000/svg" width="32" height="32" viewBox="0 0 32 32">
  <defs>
    <style>
      .cls-1, .cls-3 {
        fill: #333;
      }

      .cls-2 {
        fill: #fff;
      }

      .cls-2, .cls-3 {
        fill-rule: evenodd;
      }
    </style>
  </defs>
  <rect id="Icon_BG_-_Art" data-name="Icon BG - Art" class="cls-1" width="32" height="32" rx="8" ry="8"/>
  <path id="Icon_-_Art" data-name="Icon - Art" class="cls-2" d="M34,746H46a1.712,1.712,0,0,1,2,2v5c0,1.456-.538,2-2,2H34c-1.438,0-2-.554-2-2v-5A1.7,1.7,0,0,1,34,746Zm2,9h2l-1,6H35Zm6,0h2l1,6H43Zm-3,0h2v2H39v-2Zm-2,2h6v1H37v-1Zm1-12h4v1H38v-1Z" transform="translate(-24 -737)"/>
  <path id="Icon_-_Art-2" data-name="Icon - Art" class="cls-3" d="M39.667,749.661L42,753H35l2.333-3.34A1.348,1.348,0,0,1,39.667,749.661Z" transform="translate(-24 -737)"/>
  <path id="Icon_-_Art-3" data-name="Icon - Art" class="cls-3" d="M40.992,750.065a2.538,2.538,0,0,1,2.586,1.034L45,753H43.578C43.22,752.712,41.37,750.366,40.992,750.065Z" transform="translate(-24 -737)"/>
</svg>
