<svg xmlns="http://www.w3.org/2000/svg" width="32" height="32" viewBox="0 0 32 32">
  <defs>
    <style>
      .cls-1 {
        opacity: 0.4;
      }

      .cls-2 {
        fill: #a9d56f;
      }

      .cls-3 {
        fill: #fff;
        fill-rule: evenodd;
      }
    </style>
  </defs>
  <g id="Icon_-_Music" data-name="Icon - Music" class="cls-1">
    <rect id="Icon_BG_-_Art" data-name="Icon BG - Art" class="cls-2" width="32" height="32" rx="8" ry="8"/>
    <path id="Icon_-_Music-2" data-name="Icon - Music" class="cls-3" d="M161,746v4.571s4.993,2.01,1.013,5.484a0.814,0.814,0,0,0,1.012.914s5.795-3.049,1.239-7.3A41.726,41.726,0,0,1,161,746Zm-4,9c2.209,0,4,1.343,4,3s-1.791,3-4,3-4-1.343-4-3S154.791,755,157,755Zm2.5-10a1.5,1.5,0,0,1,1.5,1.5v11a1.5,1.5,0,0,1-3,0v-11A1.5,1.5,0,0,1,159.5,745Z" transform="translate(-144 -737)"/>
  </g>
</svg>
