<svg id="Icon_-_Products" data-name="Icon - Products" xmlns="http://www.w3.org/2000/svg" width="32" height="32" viewBox="0 0 32 32">
  <defs>
    <style>
      .cls-1 {
        fill: #407fbc;
      }

      .cls-2 {
        fill: #fff;
        fill-rule: evenodd;
      }
    </style>
  </defs>
  <rect id="Icon_BG_-_Art" data-name="Icon BG - Art" class="cls-1" width="32" height="32" rx="8" ry="8"/>
  <path id="Icon_-_Products-2" data-name="Icon - Products" class="cls-2" d="M232,747l3-2h2l2,2h2l2-2h2l2,2-1,3h-2v11h-4v-6s0.346-2-2-2h-3v-3h-2Zm2,8-0.045-.985H239s0,5.1,0,5.986a1.045,1.045,0,0,1-1,1h-2.881A1.088,1.088,0,0,1,234,760s-2,.365-2-2v-1A1.747,1.747,0,0,1,234,755Zm-1,3a0.987,0.987,0,0,0,1,1v-3a1.053,1.053,0,0,0-1,1v1Zm13.5-7a0.5,0.5,0,0,1,.5.5V753h-1v-1.5A0.5,0.5,0,0,1,246.5,751Zm1.5,2v6.5a1.5,1.5,0,1,1-3,0V753h3Z" transform="translate(-224 -737)"/>
</svg>
