<svg xmlns="http://www.w3.org/2000/svg" width="32" height="32" viewBox="0 0 32 32">
  <defs>
    <style>
      .cls-1 {
        opacity: 0.4;
      }

      .cls-2, .cls-4 {
        fill: #40c2f3;
      }

      .cls-3 {
        fill: #fff;
      }

      .cls-4 {
        fill-rule: evenodd;
      }
    </style>
  </defs>
  <g id="Icon_-_Templates" data-name="Icon - Templates" class="cls-1">
    <rect id="Icon_BG_-_Art" data-name="Icon BG - Art" class="cls-2" width="32" height="32" rx="8" ry="8"/>
    <rect id="Icon_-_Templates-2" data-name="Icon - Templates" class="cls-3" x="8" y="8" width="16" height="16" rx="2" ry="2"/>
    <path id="Icon_-_Templates-3" data-name="Icon - Templates" class="cls-4" d="M197,751h6a1,1,0,0,1,1,1v2h-8v-2A1,1,0,0,1,197,751Zm2,4v3h-2a1,1,0,0,1-1-1v-2h3Zm5,0v2a1,1,0,0,1-1,1h-3v-3h4Zm-10.5-9a0.5,0.5,0,1,1-.5.5A0.5,0.5,0,0,1,193.5,746Zm2,0a0.5,0.5,0,1,1-.5.5A0.5,0.5,0,0,1,195.5,746Zm2,0a0.5,0.5,0,1,1-.5.5A0.5,0.5,0,0,1,197.5,746Zm-5.5,2h16v1H192v-1Z" transform="translate(-184 -737)"/>
  </g>
</svg>
