<svg width="9" height="12" viewBox="0 0 9 12" fill="none" xmlns="http://www.w3.org/2000/svg">
<path fill-rule="evenodd" clip-rule="evenodd" d="M4.5 0.000923094C3.33268 -0.0226896 2.2036 0.41736 1.36012 1.22466C0.516644 2.03197 0.0275476 3.14069 0 4.30792C0.0012658 5.02543 0.187603 5.73048 0.541 6.35492L4.254 11.8609C4.27951 11.9034 4.31557 11.9385 4.35867 11.9629C4.40178 11.9873 4.45047 12.0001 4.5 12.0001C4.54953 12.0001 4.59822 11.9873 4.64133 11.9629C4.68443 11.9385 4.72049 11.9034 4.746 11.8609L8.46201 6.35292C8.81369 5.72901 8.99895 5.02512 9 4.30892C8.97297 3.14143 8.48408 2.03229 7.64052 1.22472C6.79695 0.417147 5.66756 -0.0229523 4.5 0.000923094ZM4.5 6.46192C4.07824 6.44331 3.67124 6.30123 3.32953 6.05332C2.98782 5.80541 2.72644 5.4626 2.57787 5.06744C2.42929 4.67228 2.40006 4.24218 2.49379 3.83055C2.58752 3.41892 2.8001 3.04388 3.10512 2.75201C3.41014 2.46014 3.79417 2.26429 4.20953 2.18877C4.62489 2.11326 5.05328 2.16141 5.44151 2.32724C5.82975 2.49308 6.16072 2.76929 6.39334 3.12159C6.62596 3.47389 6.74998 3.88675 6.75 4.30892C6.7361 4.89245 6.49149 5.44669 6.06976 5.85023C5.64804 6.25378 5.08358 6.47373 4.5 6.46192Z" fill="#E93F8F"/>
</svg>
