<svg width="49" height="17" viewBox="0 0 49 17" fill="none" xmlns="http://www.w3.org/2000/svg">
<path fill-rule="evenodd" clip-rule="evenodd" d="M3 0C1.34315 0 0 1.34315 0 3V14C0 15.6569 1.34314 17 3 17H49V15L43 9.09091V7.90909L49 2V0H3Z" fill="#363636"/>
<path fill-rule="evenodd" clip-rule="evenodd" d="M7.19941 12.2381L7.19996 12.2376C7.4065 11.4363 7.79291 10.7605 8.28866 10.3112C7.6203 10.3441 6.86913 10.1394 6.15639 9.71875C5.78511 9.93785 5.4242 10.2155 5.09098 10.5487C4.61962 11.0201 4.25951 11.5467 4.01904 12.08C4.5661 12.2869 5.19313 12.4045 5.8596 12.4045C6.33079 12.4045 6.78208 12.3457 7.19941 12.2381Z" fill="#E52141"/>
<path fill-rule="evenodd" clip-rule="evenodd" d="M4.56064 14.8766L7.19976 12.2378C6.78239 12.3453 6.3311 12.4041 5.85995 12.4041C5.19344 12.4041 4.56644 12.2865 4.01935 12.0796C3.57114 13.0735 3.53888 14.0905 3.97922 14.8163C4.08899 15.0357 4.40363 15.0626 4.56064 14.8766Z" fill="#E93F8F"/>
<path fill-rule="evenodd" clip-rule="evenodd" d="M8.28809 10.3112C8.70222 9.93593 9.19275 9.71875 9.71854 9.71875C9.34675 10.0906 8.84628 10.2838 8.28809 10.3112Z" fill="#B52728"/>
<path fill-rule="evenodd" clip-rule="evenodd" d="M12.2381 7.19945L12.2376 7.19996C11.4363 7.4065 10.7605 7.79291 10.3112 8.2887C10.3441 7.62034 10.1394 6.86913 9.71875 6.15643C9.93788 5.78511 10.2155 5.42424 10.5487 5.09102C11.0201 4.61966 11.5467 4.25955 12.08 4.01904C12.2869 4.56614 12.4045 5.19313 12.4045 5.85964C12.4045 6.33078 12.3457 6.78208 12.2381 7.19945Z" fill="#04A34D"/>
<path fill-rule="evenodd" clip-rule="evenodd" d="M14.8771 4.5604L12.2383 7.19952C12.3458 6.78215 12.4046 6.33085 12.4046 5.85971C12.4046 5.1932 12.2871 4.5662 12.0801 4.01911C13.074 3.5709 14.091 3.53864 14.8168 3.97894C15.0362 4.08875 15.063 4.40339 14.8771 4.5604Z" fill="#48BED8"/>
<path fill-rule="evenodd" clip-rule="evenodd" d="M7.19873 12.238C7.40527 11.4365 7.79176 10.7605 8.28765 10.3111C8.84581 10.2836 9.34624 10.0905 9.718 9.71875L7.19873 12.238Z" fill="#D52427"/>
<path fill-rule="evenodd" clip-rule="evenodd" d="M12.238 7.19946C11.4365 7.40597 10.7605 7.79249 10.3111 8.28839C10.2836 8.84655 10.0905 9.34694 9.71875 9.71873L12.238 7.19946Z" fill="#038A41"/>
<path fill-rule="evenodd" clip-rule="evenodd" d="M10.3112 8.28809C9.93593 8.70222 9.71875 9.19275 9.71875 9.71854C10.0906 9.34671 10.2838 8.84628 10.3112 8.28809Z" fill="#20743B"/>
<path fill-rule="evenodd" clip-rule="evenodd" d="M2 9.71876C2 8.69936 2.81623 7.81255 4.01873 7.35767C4.2592 7.89086 4.61949 8.41745 5.09082 8.88878C5.42407 9.22203 5.78494 9.49962 6.15626 9.71876C5.78498 9.93786 5.42407 10.2155 5.09085 10.5487C4.61949 11.0201 4.25938 11.5467 4.01891 12.08C2.8163 11.6251 2 10.7383 2 9.71876Z" fill="#ED7872"/>
<path fill-rule="evenodd" clip-rule="evenodd" d="M9.7187 9.71884C9.19301 9.71884 8.70268 9.5016 8.28857 9.12646C8.84666 9.15404 9.34698 9.34709 9.7187 9.71884Z" fill="#A62927"/>
<path fill-rule="evenodd" clip-rule="evenodd" d="M7.3573 4.01855L7.35839 4.01903L7.35875 4.01921C7.3848 4.031 7.41089 4.04305 7.43691 4.05539L7.44028 4.05698C7.46474 4.06863 7.48924 4.08053 7.51369 4.09265L7.52291 4.0973C7.54704 4.10931 7.57113 4.12157 7.59519 4.13409L7.59951 4.13634C7.6248 4.14955 7.65009 4.16301 7.67528 4.17676L7.67803 4.17825C7.7038 4.19233 7.72956 4.20666 7.75522 4.22125L7.75601 4.22172L7.75667 4.22205C7.78279 4.23693 7.80885 4.2521 7.83483 4.26755C7.86008 4.28258 7.8853 4.29782 7.91049 4.31338L7.91629 4.31701C7.94064 4.33207 7.96492 4.34746 7.98916 4.36302L7.99351 4.36578C8.01771 4.38138 8.04188 4.39731 8.06597 4.41342L8.06927 4.4156L8.07352 4.41847C8.09743 4.43454 8.12135 4.4508 8.14512 4.46738L8.1461 4.46807L8.1466 4.4684L8.14845 4.46971C8.17287 4.48676 8.19726 4.50403 8.22157 4.5216L8.22625 4.52501C8.25024 4.54235 8.27408 4.55991 8.29784 4.57777L8.30224 4.58107C8.35119 4.61786 8.39981 4.65571 8.44804 4.69461L8.45094 4.69693L8.45533 4.70052C8.47873 4.7195 8.5021 4.73866 8.52536 4.75815L8.52562 4.75833C8.54877 4.77774 8.57181 4.79741 8.59481 4.81729L8.5996 4.82143L8.60287 4.82433C8.62591 4.8444 8.64892 4.86468 8.67178 4.88522L8.67417 4.88736C8.69776 4.90863 8.72127 4.93011 8.74464 4.95188L8.74642 4.95355C8.76957 4.97514 8.79268 4.99702 8.81558 5.01912L8.81866 5.02213C8.84207 5.0447 8.86533 5.06756 8.88844 5.09068C9.22166 5.4239 9.49929 5.7848 9.71843 6.15609C9.29768 6.86893 9.0931 7.62017 9.12605 8.28857C8.67675 7.79264 8.00073 7.40619 7.1992 7.19961C7.09161 6.7821 7.03271 6.33059 7.03271 5.8593C7.03271 5.19279 7.15035 4.56565 7.3573 4.01855Z" fill="#B6BA24"/>
<path fill-rule="evenodd" clip-rule="evenodd" d="M4.26062 4.26059C4.98146 3.53975 6.18566 3.48982 7.35764 4.01845C7.15063 4.56557 7.03306 5.19268 7.03306 5.85922C7.03306 6.33051 7.09195 6.78199 7.19954 7.1995C6.7821 7.09188 6.33055 7.03302 5.8593 7.03302C5.19272 7.03302 4.56568 7.15077 4.01856 7.35779C3.48982 6.18577 3.53968 4.98149 4.26062 4.26059Z" fill="#FDD347"/>
<path fill-rule="evenodd" clip-rule="evenodd" d="M9.71866 2C10.7381 2 11.6249 2.81619 12.0798 4.01869C11.5466 4.2592 11.02 4.61949 10.5486 5.09081C10.2154 5.42407 9.93779 5.78494 9.71866 6.15626C9.49956 5.78498 9.2219 5.42407 8.88868 5.09085C8.41732 4.61949 7.89069 4.25938 7.35742 4.01887C7.81231 2.81627 8.69912 2 9.71866 2Z" fill="#B4CF55"/>
<path fill-rule="evenodd" clip-rule="evenodd" d="M7.19873 7.19971C8.00026 7.40625 8.67628 7.7927 9.12558 8.28867C9.15312 8.84679 9.34624 9.34714 9.71796 9.7189C9.3462 9.34711 8.84581 9.15406 8.28765 9.12652C7.79176 8.67719 7.40531 8.0012 7.19873 7.19971Z" fill="#BB5829"/>
<path fill-rule="evenodd" clip-rule="evenodd" d="M9.71847 6.15601C10.1392 6.86882 10.3439 7.62013 10.311 8.28853C9.93576 8.70263 9.71851 9.19301 9.71851 9.71869C9.71851 9.19293 9.50119 8.70259 9.12598 8.28846C9.09307 7.62006 9.29777 6.86882 9.71847 6.15601Z" fill="#009843"/>
<path fill-rule="evenodd" clip-rule="evenodd" d="M7.1999 7.19958L7.20044 7.20009C7.40695 8.0014 7.7934 8.6772 8.28915 9.12646C7.62079 9.09359 6.86958 9.29832 6.15688 9.71895C5.78556 9.49985 5.42469 9.22223 5.09147 8.88901C4.62011 8.41764 4.26 7.89102 4.01953 7.35775C4.56659 7.15077 5.19362 7.0332 5.86009 7.0332C6.33124 7.0332 6.78257 7.09202 7.1999 7.19958Z" fill="#EB5F25"/>
<path fill-rule="evenodd" clip-rule="evenodd" d="M6.15625 9.71873C6.86906 9.29806 7.62038 9.09326 8.28877 9.12624C8.70288 9.50144 9.19325 9.71873 9.71893 9.71873C9.19318 9.71873 8.70288 9.93601 8.2887 10.3112C7.62034 10.3442 6.86906 10.1394 6.15625 9.71873Z" fill="#DF2125"/>
<path fill-rule="evenodd" clip-rule="evenodd" d="M9.12598 8.28809C9.50129 8.70222 9.7185 9.19275 9.7185 9.71854C9.34667 9.34671 9.15345 8.84628 9.12598 8.28809Z" fill="#52562C"/>
<path d="M17.9102 9.85352V8.63477H20.1133C20.4961 8.63477 20.8027 8.57422 21.0332 8.45312C21.2676 8.33203 21.4395 8.16406 21.5488 7.94922C21.6582 7.73438 21.7129 7.48828 21.7129 7.21094C21.7129 6.94531 21.6582 6.69727 21.5488 6.4668C21.4395 6.23633 21.2676 6.04883 21.0332 5.9043C20.8027 5.75977 20.4961 5.6875 20.1133 5.6875H18.3672V13H16.8555V4.46875H20.1133C20.7773 4.46875 21.3418 4.58594 21.8066 4.82031C22.2715 5.05469 22.625 5.37695 22.8672 5.78711C23.1133 6.19727 23.2363 6.66797 23.2363 7.19922C23.2363 7.75 23.1133 8.22461 22.8672 8.62305C22.625 9.01758 22.2715 9.32227 21.8066 9.53711C21.3418 9.74805 20.7773 9.85352 20.1133 9.85352H17.9102ZM27.5605 4.46875C28.2129 4.46875 28.7695 4.56641 29.2305 4.76172C29.6914 4.95703 30.043 5.24609 30.2852 5.62891C30.5312 6.01172 30.6543 6.48242 30.6543 7.04102C30.6543 7.4707 30.5762 7.84766 30.4199 8.17188C30.2637 8.49609 30.041 8.76953 29.752 8.99219C29.4668 9.21094 29.1289 9.38086 28.7383 9.50195L28.2812 9.73633H25.5801L25.5684 8.52344H27.5723C27.9199 8.52344 28.209 8.46289 28.4395 8.3418C28.6738 8.2207 28.8477 8.05469 28.9609 7.84375C29.0781 7.63281 29.1367 7.39258 29.1367 7.12305C29.1367 6.68555 29.0098 6.33789 28.7559 6.08008C28.5059 5.81836 28.1074 5.6875 27.5605 5.6875H26.043V13H24.5312V4.46875H27.5605ZM27.3848 9.17383L28.9727 9.16797L30.9941 12.9238V13H29.377L27.3848 9.17383ZM38.9102 8.95703C38.9102 9.82031 38.7617 10.5625 38.4648 11.1836C38.168 11.8047 37.7539 12.2832 37.2227 12.6191C36.6953 12.9512 36.0762 13.1172 35.3652 13.1172C34.6699 13.1172 34.0527 12.9512 33.5137 12.6191C32.9785 12.2832 32.5586 11.8047 32.2539 11.1836C31.9531 10.5625 31.8027 9.82031 31.8027 8.95703V8.51758C31.8027 7.6543 31.9531 6.91211 32.2539 6.29102C32.5547 5.66602 32.9727 5.1875 33.5078 4.85547C34.043 4.51953 34.6582 4.35156 35.3535 4.35156C36.0645 4.35156 36.6855 4.51953 37.2168 4.85547C37.748 5.1875 38.1621 5.66602 38.459 6.29102C38.7598 6.91211 38.9102 7.6543 38.9102 8.51758V8.95703ZM37.3926 8.50586C37.3926 7.87695 37.3125 7.34766 37.1523 6.91797C36.9922 6.48438 36.7598 6.1582 36.4551 5.93945C36.1504 5.7168 35.7832 5.60547 35.3535 5.60547C34.9316 5.60547 34.5684 5.7168 34.2637 5.93945C33.9629 6.1582 33.7305 6.48438 33.5664 6.91797C33.4062 7.34766 33.3262 7.87695 33.3262 8.50586V8.95703C33.3262 9.58594 33.4082 10.1172 33.5723 10.5508C33.7363 10.9844 33.9707 11.3125 34.2754 11.5352C34.5801 11.7578 34.9434 11.8691 35.3652 11.8691C35.7988 11.8691 36.166 11.7578 36.4668 11.5352C36.7715 11.3125 37.002 10.9844 37.1582 10.5508C37.3145 10.1172 37.3926 9.58594 37.3926 8.95703V8.50586Z" fill="white"/>
</svg>
