<svg width="147" height="26" viewBox="0 0 147 26" fill="none" xmlns="http://www.w3.org/2000/svg">
<path fill-rule="evenodd" clip-rule="evenodd" d="M29.9168 7.88124C34.5284 7.88124 38.2668 11.6196 38.2668 16.2311C38.2668 20.8427 34.5284 24.5811 29.9168 24.5811C25.3053 24.5811 21.567 20.8427 21.567 16.2311C21.567 11.6196 25.3053 7.88124 29.9168 7.88124ZM30.207 12.0602C32.3813 12.0602 34.1439 13.9276 34.1439 16.2311C34.1439 18.5347 32.3813 20.4021 30.207 20.4021C28.0327 20.4021 26.2701 18.5347 26.2701 16.2311C26.2701 13.9276 28.0327 12.0602 30.207 12.0602Z" fill="#333333"/>
<path d="M38.288 8.10971H34.847C34.4988 8.10971 34.2165 8.392 34.2165 8.74022V23.722C34.2165 24.0702 34.4988 24.3525 34.847 24.3525H38.288C38.6362 24.3525 38.9185 24.0702 38.9185 23.722V8.74022C38.9185 8.392 38.6362 8.10971 38.288 8.10971Z" fill="#333333"/>
<path fill-rule="evenodd" clip-rule="evenodd" d="M44.3411 8.10971H40.8999C40.5531 8.10971 40.2695 8.39333 40.2695 8.74015V23.7221C40.2695 24.0689 40.5531 24.3525 40.8999 24.3525H44.3411C44.6879 24.3525 44.9714 24.0689 44.9714 23.7221V15.4024C45.2417 13.5085 46.7848 12.0567 48.6478 12.0567C48.9301 12.0567 49.205 12.0901 49.4692 12.1533C49.7845 12.2052 50.0603 11.8882 50.0603 11.5616V8.71127C50.0603 8.43977 49.8566 8.16429 49.6279 8.14128C49.3953 8.12052 49.1599 8.10971 48.9218 8.10971C47.4823 8.10971 46.1331 8.49573 44.9714 9.16935V8.74015C44.9714 8.39333 44.6879 8.10971 44.3411 8.10971Z" fill="#333333"/>
<path fill-rule="evenodd" clip-rule="evenodd" d="M58.7517 23.823V20.9317C58.7517 20.6404 58.4681 20.4021 58.1213 20.4021H57.7291C57.017 20.4021 56.4399 19.825 56.4399 19.1129V15.6994V12.0602H58.2199C58.5113 12.0602 58.7496 11.822 58.7496 11.5306V8.6395C58.7496 8.34804 58.5113 8.10978 58.2199 8.10978H56.4399V4.61401C56.4399 4.26726 56.1563 3.98364 55.8095 3.98364H52.3683C52.0215 3.98364 51.7379 4.26726 51.7379 4.61401V8.10978H51.0977C50.8063 8.10978 50.5681 8.34804 50.5681 8.6395V11.5306C50.5681 11.822 50.8063 12.0602 51.0977 12.0602H51.7379V20.0182C51.7379 22.412 53.6785 24.3526 56.0724 24.3526H57.7291H58.1213C58.4681 24.3526 58.7517 24.1143 58.7517 23.823Z" fill="#333333"/>
<path fill-rule="evenodd" clip-rule="evenodd" d="M75.1919 14.6011V23.7222C75.1919 24.0688 74.9081 24.3526 74.5615 24.3526H71.1203C70.7736 24.3526 70.4899 24.0689 70.4899 23.7222V14.6011H70.4818C70.3656 13.1724 69.1657 12.0602 67.7243 12.0602C66.2725 12.0602 65.0731 13.1788 64.9587 14.6011V23.7222C64.9587 24.0689 64.6751 24.3526 64.3283 24.3526H60.8871C60.5403 24.3526 60.2567 24.0689 60.2567 23.7222V8.74014C60.2567 8.39339 60.5403 8.10977 60.8871 8.10977H64.3283C64.6751 8.10977 64.9587 8.39339 64.9587 8.74014V8.98689C66.0002 8.28816 67.2474 7.88124 68.5883 7.88124C68.6824 7.88124 69.0617 7.88124 69.2073 7.88124C72.5125 7.89902 75.1919 10.5606 75.1919 13.8658V14.6011Z" fill="#333333"/>
<path fill-rule="evenodd" clip-rule="evenodd" d="M98.0698 23.823V20.9317C98.0698 20.6404 97.7862 20.4021 97.4394 20.4021H97.0472C96.3351 20.4021 95.758 19.825 95.758 19.1129V15.6994V12.0602H97.538C97.8294 12.0602 98.0677 11.822 98.0677 11.5306V8.6395C98.0677 8.34804 97.8294 8.10978 97.538 8.10978H95.758V4.61401C95.758 4.26726 95.4744 3.98364 95.1275 3.98364H91.6863C91.3396 3.98364 91.056 4.26726 91.056 4.61401V8.10978H90.4157C90.1244 8.10978 89.8861 8.34804 89.8861 8.6395V11.5306C89.8861 11.822 90.1244 12.0602 90.4157 12.0602H91.056V20.0182C91.056 22.412 92.9965 24.3526 95.3904 24.3526H97.0472H97.4394C97.7862 24.3526 98.0698 24.1143 98.0698 23.823Z" fill="#333333"/>
<path fill-rule="evenodd" clip-rule="evenodd" d="M106.396 7.88124C111.007 7.88124 114.746 11.6196 114.746 16.2313C114.746 20.8427 111.007 24.5811 106.396 24.5811C101.784 24.5811 98.0459 20.8427 98.0459 16.2313C98.0459 11.6196 101.784 7.88124 106.396 7.88124ZM106.395 12.0602C108.41 12.0602 110.043 13.9276 110.043 16.2311C110.043 18.5347 108.41 20.4021 106.395 20.4021C104.381 20.4021 102.748 18.5347 102.748 16.2311C102.748 13.9276 104.381 12.0602 106.395 12.0602Z" fill="#333333"/>
<path fill-rule="evenodd" clip-rule="evenodd" d="M132.797 1.99648H136.238C136.585 1.99648 136.869 2.28023 136.869 2.62692V13.4202L141.027 8.52674C141.248 8.27136 141.575 8.10974 141.94 8.10974H145.453C145.824 8.10974 146.125 8.41062 146.125 8.78184C146.125 8.95289 146.061 9.10899 145.956 9.22772L140.004 16.2312L145.956 23.2345C146.061 23.3533 146.125 23.5094 146.125 23.6804C146.125 24.0516 145.824 24.3525 145.453 24.3525H141.94C141.575 24.3525 141.248 24.1908 141.027 23.9355L136.869 19.0421V23.7221C136.869 24.0688 136.585 24.3525 136.238 24.3525H132.797C132.45 24.3525 132.167 24.0688 132.167 23.7221V2.62692C132.167 2.28023 132.45 1.99648 132.797 1.99648Z" fill="#333333"/>
<path d="M75.9243 20.0395C76.6937 23.0129 79.4332 24.5985 83.1242 24.5985C86.9358 24.5985 89.9503 22.7151 89.9503 19.3036C89.9503 16.7095 88.4257 15.1815 85.5844 14.5063L82.5005 13.76C81.7728 13.6179 81.4264 13.3692 81.4264 12.8716C81.4264 12.1609 82.0847 11.8055 82.8815 11.8055C83.9106 11.8055 84.4208 12.2166 84.6652 12.7397L84.666 12.7411C84.7544 12.9434 84.9561 13.0848 85.1911 13.0848H89.1106C89.427 13.0848 89.6834 12.8284 89.6834 12.512C89.6834 12.4577 89.6761 12.405 89.6618 12.3551C88.9466 9.61402 86.6675 7.89658 82.743 7.89658C79.0701 7.89658 76.0901 9.88653 76.0901 13.298C76.0901 16.1054 77.788 17.3847 80.3868 17.9532L83.4361 18.5929C84.1984 18.7706 84.6488 18.9839 84.6488 19.5879C84.6488 20.3342 83.9558 20.6895 83.0549 20.6895C82.2152 20.6895 81.5314 20.3169 81.2052 19.6407C81.1153 19.4419 80.9152 19.3036 80.6829 19.3036H76.4736C76.1572 19.3036 75.9008 19.56 75.9008 19.8764C75.9008 19.9331 75.9089 19.9878 75.9243 20.0395ZM81.214 19.6611C81.2182 19.6714 81.222 19.6819 81.2256 19.6925C81.222 19.6819 81.2182 19.6714 81.214 19.6611ZM89.6022 12.2176C89.6112 12.2326 89.6194 12.2479 89.6269 12.2637C89.6194 12.248 89.6112 12.2325 89.6022 12.2176Z" fill="#333333"/>
<path fill-rule="evenodd" clip-rule="evenodd" d="M123.481 24.5811C127.245 24.5811 130.427 22.0894 131.469 18.6655L131.469 18.6652C131.494 18.6002 131.507 18.5299 131.507 18.4564C131.507 18.1276 131.24 17.8611 130.912 17.8611L130.907 17.8612H127.219L127.214 17.8611C126.983 17.8611 126.785 17.9996 126.697 18.1979C126.083 19.5098 124.873 20.4021 123.48 20.4021C121.466 20.4021 119.833 18.5347 119.833 16.2312C119.833 13.9276 121.466 12.0602 123.48 12.0602C124.873 12.0602 126.083 12.9525 126.697 14.2644C126.785 14.4627 126.983 14.6012 127.214 14.6012L127.219 14.6011H130.907L130.912 14.6012C131.24 14.6012 131.507 14.3347 131.507 14.006C131.507 13.9325 131.494 13.8621 131.469 13.7971L131.469 13.7968C130.427 10.3729 127.245 7.88124 123.481 7.88124C118.869 7.88124 115.131 11.6196 115.131 16.2312C115.131 20.8428 118.869 24.5811 123.481 24.5811Z" fill="#333333"/>
<path fill-rule="evenodd" clip-rule="evenodd" d="M10.3983 20.4761L10.3994 20.4751C10.8124 18.8725 11.5853 17.5209 12.5768 16.6224C11.24 16.6881 9.73771 16.2786 8.31223 15.4374C7.56967 15.8756 6.84785 16.4308 6.18141 17.0973C5.23869 18.04 4.51848 19.0932 4.03754 20.1598C5.13165 20.5737 6.38571 20.8088 7.71866 20.8088C8.66102 20.8088 9.56361 20.6912 10.3983 20.4761Z" fill="#E52141"/>
<path fill-rule="evenodd" clip-rule="evenodd" d="M5.12112 25.7528L10.3994 20.4751C9.56463 20.6901 8.66204 20.8078 7.71975 20.8078C6.38673 20.8078 5.13273 20.5727 4.03855 20.1588C3.14213 22.1466 3.07761 24.1806 3.95828 25.6322C4.17782 26.0709 4.8071 26.1247 5.12112 25.7528Z" fill="#E93F8F"/>
<path fill-rule="evenodd" clip-rule="evenodd" d="M12.5768 16.6224C13.405 15.8717 14.3861 15.4374 15.4377 15.4374C14.6941 16.181 13.6931 16.5674 12.5768 16.6224Z" fill="#B52728"/>
<path fill-rule="evenodd" clip-rule="evenodd" d="M20.4763 10.3986L20.4753 10.3996C18.8727 10.8127 17.5211 11.5855 16.6226 12.5771C16.6883 11.2403 16.2789 9.73794 15.4376 8.31253C15.8759 7.56989 16.431 6.84816 17.0975 6.18172C18.0402 5.23899 19.0935 4.51878 20.16 4.03777C20.5739 5.13195 20.8091 6.38594 20.8091 7.71896C20.8091 8.66125 20.6914 9.56384 20.4763 10.3986Z" fill="#04A34D"/>
<path fill-rule="evenodd" clip-rule="evenodd" d="M25.754 5.12032L20.4763 10.3986C20.6914 9.56383 20.8091 8.66123 20.8091 7.71895C20.8091 6.38592 20.5739 5.13194 20.16 4.03775C22.1478 3.14133 24.1819 3.07681 25.6334 3.95741C26.0721 4.17702 26.1259 4.8063 25.754 5.12032Z" fill="#48BED8"/>
<path fill-rule="evenodd" clip-rule="evenodd" d="M10.3991 20.4759C10.8122 18.8729 11.5852 17.5208 12.577 16.6221C13.6933 16.567 14.6942 16.1809 15.4377 15.4374L10.3991 20.4759Z" fill="#D52427"/>
<path fill-rule="evenodd" clip-rule="evenodd" d="M20.4762 10.3989C18.8732 10.8119 17.5211 11.585 16.6224 12.5767C16.5674 13.6931 16.1812 14.6938 15.4377 15.4374L20.4762 10.3989Z" fill="#038A41"/>
<path fill-rule="evenodd" clip-rule="evenodd" d="M16.6227 12.5764C15.872 13.4047 15.4377 14.3858 15.4377 15.4373C16.1813 14.6937 16.5677 13.6928 16.6227 12.5764Z" fill="#20743B"/>
<path fill-rule="evenodd" clip-rule="evenodd" d="M0 15.4376C0 13.3988 1.63246 11.6252 4.03746 10.7154C4.5184 11.7818 5.23898 12.835 6.18163 13.7776C6.84814 14.4442 7.56988 14.9993 8.31252 15.4376C7.56995 15.8758 6.84814 16.4311 6.1817 17.0976C5.23898 18.0403 4.51876 19.0935 4.03782 20.1601C1.63261 19.2503 0 17.4767 0 15.4376Z" fill="#ED7872"/>
<path fill-rule="evenodd" clip-rule="evenodd" d="M15.4376 15.4374C14.3863 15.4374 13.4056 15.0029 12.5774 14.2526C13.6936 14.3078 14.6942 14.6939 15.4376 15.4374Z" fill="#A62927"/>
<path fill-rule="evenodd" clip-rule="evenodd" d="M10.7151 4.03642L10.7173 4.03737L10.718 4.03773C10.7702 4.06132 10.8223 4.08541 10.8744 4.11009L10.8811 4.11328C10.93 4.13657 10.979 4.16038 11.0279 4.18462L11.0464 4.19391C11.0946 4.21793 11.1428 4.24246 11.1909 4.2675L11.1996 4.27199C11.2502 4.29841 11.3007 4.32534 11.3511 4.35284L11.3566 4.35582C11.4081 4.38398 11.4597 4.41264 11.511 4.44182L11.5126 4.44276L11.5139 4.44341C11.5661 4.47317 11.6182 4.5035 11.6702 4.53442C11.7207 4.56447 11.7712 4.59494 11.8215 4.62608L11.8331 4.63334C11.8818 4.66345 11.9304 4.69423 11.9789 4.72536L11.9876 4.73087C12.036 4.76208 12.0843 4.79394 12.1325 4.82616L12.1391 4.83052L12.1476 4.83625C12.1954 4.8684 12.2432 4.90091 12.2908 4.93408L12.2927 4.93546L12.2938 4.93611L12.2975 4.93872C12.3463 4.97283 12.3951 5.00738 12.4437 5.0425L12.4531 5.04933C12.501 5.08402 12.5487 5.11914 12.5962 5.15485L12.605 5.16145C12.7029 5.23504 12.8002 5.31073 12.8966 5.38853L12.9024 5.39318L12.9112 5.40036C12.958 5.43832 13.0048 5.47664 13.0513 5.51561L13.0518 5.51597C13.0981 5.5548 13.1442 5.59413 13.1902 5.6339L13.1998 5.64217L13.2063 5.64798C13.2524 5.68811 13.2984 5.72868 13.3441 5.76976L13.3489 5.77404C13.3961 5.81657 13.4431 5.85953 13.4898 5.90307L13.4934 5.90641C13.5397 5.94959 13.5859 5.99335 13.6317 6.03755L13.6379 6.04358C13.6847 6.08872 13.7312 6.13444 13.7774 6.18067C14.4439 6.8471 14.9991 7.56891 15.4374 8.31148C14.5959 9.73718 14.1867 11.2397 14.2526 12.5765C13.354 11.5846 12.002 10.8117 10.3989 10.3985C10.1838 9.56351 10.066 8.66049 10.066 7.71791C10.066 6.38489 10.3013 5.13061 10.7151 4.03642Z" fill="#B6BA24"/>
<path fill-rule="evenodd" clip-rule="evenodd" d="M4.52076 4.52102C5.96242 3.07935 8.37083 2.97949 10.7148 4.03674C10.3008 5.13099 10.0656 6.3852 10.0656 7.7183C10.0656 8.66087 10.1834 9.56383 10.3986 10.3989C9.56372 10.1836 8.66062 10.0659 7.71811 10.0659C6.38494 10.0659 5.13088 10.3014 4.03662 10.7154C2.97916 8.37138 3.07888 5.96283 4.52076 4.52102Z" fill="#FDD347"/>
<path fill-rule="evenodd" clip-rule="evenodd" d="M15.4376 0C17.4764 0 19.25 1.63239 20.1598 4.03738C19.0934 4.5184 18.0402 5.23898 17.0976 6.18163C16.431 6.84814 15.8759 7.56988 15.4376 8.31252C14.9994 7.56995 14.4441 6.84814 13.7776 6.1817C12.8349 5.23898 11.7817 4.51876 10.7151 4.03775C11.6249 1.63253 13.3985 0 15.4376 0Z" fill="#B4CF55"/>
<path fill-rule="evenodd" clip-rule="evenodd" d="M10.3992 10.399C12.0023 10.8121 13.3543 11.585 14.2529 12.5769C14.308 13.6932 14.6942 14.6939 15.4377 15.4374C14.6941 14.6938 13.6934 14.3077 12.577 14.2526C11.5853 13.3539 10.8124 12.002 10.3992 10.399Z" fill="#BB5829"/>
<path fill-rule="evenodd" clip-rule="evenodd" d="M15.4376 8.31197C16.279 9.73759 16.6886 11.2402 16.6226 12.577C15.8722 13.4052 15.4377 14.386 15.4377 15.4373C15.4377 14.3858 15.003 13.4051 14.2526 12.5769C14.1868 11.2401 14.5962 9.73759 15.4376 8.31197Z" fill="#009843"/>
<path fill-rule="evenodd" clip-rule="evenodd" d="M10.3985 10.3988L10.3996 10.3998C10.8126 12.0025 11.5855 13.3541 12.577 14.2526C11.2403 14.1868 9.73788 14.5963 8.31247 15.4376C7.56983 14.9994 6.8481 14.4441 6.18166 13.7777C5.23893 12.8349 4.51872 11.7817 4.03778 10.7152C5.13189 10.3012 6.38595 10.0661 7.7189 10.0661C8.66119 10.0661 9.56386 10.1837 10.3985 10.3988Z" fill="#EB5F25"/>
<path fill-rule="evenodd" clip-rule="evenodd" d="M8.31229 15.4374C9.73791 14.5961 11.2405 14.1865 12.5773 14.2524C13.4055 15.0028 14.3863 15.4374 15.4377 15.4374C14.3861 15.4374 13.4055 15.872 12.5772 16.6224C11.2405 16.6883 9.73791 16.2788 8.31229 15.4374Z" fill="#DF2125"/>
<path fill-rule="evenodd" clip-rule="evenodd" d="M14.2526 12.5764C15.0032 13.4047 15.4376 14.3858 15.4376 15.4373C14.694 14.6937 14.3075 13.6928 14.2526 12.5764Z" fill="#52562C"/>
<path fill-rule="evenodd" clip-rule="evenodd" d="M144.635 1.99646C145.458 1.99646 146.125 2.68721 146.125 3.53922C146.125 4.39122 145.458 5.08197 144.635 5.08197C143.811 5.08197 143.144 4.39122 143.144 3.53922C143.144 2.68721 143.811 1.99646 144.635 1.99646ZM145.532 2.59882C145.303 2.36121 144.985 2.21418 144.635 2.21418C144.284 2.21418 143.967 2.36121 143.737 2.59882C143.505 2.83874 143.362 3.17127 143.362 3.53922C143.362 3.90716 143.505 4.23969 143.737 4.47962C143.967 4.71722 144.284 4.86426 144.635 4.86426C144.985 4.86426 145.303 4.71722 145.532 4.47962C145.764 4.23969 145.908 3.90716 145.908 3.53922C145.908 3.17127 145.764 2.83874 145.532 2.59882Z" fill="#333333"/>
<path d="M144.67 2.7627C144.789 2.7627 144.89 2.78055 144.974 2.81626C145.058 2.85153 145.122 2.90436 145.167 2.97388C145.211 3.04377 145.233 3.1297 145.233 3.23123C145.233 3.30953 145.219 3.37797 145.191 3.43697C145.162 3.4959 145.122 3.5454 145.07 3.58582C145.017 3.62588 144.956 3.6568 144.885 3.679L144.802 3.7216H144.31L144.308 3.50098H144.672C144.736 3.50098 144.789 3.4901 144.831 3.46789C144.873 3.44568 144.905 3.41549 144.926 3.37725C144.946 3.339 144.957 3.29531 144.957 3.24618C144.957 3.16642 144.934 3.10277 144.889 3.05575C144.843 3.00843 144.77 2.98477 144.67 2.98477H144.394V4.31576H144.119V2.7627H144.67ZM144.638 3.61935L144.927 3.61826L145.295 4.3019V4.31576H145.001L144.638 3.61935Z" fill="#333333"/>
</svg>
