<svg width="94" height="19" viewBox="0 0 94 19" fill="none" xmlns="http://www.w3.org/2000/svg">
<path d="M8.59229 14H6.5293L3.03809 8.16016V14H0.975098V4.75781H3.03809L6.53564 10.604V4.75781H8.59229V14Z" fill="#74DF7A"/>
<path d="M16.4126 14H11.5312V12.3369H16.4126V14ZM12.2104 14H10.1411V4.75781H12.2104V14ZM15.7778 10.0581H11.5312V8.4458H15.7778V10.0581ZM16.4126 6.42725H11.5312V4.75781H16.4126V6.42725Z" fill="#D4D156"/>
<path d="M21.4717 4.75781H22.5508L22.9126 5.71631L20.9702 14H19.7959L19.6499 12.9146L21.4717 4.75781ZM20.418 12.9526L20.1831 14H18.8691L16.8633 4.75781H18.9136L20.418 12.9526ZM25.7754 4.75781H27.8193L25.8198 14H24.4995L24.2837 12.9146L25.7754 4.75781ZM25.0581 12.9526L24.8931 14H23.7188L21.7637 5.70996L22.1445 4.75781H23.2173L25.0581 12.9526Z" fill="#EBBD58"/>
<path d="M33.4814 14H31.2788L34.7065 4.75781H36.0967L35.8872 6.59863L33.4814 14ZM35.4429 6.59863L35.2144 4.75781H36.6235L40.064 14H37.8613L35.4429 6.59863ZM37.8042 12.21H32.9355V10.5405H37.8042V12.21Z" fill="#F5955B"/>
<path d="M44.374 4.75781C45.0892 4.75781 45.7049 4.86572 46.2212 5.08154C46.7375 5.29313 47.1353 5.60628 47.4146 6.021C47.6938 6.43148 47.8335 6.94352 47.8335 7.55713C47.8335 8.06917 47.751 8.50293 47.5859 8.8584C47.4209 9.21387 47.1882 9.50798 46.8877 9.74072C46.5872 9.96924 46.236 10.1597 45.834 10.312L45.1738 10.6929H42.1968L42.1841 9.02344H44.3677C44.6766 9.02344 44.9347 8.97266 45.1421 8.87109C45.3537 8.7653 45.5103 8.61719 45.6118 8.42676C45.7134 8.2321 45.7642 8.00146 45.7642 7.73486C45.7642 7.32861 45.6499 7.00911 45.4214 6.77637C45.1929 6.54362 44.8438 6.42725 44.374 6.42725H42.9204V14H40.8574V4.75781H44.374ZM43.8789 9.89941L46.0688 9.88672L48.1636 13.9048V14H45.9546L43.8789 9.89941Z" fill="#FC6C5E"/>
<path d="M52.7275 4.75781C53.4427 4.75781 54.0584 4.86572 54.5747 5.08154C55.091 5.29313 55.4888 5.60628 55.7681 6.021C56.0474 6.43148 56.187 6.94352 56.187 7.55713C56.187 8.06917 56.1045 8.50293 55.9395 8.8584C55.7744 9.21387 55.5417 9.50798 55.2412 9.74072C54.9408 9.96924 54.5895 10.1597 54.1875 10.312L53.5273 10.6929H50.5503L50.5376 9.02344H52.7212C53.0301 9.02344 53.2882 8.97266 53.4956 8.87109C53.7072 8.7653 53.8638 8.61719 53.9653 8.42676C54.0669 8.2321 54.1177 8.00146 54.1177 7.73486C54.1177 7.32861 54.0034 7.00911 53.7749 6.77637C53.5464 6.54362 53.1973 6.42725 52.7275 6.42725H51.2739V14H49.2109V4.75781H52.7275ZM52.2324 9.89941L54.4224 9.88672L56.5171 13.9048V14H54.3081L52.2324 9.89941Z" fill="#FD607E"/>
<path d="M59.748 14H57.6914V4.75781H59.748V14Z" fill="#FD5F9B"/>
<path d="M66.8955 4.75781H69.1934L66.0132 14H64.5088L64.8135 11.8926L66.8955 4.75781ZM65.0229 11.8926L65.3467 14H63.8296L60.6685 4.75781H62.96L65.0229 11.8926Z" fill="#F75FFD"/>
<path d="M71.4277 14H69.2251L72.6528 4.75781H74.043L73.8335 6.59863L71.4277 14ZM73.3892 6.59863L73.1606 4.75781H74.5698L78.0103 14H75.8076L73.3892 6.59863ZM75.7505 12.21H70.8818V10.5405H75.7505V12.21Z" fill="#AD5FFD"/>
<path d="M84.8276 14H80.1875V12.3369H84.8276V14ZM80.8604 14H78.7974V4.75781H80.8604V14Z" fill="#6174FF"/>
<path d="M90.623 11.5562C90.623 11.353 90.5807 11.1774 90.4961 11.0293C90.4115 10.8812 90.2464 10.7394 90.001 10.604C89.7555 10.4686 89.3916 10.3247 88.9092 10.1724C88.4945 10.0369 88.0988 9.8846 87.7222 9.71533C87.3498 9.54183 87.0176 9.34082 86.7256 9.1123C86.4378 8.87956 86.2093 8.61084 86.04 8.30615C85.875 7.99723 85.7925 7.63753 85.7925 7.22705C85.7925 6.70231 85.9406 6.2474 86.2368 5.8623C86.5373 5.47298 86.9478 5.17041 87.4683 4.95459C87.993 4.73877 88.5918 4.63086 89.2646 4.63086C89.9502 4.63086 90.549 4.75146 91.061 4.99268C91.5731 5.22965 91.973 5.56396 92.2607 5.99561C92.5485 6.42725 92.6924 6.9266 92.6924 7.49365H90.6294C90.6294 7.25244 90.5786 7.04085 90.4771 6.85889C90.3797 6.67269 90.2274 6.52881 90.02 6.42725C89.8127 6.32145 89.5482 6.26855 89.2266 6.26855C88.9219 6.26855 88.6659 6.31299 88.4585 6.40186C88.2554 6.48649 88.103 6.60286 88.0015 6.75098C87.9041 6.89486 87.8555 7.0599 87.8555 7.24609C87.8555 7.43652 87.9232 7.60368 88.0586 7.74756C88.1982 7.89144 88.3993 8.02474 88.6616 8.14746C88.924 8.26595 89.2393 8.38444 89.6074 8.50293C90.2803 8.71029 90.8452 8.9515 91.3022 9.22656C91.7593 9.50163 92.1042 9.82747 92.3369 10.2041C92.5697 10.5807 92.686 11.0272 92.686 11.5435C92.686 12.0851 92.5464 12.5506 92.2671 12.9399C91.992 13.325 91.6006 13.6191 91.0928 13.8223C90.585 14.0254 89.9883 14.127 89.3027 14.127C88.8372 14.127 88.3802 14.0677 87.9316 13.9492C87.4831 13.8265 87.0747 13.6382 86.7065 13.3843C86.3426 13.1304 86.0527 12.8088 85.8369 12.4194C85.6211 12.0301 85.5132 11.5688 85.5132 11.0356H87.5825C87.5825 11.3065 87.6206 11.535 87.6968 11.7212C87.7772 11.9074 87.8914 12.0597 88.0396 12.1782C88.1919 12.2925 88.3739 12.375 88.5854 12.4258C88.8013 12.4766 89.0404 12.502 89.3027 12.502C89.6117 12.502 89.8613 12.4596 90.0518 12.375C90.2464 12.2904 90.3903 12.1761 90.4834 12.0322C90.5765 11.8883 90.623 11.7297 90.623 11.5562Z" fill="#54B5FF"/>
</svg>
