<svg width="161" height="14" viewBox="0 0 161 14" fill="none" xmlns="http://www.w3.org/2000/svg">
<path d="M7.84559 1.65017H8.83089L4.84559 13.0698H4.11764L4.47059 11.6502L7.84559 1.65017ZM4.34559 11.6502L4.71323 13.0698H3.97794L0 1.65017H0.985296L4.34559 11.6502ZM10.7394 13.0698H9.86445V4.5835H10.7394V13.0698ZM9.70998 2.1286C9.70998 1.95083 9.76144 1.80181 9.86445 1.68154C9.97227 1.55605 10.1193 1.49332 10.3056 1.49332C10.4967 1.49332 10.6463 1.55605 10.7541 1.68154C10.8619 1.80181 10.9159 1.95083 10.9159 2.1286C10.9159 2.30115 10.8619 2.44756 10.7541 2.56782C10.6463 2.68808 10.4967 2.74821 10.3056 2.74821C10.1193 2.74821 9.97227 2.68808 9.86445 2.56782C9.76144 2.44756 9.70998 2.30115 9.70998 2.1286ZM17.4568 10.9051C17.4568 10.6751 17.4004 10.4475 17.2877 10.2227C17.1798 9.99785 16.9739 9.79133 16.67 9.60308C16.3661 9.41491 15.9176 9.25282 15.3244 9.11688C14.7362 8.98608 14.2337 8.82399 13.8171 8.63059C13.4053 8.43711 13.0916 8.18873 12.8759 7.88546C12.6602 7.5822 12.5523 7.19789 12.5523 6.73253C12.5523 6.30902 12.6651 5.92471 12.8906 5.57959C13.1161 5.22926 13.4396 4.94952 13.8611 4.74037C14.2827 4.53122 14.7803 4.42665 15.3539 4.42665C15.9665 4.42665 16.4911 4.53645 16.9274 4.75606C17.3686 4.97567 17.7067 5.27632 17.9421 5.65802C18.1773 6.03972 18.295 6.47369 18.295 6.95997H17.4053C17.4053 6.52077 17.2288 6.12077 16.8759 5.75995C16.5229 5.3992 16.0156 5.2188 15.3539 5.2188C14.898 5.2188 14.5279 5.29462 14.2436 5.44626C13.9592 5.59266 13.7509 5.78088 13.6186 6.01099C13.491 6.23577 13.4274 6.46588 13.4274 6.70114C13.4274 6.95217 13.4813 7.17696 13.5891 7.37568C13.697 7.56917 13.9029 7.7443 14.2068 7.90116C14.5107 8.05802 14.9592 8.20966 15.5524 8.35606C16.1945 8.50769 16.7191 8.69328 17.1259 8.91293C17.5376 9.12734 17.8416 9.39399 18.0377 9.71295C18.2386 10.0267 18.3391 10.4083 18.3391 10.858C18.3391 11.3234 18.2166 11.7365 17.9715 12.0972C17.7313 12.4528 17.3906 12.7299 16.9494 12.9286C16.5131 13.1273 15.996 13.2267 15.3979 13.2267C14.7264 13.2267 14.1578 13.109 13.6921 12.8737C13.2313 12.6332 12.8808 12.3194 12.6406 11.9325C12.4053 11.5456 12.2876 11.13 12.2876 10.6854H13.1627C13.1921 11.13 13.322 11.4802 13.5524 11.7365C13.7877 11.9874 14.072 12.1678 14.4053 12.2777C14.7386 12.3822 15.0696 12.4345 15.3979 12.4345C15.8489 12.4345 16.2264 12.3639 16.5303 12.2227C16.8342 12.0763 17.0646 11.8881 17.2215 11.658C17.3784 11.4228 17.4568 11.1717 17.4568 10.9051ZM20.8506 13.0698H19.9756V4.5835H20.8506V13.0698ZM19.8212 2.1286C19.8212 1.95083 19.8726 1.80181 19.9756 1.68154C20.0835 1.55605 20.2305 1.49332 20.4168 1.49332C20.6079 1.49332 20.7575 1.55605 20.8653 1.68154C20.9731 1.80181 21.0271 1.95083 21.0271 2.1286C21.0271 2.30115 20.9731 2.44756 20.8653 2.56782C20.7575 2.68808 20.6079 2.74821 20.4168 2.74821C20.2305 2.74821 20.0835 2.68808 19.9756 2.56782C19.8726 2.44756 19.8212 2.30115 19.8212 2.1286ZM25.8179 5.35214H21.8253V4.5835H25.8179V5.35214ZM24.1635 2.40312V11.0071C24.1635 11.3992 24.2126 11.6972 24.3106 11.9012C24.4086 12.0999 24.536 12.2331 24.6929 12.3012C24.8547 12.3692 25.0263 12.4031 25.2077 12.4031C25.34 12.4031 25.465 12.3952 25.5827 12.3795C25.7052 12.3587 25.8155 12.3404 25.9135 12.3247L25.9503 13.1012C25.8425 13.1378 25.7027 13.1665 25.5312 13.1875C25.3596 13.2136 25.1881 13.2267 25.0165 13.2267C24.6782 13.2267 24.3793 13.1613 24.1194 13.0306C23.8596 12.8947 23.6538 12.6645 23.5018 12.3404C23.3547 12.0109 23.2812 11.5639 23.2812 10.9992V2.40312H24.1635Z" fill="#00D9C6"/>
<path d="M117.534 2.09657H118.481L114.65 13.0758H113.95L114.289 11.711L117.534 2.09657ZM114.168 11.711L114.523 13.0758H113.815L109.99 2.09657H110.938L114.168 11.711ZM122.331 13.2267C121.666 13.2267 121.075 13.0557 120.556 12.7138C120.042 12.367 119.637 11.8945 119.341 11.2962C119.048 10.693 118.902 10.0017 118.902 9.2225V8.89827C118.902 8.05877 119.053 7.32985 119.355 6.71149C119.661 6.09314 120.061 5.61556 120.556 5.27875C121.056 4.9369 121.595 4.76598 122.175 4.76598C122.826 4.76598 123.377 4.92685 123.83 5.24859C124.282 5.5653 124.624 6.00517 124.855 6.56818C125.09 7.13129 125.208 7.7747 125.208 8.4986V9.04909H119.419V8.28751H124.36V8.18188C124.35 7.72449 124.263 7.29464 124.098 6.89249C123.938 6.49026 123.698 6.16356 123.377 5.91216C123.056 5.65579 122.656 5.52759 122.175 5.52759C121.7 5.52759 121.278 5.67087 120.91 5.95741C120.542 6.24396 120.258 6.64107 120.055 7.14885C119.852 7.6516 119.75 8.23474 119.75 8.89827V9.2225C119.75 9.82576 119.859 10.3712 120.076 10.8589C120.297 11.3465 120.606 11.7361 121.002 12.0277C121.398 12.3193 121.853 12.4651 122.366 12.4651C122.819 12.4651 123.219 12.3771 123.568 12.2011C123.917 12.0201 124.23 11.7361 124.508 11.349L125.045 11.7789C124.795 12.176 124.452 12.5178 124.014 12.8044C123.58 13.0859 123.019 13.2267 122.331 13.2267ZM127.277 13.0758H126.428V4.91679H127.241L127.277 6.65872V13.0758ZM126.711 8.25733C126.749 7.61886 126.897 7.03572 127.157 6.50791C127.416 5.98004 127.766 5.55775 128.21 5.24105C128.657 4.92434 129.174 4.76598 129.758 4.76598C130.271 4.76598 130.71 4.86653 131.072 5.06761C131.436 5.2687 131.713 5.59043 131.907 6.03278C132.105 6.47014 132.204 7.04834 132.204 7.7672V13.0758H131.355V7.75961C131.355 7.19659 131.282 6.75421 131.136 6.43246C130.99 6.1107 130.783 5.882 130.514 5.74628C130.246 5.61054 129.927 5.54267 129.56 5.54267C129.155 5.54267 128.799 5.63819 128.493 5.82922C128.191 6.01522 127.936 6.25905 127.729 6.56068C127.526 6.85728 127.371 7.17647 127.262 7.51834C127.154 7.86022 127.097 8.18188 127.093 8.48351L126.711 8.25733ZM138.931 1.49332H139.779V13.0758H138.987L138.931 11.4923V1.49332ZM133.621 8.92087C133.621 8.07633 133.742 7.34238 133.982 6.719C134.223 6.0957 134.562 5.61556 135 5.27875C135.443 4.9369 135.968 4.76598 136.576 4.76598C137.171 4.76598 137.674 4.90422 138.09 5.18072C138.504 5.45218 138.834 5.83425 139.079 6.32691C139.329 6.81457 139.499 7.38765 139.588 8.04615V10.0897C139.513 10.693 139.352 11.2308 139.107 11.7034C138.862 12.176 138.528 12.548 138.104 12.8195C137.684 13.0909 137.171 13.2267 136.562 13.2267C135.959 13.2267 135.436 13.0507 134.993 12.6988C134.555 12.3469 134.215 11.8593 133.975 11.2359C133.74 10.6126 133.621 9.89362 133.621 9.07927V8.92087ZM134.47 9.07927C134.47 9.71271 134.55 10.2832 134.71 10.791C134.871 11.2938 135.115 11.6959 135.446 11.9975C135.78 12.2941 136.204 12.4424 136.718 12.4424C137.204 12.4424 137.611 12.3443 137.941 12.1484C138.271 11.9472 138.535 11.6833 138.733 11.3566C138.931 11.0248 139.074 10.6603 139.164 10.2631V7.91043C139.107 7.64904 139.025 7.38006 138.917 7.10358C138.809 6.8271 138.66 6.57321 138.471 6.342C138.287 6.10567 138.052 5.91468 137.765 5.76889C137.482 5.62311 137.137 5.55022 136.732 5.55022C136.214 5.55022 135.787 5.69852 135.453 5.99512C135.118 6.2917 134.871 6.6964 134.71 7.20921C134.55 7.7169 134.47 8.28751 134.47 8.92087V9.07927ZM142.512 13.0758H141.67V4.91679H142.512V13.0758ZM141.522 2.55655C141.522 2.38563 141.572 2.24236 141.67 2.12673C141.775 2.00608 141.916 1.94576 142.095 1.94576C142.278 1.94576 142.422 2.00608 142.526 2.12673C142.63 2.24236 142.681 2.38563 142.681 2.55655C142.681 2.72245 142.63 2.86321 142.526 2.97884C142.422 3.09446 142.278 3.15227 142.095 3.15227C141.916 3.15227 141.775 3.09446 141.67 2.97884C141.572 2.86321 141.522 2.72245 141.522 2.55655ZM145.224 1.49332V11.4923L145.167 13.0758H144.375V1.49332H145.224ZM150.547 9.07927C150.547 9.89362 150.431 10.6126 150.2 11.2359C149.974 11.8593 149.642 12.3469 149.203 12.6988C148.77 13.0507 148.244 13.2267 147.627 13.2267C147.014 13.2267 146.496 13.0909 146.072 12.8195C145.647 12.548 145.313 12.176 145.068 11.7034C144.822 11.2308 144.66 10.693 144.58 10.0897V8.04615C144.674 7.38765 144.844 6.81457 145.089 6.32691C145.339 5.83425 145.671 5.45218 146.086 5.18072C146.5 4.90422 147.01 4.76598 147.613 4.76598C148.235 4.76598 148.763 4.9369 149.196 5.27875C149.635 5.61556 149.969 6.0957 150.2 6.719C150.431 7.34238 150.547 8.07633 150.547 8.92087V9.07927ZM149.691 8.92087C149.691 8.28751 149.613 7.7169 149.458 7.20921C149.307 6.6964 149.067 6.2917 148.736 5.99512C148.407 5.69852 147.978 5.55022 147.45 5.55022C147.045 5.55022 146.701 5.62311 146.418 5.76889C146.135 5.91468 145.9 6.10567 145.711 6.342C145.527 6.57321 145.381 6.8271 145.272 7.10358C145.164 7.38006 145.085 7.64904 145.033 7.91043V10.2631C145.113 10.6452 145.249 11.0021 145.443 11.3339C145.641 11.6657 145.907 11.9347 146.241 12.1408C146.576 12.3419 146.983 12.4424 147.464 12.4424C147.978 12.4424 148.397 12.2941 148.722 11.9975C149.053 11.6959 149.295 11.2938 149.45 10.791C149.611 10.2832 149.691 9.71271 149.691 9.07927V8.92087ZM152.926 13.0758H152.085V1.49332H152.926V13.0758ZM157.758 13.2267C157.094 13.2267 156.503 13.0557 155.984 12.7138C155.47 12.367 155.065 11.8945 154.768 11.2962C154.476 10.693 154.33 10.0017 154.33 9.2225V8.89827C154.33 8.05877 154.481 7.32985 154.782 6.71149C155.089 6.09314 155.489 5.61556 155.984 5.27875C156.484 4.9369 157.023 4.76598 157.603 4.76598C158.253 4.76598 158.804 4.92685 159.257 5.24859C159.709 5.5653 160.051 6.00517 160.282 6.56818C160.518 7.13129 160.636 7.7747 160.636 8.4986V9.04909H154.845V8.28751H159.787V8.18188C159.778 7.72449 159.69 7.29464 159.526 6.89249C159.365 6.49026 159.125 6.16356 158.804 5.91216C158.484 5.65579 158.084 5.52759 157.603 5.52759C157.126 5.52759 156.705 5.67087 156.337 5.95741C155.97 6.24396 155.684 6.64107 155.482 7.14885C155.279 7.6516 155.178 8.23474 155.178 8.89827V9.2225C155.178 9.82576 155.286 10.3712 155.503 10.8589C155.725 11.3465 156.033 11.7361 156.429 12.0277C156.825 12.3193 157.28 12.4651 157.794 12.4651C158.246 12.4651 158.647 12.3771 158.995 12.2011C159.344 12.0201 159.658 11.7361 159.936 11.349L160.473 11.7789C160.223 12.176 159.879 12.5178 159.44 12.8044C159.007 13.0859 158.446 13.2267 157.758 13.2267Z" fill="#00C0F1"/>
<path fill-rule="evenodd" clip-rule="evenodd" d="M44.9255 4.22858C47.3998 4.22858 49.4056 6.23436 49.4056 8.70861C49.4056 11.1829 47.3998 13.1887 44.9255 13.1887C42.4512 13.1887 40.4454 11.1829 40.4454 8.70861C40.4454 6.23436 42.4512 4.22858 44.9255 4.22858ZM45.0811 6.47076C46.2477 6.47076 47.1934 7.47268 47.1934 8.70861C47.1934 9.94459 46.2477 10.9465 45.0811 10.9465C43.9146 10.9465 42.9689 9.94459 42.9689 8.70861C42.9689 7.47268 43.9146 6.47076 45.0811 6.47076Z" fill="white"/>
<path d="M49.4169 4.35117H47.5707C47.3839 4.35117 47.2324 4.50263 47.2324 4.68946V12.7278C47.2324 12.9146 47.3839 13.066 47.5707 13.066H49.4169C49.6038 13.066 49.7552 12.9146 49.7552 12.7278V4.68946C49.7552 4.50263 49.6038 4.35117 49.4169 4.35117Z" fill="white"/>
<path fill-rule="evenodd" clip-rule="evenodd" d="M52.6647 4.35117H50.8183C50.6323 4.35117 50.4801 4.50334 50.4801 4.68942V12.7278C50.4801 12.9139 50.6323 13.066 50.8183 13.066H52.6647C52.8507 13.066 53.0029 12.9139 53.0029 12.7278V8.26399C53.1479 7.24782 53.9758 6.4689 54.9754 6.4689C55.1268 6.4689 55.2743 6.48681 55.4161 6.52069C55.5853 6.54853 55.7332 6.37845 55.7332 6.20326V4.67393C55.7332 4.52826 55.624 4.38045 55.5013 4.3681C55.3765 4.35697 55.2502 4.35117 55.1224 4.35117C54.3501 4.35117 53.6262 4.55828 53.0029 4.9197V4.68942C53.0029 4.50334 52.8507 4.35117 52.6647 4.35117Z" fill="white"/>
<path fill-rule="evenodd" clip-rule="evenodd" d="M60.3964 12.782V11.2307C60.3964 11.0744 60.2443 10.9465 60.0582 10.9465H59.8478C59.4657 10.9465 59.1561 10.6369 59.1561 10.2548V8.42335V6.47079H60.1111C60.2675 6.47079 60.3953 6.34295 60.3953 6.18662V4.63543C60.3953 4.47906 60.2675 4.35122 60.1111 4.35122H59.1561V2.47561C59.1561 2.28956 59.0039 2.13739 58.8178 2.13739H56.9715C56.7855 2.13739 56.6333 2.28956 56.6333 2.47561V4.35122H56.2898C56.1334 4.35122 56.0056 4.47906 56.0056 4.63543V6.18662C56.0056 6.34295 56.1334 6.47079 56.2898 6.47079H56.6333V10.7405C56.6333 12.0249 57.6745 13.0661 58.9589 13.0661H59.8478H60.0582C60.2443 13.0661 60.3964 12.9383 60.3964 12.782Z" fill="white"/>
<path fill-rule="evenodd" clip-rule="evenodd" d="M69.2173 7.83406V12.7279C69.2173 12.9138 69.0651 13.0661 68.8791 13.0661H67.0328C66.8467 13.0661 66.6945 12.9139 66.6945 12.7279V7.83406H66.6901C66.6278 7.06748 65.984 6.47076 65.2106 6.47076C64.4317 6.47076 63.7882 7.07091 63.7268 7.83406V12.7279C63.7268 12.9139 63.5747 13.0661 63.3886 13.0661H61.5422C61.3562 13.0661 61.204 12.9139 61.204 12.7279V4.68941C61.204 4.50336 61.3562 4.35119 61.5422 4.35119H63.3886C63.5747 4.35119 63.7268 4.50336 63.7268 4.68941V4.8218C64.2856 4.4469 64.9548 4.22858 65.6742 4.22858C65.7247 4.22858 65.9282 4.22858 66.0063 4.22858C67.7797 4.23812 69.2173 5.66614 69.2173 7.43954V7.83406Z" fill="white"/>
<path fill-rule="evenodd" clip-rule="evenodd" d="M81.4921 12.782V11.2307C81.4921 11.0744 81.3399 10.9465 81.1538 10.9465H80.9434C80.5613 10.9465 80.2517 10.6369 80.2517 10.2548V8.42335V6.47079H81.2067C81.3631 6.47079 81.4909 6.34295 81.4909 6.18662V4.63543C81.4909 4.47906 81.3631 4.35122 81.2067 4.35122H80.2517V2.47561C80.2517 2.28956 80.0995 2.13739 79.9134 2.13739H78.0671C77.881 2.13739 77.7289 2.28956 77.7289 2.47561V4.35122H77.3854C77.229 4.35122 77.1012 4.47906 77.1012 4.63543V6.18662C77.1012 6.34295 77.229 6.47079 77.3854 6.47079H77.7289V10.7405C77.7289 12.0249 78.77 13.0661 80.0545 13.0661H80.9434H81.1538C81.3399 13.0661 81.4921 12.9383 81.4921 12.782Z" fill="white"/>
<path fill-rule="evenodd" clip-rule="evenodd" d="M85.9594 4.22858C88.4336 4.22858 90.4394 6.23436 90.4394 8.70869C90.4394 11.1829 88.4336 13.1887 85.9594 13.1887C83.485 13.1887 81.4792 11.1829 81.4792 8.70869C81.4792 6.23436 83.485 4.22858 85.9594 4.22858ZM85.9591 6.47076C87.0399 6.47076 87.916 7.47268 87.916 8.70861C87.916 9.94459 87.0399 10.9465 85.9591 10.9465C84.8782 10.9465 84.0021 9.94459 84.0021 8.70861C84.0021 7.47268 84.8782 6.47076 85.9591 6.47076Z" fill="white"/>
<path fill-rule="evenodd" clip-rule="evenodd" d="M100.125 1.0712H101.971C102.157 1.0712 102.309 1.22345 102.309 1.40945V7.20046L104.54 4.57494C104.659 4.43791 104.834 4.3512 105.03 4.3512H106.915C107.114 4.3512 107.276 4.51264 107.276 4.7118C107.276 4.80358 107.241 4.88734 107.185 4.95104L103.992 8.70866L107.185 12.4662C107.241 12.5299 107.276 12.6137 107.276 12.7055C107.276 12.9046 107.114 13.0661 106.915 13.0661H105.03C104.834 13.0661 104.659 12.9793 104.54 12.8423L102.309 10.2169V12.7278C102.309 12.9138 102.157 13.0661 101.971 13.0661H100.125C99.9386 13.0661 99.7864 12.9138 99.7864 12.7278V1.40945C99.7864 1.22345 99.9386 1.0712 100.125 1.0712Z" fill="white"/>
<path d="M69.6101 10.752C70.023 12.3473 71.4928 13.1981 73.4732 13.1981C75.5182 13.1981 77.1356 12.1875 77.1356 10.3571C77.1356 8.96528 76.3176 8.14544 74.7931 7.78319L73.1385 7.38275C72.7481 7.30651 72.5622 7.17307 72.5622 6.90611C72.5622 6.52479 72.9154 6.33411 73.343 6.33411C73.8951 6.33411 74.1688 6.55465 74.3 6.83532L74.3004 6.8361C74.3478 6.94462 74.4561 7.02051 74.5821 7.02051H76.6851C76.8549 7.02051 76.9924 6.88294 76.9924 6.71317C76.9924 6.68405 76.9885 6.65574 76.9808 6.62899C76.5971 5.15829 75.3743 4.23682 73.2686 4.23682C71.298 4.23682 69.6991 5.3045 69.6991 7.13491C69.6991 8.64116 70.6101 9.32756 72.0044 9.6326L73.6405 9.97581C74.0495 10.0711 74.2911 10.1856 74.2911 10.5097C74.2911 10.9101 73.9193 11.1007 73.436 11.1007C72.9855 11.1007 72.6186 10.9008 72.4435 10.538C72.3953 10.4313 72.288 10.3571 72.1633 10.3571H69.9049C69.7351 10.3571 69.5975 10.4947 69.5975 10.6645C69.5975 10.6949 69.6019 10.7242 69.6101 10.752ZM72.4482 10.5489C72.4505 10.5545 72.4526 10.5601 72.4545 10.5658C72.4526 10.5601 72.4505 10.5545 72.4482 10.5489ZM76.9489 6.55524C76.9537 6.56326 76.9581 6.57147 76.9621 6.57992C76.9581 6.57151 76.9537 6.56322 76.9489 6.55524Z" fill="white"/>
<path fill-rule="evenodd" clip-rule="evenodd" d="M95.126 13.1887C97.1458 13.1887 98.853 11.8518 99.4121 10.0148L99.4121 10.0146C99.4252 9.97971 99.4324 9.94198 99.4324 9.90254C99.4324 9.72615 99.2894 9.58317 99.113 9.58317L99.1103 9.5832H97.1316L97.129 9.58317C97.0052 9.58317 96.8988 9.65746 96.8518 9.76388C96.5221 10.4678 95.8728 10.9465 95.1257 10.9465C94.0449 10.9465 93.1687 9.94459 93.1687 8.70865C93.1687 7.47267 94.0449 6.47076 95.1257 6.47076C95.8728 6.47076 96.5221 6.9495 96.8518 7.65339C96.8988 7.75981 97.0052 7.8341 97.129 7.8341L97.1316 7.83406H99.1103L99.113 7.8341C99.2894 7.8341 99.4324 7.69112 99.4324 7.51473C99.4324 7.47528 99.4252 7.43755 99.4121 7.40266L99.4121 7.40251C98.853 5.56544 97.1458 4.22858 95.126 4.22858C92.6517 4.22858 90.6459 6.23436 90.6459 8.70865C90.6459 11.1829 92.6517 13.1887 95.126 13.1887Z" fill="white"/>
<path fill-rule="evenodd" clip-rule="evenodd" d="M34.4529 10.9862L34.4535 10.9857C34.6752 10.1258 35.0898 9.40062 35.6218 8.91853C34.9046 8.95381 34.0985 8.73412 33.3337 8.28275C32.9353 8.51785 32.548 8.81577 32.1904 9.17334C31.6846 9.67915 31.2982 10.2443 31.0402 10.8165C31.6272 11.0386 32.3 11.1647 33.0152 11.1647C33.5208 11.1647 34.0051 11.1016 34.4529 10.9862Z" fill="#E52141"/>
<path fill-rule="evenodd" clip-rule="evenodd" d="M31.6217 13.8173L34.4536 10.9857C34.0058 11.1011 33.5215 11.1642 33.0159 11.1642C32.3007 11.1642 31.6279 11.038 31.0408 10.8159C30.5598 11.8825 30.5252 12.9738 30.9977 13.7526C31.1155 13.9881 31.4532 14.0169 31.6217 13.8173Z" fill="#E93F8F"/>
<path fill-rule="evenodd" clip-rule="evenodd" d="M35.6218 8.91853C36.0662 8.51579 36.5926 8.28275 37.1568 8.28275C36.7578 8.68175 36.2208 8.88905 35.6218 8.91853Z" fill="#B52728"/>
<path fill-rule="evenodd" clip-rule="evenodd" d="M39.8603 5.57923L39.8598 5.57978C38.9999 5.80141 38.2747 6.21607 37.7926 6.74808C37.8279 6.03088 37.6082 5.22478 37.1569 4.45999C37.392 4.06154 37.6899 3.67429 38.0475 3.31673C38.5533 2.81092 39.1184 2.42449 39.6906 2.16641C39.9127 2.75348 40.0389 3.4263 40.0389 4.14151C40.0389 4.64709 39.9758 5.13136 39.8603 5.57923Z" fill="#04A34D"/>
<path fill-rule="evenodd" clip-rule="evenodd" d="M42.6918 2.74724L39.8602 5.57922C39.9756 5.13135 40.0387 4.64707 40.0387 4.1415C40.0387 3.42628 39.9125 2.75347 39.6904 2.1664C40.757 1.68543 41.8483 1.65082 42.6272 2.12329C42.8625 2.24112 42.8914 2.57875 42.6918 2.74724Z" fill="#48BED8"/>
<path fill-rule="evenodd" clip-rule="evenodd" d="M34.4535 10.9861C34.6751 10.126 35.0899 9.40058 35.622 8.91841C36.2209 8.88886 36.7579 8.68167 37.1569 8.28275L34.4535 10.9861Z" fill="#D52427"/>
<path fill-rule="evenodd" clip-rule="evenodd" d="M39.8602 5.57941C39.0002 5.801 38.2747 6.21578 37.7925 6.74791C37.763 7.34685 37.5558 7.88381 37.1569 8.28277L39.8602 5.57941Z" fill="#038A41"/>
<path fill-rule="evenodd" clip-rule="evenodd" d="M37.7926 6.74774C37.3899 7.19214 37.1569 7.71851 37.1569 8.28273C37.5559 7.88373 37.7632 7.34673 37.7926 6.74774Z" fill="#20743B"/>
<path fill-rule="evenodd" clip-rule="evenodd" d="M28.8739 8.28287C28.8739 7.18898 29.7498 6.23737 31.0402 5.74924C31.2982 6.3214 31.6848 6.88647 32.1906 7.39224C32.5482 7.74985 32.9354 8.04772 33.3339 8.28287C32.9355 8.51798 32.5482 8.81593 32.1906 9.1735C31.6848 9.67931 31.2984 10.2444 31.0403 10.8167C29.7499 10.3285 28.8739 9.37692 28.8739 8.28287Z" fill="#ED7872"/>
<path fill-rule="evenodd" clip-rule="evenodd" d="M37.1568 8.28276C36.5927 8.28276 36.0666 8.04964 35.6222 7.64709C36.2211 7.67669 36.7579 7.88384 37.1568 8.28276Z" fill="#A62927"/>
<path fill-rule="evenodd" clip-rule="evenodd" d="M34.623 2.16571L34.6241 2.16622L34.6245 2.16641C34.6525 2.17907 34.6805 2.19199 34.7084 2.20523L34.712 2.20695C34.7383 2.21945 34.7645 2.23222 34.7908 2.24522L34.8007 2.25021C34.8266 2.26309 34.8524 2.27626 34.8782 2.28969L34.8829 2.2921C34.91 2.30628 34.9372 2.32072 34.9642 2.33548L34.9671 2.33708C34.9948 2.35219 35.0224 2.36757 35.05 2.38322L35.0508 2.38373L35.0515 2.38408C35.0795 2.40004 35.1075 2.41632 35.1354 2.43291C35.1625 2.44903 35.1896 2.46538 35.2166 2.48208L35.2228 2.48598C35.2489 2.50214 35.275 2.51865 35.301 2.53535L35.3057 2.53831C35.3316 2.55505 35.3576 2.57215 35.3834 2.58944L35.387 2.59177L35.3915 2.59485C35.4172 2.6121 35.4428 2.62954 35.4683 2.64734L35.4694 2.64808L35.4699 2.64843L35.4719 2.64983C35.4981 2.66813 35.5243 2.68667 35.5504 2.70551L35.5554 2.70917C35.5812 2.72778 35.6067 2.74663 35.6322 2.76579L35.637 2.76933C35.6895 2.80881 35.7417 2.84943 35.7934 2.89117L35.7965 2.89366L35.8012 2.89752C35.8263 2.91788 35.8514 2.93844 35.8764 2.95935L35.8767 2.95954C35.9015 2.98038 35.9262 3.00148 35.9509 3.02282L35.9561 3.02726L35.9596 3.03037C35.9843 3.05191 36.009 3.07367 36.0335 3.09571L36.0361 3.09801C36.0614 3.12083 36.0866 3.14388 36.1117 3.16724L36.1136 3.16903C36.1384 3.1922 36.1632 3.21568 36.1878 3.23939L36.1911 3.24263C36.2162 3.26684 36.2412 3.29138 36.266 3.31618C36.6236 3.67375 36.9215 4.06103 37.1566 4.45944C36.7051 5.22439 36.4856 6.03052 36.521 6.74777C36.0388 6.2156 35.3134 5.80091 34.4533 5.57923C34.3379 5.13121 34.2747 4.6467 34.2747 4.14097C34.2747 3.42575 34.4009 2.75278 34.623 2.16571Z" fill="#B6BA24"/>
<path fill-rule="evenodd" clip-rule="evenodd" d="M31.2994 2.42569C32.0729 1.65219 33.3651 1.59861 34.6228 2.16586C34.4006 2.75297 34.2745 3.4259 34.2745 4.14116C34.2745 4.64689 34.3377 5.13135 34.4531 5.57938C34.0052 5.46389 33.5206 5.40073 33.0149 5.40073C32.2996 5.40073 31.6268 5.52708 31.0397 5.74923C30.4723 4.49156 30.5258 3.19928 31.2994 2.42569Z" fill="#FDD347"/>
<path fill-rule="evenodd" clip-rule="evenodd" d="M37.1567 0C38.2506 0 39.2022 0.875838 39.6903 2.16621C39.1182 2.42429 38.5531 2.81091 38.0473 3.31668C37.6897 3.67429 37.3919 4.06153 37.1567 4.45998C36.9216 4.06157 36.6236 3.67429 36.2661 3.31672C35.7603 2.81091 35.1952 2.42449 34.6229 2.16641C35.1111 0.875916 36.0627 0 37.1567 0Z" fill="#B4CF55"/>
<path fill-rule="evenodd" clip-rule="evenodd" d="M34.4535 5.57947C35.3136 5.8011 36.039 6.2158 36.5211 6.748C36.5507 7.34691 36.7579 7.88383 37.1568 8.28275C36.7579 7.88379 36.2209 7.67664 35.622 7.64709C35.0899 7.16492 34.6752 6.43954 34.4535 5.57947Z" fill="#BB5829"/>
<path fill-rule="evenodd" clip-rule="evenodd" d="M37.1568 4.45969C37.6082 5.22459 37.828 6.0308 37.7926 6.74805C37.39 7.19241 37.1568 7.71862 37.1568 8.28272C37.1568 7.71854 36.9236 7.19237 36.521 6.74797C36.4857 6.03073 36.7053 5.22459 37.1568 4.45969Z" fill="#009843"/>
<path fill-rule="evenodd" clip-rule="evenodd" d="M34.4531 5.57935L34.4536 5.5799C34.6752 6.43977 35.0899 7.16495 35.6219 7.64705C34.9047 7.61177 34.0986 7.83146 33.3338 8.28283C32.9354 8.04772 32.5481 7.74981 32.1906 7.39224C31.6847 6.88643 31.2983 6.32132 31.0403 5.74908C31.6273 5.52698 32.3002 5.40082 33.0153 5.40082C33.5209 5.40082 34.0052 5.46394 34.4531 5.57935Z" fill="#EB5F25"/>
<path fill-rule="evenodd" clip-rule="evenodd" d="M33.3339 8.28275C34.0988 7.83134 34.905 7.61158 35.6222 7.64697C36.0666 8.04959 36.5928 8.28275 37.1569 8.28275C36.5927 8.28275 36.0666 8.51592 35.6221 8.91854C34.9049 8.95389 34.0988 8.7342 33.3339 8.28275Z" fill="#DF2125"/>
<path fill-rule="evenodd" clip-rule="evenodd" d="M36.521 6.74774C36.9237 7.19214 37.1568 7.71851 37.1568 8.28273C36.7578 7.88373 36.5505 7.34673 36.521 6.74774Z" fill="#52562C"/>
<path fill-rule="evenodd" clip-rule="evenodd" d="M106.476 1.07117C106.918 1.07117 107.276 1.44178 107.276 1.89892C107.276 2.35605 106.918 2.72666 106.476 2.72666C106.034 2.72666 105.676 2.35605 105.676 1.89892C105.676 1.44178 106.034 1.07117 106.476 1.07117ZM106.957 1.39435C106.834 1.26687 106.664 1.18798 106.476 1.18798C106.288 1.18798 106.117 1.26687 105.994 1.39435C105.87 1.52308 105.793 1.7015 105.793 1.89892C105.793 2.09633 105.87 2.27475 105.994 2.40348C106.117 2.53096 106.288 2.60985 106.476 2.60985C106.664 2.60985 106.834 2.53096 106.957 2.40348C107.082 2.27475 107.159 2.09633 107.159 1.89892C107.159 1.7015 107.082 1.52308 106.957 1.39435Z" fill="white"/>
<path d="M106.495 1.4823C106.559 1.4823 106.613 1.49188 106.658 1.51104C106.703 1.52996 106.738 1.55831 106.761 1.59561C106.785 1.63311 106.797 1.67921 106.797 1.73369C106.797 1.7757 106.789 1.81242 106.774 1.84408C106.759 1.87569 106.737 1.90225 106.709 1.92394C106.681 1.94543 106.648 1.96202 106.61 1.97393L106.565 1.99679H106.302L106.3 1.87842H106.496C106.53 1.87842 106.558 1.87258 106.581 1.86066C106.604 1.84875 106.621 1.83255 106.632 1.81203C106.643 1.79151 106.649 1.76807 106.649 1.74171C106.649 1.69891 106.637 1.66476 106.612 1.63953C106.588 1.61415 106.548 1.60145 106.495 1.60145H106.347V2.31558H106.199V1.4823H106.495ZM106.478 1.94193L106.633 1.94134L106.83 2.30814V2.31558H106.673L106.478 1.94193Z" fill="white"/>
</svg>
